<svg width="159" height="38" viewBox="0 0 159 38" fill="none" xmlns="http://www.w3.org/2000/svg">
<path fill-rule="evenodd" clip-rule="evenodd" d="M33.7176 0.499756V1.69312V25.4673V26.2935C33.7176 26.7524 33.534 26.936 33.077 26.936H29.5887C29.4364 26.936 29.3153 26.9043 29.2176 26.8342C29.1278 26.7671 29.0575 26.665 29.0028 26.5222C28.9793 26.4551 28.9598 26.3792 28.9442 26.2935V25.4673V11.8821V10.5969C27.2918 13.0754 25.8231 15.3701 24.3543 17.7568L23.5575 19.031L22.8348 20.1384C21.9911 21.429 21.1473 22.7244 20.409 24.0906C19.9481 24.9165 19.3075 25.6509 18.7567 26.3853H15.8192C15.702 26.3853 15.5926 26.3774 15.4833 26.3599C15.4012 26.3464 15.3231 26.3274 15.2489 26.3022L15.0731 26.231C14.995 26.1924 14.9168 26.1455 14.8426 26.0896C14.6981 25.9805 14.5653 25.8364 14.4403 25.6509C13.7997 24.6426 13.159 23.657 12.5184 22.6716L11.7333 21.469L10.5848 19.6843C9.29966 17.5732 7.83091 15.6455 6.72934 13.4426C6.17856 12.5247 5.53794 11.6985 4.80356 10.5969V26.936H0.764501C0.52622 26.936 0.362157 26.8875 0.248876 26.7649C0.139501 26.6497 0.0730948 26.4688 0.0301261 26.2017V25.5591V0.68335C0.487157 0.224365 0.948095 0.0407715 1.68247 0.0407715H2.69028C3.702 -0.0510254 4.43638 0.499756 4.80356 1.23413L4.99106 1.5686L5.23325 1.99243L5.61606 2.62061L5.82309 2.94775C6.16294 3.49341 6.50278 4.03931 6.82309 4.63037C7.10825 5.11743 7.44419 5.58667 7.78013 6.05371C8.202 6.64282 8.62388 7.22876 8.93247 7.84326C9.5145 8.89307 10.1356 9.86865 10.7723 10.8645C11.1356 11.4358 11.5028 12.0139 11.87 12.6165C12.1473 13.0693 12.4403 13.5222 12.7372 13.9802L13.5614 15.2751L13.909 15.8477L14.1668 16.2881C14.9911 17.5732 15.8192 18.7666 16.5536 20.1433C16.5965 20.229 16.6395 20.2949 16.6981 20.3591C16.7684 20.4326 16.8661 20.5044 17.0106 20.6023L17.8075 19.3792L18.077 18.9661L18.5731 18.2158C19.3075 17.1143 20.0418 15.9209 20.7762 14.7275C21.1434 14.0852 21.5536 13.4658 21.9676 12.8464C22.3817 12.2268 22.7958 11.6069 23.1629 10.9641C23.4403 10.459 23.7606 9.97681 24.0848 9.49487L24.5575 8.77759L24.8114 8.35791L24.9989 8.02686C25.7333 6.7417 26.6512 5.54834 27.3856 4.26318L29.5887 0.68335C29.7333 0.490723 29.9012 0.348633 30.0965 0.243652C30.2723 0.148682 30.4715 0.0844727 30.6903 0.0407715L31.0809 0.00927734L31.3622 0.000732422L31.784 0.00366211L32.5965 0.0322266L33.077 0.0407715C33.12 0.0852051 33.2059 0.172852 33.3153 0.261963C33.4325 0.356445 33.577 0.452393 33.7176 0.499756ZM64.1668 37.1282L64.6473 37.4922H66.2098C66.2997 37.4004 66.3934 37.2168 66.4833 37.2168C66.9442 37.2168 67.3114 37.0332 67.5848 36.666C67.8465 36.4045 68.1043 36.0603 68.3661 35.7119L68.4129 35.6562V33.9124C68.2333 33.019 67.6629 32.2996 66.9364 31.8809C66.1668 31.4392 65.2215 31.3323 64.3739 31.7092C63.9129 31.8928 63.3622 31.9846 63.0887 32.4436C62.8739 32.8022 62.659 33.2168 62.5262 33.6001C62.4911 33.7073 62.4637 33.812 62.4442 33.9124C62.2606 34.8303 62.3543 35.748 63.1786 36.3906L63.5262 36.6602L63.8973 36.9297L64.1668 37.1282ZM63.7293 33.5452L64.8309 32.4436C65.2918 32.4436 65.7489 32.4436 66.4833 32.5354C66.4833 32.5354 66.577 32.719 66.6668 32.8108C67.5848 33.637 67.7684 34.4631 67.034 35.6562C66.87 35.9297 66.6083 36.0403 66.3661 36.1431C66.202 36.2129 66.0458 36.2793 65.9325 36.3906C65.7489 36.5742 65.4754 36.3906 65.1981 36.2988C64.0067 35.748 63.7293 35.4727 63.7293 34.2795V33.5452ZM30.2254 37.4922C30.1356 37.4004 30.0418 37.3086 29.8583 37.2168C28.7567 36.9414 28.0223 36.2988 27.9325 35.1055V33.3616C28.2059 32.9944 28.5731 32.5354 28.9403 32.1682C29.0418 32.0681 29.1434 31.9766 29.245 31.8958C29.4442 31.7378 29.6512 31.6204 29.8817 31.5583C30.0731 31.5068 30.2762 31.4932 30.5028 31.5256C31.0418 31.5256 31.5848 31.5256 32.1239 31.7456C32.2254 31.7866 32.327 31.8352 32.4286 31.8928C33.4403 32.5354 34.2645 34.0042 33.8973 35.1055C33.7879 35.4021 33.6629 35.7288 33.4833 36.0308C33.2215 36.4766 32.8465 36.8691 32.245 37.0332C32.1395 37.0852 32.034 37.1665 31.9129 37.2607C31.8231 37.333 31.7215 37.4126 31.6043 37.4922H30.2254ZM30.0418 32.4436L29.7684 32.719C29.5067 32.9563 29.3075 33.1936 29.1668 33.4326C29.1161 33.5161 29.0731 33.5996 29.0418 33.6833L29.0106 33.7646C28.8075 34.3438 28.9442 34.9363 29.4012 35.5645C29.3075 35.9316 29.5848 35.9316 29.8583 36.0234L29.995 36.0928C30.3348 36.2681 30.7293 36.4714 31.0536 36.3906C31.3856 36.3906 31.7176 36.1636 31.9833 35.9844L32.0614 35.9316L32.1434 35.8735L32.2411 35.7893C32.327 35.7078 32.4051 35.613 32.4676 35.5149C32.5536 35.3767 32.6122 35.2314 32.6122 35.1055C32.6786 34.7783 32.6512 34.4048 32.6278 34.1174L32.6122 33.8206C32.3661 33.5725 32.1434 33.3245 31.9325 33.0906C31.7567 32.8921 31.5887 32.7041 31.4208 32.5354C31.0536 32.4436 30.5926 32.4436 30.0418 32.4436ZM7.55356 37.3086C7.55356 37.3086 7.64731 37.4004 7.64731 37.4922C8.19809 37.4922 8.65513 37.4922 9.02231 37.584C9.20591 37.5227 9.35044 37.4202 9.50669 37.304L9.75669 37.125C10.409 36.7244 10.9247 36.105 11.1825 35.4312C11.3973 34.8701 11.4364 34.271 11.2254 33.7288C10.952 32.9944 10.5848 32.1682 9.75669 31.801C8.93247 31.4338 8.0145 31.5256 7.18638 31.7092C6.80747 31.804 6.47544 32.0208 6.19419 32.3093C5.93247 32.5803 5.71372 32.9143 5.53403 33.2698C5.26059 33.7288 5.35044 35.0137 5.53403 35.5645C5.90122 36.5742 6.452 37.2168 7.55356 37.3086ZM8.28794 32.5354C9.66684 32.4436 10.2176 32.9944 10.3075 34.3711C10.1239 34.7383 10.1239 35.1973 9.94028 35.6562C9.66684 36.0234 9.3895 36.4824 8.83872 36.2988C8.71763 36.5815 8.56138 36.6333 8.40122 36.5947C8.28403 36.5667 8.16294 36.491 8.05356 36.4216C7.97153 36.3694 7.89731 36.3208 7.83091 36.2988C7.00278 36.1152 6.36216 35.0137 6.452 34.3711C6.47934 34.031 6.56919 33.7261 6.71372 33.4668C6.827 33.2583 6.97153 33.0796 7.14341 32.936C7.44809 32.6797 7.84263 32.5354 8.28794 32.5354ZM36.4715 37.4922C36.745 37.4922 37.1122 37.4922 37.4793 37.7676C37.702 36.9316 37.9598 36.1296 38.2293 35.2998L38.2997 35.0815L38.7645 33.637C39.1356 34.626 39.4637 35.5737 39.7801 36.4795L40.2333 37.7676H40.9676C41.5184 36.8496 41.7958 35.8398 42.0692 34.8301C42.3465 33.8206 42.8973 32.9026 42.9872 31.801C42.4051 31.801 42.1317 31.801 41.9754 31.9368C41.8348 32.0579 41.7879 32.2866 41.702 32.719C41.6122 32.9026 41.5184 33.178 41.4286 33.4534C41.1512 34.1877 40.8778 34.9219 40.6004 35.748L40.4208 35.157C40.2489 34.584 40.0887 34.0498 39.9012 33.531L39.7489 33.1243C39.6708 32.927 39.5887 32.7312 39.4989 32.5354C39.4442 32.4277 39.4872 32.2249 39.4559 32.0574C39.4364 31.9395 39.3778 31.8389 39.2254 31.801C38.9481 31.7092 38.6747 31.7092 38.3075 31.6174C38.245 31.9016 38.1668 32.1768 38.0809 32.4458L37.9168 32.9124L37.7879 33.2732L37.7645 33.3289C37.6395 33.666 37.5145 33.9985 37.4129 34.3333C37.3231 34.6184 37.2528 34.905 37.2059 35.1973C37.2059 35.1973 37.0223 35.2891 36.9286 35.2891C36.8387 35.1973 36.745 35.1055 36.745 35.0137L36.1942 33.3135L35.6434 31.6174H34.452C34.6356 32.1221 34.7958 32.6038 34.9559 33.0852L35.202 33.8213L35.4598 34.5547C35.827 35.5645 36.1043 36.4824 36.4715 37.4922ZM50.9715 37.4922C50.9715 37.4004 50.9715 37.3086 50.8817 37.3086C50.2567 37.1382 50.0184 37.0732 49.7762 36.8965C49.6278 36.7874 49.4754 36.6357 49.2293 36.3906C49.3114 36.2629 49.4208 36.155 49.5262 36.0483L49.5497 36.0234L49.5731 35.9985L49.7489 35.8149L49.784 35.7734L49.87 35.6562C50.0536 35.8406 50.2372 36.0044 50.4286 36.1375C50.5653 36.2327 50.7059 36.312 50.8543 36.3716C50.9403 36.4077 51.0301 36.4365 51.1278 36.4575L51.3153 36.4883C51.4403 36.5007 51.5692 36.4993 51.7059 36.4824C51.8973 36.4824 52.1122 36.4329 52.2997 36.3074C52.4754 36.1919 52.6278 36.0122 52.7176 35.748C52.6747 35.6704 52.6239 35.6021 52.5653 35.5415L52.4754 35.4548L52.3622 35.3689L52.1903 35.2712C51.9754 35.1633 51.7333 35.0955 51.4872 35.0273C51.2801 34.9697 51.0731 34.9121 50.8817 34.8301L50.4793 34.658C50.0301 34.4707 49.9286 34.4285 49.4129 33.9124L49.4364 33.7483L49.4442 33.429C49.4403 33.0881 49.4403 32.72 49.6864 32.3518C49.87 32.1682 49.9637 31.9846 50.2372 31.801C50.8817 31.4338 51.6161 31.6174 52.2567 31.6174C52.7176 31.6174 53.1747 31.8928 53.5418 32.26C53.5067 32.3721 53.4559 32.4841 53.3934 32.5962C53.327 32.7153 53.2528 32.8345 53.1747 32.9536L53.0848 33.0862C53.0379 33.0862 52.9676 33.0627 52.8973 33.0396L52.8075 33.0112L52.7176 32.9944C52.2567 32.5354 51.6161 32.5354 50.9715 32.6272C50.7879 32.6272 50.5145 32.9026 50.2372 33.0862L50.495 33.3633L50.5184 33.3945L50.702 33.6025L50.8075 33.7026L50.9208 33.79C51.0809 33.8967 51.2645 33.9495 51.5223 33.9124C51.5731 33.9124 51.6512 33.9661 51.7215 34.0156C51.784 34.0574 51.8465 34.0959 51.8895 34.0959C53.3583 34.5547 53.7254 34.6465 53.6356 36.5742C53.452 36.666 53.1747 36.8496 52.9012 37.125C52.8231 37.2407 52.6825 37.2268 52.5379 37.2126C52.3348 37.1931 52.1278 37.1726 52.0731 37.4922H50.9715ZM80.0692 37.0332C80.3465 37.125 80.5301 37.3086 80.7137 37.4922H82.1825C82.5497 37.125 83.0067 37.0332 83.4676 36.7578C83.7411 36.5742 83.7411 36.3906 83.6512 36.207C83.6512 36.0645 83.4833 35.9219 83.3661 35.8223L83.284 35.748L83.2489 35.7627L82.6708 35.9883C82.4286 36.0789 82.1981 36.1567 81.9989 36.207C81.5692 36.2993 81.2137 36.3193 80.9168 36.2712C80.7567 36.2456 80.6161 36.2007 80.4911 36.137C80.1512 35.9619 79.9286 35.645 79.7958 35.1973C79.702 34.7383 79.702 34.0959 79.702 33.7288C80.1629 33.2698 80.4364 32.9026 80.8036 32.5354C81.8153 32.5354 81.8153 32.5354 82.6395 32.9026C82.8895 33.0281 83.0262 33.0964 83.1473 33.0728C83.2879 33.0444 83.4012 32.885 83.6512 32.5354C82.8231 31.6174 82.7333 31.5256 81.7215 31.5256H80.9872C80.2528 31.6174 79.4286 31.8928 79.0614 32.5354C78.0497 34.0959 78.0497 35.8398 80.0692 37.0332ZM70.7333 14.541L70.5418 14.3533L70.3817 14.1855C70.2997 14.0977 70.2215 14.0044 70.1551 13.9014C71.0731 13.4424 71.8075 12.8 71.8075 11.9739C71.8075 11.7954 71.8231 11.6226 71.8465 11.4524L71.8856 11.2256L71.9442 10.9182C72.0145 10.574 72.0848 10.2297 72.0848 9.86255C71.9911 8.4856 72.0848 7.01709 72.0848 5.54834C71.9911 4.26318 71.7176 3.06982 70.7059 2.2439C70.5223 2.1521 70.4325 1.96851 70.3387 1.87671C69.6043 0.866943 68.4129 0.591553 67.4012 0.499756C66.0262 0.316162 64.6473 0.132568 63.1786 0.132568H47.2997H46.3817C46.0575 0.132568 45.7684 0.322021 45.5653 0.5896C45.5145 0.657715 45.4676 0.730713 45.4286 0.806885C45.3543 0.942627 45.3036 1.08838 45.2801 1.23413V1.87671V25.4673C45.2801 26.0181 45.37 26.4771 45.6473 26.936H50.1434C50.2372 26.3853 50.327 25.8345 50.327 25.3755V17.3896C50.4208 17.1143 50.4208 16.7471 50.4208 16.4717H65.0145C65.4793 16.4717 65.8739 16.5186 66.2176 16.6597C66.5575 16.7979 66.8543 17.0264 67.1278 17.3896V26.1099C67.1278 26.4802 67.1551 26.6982 67.3231 26.8164C67.4442 26.9031 67.6395 26.936 67.952 26.936H71.0731C71.9911 26.936 72.0848 26.8442 72.0848 26.0181L72.0887 25.0278L72.1043 23.3428C72.1239 21.5374 72.1434 19.7185 72.0848 17.9404C72.0848 17.1143 71.9012 16.1963 71.4403 15.3701C71.2411 15.019 70.9833 14.7776 70.7333 14.541ZM50.5106 12.1575V4.63037C52.9911 4.63037 55.3778 4.63037 57.8543 4.53857H65.3817C65.8426 4.53857 66.2098 4.72217 66.577 4.90576C66.9442 5.08936 67.2176 5.45654 67.2176 6.00732V10.8723C67.0262 11.0154 66.8622 11.1584 66.6825 11.3271L66.1161 11.8821C64.409 12.0718 62.6551 12.1416 60.8739 12.1592C60.2176 12.1658 59.5614 12.1653 58.9012 12.1609L56.7137 12.1377L54.2098 12.1128C52.9793 12.1069 51.745 12.115 50.5106 12.1575ZM156.905 0.499756V4.44678C156.589 4.84082 156.069 4.82886 155.581 4.81763L155.343 4.81396H139.186C138.268 4.81396 137.628 5.18115 137.261 6.09912C137.21 6.19629 137.186 6.31934 137.175 6.45435L137.167 6.8335C137.167 7.01392 137.179 7.2041 137.19 7.39771C137.202 7.67212 137.214 7.95337 137.202 8.22314C137.198 8.34399 137.186 8.46265 137.167 8.57739C137.077 9.21997 137.35 9.86255 137.718 10.2297C138.179 10.5969 138.729 10.8723 139.464 10.8723H152.589C152.722 10.8723 152.96 10.9099 153.241 10.968C153.948 11.1125 154.948 11.3838 155.343 11.5149C156.905 12.2493 158.007 13.626 158.557 15.0947C158.737 15.5537 158.831 16.1045 158.831 16.5635V21.0613C158.831 22.53 158.28 23.8152 157.272 24.9165C156.972 25.2512 156.643 25.5493 156.288 25.8064C155.671 26.2544 154.968 26.5774 154.151 26.7524C153.874 26.8442 153.507 26.936 153.233 26.936H134.323H133.956C133.811 26.936 133.694 26.9177 133.6 26.8784C133.542 26.853 133.491 26.8188 133.452 26.7749L133.39 26.6882L133.35 26.594C133.323 26.511 133.311 26.4114 133.311 26.2935V22.8054C133.772 22.4382 134.323 22.4382 134.78 22.4382H152.682L153.417 21.7039C153.874 21.2449 154.151 20.7859 154.057 20.1433V17.5732C154.057 17.2979 154.151 16.9307 153.874 16.6553L153.686 16.4387L153.495 16.2375L153.261 16.0254C153.081 15.8699 152.89 15.7214 152.682 15.5537C152.499 15.3701 152.132 15.4619 151.854 15.4619H139.097C137.628 15.4619 135.698 14.8193 134.507 13.8096C133.932 13.2837 133.46 12.6831 133.112 12.0078C132.792 11.3867 132.577 10.7021 132.487 9.95435C132.46 9.70435 132.421 9.44751 132.382 9.18774C132.28 8.49341 132.171 7.77661 132.304 7.10889C132.487 5.91553 132.487 4.63037 133.222 3.52881L133.448 3.19092C133.565 3.03149 133.698 2.86646 133.847 2.69995C134.034 2.4856 134.241 2.26904 134.46 2.05884C135.315 1.24316 136.366 0.522461 137.167 0.407959C137.901 0.316162 138.636 0.132568 139.464 0.132568H155.71L155.878 0.144775L156.065 0.184082C156.257 0.234131 156.46 0.316162 156.679 0.40625L156.905 0.499756ZM126.612 11.0562H109.444V7.10889C109.444 6.92529 109.538 6.6499 109.628 6.46631C109.995 5.54858 110.729 5.0896 111.741 5.0896H129.733L130.374 4.44702V1.60132C130.374 0.683594 130.1 0.408203 129.182 0.316406H128.448L127.054 0.311035L125.425 0.295898C124.347 0.285156 123.268 0.274414 122.19 0.275879C121.245 0.2771 120.304 0.287842 119.358 0.316406C116.237 0.316406 113.21 0.0410156 110.179 0.5C109.354 0.591797 108.526 0.95874 107.792 1.32593C107.151 1.60132 106.69 2.0603 106.233 2.61108C105.858 3.07056 105.518 3.56812 105.261 4.10376C104.952 4.74512 104.765 5.44067 104.765 6.19092C104.765 10.9644 104.854 15.8293 104.765 20.6025C104.765 22.071 105.132 23.448 106.05 24.6414C107.151 26.0183 108.71 27.0281 110.64 27.0281H128.999H130.284C130.557 25.4675 130.741 23.9988 130.19 22.53H111.925C111.218 22.53 110.585 22.2893 110.136 21.8818C109.706 21.4937 109.444 20.9541 109.444 20.3271V15.554H110.729H125.511C126.151 15.554 126.612 15.3704 126.979 14.8196C126.796 13.6262 127.253 12.2493 126.612 11.0562ZM103.202 25.9263V26.2017C103.112 26.7524 103.018 26.936 102.468 26.936H98.4286H97.5106C96.6864 26.1099 95.8583 25.3755 95.1239 24.4575C94.4325 23.6287 93.6747 22.8691 92.9129 22.1094C92.159 21.3547 91.4051 20.5996 90.7176 19.7761L90.1278 19.1272L89.5809 18.5479C89.2098 18.1536 88.827 17.7478 88.4247 17.2979C87.9872 17.8008 87.5262 18.2546 87.0692 18.7C86.2723 19.4736 85.4833 20.2209 84.8426 21.1531C84.5692 21.5203 84.1083 21.8875 83.8348 22.2546C83.2528 22.873 82.6551 23.4912 82.0575 24.1152C81.1434 25.0662 80.2215 26.0303 79.3348 27.0278H74.3778C74.0106 27.0278 73.7372 26.936 73.4598 26.5688C73.6434 26.2017 73.9208 25.8345 74.1942 25.4673C74.8075 24.8213 75.4442 24.1753 76.0848 23.5259C77.3543 22.2375 78.6356 20.9353 79.7958 19.5925C80.9872 18.2158 82.3661 16.9307 83.6512 15.5537L83.9247 15.2612L84.159 14.9785C84.5067 14.5503 84.8348 14.0918 85.2098 13.7178C84.577 12.7695 83.7645 11.9727 82.9442 11.1704L82.9208 11.1506C82.3192 10.5618 81.7137 9.96924 81.1708 9.31177C80.62 8.66943 80.0262 8.073 79.4286 7.47656C78.8309 6.87988 78.2333 6.28296 77.6825 5.64014C76.5809 4.26318 75.2958 3.16162 74.1043 1.87671C73.9364 1.71021 73.8036 1.51025 73.6668 1.29712L73.6434 1.26855C73.5575 1.13794 73.4715 1.00244 73.37 0.866943C73.7372 0.407959 74.1942 0.132568 74.8387 0.132568H78.2333C78.8778 0.132568 79.3348 0.316162 79.702 0.775146C79.9637 1.06689 80.2489 1.33569 80.5301 1.60229L80.5536 1.62793C81.0575 2.10669 81.5536 2.57861 81.9051 3.16162C82.0458 3.37085 82.2254 3.56665 82.4168 3.75439L82.8817 4.17993L83.1903 4.45605L83.3739 4.63037L88.3309 9.86255C88.5301 9.77661 88.7059 9.6731 88.8622 9.55713C89.202 9.30103 89.4559 8.98511 89.7098 8.66919C90.12 8.02539 90.6395 7.53076 91.1551 7.04248C91.4481 6.76538 91.7372 6.49023 92.0028 6.19092C93.6551 4.44678 95.3075 2.70288 96.9598 1.05054C97.5106 0.499756 98.1551 0.132568 98.9793 0.224365C99.8973 0.316162 100.815 0.224365 101.733 0.224365C102.194 0.224365 102.651 0.316162 103.112 0.407959V1.50952C101.733 2.97803 100.081 4.44678 98.7059 6.00732C98.2059 6.59106 97.6473 7.13696 97.0848 7.68799L96.4481 8.31665L95.9247 8.854C95.6473 9.14868 95.3778 9.45239 95.1239 9.77075C94.1161 10.9641 92.9208 12.1575 91.8192 13.259C91.452 13.626 91.452 13.9014 91.8192 14.2686L93.2879 15.7957L94.3504 16.8882L95.6825 18.2585L96.87 19.5007C98.1981 20.7754 99.4637 22.0835 100.722 23.3845L100.804 23.4746C101.6 24.2986 102.397 25.1191 103.202 25.9263ZM41.9793 17.665V7.38428C41.5184 6.8335 41.0614 6.8335 40.5106 7.01709H38.6747C37.5731 7.01709 37.2059 7.38428 37.2059 8.4856V8.76099V25.6509C37.2059 26.1099 37.2059 26.6606 37.5731 27.1196H41.1512C41.3895 27.1196 41.5653 27.0947 41.6903 27.0312C41.9051 26.9224 41.9793 26.6997 41.9793 26.2935V25.6509V17.665ZM41.9793 0.499756V3.89624C41.9793 4.271 41.9168 4.48975 41.7372 4.60693L41.6395 4.65649L41.5536 4.68384C41.4442 4.71094 41.3114 4.72241 41.1512 4.72241H37.8465L37.6786 4.5376L37.5418 4.35669C37.3075 4.0144 37.2059 3.65894 37.2059 3.25366V1.50952C37.2059 1.26782 37.2645 1.05591 37.37 0.880371C37.4442 0.761475 37.5379 0.659424 37.6473 0.575928C37.7489 0.499268 37.8622 0.438477 37.9911 0.39502C38.1434 0.343262 38.3114 0.316162 38.4911 0.316162H40.9676C41.0067 0.289795 41.0497 0.270996 41.0926 0.258789C41.1434 0.245117 41.1942 0.239502 41.245 0.240479L41.3856 0.25708L41.4911 0.283936L41.5965 0.321777L41.8075 0.414307L41.9793 0.499756ZM25.3622 31.5256V35.1973C25.077 34.8628 24.8153 34.5283 24.5536 34.1938C24.3114 33.8857 24.0692 33.5779 23.8036 33.2698C23.6161 32.9568 23.3856 32.6863 23.1395 32.4006L22.7918 31.9846C22.6981 31.8689 22.6004 31.7708 22.495 31.6929C22.3583 31.5903 22.2098 31.5232 22.0536 31.4985C21.8583 31.4678 21.6473 31.5029 21.4168 31.6174V37.2168H22.4247V33.3616C23.3426 34.5547 24.1708 35.5645 24.9051 36.5742C25.2723 37.0332 25.7293 37.4004 26.3739 37.125V31.5256H25.3622ZM78.0497 37.125H76.8583L76.7997 36.9194L76.7176 36.6904L76.5809 36.2891L76.5301 36.0928L76.4911 35.9316H73.827L73.4676 36.6255L73.1864 37.125H72.0848L72.6004 35.9246C73.2567 34.4246 73.9286 32.958 74.6551 31.4338H75.6629C75.9911 32.2937 76.3192 33.1353 76.6629 33.9749L77.034 34.8669L77.3622 35.6223C77.5809 36.1191 77.8075 36.6189 78.0497 37.125ZM75.0223 32.8108C74.6551 33.637 74.3778 34.1875 74.1043 34.9219H75.8465C75.7411 34.5471 75.6004 34.1724 75.4325 33.761L75.0223 32.8108ZM16.3661 31.5256H15.4481C15.4481 32.6343 15.4481 33.7126 15.4637 34.8306C15.4754 35.6562 15.4989 36.5034 15.5379 37.4004C15.659 37.3604 15.7958 37.3376 15.9364 37.325C16.12 37.3086 16.3036 37.3086 16.4559 37.3086V35.748C16.5379 35.6257 16.6395 35.5215 16.7567 35.4192L16.952 35.2595L17.1395 35.1211L17.284 35.0137C17.5379 35.3403 17.7958 35.6526 18.0418 35.9561L18.159 36.0991L18.4989 36.5193C18.7176 36.7852 18.9247 37.0469 19.12 37.3086H20.4051C20.3075 37.1467 20.202 36.9915 20.0926 36.8413L19.7918 36.4424L19.3934 35.9539L19.3583 35.9092C18.8817 35.3335 18.4208 34.7739 18.1083 34.0959L19.077 32.9998L20.1278 31.801C20.1864 31.801 20.1708 31.7661 20.1512 31.7178L20.1395 31.6909L20.1278 31.6174H18.9364C18.1083 32.4436 17.284 33.3616 16.3661 34.4629V31.5256ZM61.8973 31.5256V32.4436H60.3348L60.245 32.5354V32.6272V37.125H59.0497C59.0497 37.0332 58.9598 36.9414 58.9598 36.8496V32.4436H57.2137C57.2137 32.0764 57.2137 31.801 57.1239 31.4338C58.7762 31.5256 60.245 31.5256 61.8973 31.5256ZM0.0301261 32.5354H1.95591V37.2168C2.32309 37.125 2.59653 37.125 2.96372 37.125V32.4436H4.61606V31.5256H0.764501C0.0301261 31.5256 -0.0636239 31.7092 0.0301261 32.5354ZM89.159 32.4436H87.5067V37.125H86.5887V32.5354H84.5692C84.5692 32.0903 84.5887 31.8396 84.6864 31.6992C84.7879 31.55 84.9715 31.5256 85.3036 31.5256C86.0887 31.4651 86.9129 31.4844 87.7801 31.5044C88.2293 31.5149 88.6903 31.5256 89.159 31.5256V32.4436ZM47.8504 31.5256H46.9325V37.3086C47.2997 37.2168 47.5731 37.2168 47.8504 37.2168V31.5256Z" fill="#363434"/>
</svg>
