<svg width="221" height="36" viewBox="0 0 221 36" fill="none" xmlns="http://www.w3.org/2000/svg">
<path d="M51.2792 11.1911C47.6676 11.1911 46.4976 14.3958 46.4976 18.6687V27.8758H42.7334V7.93555H46.4976V10.4789C46.4976 10.7333 46.8537 10.835 47.0063 10.5807C47.9728 8.74943 49.448 7.93555 51.737 7.93555H55.2469V11.1911H51.2792Z" fill="#363434"/>
<path d="M38.4566 15.2098V27.8759H34.6924V25.6377C34.6924 25.3834 34.3872 25.2816 34.2346 25.4851C33.0646 27.1129 30.8773 28.1811 28.283 28.1811C24.2644 28.1811 21.6193 25.7394 21.6193 22.2295C21.6193 18.4653 24.6205 16.1254 29.2495 16.1254H33.319C34.2346 16.1254 34.6415 15.6676 34.6415 14.9554C34.6415 12.5646 32.912 10.9368 29.8599 10.9368C27.1131 10.9368 25.1292 12.6664 25.0275 14.6502H21.5176C21.8737 10.7842 25.3835 7.88477 30.0125 7.88477C35.0993 7.88477 38.4566 10.8351 38.4566 15.2098ZM34.6415 19.2283V18.7705H29.5547C26.9605 18.7705 25.2818 20.0931 25.2818 22.1787C25.2818 23.959 26.757 25.1799 28.9443 25.1799C32.6068 25.1799 34.6415 22.8908 34.6415 19.2283Z" fill="#363434"/>
<path d="M76.6043 27.1636L73.654 35.8621H69.9915L72.6366 28.0793L65.2607 7.93555H69.1267L74.417 22.9925L79.7072 7.93555H83.6241L76.6043 27.1636Z" fill="#363434"/>
<path d="M61.859 0H58.0947V27.8757H61.859V0Z" fill="#363434"/>
<path d="M18.7194 18.7705C18.7194 18.5162 18.7194 18.2618 18.7194 18.0075C18.7194 17.3462 18.6685 16.7358 18.5668 16.1254C17.8547 11.4455 14.4974 7.88477 9.30884 7.88477C3.56076 7.88477 0 12.412 0 18.0075C0 23.603 4.22204 28.1302 9.35971 28.1302C14.65 28.1302 17.4477 25.3325 18.3633 21.4157H14.8026C13.887 24.0099 11.8014 24.8238 9.35971 24.8238C7.07065 24.8238 5.0868 23.6538 4.12031 21.4157C3.76423 20.6526 3.56076 19.7879 3.50989 18.7705H15.2604H18.7194ZM3.61163 16.1254C4.12031 12.8698 6.00242 11.2421 9.41058 11.2421C12.2083 11.2421 14.5991 12.412 15.1587 16.1254H3.61163Z" fill="#363434"/>
<path d="M90.752 27.5713V22.8406C90.752 22.688 90.8028 22.5354 90.9046 22.4845C91.0063 22.3828 91.108 22.3828 91.2606 22.3828C91.4641 22.3828 91.6167 22.4337 91.6676 22.4845C91.7693 22.5354 91.871 22.688 92.0237 22.8915L92.9393 24.5701L93.8549 22.8915C93.9566 22.688 94.1092 22.5354 94.211 22.4845C94.3127 22.4337 94.4653 22.3828 94.6688 22.3828C94.8214 22.3828 94.9231 22.4337 95.0249 22.4845C95.1266 22.5863 95.1775 22.688 95.1775 22.8406V27.5713C95.1775 27.6731 95.1266 27.724 95.0249 27.7748C94.9231 27.8257 94.8214 27.8766 94.6688 27.8766C94.5162 27.8766 94.4144 27.8257 94.3127 27.7748C94.211 27.724 94.1601 27.6222 94.1601 27.5713V24.3158L93.2954 25.8927C93.2445 26.0453 93.0919 26.0962 92.9393 26.0962C92.7867 26.0962 92.6849 26.0453 92.6341 25.8927L91.7693 24.2649V27.5713C91.7693 27.6731 91.7185 27.724 91.6167 27.7748C91.515 27.8257 91.4132 27.8766 91.2606 27.8766C91.108 27.8766 91.0063 27.8257 90.9046 27.7748C90.8028 27.724 90.752 27.6731 90.752 27.5713Z" fill="#363434"/>
<path d="M94.6179 27.9266C94.4653 27.9266 94.3636 27.8758 94.2618 27.8249C94.1601 27.774 94.1092 27.6723 94.1092 27.5705V24.4167L93.2954 25.8919C93.2445 26.0445 93.0919 26.0954 92.9393 26.0954C92.7867 26.0954 92.6849 26.0445 92.5832 25.8919L91.7693 24.3659V27.5705C91.7693 27.6723 91.7185 27.774 91.6167 27.8249C91.515 27.8758 91.4132 27.9266 91.2606 27.9266C91.108 27.9266 91.0063 27.8758 90.9046 27.8249C90.8028 27.774 90.752 27.6723 90.752 27.5705V22.8398C90.752 22.6872 90.8028 22.5346 90.9046 22.4329C91.0063 22.3311 91.108 22.2803 91.2606 22.2803C91.4641 22.2803 91.6167 22.3311 91.7184 22.382C91.8202 22.4329 91.9219 22.5855 92.0745 22.8398L92.9901 24.5185L93.9058 22.8398C94.0075 22.6364 94.1601 22.4837 94.2618 22.382C94.3636 22.3311 94.5162 22.2803 94.7197 22.2803C94.8723 22.2803 94.974 22.3311 95.0757 22.4329C95.1775 22.5346 95.2283 22.6364 95.2283 22.8398V27.5705C95.2283 27.6723 95.1775 27.774 95.0757 27.8249C94.8723 27.8758 94.7705 27.9266 94.6179 27.9266ZM94.1601 24.2133V27.5705C94.1601 27.6723 94.211 27.7231 94.3127 27.774C94.4144 27.8249 94.5162 27.8758 94.6688 27.8758C94.7705 27.8758 94.9231 27.8249 95.0249 27.774C95.1266 27.7231 95.1775 27.6723 95.1775 27.5705V22.8398C95.1775 22.6872 95.1266 22.5855 95.0249 22.4837C94.9231 22.382 94.8214 22.382 94.6688 22.382C94.4653 22.382 94.3636 22.4329 94.2618 22.4837C94.1601 22.5346 94.0584 22.6872 93.9566 22.8907L92.9901 24.6202L92.0237 22.8907C91.9219 22.6872 91.8202 22.5346 91.7184 22.4837C91.6167 22.4329 91.4641 22.382 91.3115 22.382C91.1589 22.382 91.0572 22.4329 90.9554 22.4837C90.8537 22.5346 90.8028 22.6872 90.8028 22.8398V27.5705C90.8028 27.6723 90.8537 27.7231 90.9554 27.774C91.0572 27.8249 91.1589 27.8758 91.3115 27.8758C91.4132 27.8758 91.5658 27.8249 91.6676 27.774C91.7693 27.7231 91.8202 27.6723 91.8202 27.5705V24.1624L92.7358 25.8919C92.7867 25.9936 92.8884 26.0954 93.041 26.0954C93.1936 26.0954 93.2954 26.0445 93.3462 25.8919L94.1601 24.2133Z" fill="#363434"/>
<path d="M101.742 27.5705V22.6363C101.742 22.5345 101.793 22.4837 101.895 22.4328C101.997 22.3819 102.098 22.3311 102.2 22.3311H104.896C104.998 22.3311 105.099 22.3819 105.15 22.4837C105.201 22.5854 105.252 22.6871 105.252 22.7889C105.252 22.8906 105.201 22.9923 105.15 23.0941C105.099 23.1958 104.998 23.2467 104.947 23.2467H102.76V24.7727H103.93C104.031 24.7727 104.082 24.8236 104.133 24.8745C104.184 24.9762 104.235 25.0271 104.235 25.1288C104.235 25.2305 104.184 25.3323 104.133 25.3831C104.082 25.434 103.98 25.4849 103.879 25.4849H102.76V27.0109H104.896C104.998 27.0109 105.049 27.0618 105.099 27.1635C105.15 27.2652 105.201 27.367 105.201 27.4687C105.201 27.5705 105.15 27.6722 105.099 27.7739C105.049 27.8757 104.947 27.9265 104.845 27.9265H102.149C102.047 27.9265 101.946 27.8757 101.844 27.8248C101.793 27.7231 101.742 27.6722 101.742 27.5705Z" fill="#363434"/>
<path d="M104.896 27.9266H102.2C102.098 27.9266 101.997 27.8758 101.895 27.8249C101.793 27.774 101.742 27.6723 101.742 27.5705V22.6363C101.742 22.5346 101.793 22.4329 101.895 22.382C101.997 22.3311 102.098 22.2803 102.2 22.2803H104.896C104.998 22.2803 105.099 22.3311 105.15 22.4329C105.201 22.5346 105.252 22.6364 105.252 22.7381C105.252 22.8398 105.201 22.9924 105.15 23.0433C105.099 23.145 104.998 23.1959 104.896 23.1959H102.76V24.6711H103.879C103.98 24.6711 104.082 24.7219 104.133 24.8237C104.184 24.9254 104.235 25.0271 104.235 25.1289C104.235 25.2306 104.184 25.3324 104.133 25.3832C104.082 25.485 103.98 25.5358 103.879 25.5358H102.76V27.011H104.896C104.998 27.011 105.099 27.0619 105.15 27.1636C105.201 27.2653 105.252 27.3671 105.252 27.4688C105.252 27.5705 105.201 27.6723 105.15 27.774C105.099 27.8758 104.998 27.9266 104.896 27.9266ZM102.2 22.382C102.098 22.382 101.997 22.4329 101.895 22.4837C101.793 22.5346 101.793 22.5855 101.793 22.6872V27.6214C101.793 27.7231 101.844 27.774 101.895 27.8249C101.997 27.8758 102.098 27.9266 102.2 27.9266H104.896C104.998 27.9266 105.049 27.8758 105.099 27.8249C105.15 27.7231 105.15 27.6723 105.15 27.5197C105.15 27.4179 105.099 27.3162 105.049 27.2145C104.998 27.1127 104.947 27.1127 104.845 27.1127H102.658V25.5358H103.828C103.93 25.5358 103.98 25.485 104.031 25.4341C104.082 25.3832 104.082 25.2815 104.082 25.1797C104.082 25.078 104.031 24.9763 103.98 24.9254C103.93 24.8745 103.879 24.8237 103.777 24.8237H102.607V23.2468H104.794C104.896 23.2468 104.947 23.1959 104.998 23.145C105.049 23.0433 105.099 22.9416 105.099 22.8398C105.099 22.7381 105.049 22.6363 105.049 22.5346C104.998 22.4329 104.947 22.4329 104.845 22.4329H102.2V22.382Z" fill="#363434"/>
<path d="M111.603 27.5705V22.6363C111.603 22.5345 111.653 22.4837 111.704 22.4328C111.806 22.3819 111.908 22.3311 112.009 22.3311H113.332C113.892 22.3311 114.299 22.4837 114.604 22.738C114.909 22.9923 115.112 23.4501 115.112 24.0606V26.1462C115.112 26.7566 114.96 27.1635 114.604 27.4687C114.299 27.7231 113.841 27.8757 113.332 27.8757H112.009C111.908 27.8757 111.755 27.8248 111.704 27.7739C111.653 27.7231 111.603 27.6722 111.603 27.5705ZM112.569 27.0109H113.332C113.841 27.0109 114.146 26.7057 114.146 26.1462V24.0606C114.146 23.501 113.892 23.1958 113.332 23.1958H112.569V27.0109Z" fill="#363434"/>
<path d="M113.383 27.9266H112.06C111.908 27.9266 111.806 27.8758 111.755 27.8249C111.653 27.774 111.603 27.6723 111.603 27.5705V22.6363C111.603 22.5346 111.653 22.4837 111.755 22.382C111.857 22.3311 111.959 22.2803 112.06 22.2803H113.383C113.942 22.2803 114.349 22.4329 114.705 22.6872C115.011 22.9924 115.214 23.3994 115.214 24.0098V26.0954C115.214 26.7058 115.062 27.1636 114.705 27.4179C114.349 27.774 113.892 27.9266 113.383 27.9266ZM112.009 22.382C111.908 22.382 111.806 22.4329 111.704 22.4837C111.653 22.5346 111.603 22.5855 111.603 22.6872V27.6214C111.603 27.6723 111.653 27.774 111.704 27.8249C111.755 27.8758 111.857 27.9266 112.009 27.9266H113.332C113.841 27.9266 114.299 27.774 114.604 27.5197C114.909 27.2653 115.062 26.8075 115.062 26.1971V24.1115C115.062 23.5011 114.909 23.0942 114.604 22.789C114.299 22.5346 113.841 22.382 113.332 22.382H112.009ZM113.383 27.0619H112.569V23.1959H113.383C113.942 23.1959 114.197 23.5011 114.197 24.1115V26.1971C114.197 26.7567 113.942 27.0619 113.383 27.0619ZM112.62 27.011H113.383C113.892 27.011 114.146 26.7567 114.146 26.1462V24.0607C114.146 23.5011 113.892 23.1959 113.383 23.1959H112.62V27.011Z" fill="#363434"/>
<path d="M121.733 27.5713V22.6372C121.733 22.5354 121.784 22.4845 121.886 22.4337C121.988 22.3828 122.089 22.3828 122.242 22.3828C122.395 22.3828 122.496 22.3828 122.598 22.4337C122.7 22.4845 122.751 22.5354 122.751 22.6372V27.5713C122.751 27.6731 122.7 27.724 122.598 27.7748C122.496 27.8257 122.395 27.8766 122.242 27.8766C122.089 27.8766 121.988 27.8257 121.886 27.7748C121.784 27.724 121.733 27.6731 121.733 27.5713Z" fill="#363434"/>
<path d="M122.242 27.9266C122.089 27.9266 121.988 27.8758 121.886 27.8249C121.784 27.774 121.733 27.6723 121.733 27.5705V22.6363C121.733 22.5346 121.784 22.4329 121.886 22.382C121.988 22.3311 122.089 22.2803 122.242 22.2803C122.395 22.2803 122.496 22.3311 122.598 22.382C122.7 22.4329 122.751 22.5346 122.751 22.6363V27.5705C122.751 27.6723 122.7 27.774 122.598 27.8249C122.496 27.8758 122.344 27.9266 122.242 27.9266ZM122.242 22.382C122.089 22.382 121.988 22.382 121.886 22.4329C121.784 22.4837 121.733 22.5346 121.733 22.6363V27.5705C121.733 27.6723 121.784 27.7231 121.886 27.774C121.988 27.8249 122.089 27.8758 122.242 27.8758C122.344 27.8758 122.496 27.8249 122.598 27.774C122.7 27.7231 122.751 27.6723 122.751 27.5705V22.6363C122.751 22.5346 122.7 22.4837 122.598 22.4329C122.446 22.382 122.344 22.382 122.242 22.382Z" fill="#363434"/>
<path d="M129.253 26.197V24.0606C129.253 23.4501 129.406 23.0432 129.762 22.738C130.067 22.4328 130.525 22.3311 131.033 22.3311C131.542 22.3311 132 22.4837 132.356 22.738C132.712 22.9923 132.865 23.3484 132.865 23.8062C132.865 24.0097 132.814 24.1114 132.763 24.2132C132.712 24.264 132.559 24.3149 132.407 24.3149C132.102 24.3149 131.898 24.2132 131.898 24.0097C131.898 23.9588 131.898 23.908 131.898 23.8571C131.898 23.8062 131.847 23.7554 131.847 23.6536C131.796 23.5519 131.796 23.501 131.745 23.4501C131.695 23.3993 131.644 23.3484 131.542 23.2975C131.44 23.2467 131.339 23.2467 131.186 23.2467C130.677 23.2467 130.372 23.5519 130.372 24.1114V26.2479C130.372 26.8074 130.626 27.1126 131.186 27.1126C131.339 27.1126 131.491 27.1126 131.593 27.0618C131.695 27.0109 131.796 26.96 131.847 26.8583C131.898 26.7566 131.949 26.7057 131.949 26.604C131.949 26.5531 132 26.4514 132 26.3496C132 26.1462 132.152 26.0444 132.508 26.0444C132.661 26.0444 132.814 26.0953 132.915 26.1462C133.017 26.197 133.017 26.3496 133.017 26.5531C133.017 27.0109 132.865 27.367 132.508 27.6213C132.152 27.8757 131.745 28.0283 131.186 28.0283C130.677 28.0283 130.219 27.8757 129.914 27.6213C129.456 27.2144 129.253 26.8074 129.253 26.197Z" fill="#363434"/>
<path d="M131.033 27.9773C130.525 27.9773 130.067 27.8247 129.762 27.5704C129.456 27.2652 129.253 26.8582 129.253 26.2478V24.1113C129.253 23.5009 129.406 23.0431 129.762 22.7888C130.067 22.4836 130.525 22.3818 131.033 22.3818C131.542 22.3818 132 22.5344 132.356 22.7888C132.712 23.0431 132.865 23.3992 132.865 23.857C132.865 24.0605 132.814 24.1622 132.763 24.264C132.661 24.3148 132.559 24.3657 132.356 24.3657C132 24.3657 131.847 24.264 131.847 24.0096C131.847 23.9587 131.847 23.9079 131.847 23.857C131.847 23.8061 131.796 23.7553 131.796 23.6535C131.745 23.6027 131.745 23.5009 131.695 23.4501C131.644 23.3992 131.593 23.3483 131.491 23.2975C131.389 23.2466 131.288 23.2466 131.135 23.2466C130.626 23.2466 130.372 23.5009 130.372 24.1113V26.2478C130.372 26.8073 130.626 27.1126 131.135 27.1126C131.288 27.1126 131.44 27.1126 131.542 27.0617C131.644 27.0108 131.695 26.96 131.745 26.8582C131.796 26.7565 131.847 26.7056 131.847 26.6039C131.847 26.553 131.898 26.4513 131.898 26.3495C131.898 26.1461 132.102 25.9935 132.407 25.9935C132.61 25.9935 132.712 26.0443 132.814 26.0952C132.915 26.1461 132.915 26.2987 132.915 26.5021C132.915 26.96 132.763 27.316 132.407 27.6212C132 27.8247 131.542 27.9773 131.033 27.9773ZM131.033 22.3818C130.525 22.3818 130.118 22.5344 129.762 22.7888C129.456 23.0431 129.304 23.5009 129.304 24.0605V26.1969C129.304 26.8074 129.456 27.2143 129.762 27.4686C130.067 27.723 130.474 27.8756 130.982 27.8756C131.491 27.8756 131.949 27.723 132.254 27.4686C132.559 27.2143 132.763 26.8582 132.763 26.4004C132.763 26.1969 132.712 26.0952 132.661 26.0443C132.61 25.9935 132.458 25.9426 132.305 25.9426C132 25.9426 131.847 26.0443 131.847 26.2478C131.847 26.3495 131.847 26.4513 131.796 26.5021C131.796 26.553 131.745 26.6547 131.695 26.7565C131.644 26.8582 131.542 26.9091 131.44 26.96C131.339 27.0108 131.186 27.0617 131.033 27.0617C130.474 27.0617 130.219 26.7565 130.219 26.1461V24.0096C130.219 23.3992 130.474 23.094 131.033 23.094C131.186 23.094 131.288 23.094 131.389 23.1449C131.491 23.1957 131.593 23.2466 131.644 23.2975C131.695 23.3483 131.745 23.3992 131.796 23.5009C131.847 23.6027 131.847 23.6535 131.847 23.7044C131.847 23.7553 131.847 23.8061 131.847 23.857C131.847 24.0605 132 24.1622 132.305 24.1622C132.458 24.1622 132.61 24.1113 132.661 24.0605C132.712 24.0096 132.763 23.857 132.763 23.7044C132.763 23.2975 132.61 22.9414 132.254 22.687C132 22.4836 131.542 22.3818 131.033 22.3818Z" fill="#363434"/>
<path d="M138.985 27.4717C138.985 27.4717 138.985 27.4209 138.985 27.37L140.461 22.5884C140.511 22.4867 140.562 22.4358 140.664 22.3849C140.766 22.3341 140.918 22.2832 141.071 22.2832C141.224 22.2832 141.376 22.3341 141.478 22.3849C141.58 22.4358 141.681 22.5375 141.681 22.6393L143.157 27.4209C143.157 27.4717 143.157 27.4717 143.157 27.4717C143.157 27.5735 143.106 27.6752 142.953 27.7769C142.8 27.8787 142.699 27.8787 142.546 27.8787C142.343 27.8787 142.241 27.8278 142.19 27.6752L141.885 26.6579H140.257L139.952 27.6752C139.901 27.8278 139.799 27.8787 139.596 27.8787C139.443 27.8787 139.291 27.8278 139.138 27.7769C139.036 27.6752 138.985 27.5735 138.985 27.4717ZM140.511 25.8948H141.834L141.173 23.5549L140.511 25.8948Z" fill="#363434"/>
<path d="M142.54 27.9287C142.337 27.9287 142.235 27.8779 142.184 27.7253L141.879 26.7588H140.302L140.048 27.7253C139.997 27.8779 139.895 27.9287 139.641 27.9287C139.488 27.9287 139.285 27.8779 139.132 27.7761C138.98 27.6744 138.878 27.5727 138.878 27.4201C138.878 27.4201 138.878 27.3692 138.878 27.3183L140.353 22.5367C140.404 22.435 140.455 22.3333 140.607 22.2824C140.709 22.2315 140.862 22.1807 141.014 22.1807C141.167 22.1807 141.32 22.2315 141.421 22.2824C141.574 22.3333 141.625 22.435 141.676 22.5367L143.151 27.3183C143.151 27.3692 143.151 27.3692 143.151 27.4201C143.151 27.5218 143.1 27.6235 142.947 27.7253C142.846 27.8779 142.693 27.9287 142.54 27.9287ZM140.302 26.657H141.981L142.286 27.6744C142.337 27.7761 142.439 27.8779 142.591 27.8779C142.744 27.8779 142.846 27.827 142.998 27.7761C143.151 27.7253 143.202 27.6235 143.202 27.5218C143.202 27.5218 143.202 27.5218 143.202 27.4709L141.727 22.6893C141.676 22.5876 141.625 22.5367 141.523 22.435C141.421 22.3841 141.269 22.3333 141.116 22.3333C140.964 22.3333 140.811 22.3841 140.709 22.435C140.607 22.4859 140.506 22.5367 140.506 22.6385L139.031 27.4201C139.031 27.4709 139.031 27.4709 139.031 27.4709C139.031 27.5727 139.081 27.6744 139.234 27.7761C139.387 27.8779 139.539 27.8779 139.692 27.8779C139.895 27.8779 139.997 27.827 140.048 27.6744L140.302 26.657ZM141.879 25.9449H140.506L141.167 23.5032L141.879 25.9449ZM140.557 25.894H141.777L141.167 23.7067L140.557 25.894Z" fill="#363434"/>
<path d="M149.609 27.5733V22.6391C149.609 22.5374 149.66 22.4865 149.762 22.4356C149.864 22.3848 149.965 22.3848 150.118 22.3848C150.271 22.3848 150.372 22.3848 150.474 22.4356C150.576 22.4865 150.627 22.5374 150.627 22.6391V27.0138H152.458C152.56 27.0138 152.611 27.0646 152.661 27.1664C152.712 27.2681 152.763 27.3698 152.763 27.4716C152.763 27.5733 152.712 27.675 152.661 27.7768C152.611 27.8785 152.56 27.9294 152.458 27.9294H150.067C149.965 27.9294 149.864 27.8785 149.762 27.8276C149.66 27.7259 149.609 27.675 149.609 27.5733Z" fill="#363434"/>
<path d="M152.458 27.9296H150.067C149.965 27.9296 149.864 27.8787 149.762 27.8278C149.66 27.7769 149.609 27.6752 149.609 27.5735V22.6393C149.609 22.5375 149.66 22.4358 149.762 22.3849C149.864 22.3341 149.965 22.2832 150.118 22.2832C150.271 22.2832 150.372 22.3341 150.474 22.3849C150.576 22.4358 150.627 22.5375 150.627 22.6393V26.9631H152.458C152.56 26.9631 152.661 27.0139 152.712 27.1157C152.763 27.2174 152.814 27.3191 152.814 27.4209C152.814 27.5226 152.763 27.6243 152.712 27.7261C152.611 27.8787 152.56 27.9296 152.458 27.9296ZM150.118 22.3849C149.965 22.3849 149.864 22.3849 149.762 22.4358C149.66 22.4867 149.609 22.5375 149.609 22.6393V27.5735C149.609 27.6752 149.66 27.7261 149.711 27.7769C149.813 27.8278 149.915 27.8787 150.016 27.8787H152.407C152.509 27.8787 152.56 27.8278 152.611 27.7769C152.661 27.6752 152.661 27.5735 152.661 27.4717C152.661 27.37 152.611 27.2683 152.611 27.1665C152.56 27.0648 152.509 27.0648 152.407 27.0648H150.576V22.6901C150.576 22.5884 150.525 22.5375 150.423 22.4867C150.372 22.3849 150.22 22.3849 150.118 22.3849Z" fill="#363434"/>
<path d="M166.239 26.197V24.0606C166.239 23.4501 166.392 23.0432 166.748 22.738C167.053 22.4328 167.511 22.3311 168.02 22.3311C168.528 22.3311 168.986 22.4837 169.342 22.738C169.698 22.9923 169.851 23.3484 169.851 23.8062C169.851 24.0097 169.8 24.1114 169.749 24.2132C169.698 24.264 169.546 24.3149 169.393 24.3149C169.088 24.3149 168.884 24.2132 168.884 24.0097C168.884 23.9588 168.884 23.908 168.884 23.8571C168.884 23.8062 168.834 23.7554 168.834 23.6536C168.783 23.5519 168.783 23.501 168.732 23.4501C168.681 23.3993 168.63 23.3484 168.528 23.2975C168.427 23.2467 168.325 23.2467 168.172 23.2467C167.664 23.2467 167.358 23.5519 167.358 24.1114V26.2479C167.358 26.8074 167.613 27.1126 168.172 27.1126C168.325 27.1126 168.477 27.1126 168.579 27.0618C168.681 27.0109 168.783 26.96 168.834 26.8583C168.884 26.7566 168.935 26.7057 168.935 26.604C168.935 26.5531 168.986 26.4514 168.986 26.3496C168.986 26.1462 169.139 26.0444 169.495 26.0444C169.647 26.0444 169.8 26.0953 169.902 26.1462C170.003 26.197 170.004 26.3496 170.004 26.5531C170.004 27.0109 169.851 27.367 169.495 27.6213C169.139 27.8757 168.732 28.0283 168.172 28.0283C167.664 28.0283 167.206 27.8757 166.901 27.6213C166.392 27.2144 166.239 26.8074 166.239 26.197Z" fill="#363434"/>
<path d="M167.966 27.9773C167.457 27.9773 166.999 27.8247 166.694 27.5704C166.389 27.2652 166.186 26.8582 166.186 26.2478V24.1113C166.186 23.5009 166.338 23.0431 166.694 22.7888C166.999 22.4836 167.457 22.3818 167.966 22.3818C168.475 22.3818 168.932 22.5344 169.288 22.7888C169.645 23.0431 169.797 23.3992 169.797 23.857C169.797 24.0605 169.746 24.1622 169.695 24.264C169.594 24.3148 169.492 24.3657 169.288 24.3657C168.932 24.3657 168.78 24.264 168.78 24.0096C168.78 23.9587 168.78 23.9079 168.78 23.857C168.78 23.8061 168.729 23.7553 168.729 23.6535C168.678 23.6027 168.678 23.5009 168.627 23.4501C168.576 23.3992 168.525 23.3483 168.424 23.2975C168.322 23.2466 168.22 23.2466 168.068 23.2466C167.559 23.2466 167.305 23.5009 167.305 24.1113V26.2478C167.305 26.8073 167.559 27.1126 168.068 27.1126C168.22 27.1126 168.373 27.1126 168.475 27.0617C168.576 27.0108 168.627 26.96 168.678 26.8582C168.729 26.7565 168.78 26.7056 168.78 26.6039C168.78 26.553 168.831 26.4513 168.831 26.3495C168.831 26.1461 169.034 25.9935 169.339 25.9935C169.543 25.9935 169.645 26.0443 169.746 26.0952C169.848 26.1461 169.848 26.2987 169.848 26.5021C169.848 26.96 169.695 27.316 169.339 27.6212C168.932 27.8247 168.525 27.9773 167.966 27.9773ZM167.966 22.3818C167.457 22.3818 167.05 22.5344 166.694 22.7888C166.389 23.0431 166.236 23.5009 166.236 24.0605V26.1969C166.236 26.8074 166.389 27.2143 166.694 27.4686C166.999 27.723 167.406 27.8756 167.915 27.8756C168.424 27.8756 168.882 27.723 169.187 27.4686C169.492 27.2143 169.695 26.8582 169.695 26.4004C169.695 26.1969 169.645 26.0952 169.594 26.0443C169.543 25.9935 169.39 25.9426 169.238 25.9426C168.932 25.9426 168.78 26.0443 168.78 26.2478C168.78 26.3495 168.78 26.4513 168.729 26.5021C168.729 26.553 168.678 26.6547 168.627 26.7565C168.576 26.8582 168.475 26.9091 168.373 26.96C168.271 27.0108 168.119 27.0617 167.966 27.0617C167.406 27.0617 167.152 26.7565 167.152 26.1461V24.0096C167.152 23.3992 167.406 23.094 167.966 23.094C168.119 23.094 168.22 23.094 168.322 23.1449C168.424 23.1957 168.525 23.2466 168.576 23.2975C168.627 23.3483 168.678 23.3992 168.729 23.5009C168.78 23.6027 168.78 23.6535 168.78 23.7044C168.78 23.7553 168.78 23.8061 168.78 23.857C168.78 24.0605 168.932 24.1622 169.238 24.1622C169.39 24.1622 169.543 24.1113 169.594 24.0605C169.645 24.0096 169.695 23.857 169.695 23.7044C169.695 23.2975 169.543 22.9414 169.187 22.687C168.932 22.4836 168.475 22.3818 167.966 22.3818Z" fill="#363434"/>
<path d="M176.208 27.5705V22.6363C176.208 22.5345 176.259 22.4837 176.361 22.4328C176.462 22.3819 176.564 22.3311 176.666 22.3311H179.362C179.464 22.3311 179.565 22.3819 179.616 22.4837C179.667 22.5854 179.718 22.6871 179.718 22.7889C179.718 22.8906 179.667 22.9923 179.616 23.0941C179.565 23.1958 179.464 23.2467 179.413 23.2467H177.276V24.7727H178.446C178.548 24.7727 178.599 24.8236 178.65 24.8745C178.701 24.9762 178.751 25.0271 178.751 25.1288C178.751 25.2305 178.701 25.3323 178.65 25.3831C178.599 25.434 178.497 25.4849 178.395 25.4849H177.225V27.0109H179.362C179.464 27.0109 179.514 27.0618 179.565 27.1635C179.616 27.2652 179.667 27.367 179.667 27.4687C179.667 27.5705 179.616 27.6722 179.565 27.7739C179.514 27.8757 179.413 27.9265 179.311 27.9265H176.615C176.513 27.9265 176.411 27.8757 176.31 27.8248C176.259 27.7231 176.208 27.6722 176.208 27.5705Z" fill="#363434"/>
<path d="M179.362 27.9266H176.666C176.564 27.9266 176.462 27.8758 176.361 27.8249C176.259 27.774 176.208 27.6723 176.208 27.5705V22.6363C176.208 22.5346 176.259 22.4329 176.361 22.382C176.462 22.3311 176.564 22.2803 176.666 22.2803H179.362C179.464 22.2803 179.565 22.3311 179.616 22.4329C179.667 22.5346 179.718 22.6364 179.718 22.7381C179.718 22.8398 179.667 22.9924 179.616 23.0433C179.565 23.145 179.464 23.1959 179.362 23.1959H177.225V24.6711H178.344C178.446 24.6711 178.548 24.7219 178.599 24.8237C178.65 24.9254 178.701 25.0271 178.701 25.1289C178.701 25.2306 178.65 25.3324 178.599 25.3832C178.548 25.485 178.446 25.5358 178.344 25.5358H177.225V27.011H179.362C179.464 27.011 179.565 27.0619 179.616 27.1636C179.667 27.2653 179.718 27.3671 179.718 27.4688C179.718 27.5705 179.667 27.6723 179.616 27.774C179.565 27.8758 179.464 27.9266 179.362 27.9266ZM176.666 22.382C176.564 22.382 176.462 22.4329 176.361 22.4837C176.259 22.5346 176.259 22.5855 176.259 22.6872V27.6214C176.259 27.7231 176.31 27.774 176.361 27.8249C176.462 27.8758 176.564 27.9266 176.666 27.9266H179.362C179.464 27.9266 179.514 27.8758 179.565 27.8249C179.616 27.7231 179.616 27.6723 179.616 27.5197C179.616 27.4179 179.565 27.3162 179.514 27.2145C179.464 27.1127 179.413 27.1127 179.311 27.1127H177.124V25.5358H178.294C178.395 25.5358 178.446 25.485 178.497 25.4341C178.548 25.3832 178.548 25.2815 178.548 25.1797C178.548 25.078 178.497 24.9763 178.446 24.9254C178.395 24.8745 178.344 24.8237 178.243 24.8237H177.073V23.2468H179.26C179.362 23.2468 179.413 23.1959 179.464 23.145C179.514 23.0433 179.565 22.9416 179.565 22.8398C179.565 22.7381 179.514 22.6363 179.514 22.5346C179.464 22.4329 179.413 22.4329 179.311 22.4329H176.666V22.382Z" fill="#363434"/>
<path d="M186.07 27.5705V22.6363C186.07 22.5346 186.121 22.4329 186.223 22.382C186.325 22.3311 186.426 22.2803 186.579 22.2803C186.782 22.2803 186.884 22.3311 186.986 22.382C187.088 22.4329 187.189 22.5855 187.291 22.789L188.766 25.6376V22.5855C188.766 22.4837 188.817 22.4329 188.919 22.382C189.021 22.3311 189.122 22.3311 189.275 22.3311C189.428 22.3311 189.529 22.3311 189.631 22.382C189.733 22.4329 189.784 22.4837 189.784 22.5855V27.5197C189.784 27.6214 189.733 27.6723 189.631 27.7231C189.529 27.774 189.428 27.8249 189.275 27.8249C189.021 27.8249 188.817 27.7231 188.715 27.5197L187.088 24.4676V27.5197C187.088 27.6214 187.037 27.6723 186.935 27.7231C186.833 27.774 186.732 27.8249 186.579 27.8249C186.426 27.8249 186.325 27.774 186.223 27.7231C186.121 27.7231 186.07 27.6723 186.07 27.5705Z" fill="#363434"/>
<path d="M189.272 27.9265C189.018 27.9265 188.814 27.8248 188.662 27.6213L187.085 24.671V27.6213C187.085 27.7231 187.034 27.8248 186.932 27.8757C186.83 27.9265 186.729 27.9774 186.576 27.9774C186.424 27.9774 186.322 27.9265 186.22 27.8757C186.118 27.8248 186.067 27.7231 186.067 27.6213V22.6871C186.067 22.5854 186.118 22.4837 186.22 22.4328C186.322 22.3819 186.424 22.3311 186.576 22.3311C186.78 22.3311 186.932 22.3819 186.983 22.4328C187.085 22.4837 187.187 22.6363 187.288 22.8906L188.713 25.6375V22.6871C188.713 22.5854 188.763 22.4837 188.865 22.4328C188.967 22.3819 189.069 22.3311 189.221 22.3311C189.374 22.3311 189.476 22.3819 189.577 22.4328C189.679 22.4837 189.73 22.5854 189.73 22.6871V27.6213C189.73 27.7231 189.679 27.8248 189.577 27.8757C189.526 27.8757 189.374 27.9265 189.272 27.9265ZM187.034 24.4166L188.713 27.5705C188.814 27.7739 189.018 27.8757 189.272 27.8757C189.374 27.8757 189.526 27.8248 189.628 27.7739C189.73 27.7231 189.781 27.6722 189.781 27.5705V22.6363C189.781 22.5345 189.73 22.4837 189.628 22.4328C189.526 22.3819 189.425 22.3819 189.272 22.3819C189.12 22.3819 189.018 22.3819 188.916 22.4328C188.814 22.4837 188.763 22.5345 188.763 22.6363V25.7901L187.237 22.8906C187.136 22.6871 187.034 22.5345 186.932 22.4837C186.83 22.4328 186.729 22.3819 186.525 22.3819C186.373 22.3819 186.271 22.4328 186.169 22.4837C186.067 22.5345 186.017 22.5854 186.017 22.6871V27.6213C186.017 27.7231 186.067 27.7739 186.169 27.8248C186.271 27.8757 186.373 27.9265 186.525 27.9265C186.627 27.9265 186.78 27.8757 186.881 27.8248C186.983 27.7739 187.034 27.7231 187.034 27.6213V24.4166Z" fill="#363434"/>
<path d="M196.146 22.7889C196.146 22.6871 196.196 22.5854 196.247 22.4837C196.298 22.3819 196.4 22.3311 196.502 22.3311H199.706C199.808 22.3311 199.91 22.3819 199.961 22.4837C200.011 22.5854 200.062 22.6871 200.062 22.7889C200.062 22.8906 200.011 22.9923 199.961 23.0941C199.91 23.1958 199.808 23.2467 199.757 23.2467H198.638V27.6213C198.638 27.7231 198.587 27.7739 198.485 27.8248C198.384 27.8757 198.282 27.9265 198.129 27.9265C197.977 27.9265 197.875 27.8757 197.773 27.8248C197.672 27.7739 197.621 27.6722 197.621 27.6213V23.2467H196.502C196.4 23.2467 196.349 23.1958 196.298 23.1449C196.196 22.9923 196.146 22.8906 196.146 22.7889Z" fill="#363434"/>
<path d="M198.078 27.9265C197.926 27.9265 197.824 27.8757 197.722 27.8248C197.621 27.7739 197.57 27.6722 197.57 27.5705V23.2467H196.502C196.4 23.2467 196.298 23.1958 196.247 23.0941C196.196 22.9923 196.146 22.8906 196.146 22.7889C196.146 22.6871 196.196 22.5854 196.247 22.4837C196.298 22.3819 196.4 22.3311 196.502 22.3311H199.706C199.808 22.3311 199.91 22.3819 199.961 22.4837C200.011 22.5854 200.062 22.6871 200.062 22.7889C200.062 22.8906 200.011 23.0432 199.961 23.0941C199.91 23.1958 199.808 23.2467 199.706 23.2467H198.638V27.5705C198.638 27.6722 198.587 27.7739 198.485 27.8248C198.333 27.8757 198.18 27.9265 198.078 27.9265ZM196.451 22.3819C196.349 22.3819 196.298 22.4328 196.247 22.4837C196.196 22.5854 196.196 22.6363 196.196 22.7889C196.196 22.8906 196.247 22.9923 196.298 23.0941C196.349 23.1958 196.4 23.1958 196.502 23.1958H197.621V27.5705C197.621 27.6722 197.672 27.7231 197.773 27.7739C197.875 27.8248 197.977 27.8757 198.129 27.8757C198.231 27.8757 198.384 27.8248 198.485 27.7739C198.587 27.7231 198.638 27.6722 198.638 27.5705V23.1958H199.757C199.859 23.1958 199.91 23.1449 199.961 23.0941C200.011 22.9923 200.062 22.8906 200.062 22.7889C200.062 22.6871 200.011 22.5854 200.011 22.4837C199.961 22.3819 199.91 22.3819 199.808 22.3819H196.451Z" fill="#363434"/>
<path d="M206.384 27.5734V22.6392C206.384 22.5375 206.435 22.4866 206.486 22.4357C206.536 22.3849 206.638 22.334 206.689 22.334H208.215C209.436 22.334 209.995 22.8427 209.995 23.9109C209.995 24.3178 209.894 24.6739 209.741 24.9283C209.538 25.1826 209.334 25.3352 209.029 25.4369L210.046 27.2682C210.046 27.319 210.097 27.319 210.097 27.3699C210.097 27.4716 210.046 27.6243 209.894 27.726C209.741 27.8277 209.639 27.8786 209.487 27.8786C209.334 27.8786 209.232 27.7769 209.131 27.6243L208.062 25.5387H207.401V27.5225C207.401 27.6243 207.35 27.6751 207.249 27.726C207.147 27.7769 207.045 27.8277 206.892 27.8277C206.74 27.8277 206.638 27.7769 206.536 27.726C206.435 27.726 206.384 27.6751 206.384 27.5734ZM207.35 24.8265H208.164C208.724 24.8265 208.978 24.5722 208.978 24.0126C208.978 23.4531 208.724 23.1987 208.164 23.1987H207.35V24.8265Z" fill="#363434"/>
<path d="M209.433 27.9287C209.28 27.9287 209.179 27.8269 209.077 27.6743L208.009 25.5887H207.398V27.5217C207.398 27.6235 207.347 27.7252 207.246 27.7761C207.144 27.8269 207.042 27.8778 206.89 27.8778C206.737 27.8778 206.635 27.8269 206.534 27.7761C206.432 27.7252 206.381 27.6235 206.381 27.5217V22.5875C206.381 22.4858 206.432 22.4349 206.483 22.3332C206.534 22.2823 206.635 22.2314 206.737 22.2314H208.263C209.484 22.2314 210.094 22.791 210.094 23.8592C210.094 24.2662 209.993 24.6222 209.84 24.8766C209.687 25.1309 209.433 25.2835 209.128 25.3853L210.094 27.2165C210.145 27.2674 210.145 27.3182 210.145 27.3691C210.145 27.5217 210.094 27.6235 209.942 27.7252C209.687 27.8778 209.586 27.9287 209.433 27.9287ZM207.347 25.5887H208.009L209.077 27.6743C209.179 27.8269 209.28 27.8778 209.382 27.8778C209.535 27.8778 209.636 27.8269 209.789 27.7252C209.891 27.6235 209.993 27.5217 209.993 27.3691C209.993 27.3182 209.993 27.2674 209.942 27.2674L208.924 25.3853H208.975C209.28 25.2835 209.535 25.1309 209.687 24.8766C209.84 24.6222 209.942 24.317 209.942 23.9101C209.942 22.8419 209.382 22.3332 208.161 22.3332H206.635C206.534 22.3332 206.483 22.384 206.432 22.4349C206.381 22.4858 206.33 22.5367 206.33 22.6384V27.5726C206.33 27.6743 206.381 27.7252 206.483 27.7761C206.584 27.8269 206.686 27.8778 206.839 27.8778C206.991 27.8778 207.093 27.8269 207.195 27.7761C207.297 27.7252 207.347 27.6743 207.347 27.5726V25.5887ZM208.212 24.8766H207.347V23.1979H208.212C208.772 23.1979 209.026 23.5031 209.026 24.0118C209.026 24.5714 208.772 24.8766 208.212 24.8766ZM207.398 24.8257H208.212C208.721 24.8257 208.975 24.5714 208.975 24.0627C208.975 23.554 208.721 23.2997 208.212 23.2997H207.398V24.8257Z" fill="#363434"/>
<path d="M216.492 27.5705V22.6363C216.492 22.5345 216.543 22.4837 216.645 22.4328C216.747 22.3819 216.848 22.3311 216.95 22.3311H219.646C219.748 22.3311 219.849 22.3819 219.9 22.4837C219.951 22.5854 220.002 22.6871 220.002 22.7889C220.002 22.8906 219.951 22.9923 219.9 23.0941C219.849 23.1958 219.748 23.2467 219.697 23.2467H217.56V24.7727H218.73C218.832 24.7727 218.883 24.8236 218.934 24.8745C218.985 24.9762 219.036 25.0271 219.036 25.1288C219.036 25.2305 218.985 25.3323 218.934 25.3831C218.883 25.434 218.781 25.4849 218.68 25.4849H217.51V27.0109H219.646C219.748 27.0109 219.799 27.0618 219.849 27.1635C219.9 27.2652 219.951 27.367 219.951 27.4687C219.951 27.5705 219.9 27.6722 219.849 27.7739C219.799 27.8757 219.697 27.9265 219.595 27.9265H216.899C216.797 27.9265 216.696 27.8757 216.594 27.8248C216.492 27.7231 216.492 27.6722 216.492 27.5705Z" fill="#363434"/>
<path d="M219.592 27.9266H216.896C216.795 27.9266 216.693 27.8758 216.591 27.8249C216.489 27.774 216.438 27.6723 216.438 27.5705V22.6363C216.438 22.5346 216.489 22.4329 216.591 22.382C216.693 22.3311 216.795 22.2803 216.896 22.2803H219.592C219.694 22.2803 219.796 22.3311 219.847 22.4329C219.898 22.5346 219.948 22.6364 219.948 22.7381C219.948 22.8398 219.898 22.9924 219.847 23.0433C219.796 23.145 219.694 23.1959 219.592 23.1959H217.456V24.6711H218.575C218.677 24.6711 218.778 24.7219 218.829 24.8237C218.88 24.9254 218.931 25.0271 218.931 25.1289C218.931 25.2306 218.88 25.3324 218.829 25.3832C218.778 25.485 218.677 25.5358 218.575 25.5358H217.456V27.011H219.592C219.694 27.011 219.796 27.0619 219.847 27.1636C219.898 27.2653 219.948 27.3671 219.948 27.4688C219.948 27.5705 219.898 27.6723 219.847 27.774C219.796 27.8758 219.694 27.9266 219.592 27.9266ZM216.896 22.382C216.795 22.382 216.693 22.4329 216.591 22.4837C216.489 22.5346 216.489 22.5855 216.489 22.6872V27.6214C216.489 27.7231 216.54 27.774 216.591 27.8249C216.693 27.8758 216.795 27.9266 216.896 27.9266H219.592C219.694 27.9266 219.745 27.8758 219.796 27.8249C219.847 27.7231 219.847 27.6723 219.847 27.5197C219.847 27.4179 219.796 27.3162 219.745 27.2145C219.694 27.1127 219.643 27.1127 219.541 27.1127H217.354V25.5358H218.524C218.626 25.5358 218.677 25.485 218.728 25.4341C218.778 25.3832 218.778 25.2815 218.778 25.1797C218.778 25.078 218.728 24.9763 218.677 24.9254C218.626 24.8745 218.575 24.8237 218.473 24.8237H217.303V23.2468H219.491C219.592 23.2468 219.643 23.1959 219.694 23.145C219.745 23.0433 219.796 22.9416 219.796 22.8398C219.796 22.7381 219.745 22.6363 219.745 22.5346C219.694 22.4329 219.643 22.4329 219.541 22.4329H216.896V22.382Z" fill="#363434"/>
</svg>
