<svg width="28" height="28" viewBox="0 0 28 28" fill="none" xmlns="http://www.w3.org/2000/svg">
<path fill-rule="evenodd" clip-rule="evenodd" d="M2.56066 0.43934C1.97487 -0.146447 1.02513 -0.146447 0.439339 0.43934C-0.146447 1.02513 -0.146446 1.97487 0.43934 2.56066L11.8787 14L0.56066 25.318C-0.0251267 25.9038 -0.0251267 26.8536 0.56066 27.4393C1.14645 28.0251 2.09619 28.0251 2.68198 27.4393L14 16.1213L25.1881 27.3094C25.7739 27.8952 26.7236 27.8952 27.3094 27.3094C27.8952 26.7236 27.8952 25.7739 27.3094 25.1881L16.1213 14L27.4307 2.6906C28.0165 2.10482 28.0165 1.15507 27.4307 0.569283C26.8449 -0.0165038 25.8952 -0.0165031 25.3094 0.569283L14 11.8787L2.56066 0.43934Z" fill="#363434"/>
</svg>
