<svg width="133" height="80" viewBox="0 0 133 80" fill="none" xmlns="http://www.w3.org/2000/svg">
<path d="M1.1492 2.28573C1.78388 2.28573 2.29839 1.77405 2.29839 1.14287C2.29839 0.511678 1.78388 0 1.1492 0C0.514513 0 0 0.511678 0 1.14287C0 1.77405 0.514513 2.28573 1.1492 2.28573Z" fill="white"/>
<path d="M1.1492 15.2389C1.78388 15.2389 2.29839 14.7272 2.29839 14.096C2.29839 13.4648 1.78388 12.9531 1.1492 12.9531C0.514513 12.9531 0 13.4648 0 14.096C0 14.7272 0.514513 15.2389 1.1492 15.2389Z" fill="white"/>
<path d="M1.1492 28.192C1.78388 28.192 2.29839 27.6803 2.29839 27.0491C2.29839 26.4179 1.78388 25.9062 1.1492 25.9062C0.514513 25.9062 0 26.4179 0 27.0491C0 27.6803 0.514513 28.192 1.1492 28.192Z" fill="white"/>
<path d="M1.1492 41.1412C1.78388 41.1412 2.29839 40.6295 2.29839 39.9983C2.29839 39.3671 1.78388 38.8555 1.1492 38.8555C0.514513 38.8555 0 39.3671 0 39.9983C0 40.6295 0.514513 41.1412 1.1492 41.1412Z" fill="white"/>
<path d="M1.1492 54.0982C1.78388 54.0982 2.29839 53.5866 2.29839 52.9554C2.29839 52.3242 1.78388 51.8125 1.1492 51.8125C0.514513 51.8125 0 52.3242 0 52.9554C0 53.5866 0.514513 54.0982 1.1492 54.0982Z" fill="white"/>
<path d="M1.1492 67.0475C1.78388 67.0475 2.29839 66.5358 2.29839 65.9046C2.29839 65.2734 1.78388 64.7617 1.1492 64.7617C0.514513 64.7617 0 65.2734 0 65.9046C0 66.5358 0.514513 67.0475 1.1492 67.0475Z" fill="white"/>
<path d="M1.1492 80.0006C1.78388 80.0006 2.29839 79.4889 2.29839 78.8577C2.29839 78.2265 1.78388 77.7148 1.1492 77.7148C0.514513 77.7148 0 78.2265 0 78.8577C0 79.4889 0.514513 80.0006 1.1492 80.0006Z" fill="white"/>
<path d="M14.2508 2.28573C14.8854 2.28573 15.4 1.77405 15.4 1.14287C15.4 0.511678 14.8854 0 14.2508 0C13.6161 0 13.1016 0.511678 13.1016 1.14287C13.1016 1.77405 13.6161 2.28573 14.2508 2.28573Z" fill="white"/>
<path d="M14.2508 15.2389C14.8854 15.2389 15.4 14.7272 15.4 14.096C15.4 13.4648 14.8854 12.9531 14.2508 12.9531C13.6161 12.9531 13.1016 13.4648 13.1016 14.096C13.1016 14.7272 13.6161 15.2389 14.2508 15.2389Z" fill="white"/>
<path d="M14.2508 28.192C14.8854 28.192 15.4 27.6803 15.4 27.0491C15.4 26.4179 14.8854 25.9062 14.2508 25.9062C13.6161 25.9062 13.1016 26.4179 13.1016 27.0491C13.1016 27.6803 13.6161 28.192 14.2508 28.192Z" fill="white"/>
<path d="M14.2508 41.1412C14.8854 41.1412 15.4 40.6295 15.4 39.9983C15.4 39.3671 14.8854 38.8555 14.2508 38.8555C13.6161 38.8555 13.1016 39.3671 13.1016 39.9983C13.1016 40.6295 13.6161 41.1412 14.2508 41.1412Z" fill="white"/>
<path d="M14.2508 54.0982C14.8854 54.0982 15.4 53.5866 15.4 52.9554C15.4 52.3242 14.8854 51.8125 14.2508 51.8125C13.6161 51.8125 13.1016 52.3242 13.1016 52.9554C13.1016 53.5866 13.6161 54.0982 14.2508 54.0982Z" fill="white"/>
<path d="M14.2508 67.0475C14.8854 67.0475 15.4 66.5358 15.4 65.9046C15.4 65.2734 14.8854 64.7617 14.2508 64.7617C13.6161 64.7617 13.1016 65.2734 13.1016 65.9046C13.1016 66.5358 13.6161 67.0475 14.2508 67.0475Z" fill="white"/>
<path d="M14.2508 80.0006C14.8854 80.0006 15.4 79.4889 15.4 78.8577C15.4 78.2265 14.8854 77.7148 14.2508 77.7148C13.6161 77.7148 13.1016 78.2265 13.1016 78.8577C13.1016 79.4889 13.6161 80.0006 14.2508 80.0006Z" fill="white"/>
<path d="M27.2742 2.28573C27.9089 2.28573 28.4234 1.77405 28.4234 1.14287C28.4234 0.511678 27.9089 0 27.2742 0C26.6395 0 26.125 0.511678 26.125 1.14287C26.125 1.77405 26.6395 2.28573 27.2742 2.28573Z" fill="white"/>
<path d="M27.2742 15.2389C27.9089 15.2389 28.4234 14.7272 28.4234 14.096C28.4234 13.4648 27.9089 12.9531 27.2742 12.9531C26.6395 12.9531 26.125 13.4648 26.125 14.096C26.125 14.7272 26.6395 15.2389 27.2742 15.2389Z" fill="white"/>
<path d="M27.2742 28.192C27.9089 28.192 28.4234 27.6803 28.4234 27.0491C28.4234 26.4179 27.9089 25.9062 27.2742 25.9062C26.6395 25.9062 26.125 26.4179 26.125 27.0491C26.125 27.6803 26.6395 28.192 27.2742 28.192Z" fill="white"/>
<path d="M27.2742 41.1412C27.9089 41.1412 28.4234 40.6295 28.4234 39.9983C28.4234 39.3671 27.9089 38.8555 27.2742 38.8555C26.6395 38.8555 26.125 39.3671 26.125 39.9983C26.125 40.6295 26.6395 41.1412 27.2742 41.1412Z" fill="white"/>
<path d="M27.2742 54.0982C27.9089 54.0982 28.4234 53.5866 28.4234 52.9554C28.4234 52.3242 27.9089 51.8125 27.2742 51.8125C26.6395 51.8125 26.125 52.3242 26.125 52.9554C26.125 53.5866 26.6395 54.0982 27.2742 54.0982Z" fill="white"/>
<path d="M27.2742 67.0475C27.9089 67.0475 28.4234 66.5358 28.4234 65.9046C28.4234 65.2734 27.9089 64.7617 27.2742 64.7617C26.6395 64.7617 26.125 65.2734 26.125 65.9046C26.125 66.5358 26.6395 67.0475 27.2742 67.0475Z" fill="white"/>
<path d="M27.2742 80.0006C27.9089 80.0006 28.4234 79.4889 28.4234 78.8577C28.4234 78.2265 27.9089 77.7148 27.2742 77.7148C26.6395 77.7148 26.125 78.2265 26.125 78.8577C26.125 79.4889 26.6395 80.0006 27.2742 80.0006Z" fill="white"/>
<path d="M40.3758 2.28573C41.0104 2.28573 41.525 1.77405 41.525 1.14287C41.525 0.511678 41.0104 0 40.3758 0C39.7411 0 39.2266 0.511678 39.2266 1.14287C39.2266 1.77405 39.7411 2.28573 40.3758 2.28573Z" fill="white"/>
<path d="M40.3758 15.2389C41.0104 15.2389 41.525 14.7272 41.525 14.096C41.525 13.4648 41.0104 12.9531 40.3758 12.9531C39.7411 12.9531 39.2266 13.4648 39.2266 14.096C39.2266 14.7272 39.7411 15.2389 40.3758 15.2389Z" fill="white"/>
<path d="M40.3758 28.192C41.0104 28.192 41.525 27.6803 41.525 27.0491C41.525 26.4179 41.0104 25.9062 40.3758 25.9062C39.7411 25.9062 39.2266 26.4179 39.2266 27.0491C39.2266 27.6803 39.7411 28.192 40.3758 28.192Z" fill="white"/>
<path d="M40.3758 41.1412C41.0104 41.1412 41.525 40.6295 41.525 39.9983C41.525 39.3671 41.0104 38.8555 40.3758 38.8555C39.7411 38.8555 39.2266 39.3671 39.2266 39.9983C39.2266 40.6295 39.7411 41.1412 40.3758 41.1412Z" fill="white"/>
<path d="M40.3758 54.0982C41.0104 54.0982 41.525 53.5866 41.525 52.9554C41.525 52.3242 41.0104 51.8125 40.3758 51.8125C39.7411 51.8125 39.2266 52.3242 39.2266 52.9554C39.2266 53.5866 39.7411 54.0982 40.3758 54.0982Z" fill="white"/>
<path d="M40.3758 67.0475C41.0104 67.0475 41.525 66.5358 41.525 65.9046C41.525 65.2734 41.0104 64.7617 40.3758 64.7617C39.7411 64.7617 39.2266 65.2734 39.2266 65.9046C39.2266 66.5358 39.7411 67.0475 40.3758 67.0475Z" fill="white"/>
<path d="M40.3758 80.0006C41.0104 80.0006 41.525 79.4889 41.525 78.8577C41.525 78.2265 41.0104 77.7148 40.3758 77.7148C39.7411 77.7148 39.2266 78.2265 39.2266 78.8577C39.2266 79.4889 39.7411 80.0006 40.3758 80.0006Z" fill="white"/>
<path d="M53.4773 2.28573C54.112 2.28573 54.6265 1.77405 54.6265 1.14287C54.6265 0.511678 54.112 0 53.4773 0C52.8426 0 52.3281 0.511678 52.3281 1.14287C52.3281 1.77405 52.8426 2.28573 53.4773 2.28573Z" fill="white"/>
<path d="M53.4773 15.2389C54.112 15.2389 54.6265 14.7272 54.6265 14.096C54.6265 13.4648 54.112 12.9531 53.4773 12.9531C52.8426 12.9531 52.3281 13.4648 52.3281 14.096C52.3281 14.7272 52.8426 15.2389 53.4773 15.2389Z" fill="white"/>
<path d="M53.4773 28.192C54.112 28.192 54.6265 27.6803 54.6265 27.0491C54.6265 26.4179 54.112 25.9062 53.4773 25.9062C52.8426 25.9062 52.3281 26.4179 52.3281 27.0491C52.3281 27.6803 52.8426 28.192 53.4773 28.192Z" fill="white"/>
<path d="M53.4773 41.1412C54.112 41.1412 54.6265 40.6295 54.6265 39.9983C54.6265 39.3671 54.112 38.8555 53.4773 38.8555C52.8426 38.8555 52.3281 39.3671 52.3281 39.9983C52.3281 40.6295 52.8426 41.1412 53.4773 41.1412Z" fill="white"/>
<path d="M53.4773 54.0982C54.112 54.0982 54.6265 53.5866 54.6265 52.9554C54.6265 52.3242 54.112 51.8125 53.4773 51.8125C52.8426 51.8125 52.3281 52.3242 52.3281 52.9554C52.3281 53.5866 52.8426 54.0982 53.4773 54.0982Z" fill="white"/>
<path d="M53.4773 67.0475C54.112 67.0475 54.6265 66.5358 54.6265 65.9046C54.6265 65.2734 54.112 64.7617 53.4773 64.7617C52.8426 64.7617 52.3281 65.2734 52.3281 65.9046C52.3281 66.5358 52.8426 67.0475 53.4773 67.0475Z" fill="white"/>
<path d="M53.4773 80.0006C54.112 80.0006 54.6265 79.4889 54.6265 78.8577C54.6265 78.2265 54.112 77.7148 53.4773 77.7148C52.8426 77.7148 52.3281 78.2265 52.3281 78.8577C52.3281 79.4889 52.8426 80.0006 53.4773 80.0006Z" fill="white"/>
<path d="M66.5008 2.28573C67.1354 2.28573 67.65 1.77405 67.65 1.14287C67.65 0.511678 67.1354 0 66.5008 0C65.8661 0 65.3516 0.511678 65.3516 1.14287C65.3516 1.77405 65.8661 2.28573 66.5008 2.28573Z" fill="white"/>
<path d="M66.5008 15.2389C67.1354 15.2389 67.65 14.7272 67.65 14.096C67.65 13.4648 67.1354 12.9531 66.5008 12.9531C65.8661 12.9531 65.3516 13.4648 65.3516 14.096C65.3516 14.7272 65.8661 15.2389 66.5008 15.2389Z" fill="white"/>
<path d="M66.5008 28.192C67.1354 28.192 67.65 27.6803 67.65 27.0491C67.65 26.4179 67.1354 25.9062 66.5008 25.9062C65.8661 25.9062 65.3516 26.4179 65.3516 27.0491C65.3516 27.6803 65.8661 28.192 66.5008 28.192Z" fill="white"/>
<path d="M66.5008 41.1412C67.1354 41.1412 67.65 40.6295 67.65 39.9983C67.65 39.3671 67.1354 38.8555 66.5008 38.8555C65.8661 38.8555 65.3516 39.3671 65.3516 39.9983C65.3516 40.6295 65.8661 41.1412 66.5008 41.1412Z" fill="white"/>
<path d="M66.5008 54.0982C67.1354 54.0982 67.65 53.5866 67.65 52.9554C67.65 52.3242 67.1354 51.8125 66.5008 51.8125C65.8661 51.8125 65.3516 52.3242 65.3516 52.9554C65.3516 53.5866 65.8661 54.0982 66.5008 54.0982Z" fill="white"/>
<path d="M66.5008 67.0475C67.1354 67.0475 67.65 66.5358 67.65 65.9046C67.65 65.2734 67.1354 64.7617 66.5008 64.7617C65.8661 64.7617 65.3516 65.2734 65.3516 65.9046C65.3516 66.5358 65.8661 67.0475 66.5008 67.0475Z" fill="white"/>
<path d="M66.5008 80.0006C67.1354 80.0006 67.65 79.4889 67.65 78.8577C67.65 78.2265 67.1354 77.7148 66.5008 77.7148C65.8661 77.7148 65.3516 78.2265 65.3516 78.8577C65.3516 79.4889 65.8661 80.0006 66.5008 80.0006Z" fill="white"/>
<path d="M79.6023 2.28573C80.237 2.28573 80.7515 1.77405 80.7515 1.14287C80.7515 0.511678 80.237 0 79.6023 0C78.9676 0 78.4531 0.511678 78.4531 1.14287C78.4531 1.77405 78.9676 2.28573 79.6023 2.28573Z" fill="white"/>
<path d="M79.6023 15.2389C80.237 15.2389 80.7515 14.7272 80.7515 14.096C80.7515 13.4648 80.237 12.9531 79.6023 12.9531C78.9676 12.9531 78.4531 13.4648 78.4531 14.096C78.4531 14.7272 78.9676 15.2389 79.6023 15.2389Z" fill="white"/>
<path d="M79.6023 28.192C80.237 28.192 80.7515 27.6803 80.7515 27.0491C80.7515 26.4179 80.237 25.9062 79.6023 25.9062C78.9676 25.9062 78.4531 26.4179 78.4531 27.0491C78.4531 27.6803 78.9676 28.192 79.6023 28.192Z" fill="white"/>
<path d="M79.6023 41.1412C80.237 41.1412 80.7515 40.6295 80.7515 39.9983C80.7515 39.3671 80.237 38.8555 79.6023 38.8555C78.9676 38.8555 78.4531 39.3671 78.4531 39.9983C78.4531 40.6295 78.9676 41.1412 79.6023 41.1412Z" fill="white"/>
<path d="M79.6023 54.0982C80.237 54.0982 80.7515 53.5866 80.7515 52.9554C80.7515 52.3242 80.237 51.8125 79.6023 51.8125C78.9676 51.8125 78.4531 52.3242 78.4531 52.9554C78.4531 53.5866 78.9676 54.0982 79.6023 54.0982Z" fill="white"/>
<path d="M79.6023 67.0475C80.237 67.0475 80.7515 66.5358 80.7515 65.9046C80.7515 65.2734 80.237 64.7617 79.6023 64.7617C78.9676 64.7617 78.4531 65.2734 78.4531 65.9046C78.4531 66.5358 78.9676 67.0475 79.6023 67.0475Z" fill="white"/>
<path d="M79.6023 80.0006C80.237 80.0006 80.7515 79.4889 80.7515 78.8577C80.7515 78.2265 80.237 77.7148 79.6023 77.7148C78.9676 77.7148 78.4531 78.2265 78.4531 78.8577C78.4531 79.4889 78.9676 80.0006 79.6023 80.0006Z" fill="white"/>
<path d="M92.7039 2.28573C93.3386 2.28573 93.8531 1.77405 93.8531 1.14287C93.8531 0.511678 93.3386 0 92.7039 0C92.0692 0 91.5547 0.511678 91.5547 1.14287C91.5547 1.77405 92.0692 2.28573 92.7039 2.28573Z" fill="white"/>
<path d="M92.7039 15.2389C93.3386 15.2389 93.8531 14.7272 93.8531 14.096C93.8531 13.4648 93.3386 12.9531 92.7039 12.9531C92.0692 12.9531 91.5547 13.4648 91.5547 14.096C91.5547 14.7272 92.0692 15.2389 92.7039 15.2389Z" fill="white"/>
<path d="M92.7039 28.192C93.3386 28.192 93.8531 27.6803 93.8531 27.0491C93.8531 26.4179 93.3386 25.9062 92.7039 25.9062C92.0692 25.9062 91.5547 26.4179 91.5547 27.0491C91.5547 27.6803 92.0692 28.192 92.7039 28.192Z" fill="white"/>
<path d="M92.7039 41.1412C93.3386 41.1412 93.8531 40.6295 93.8531 39.9983C93.8531 39.3671 93.3386 38.8555 92.7039 38.8555C92.0692 38.8555 91.5547 39.3671 91.5547 39.9983C91.5547 40.6295 92.0692 41.1412 92.7039 41.1412Z" fill="white"/>
<path d="M92.7039 54.0982C93.3386 54.0982 93.8531 53.5866 93.8531 52.9554C93.8531 52.3242 93.3386 51.8125 92.7039 51.8125C92.0692 51.8125 91.5547 52.3242 91.5547 52.9554C91.5547 53.5866 92.0692 54.0982 92.7039 54.0982Z" fill="white"/>
<path d="M92.7039 67.0475C93.3386 67.0475 93.8531 66.5358 93.8531 65.9046C93.8531 65.2734 93.3386 64.7617 92.7039 64.7617C92.0692 64.7617 91.5547 65.2734 91.5547 65.9046C91.5547 66.5358 92.0692 67.0475 92.7039 67.0475Z" fill="white"/>
<path d="M92.7039 80.0006C93.3386 80.0006 93.8531 79.4889 93.8531 78.8577C93.8531 78.2265 93.3386 77.7148 92.7039 77.7148C92.0692 77.7148 91.5547 78.2265 91.5547 78.8577C91.5547 79.4889 92.0692 80.0006 92.7039 80.0006Z" fill="white"/>
<path d="M105.727 2.28573C106.362 2.28573 106.877 1.77405 106.877 1.14287C106.877 0.511678 106.362 0 105.727 0C105.093 0 104.578 0.511678 104.578 1.14287C104.578 1.77405 105.093 2.28573 105.727 2.28573Z" fill="white"/>
<path d="M105.727 15.2389C106.362 15.2389 106.877 14.7272 106.877 14.096C106.877 13.4648 106.362 12.9531 105.727 12.9531C105.093 12.9531 104.578 13.4648 104.578 14.096C104.578 14.7272 105.093 15.2389 105.727 15.2389Z" fill="white"/>
<path d="M105.727 28.192C106.362 28.192 106.877 27.6803 106.877 27.0491C106.877 26.4179 106.362 25.9062 105.727 25.9062C105.093 25.9062 104.578 26.4179 104.578 27.0491C104.578 27.6803 105.093 28.192 105.727 28.192Z" fill="white"/>
<path d="M105.727 41.1412C106.362 41.1412 106.877 40.6295 106.877 39.9983C106.877 39.3671 106.362 38.8555 105.727 38.8555C105.093 38.8555 104.578 39.3671 104.578 39.9983C104.578 40.6295 105.093 41.1412 105.727 41.1412Z" fill="white"/>
<path d="M105.727 54.0982C106.362 54.0982 106.877 53.5866 106.877 52.9554C106.877 52.3242 106.362 51.8125 105.727 51.8125C105.093 51.8125 104.578 52.3242 104.578 52.9554C104.578 53.5866 105.093 54.0982 105.727 54.0982Z" fill="white"/>
<path d="M105.727 67.0475C106.362 67.0475 106.877 66.5358 106.877 65.9046C106.877 65.2734 106.362 64.7617 105.727 64.7617C105.093 64.7617 104.578 65.2734 104.578 65.9046C104.578 66.5358 105.093 67.0475 105.727 67.0475Z" fill="white"/>
<path d="M105.727 80.0006C106.362 80.0006 106.877 79.4889 106.877 78.8577C106.877 78.2265 106.362 77.7148 105.727 77.7148C105.093 77.7148 104.578 78.2265 104.578 78.8577C104.578 79.4889 105.093 80.0006 105.727 80.0006Z" fill="white"/>
<path d="M118.829 2.28573C119.464 2.28573 119.978 1.77405 119.978 1.14287C119.978 0.511678 119.464 0 118.829 0C118.194 0 117.68 0.511678 117.68 1.14287C117.68 1.77405 118.194 2.28573 118.829 2.28573Z" fill="white"/>
<path d="M118.829 15.2389C119.464 15.2389 119.978 14.7272 119.978 14.096C119.978 13.4648 119.464 12.9531 118.829 12.9531C118.194 12.9531 117.68 13.4648 117.68 14.096C117.68 14.7272 118.194 15.2389 118.829 15.2389Z" fill="white"/>
<path d="M118.829 28.192C119.464 28.192 119.978 27.6803 119.978 27.0491C119.978 26.4179 119.464 25.9062 118.829 25.9062C118.194 25.9062 117.68 26.4179 117.68 27.0491C117.68 27.6803 118.194 28.192 118.829 28.192Z" fill="white"/>
<path d="M118.829 41.1412C119.464 41.1412 119.978 40.6295 119.978 39.9983C119.978 39.3671 119.464 38.8555 118.829 38.8555C118.194 38.8555 117.68 39.3671 117.68 39.9983C117.68 40.6295 118.194 41.1412 118.829 41.1412Z" fill="white"/>
<path d="M118.829 54.0982C119.464 54.0982 119.978 53.5866 119.978 52.9554C119.978 52.3242 119.464 51.8125 118.829 51.8125C118.194 51.8125 117.68 52.3242 117.68 52.9554C117.68 53.5866 118.194 54.0982 118.829 54.0982Z" fill="white"/>
<path d="M118.829 67.0475C119.464 67.0475 119.978 66.5358 119.978 65.9046C119.978 65.2734 119.464 64.7617 118.829 64.7617C118.194 64.7617 117.68 65.2734 117.68 65.9046C117.68 66.5358 118.194 67.0475 118.829 67.0475Z" fill="white"/>
<path d="M118.829 80.0006C119.464 80.0006 119.978 79.4889 119.978 78.8577C119.978 78.2265 119.464 77.7148 118.829 77.7148C118.194 77.7148 117.68 78.2265 117.68 78.8577C117.68 79.4889 118.194 80.0006 118.829 80.0006Z" fill="white"/>
<path d="M131.852 2.28573C132.487 2.28573 133.002 1.77405 133.002 1.14287C133.002 0.511678 132.487 0 131.852 0C131.218 0 130.703 0.511678 130.703 1.14287C130.703 1.77405 131.218 2.28573 131.852 2.28573Z" fill="white"/>
<path d="M131.852 15.2389C132.487 15.2389 133.002 14.7272 133.002 14.096C133.002 13.4648 132.487 12.9531 131.852 12.9531C131.218 12.9531 130.703 13.4648 130.703 14.096C130.703 14.7272 131.218 15.2389 131.852 15.2389Z" fill="white"/>
<path d="M131.852 28.192C132.487 28.192 133.002 27.6803 133.002 27.0491C133.002 26.4179 132.487 25.9062 131.852 25.9062C131.218 25.9062 130.703 26.4179 130.703 27.0491C130.703 27.6803 131.218 28.192 131.852 28.192Z" fill="white"/>
<path d="M131.852 41.1412C132.487 41.1412 133.002 40.6295 133.002 39.9983C133.002 39.3671 132.487 38.8555 131.852 38.8555C131.218 38.8555 130.703 39.3671 130.703 39.9983C130.703 40.6295 131.218 41.1412 131.852 41.1412Z" fill="white"/>
<path d="M131.852 54.0982C132.487 54.0982 133.002 53.5866 133.002 52.9554C133.002 52.3242 132.487 51.8125 131.852 51.8125C131.218 51.8125 130.703 52.3242 130.703 52.9554C130.703 53.5866 131.218 54.0982 131.852 54.0982Z" fill="white"/>
<path d="M131.852 67.0475C132.487 67.0475 133.002 66.5358 133.002 65.9046C133.002 65.2734 132.487 64.7617 131.852 64.7617C131.218 64.7617 130.703 65.2734 130.703 65.9046C130.703 66.5358 131.218 67.0475 131.852 67.0475Z" fill="white"/>
<path d="M131.852 80.0006C132.487 80.0006 133.002 79.4889 133.002 78.8577C133.002 78.2265 132.487 77.7148 131.852 77.7148C131.218 77.7148 130.703 78.2265 130.703 78.8577C130.703 79.4889 131.218 80.0006 131.852 80.0006Z" fill="white"/>
<path d="M36.0078 65.4513H77.149C88.1047 65.4513 96.9918 56.6132 96.9918 45.7179C96.9918 34.8225 88.1047 25.9844 77.149 25.9844H47.7296" stroke="#EE907B" stroke-width="3" stroke-miterlimit="10" stroke-linecap="round"/>
<path d="M44.2067 33.2968C48.4802 33.2968 51.9446 29.8515 51.9446 25.6015C51.9446 21.3516 48.4802 17.9062 44.2067 17.9062C39.9331 17.9062 36.4688 21.3516 36.4688 25.6015C36.4688 29.8515 39.9331 33.2968 44.2067 33.2968Z" fill="#DFD4CB" stroke="#FB8875" stroke-width="3" stroke-miterlimit="10"/>
</svg>
