<svg width="60" height="55" viewBox="0 0 60 55" fill="none" xmlns="http://www.w3.org/2000/svg">
<path d="M59.2953 47.9392H0.725473C0.32431 47.9392 0.0234375 47.6384 0.0234375 47.2372C0.0234375 46.836 0.32431 46.5352 0.725473 46.5352H59.2953C59.6965 46.5352 59.9973 46.836 59.9973 47.2372C59.9973 47.6384 59.5962 47.9392 59.2953 47.9392Z" fill="#C56952"/>
<path d="M59.2953 54.7595H0.725473C0.32431 54.7595 0.0234375 54.4587 0.0234375 54.0575C0.0234375 53.6563 0.32431 53.3555 0.725473 53.3555H59.2953C59.6965 53.3555 59.9973 53.6563 59.9973 54.0575C59.9973 54.4587 59.5962 54.7595 59.2953 54.7595Z" fill="#C56952"/>
<path d="M30.013 33.5964C20.1845 33.5964 10.2558 31.5905 0.427252 27.4786C0.126379 27.3783 -0.0742022 26.9772 0.0260886 26.576C0.126379 26.2751 0.527543 26.0746 0.928706 26.1748C20.1845 34.1981 39.7413 34.1981 58.9971 26.1748C59.298 26.0746 59.6991 26.1748 59.8997 26.576C60 26.8769 59.8997 27.278 59.4985 27.4786C49.7703 31.4903 39.8415 33.5964 30.013 33.5964Z" fill="#C56952"/>
<path d="M30.0125 37.9105C20.184 37.9105 10.3555 36.707 0.527012 34.3C0.125848 34.1997 -0.0747333 33.7986 0.0255575 33.4977C0.125848 33.0966 0.527012 32.896 0.827884 32.9963C20.184 37.7099 39.7407 37.7099 59.0969 32.9963C59.498 32.896 59.7989 33.0966 59.8992 33.4977C59.9995 33.8989 59.7989 34.1997 59.3977 34.3C49.6695 36.707 39.841 37.9105 30.0125 37.9105Z" fill="#C56952"/>
<path d="M30.0104 42.9242C20.1819 42.9242 10.3534 42.3224 0.625182 41.1189C0.224019 41.1189 0.0234375 40.7178 0.0234375 40.3166C0.0234375 39.9154 0.424601 39.7148 0.825764 39.7148C20.1819 42.1218 39.8389 42.1218 59.195 39.7148C59.5962 39.7148 59.8971 39.9154 59.9973 40.3166C59.9973 40.7178 59.7968 41.0186 59.3956 41.1189C49.5671 42.3224 39.8389 42.9242 30.0104 42.9242Z" fill="#C56952"/>
<path d="M30.0123 27.9809C29.8117 27.9809 29.6111 27.8806 29.5108 27.68L22.1896 18.0521C21.989 17.8515 21.989 17.5507 22.0893 17.3501C22.1896 17.1495 22.3902 16.9489 22.6911 16.9489H25.5995V7.92274C25.5995 7.52158 25.9004 7.2207 26.3015 7.2207H33.5225C33.9236 7.2207 34.2245 7.52158 34.2245 7.92274V16.9489H37.1329C37.4338 16.9489 37.6344 17.0492 37.7347 17.3501C37.835 17.6509 37.835 17.8515 37.6344 18.0521L30.4135 27.7803C30.4135 27.8806 30.2129 27.9809 30.0123 27.9809ZM24.0951 18.2527L30.0123 26.1757L35.9294 18.2527H33.6228C33.2216 18.2527 32.9207 17.9518 32.9207 17.5507V8.52448H27.0036V17.5507C27.0036 17.9518 26.7027 18.2527 26.3015 18.2527H24.0951Z" fill="#C56952"/>
<path d="M15.9693 15.3445C15.7687 15.3445 15.5682 15.2442 15.4679 15.0436L10.2528 8.02327C9.95188 7.82268 9.95188 7.6221 10.0522 7.32123C10.1525 7.12065 10.4533 7.02036 10.6539 7.02036H12.5594V0.702036C12.5594 0.300872 12.8603 0 13.2615 0H18.4766C18.8778 0 19.1786 0.300872 19.1786 0.702036V7.02036H21.0842C21.385 7.02036 21.5856 7.12065 21.6859 7.42152C21.7862 7.72239 21.7862 7.92298 21.5856 8.12356L16.3705 15.1439C16.3705 15.2442 16.1699 15.3445 15.9693 15.3445ZM12.058 8.32414L15.9693 13.5393L19.8807 8.32414H18.5769C18.1757 8.32414 17.8749 8.02327 17.8749 7.6221V1.30378H13.9635V7.6221C13.9635 8.02327 13.6626 8.32414 13.2615 8.32414H12.058Z" fill="#C56952"/>
<path d="M44.0546 15.3445C43.854 15.3445 43.6535 15.2442 43.5532 15.0436L38.338 8.02327C38.1375 7.82268 38.1375 7.6221 38.2378 7.32123C38.338 7.12065 38.5386 7.02036 38.8395 7.02036H40.745V0.702036C40.745 0.300872 41.0459 0 41.4471 0H46.6622C47.0633 0 47.3642 0.300872 47.3642 0.702036V7.02036H49.2697C49.5706 7.02036 49.7712 7.12065 49.8715 7.42152C49.9718 7.72239 49.9718 7.92298 49.7712 8.12356L44.5561 15.1439C44.4558 15.2442 44.2552 15.3445 44.0546 15.3445ZM40.1433 8.32414L44.0546 13.5393L47.966 8.32414H46.6622C46.261 8.32414 45.9601 8.02327 45.9601 7.6221V1.30378H42.1491V7.6221C42.1491 8.02327 41.8482 8.32414 41.4471 8.32414H40.1433Z" fill="#C56952"/>
</svg>
