<svg width="75" height="75" viewBox="0 0 75 75" fill="none" xmlns="http://www.w3.org/2000/svg">
<path d="M5.21006 42.1881C6.78626 42.191 8.21006 41.2418 8.81358 39.7858L11.7198 32.8131V45.6073L9.66318 69.3111C9.46983 71.5582 11.1017 73.5503 13.3428 73.7994C15.5841 74.0513 17.6143 72.4693 17.919 70.234L20.9454 48.0475H21.2443L24.2707 70.234C24.5753 72.4693 26.6056 74.0513 28.8469 73.7994C31.0881 73.5504 32.7199 71.5582 32.5265 69.3111L30.4699 45.7033V32.8123L33.3761 39.785C34.1905 41.7802 36.4699 42.7381 38.465 41.9237C40.4631 41.1093 41.4211 38.83 40.6066 36.8319L34.4983 21.5626C33.262 18.4425 30.2385 16.3947 26.8813 16.4064H25.2992C28.4692 14.5138 29.9838 10.7404 29.0023 7.18063C28.0209 3.62398 24.7865 1.16016 21.0951 1.16016C17.4037 1.16016 14.1693 3.62406 13.1878 7.18063C12.2064 10.7402 13.721 14.5136 16.891 16.4064H15.3089C11.9515 16.3947 8.92806 18.4425 7.69191 21.5626L1.58354 36.8319C1.10307 38.036 1.24956 39.3983 1.97612 40.4706C2.70268 41.5429 3.91554 42.1874 5.21049 42.1874L5.21006 42.1881ZM15.2353 9.37558C15.2353 7.00543 16.662 4.86973 18.8535 3.96148C21.042 3.05623 23.5614 3.55719 25.2372 5.23296C26.913 6.90876 27.414 9.42831 26.5087 11.6167C25.6005 13.8082 23.4648 15.2349 21.0946 15.2349C17.8602 15.232 15.2382 12.6099 15.2352 9.37551L15.2353 9.37558ZM3.75956 37.7031L9.86793 22.4338C10.7527 20.2043 12.909 18.7424 15.3084 18.7512H26.8809C29.2803 18.7424 31.4365 20.2043 32.3213 22.4338L38.4297 37.7031C38.623 38.1835 38.5615 38.7285 38.2715 39.1591C37.9814 39.5869 37.4981 39.8447 36.9794 39.8447C36.3495 39.8447 35.7812 39.4667 35.538 38.8838L30.3818 26.5028C30.1679 25.9842 29.6171 25.6884 29.0693 25.7997C28.5185 25.9081 28.123 26.3944 28.1259 26.954V45.8037L30.1884 69.5135V69.5164C30.2323 70.0203 30.0624 70.5213 29.7197 70.8963C29.3769 71.2713 28.8935 71.4851 28.3867 71.4851C27.4814 71.4822 26.7167 70.8142 26.5908 69.9178L23.4267 46.7143C23.3476 46.1342 22.8525 45.7035 22.2665 45.7035H19.9228C19.3368 45.7035 18.8417 46.1371 18.7626 46.7172L15.5985 69.9207C15.4696 70.8143 14.705 71.4822 13.8026 71.4851C13.2929 71.4851 12.8095 71.2713 12.4667 70.8963C12.124 70.5213 11.954 70.0203 11.998 69.5164L14.0634 45.7039V26.9539C14.0634 26.3943 13.6679 25.9139 13.123 25.8055C12.5751 25.6942 12.0244 25.9871 11.8105 26.5028L6.6513 38.8838C6.40814 39.4668 5.8398 39.8447 5.20988 39.8447C4.69132 39.8447 4.20795 39.5869 3.91785 39.1591C3.62781 38.7285 3.56629 38.1835 3.75965 37.7031H3.75956Z" fill="#DDD5CD"/>
<path d="M57.1524 54.1606C57.7002 53.7299 58.2451 53.3052 58.7842 52.8862L59.0479 52.6811C54.3223 48.852 50.3906 44.7064 50.3906 37.4996C50.3906 28.9916 55.8633 24.7526 61.6556 20.2616C67.641 15.6239 73.8281 10.8281 73.8281 1.17188H71.4844C71.4844 9.67987 66.0117 13.9189 60.2194 18.4099C54.234 23.0476 48.0469 27.8434 48.0469 37.4996C48.0469 45.4976 52.2949 50.1559 57.1526 54.1609L57.1524 54.1606Z" fill="#DDD5CD"/>
<path d="M64.7236 57.1682C64.1758 57.5989 63.6309 58.0237 63.0918 58.4426L62.8281 58.6477C67.5537 62.4768 71.4854 66.6225 71.4854 73.8292H73.8291C73.8291 65.8312 69.5811 61.173 64.7234 57.168L64.7236 57.1682Z" fill="#DDD5CD"/>
<path d="M57.1521 17.833C57.7 17.4023 58.2449 16.9776 58.784 16.5586L59.0477 16.3535H59.0447C56.8739 14.6924 54.9431 12.7383 53.3055 10.5469H65.5898C66.2255 9.81738 66.7939 9.03225 67.2889 8.20313H51.92C50.8799 6.00585 50.3585 3.6006 50.3906 1.17188H48.0469C48.0469 9.16988 52.2945 13.828 57.1521 17.833Z" fill="#DDD5CD"/>
<path d="M51.9234 66.7976H67.3074C66.8123 65.9685 66.241 65.1834 65.6053 64.4538H53.3068C55.4396 61.4187 58.4982 59.0397 61.6565 56.5908C67.6419 51.9531 73.829 47.1573 73.829 37.5011C73.829 29.5031 69.5809 24.8448 64.7233 20.8398C64.1754 21.2705 63.6305 21.6953 63.0914 22.1142L62.8277 22.3193H62.8307C65.0015 23.9804 66.9323 25.9345 68.5699 28.126H56.2856C55.6499 28.8555 55.0815 29.6406 54.5864 30.4697H69.9614C70.8345 32.3066 71.3413 34.2988 71.4497 36.3291H52.7815C52.7522 36.71 52.7346 37.0966 52.7346 37.501C52.7346 37.9053 52.7522 38.292 52.7756 38.6728H71.4379C71.3295 40.7031 70.8256 42.6953 69.9525 44.5322H54.5685C55.0636 45.3613 55.6349 46.1464 56.2706 46.876H68.5691C66.4363 49.9111 63.3777 52.2901 60.2194 54.739C54.234 59.3767 48.0469 64.1725 48.0469 73.8287H50.3906C50.3584 71.4 50.8828 68.9947 51.9229 66.7975L51.9234 66.7976Z" fill="#DDD5CD"/>
</svg>
