<svg width="18" height="18" viewBox="0 0 18 18" fill="none" xmlns="http://www.w3.org/2000/svg">
<path d="M9 0C3.99057 0 0 3.99057 0 9C0 14.0094 3.99057 18 9 18C14.0094 18 18 14.0094 18 9C18 3.99057 13.9245 0 9 0ZM9.93396 14.7736H8.40566V13.2453H9.93396V14.7736ZM12.3962 7.81132C12.1415 8.23585 11.717 8.74528 11.0377 9.33962C10.6132 9.76415 10.2736 10.0189 10.1887 10.1887C10.0189 10.3585 9.93396 10.6132 9.84906 10.8679C9.76415 11.1226 9.76415 11.5472 9.76415 12.0566H8.49057C8.49057 11.8868 8.49057 11.717 8.49057 11.6321C8.49057 11.1226 8.57547 10.6132 8.74528 10.2736C8.83019 10.0189 9 9.67925 9.25472 9.42453C9.42453 9.16981 9.76415 8.91509 10.2736 8.49057C10.6981 7.98113 11.0377 7.64151 11.1226 7.38679C11.2925 7.13208 11.2925 6.87736 11.2925 6.53774C11.2925 6.0283 11.1226 5.51887 10.6981 5.09434C10.2736 4.66981 9.76415 4.5 9.16981 4.5C8.57547 4.5 8.06604 4.66981 7.72642 5.00943C7.38679 5.43396 7.13208 6.0283 6.96226 6.79245L5.60377 6.62264C5.68868 5.60377 6.11321 4.83962 6.70755 4.24528C7.30189 3.65094 8.15094 3.39623 9.16981 3.39623C10.2736 3.39623 11.1226 3.65094 11.8019 4.24528C12.4811 4.83962 12.7358 5.60377 12.7358 6.45283C12.7358 6.96226 12.6509 7.38679 12.3962 7.81132Z" fill="#F28077"/>
</svg>
