<svg width="55" height="71" viewBox="0 0 55 71" fill="none" xmlns="http://www.w3.org/2000/svg">
<path d="M27.0938 65.9208V69.8179C27.0938 70.4704 27.6209 70.9989 28.2718 70.9989C28.9227 70.9989 29.4499 70.4704 29.4499 69.8179V65.9208C29.4557 61.82 30.8193 57.8405 33.3227 54.5988C36.15 50.9438 37.6874 46.4534 37.6962 41.8294V36.7513C37.6962 36.0988 37.169 35.5703 36.5182 35.5703C35.8673 35.5703 35.3401 36.0988 35.3401 36.7513V41.8294C35.3313 45.9303 33.9706 49.9098 31.4643 53.1514C28.637 56.8064 27.0996 61.2968 27.0938 65.9208Z" fill="#DDD5CD"/>
<path d="M48.0555 1.079L40.9872 8.16471C39.8651 9.27779 39.5882 10.9872 40.3009 12.3955L36.0482 16.6587C34.5432 15.3331 32.3609 15.1205 30.6292 16.1302V8.40965C30.6262 6.71498 29.7221 5.15317 28.2554 4.31173C26.7888 3.47029 24.9864 3.47913 23.5315 4.3383C23.2635 1.94685 21.2461 0.140007 18.8487 0.140007C16.4485 0.140007 14.434 1.94685 14.166 4.3383C12.7082 3.47917 10.9058 3.47033 9.43911 4.31173C7.97244 5.15317 7.06831 6.71498 7.06831 8.40965V22.0346C5.61046 21.1902 3.81394 21.1902 2.3561 22.0346C0.89826 22.8761 0 24.4349 0 26.1237V41.8302C0.00588988 46.4536 1.54327 50.9468 4.37059 54.6019C6.87688 57.8407 8.23753 61.8234 8.24636 65.9216V69.8187C8.24636 70.4712 8.77353 70.9997 9.42441 70.9997C10.0753 70.9997 10.6025 70.4712 10.6025 69.8187V65.9216C10.5936 61.2952 9.05625 56.805 6.22893 53.1499C3.72558 49.9112 2.36198 45.9284 2.3561 41.8302V26.1237C2.3561 24.8187 3.41043 23.7618 4.7122 23.7618C6.01104 23.7618 7.06831 24.8187 7.06831 26.1237V36.7519C7.06831 37.4044 7.59548 37.9329 8.24636 37.9329C8.89723 37.9329 9.42441 37.4044 9.42441 36.7519V8.40905C9.42441 7.10407 10.4787 6.04714 11.7805 6.04714C13.0793 6.04714 14.1366 7.10407 14.1366 8.40905V29.6662C14.1366 30.3187 14.6638 30.8471 15.3147 30.8471C15.9655 30.8471 16.4927 30.3187 16.4927 29.6662V4.86657C16.4927 3.56159 17.547 2.50467 18.8488 2.50467C20.1476 2.50467 21.2049 3.56159 21.2049 4.86657V29.6662C21.2049 30.3187 21.7321 30.8471 22.383 30.8471C23.0338 30.8471 23.561 30.3187 23.561 29.6662V8.40905C23.561 7.10407 24.6153 6.04714 25.9171 6.04714C27.216 6.04714 28.2732 7.10407 28.2732 8.40905V28.5529C27.7372 28.7271 27.2512 29.0253 26.8507 29.4209L19.7824 36.5066C18.6603 37.6196 18.3835 39.3291 19.0962 40.7374L16.6989 43.1406V43.1436C15.3412 41.5641 13.6418 40.3181 11.7305 39.4974L11.0649 39.211C10.47 38.9719 9.79552 39.2523 9.54521 39.8428C9.29193 40.4303 9.55699 41.1153 10.1372 41.381L10.8028 41.6674C12.4374 42.373 13.8804 43.4566 15.0172 44.8294L10.9471 48.9096C10.7203 49.1281 10.5907 49.4322 10.5878 49.7481C10.5848 50.064 10.7085 50.3681 10.9324 50.5925C11.1562 50.8169 11.4595 50.9409 11.7747 50.9379C12.0898 50.9349 12.3932 50.805 12.6111 50.5777L16.3485 46.8312C17.2084 48.4549 17.662 50.2648 17.6708 52.1041C17.6708 52.7566 18.198 53.2851 18.8489 53.2851C19.4997 53.2851 20.0269 52.7566 20.0269 52.1041C20.024 49.633 19.3554 47.2061 18.092 45.0834L20.7662 42.4026L20.7632 42.4055C22.171 43.1171 23.8733 42.8425 24.9807 41.7206L32.049 34.6349C32.9561 33.7373 33.3301 32.4353 33.0385 31.1924C32.7499 29.9524 31.8369 28.9516 30.6294 28.5529V20.2186C30.6236 19.327 31.1242 18.5092 31.9223 18.1077C32.7175 17.7061 33.6717 17.7917 34.3815 18.3291L33.3272 19.386H33.3301C33.1033 19.6045 32.9737 19.9086 32.9708 20.2245C32.9679 20.5404 33.0916 20.8445 33.3154 21.0689C33.5392 21.2933 33.8426 21.4173 34.1577 21.4143C34.4728 21.4114 34.7762 21.2815 34.9941 21.0541L35.3387 20.7087L35.3417 27.3043C35.3417 27.9568 35.8688 28.4853 36.5197 28.4853C37.1706 28.4853 37.6978 27.9568 37.6978 27.3043V20.2186C37.6919 19.6784 37.5917 19.1439 37.4062 18.6361L41.9711 14.0599L41.9682 14.0629C43.376 14.7744 45.0783 14.4998 46.1857 13.3779L53.254 6.29221C54.6911 4.85148 54.6911 2.51906 53.254 1.07833C51.8197 -0.359444 49.4901 -0.359444 48.0558 1.07833L48.0555 1.079ZM30.3843 32.9651L23.316 40.0508C22.7977 40.5675 21.9642 40.5675 21.4458 40.0508C21.1985 39.8028 21.06 39.4662 21.06 39.1149C21.06 38.7635 21.1985 38.427 21.4458 38.179L28.5142 31.0932C28.6761 30.9397 28.8764 30.8305 29.0914 30.7773C29.3211 30.8748 29.5773 30.8748 29.8071 30.7773C30.025 30.8305 30.2223 30.9397 30.3843 31.0932C30.8997 31.6129 30.8997 32.4484 30.3843 32.968L30.3843 32.9651ZM51.5892 4.62223L44.5209 11.7079C44.0026 12.2246 43.1691 12.2246 42.6508 11.7079C42.4034 11.4599 42.2649 11.1234 42.2649 10.772C42.2649 10.4207 42.4034 10.0841 42.6508 9.83611L49.7191 2.75039C50.2374 2.23373 51.0738 2.23373 51.5892 2.75039C52.1046 3.26706 52.1046 4.10556 51.5892 4.62518V4.62223Z" fill="#DDD5CD"/>
<path d="M37.6999 32.0279C37.6999 33.6014 35.3438 33.6014 35.3438 32.0279C35.3438 30.4543 37.6999 30.4543 37.6999 32.0279Z" fill="#DDD5CD"/>
</svg>
