<svg width="62" height="62" viewBox="0 0 62 62" fill="none" xmlns="http://www.w3.org/2000/svg">
<path d="M30.9 0C13.8 0 0 13.8 0 30.9C0 48 13.8 61.8 30.9 61.8C48 61.8 61.8 48 61.8 30.9C61.8 13.8 47.9 0 30.9 0ZM30.9 60.2C14.7 60.2 1.5 47 1.5 30.9C1.5 14.8 14.7 1.5 30.9 1.5C47.1 1.5 60.2 14.6 60.2 30.8C60.2 47 47 60.2 30.9 60.2Z" fill="#C56952"/>
<path d="M50.7038 34.4C50.3038 34.3 49.9038 34.5 49.8038 35C47.6038 43.6 39.8038 49.7 30.9038 49.7C22.0038 49.7 14.2038 43.7 12.0038 35.1C11.9038 34.7 11.5038 34.4 11.1038 34.5C10.7038 34.6 10.4038 35 10.5038 35.4C12.9038 44.7 21.3038 51.2 30.9038 51.2C40.5038 51.2 48.9038 44.7 51.3038 35.4C51.4038 34.9 51.1038 34.5 50.7038 34.4Z" fill="#C56952"/>
<path d="M21.3968 24.1999C23.0968 24.1999 24.7968 23.4999 25.8968 22.1999C25.9968 22.0999 25.9968 21.9999 26.0968 21.9999C26.3968 21.6999 26.2968 21.1999 25.9968 20.8999C25.6968 20.5999 25.1968 20.6999 24.8968 20.9999C24.8968 21.0999 24.7968 21.0999 24.7968 21.1999C23.8968 22.1999 22.6968 22.6999 21.3968 22.6999C19.9968 22.6999 18.6968 22.0999 17.8968 20.9999C17.5968 20.6999 17.0968 20.5999 16.7968 20.8999C16.4968 21.1999 16.3968 21.6999 16.6968 21.9999C17.7968 23.3999 19.5968 24.1999 21.3968 24.1999Z" fill="#C56952"/>
<path d="M40.303 24.1999C42.003 24.1999 43.703 23.4999 44.803 22.1999C44.903 22.0999 45.003 21.9999 45.003 21.9999C45.303 21.6999 45.203 21.1999 44.903 20.8999C44.603 20.5999 44.103 20.6999 43.803 20.9999C43.803 21.0999 43.703 21.0999 43.703 21.1999C42.803 22.1999 41.603 22.6999 40.303 22.6999C38.903 22.6999 37.603 22.0999 36.803 20.9999C36.503 20.6999 36.003 20.5999 35.703 20.8999C35.403 21.1999 35.303 21.6999 35.603 21.9999C36.703 23.3999 38.503 24.1999 40.303 24.1999Z" fill="#C56952"/>
</svg>
