<svg width="73" height="73" viewBox="0 0 73 73" fill="none" xmlns="http://www.w3.org/2000/svg">
<path d="M72.5626 10.2531C71.9543 9.59723 70.9246 9.56238 70.275 10.1707L63.9064 16.1083C62.5757 15.1609 60.963 14.6001 59.2108 14.6001C56.939 14.6001 54.889 15.5412 53.4125 17.0588L44.053 11.0388C44.4079 10.1294 44.6107 9.14092 44.6107 8.11113C44.6107 3.64052 40.9701 0 36.4995 0C32.0288 0 28.3882 3.64052 28.3882 8.11113C28.3882 9.14084 28.591 10.1294 28.9491 11.0388L19.5895 17.0493C18.1099 15.5411 16.0599 14.6001 13.7881 14.6001C9.31749 14.6001 5.67693 18.2406 5.67693 22.7113C5.67693 26.6274 8.46833 29.9067 12.1659 30.6608V42.3392C8.46833 43.0933 5.67693 46.3695 5.67693 50.2888C5.67693 51.8382 6.12368 53.2829 6.8778 54.5154L0.518771 60.4593C-0.137094 61.0677 -0.178291 62.0974 0.436393 62.7469C0.753241 63.0954 1.19048 63.2665 1.62136 63.2665C2.01741 63.2665 2.41664 63.1208 2.724 62.8293L9.0926 56.8917C10.4233 57.8391 12.0361 58.3999 13.7883 58.3999C16.06 58.3999 18.11 57.4588 19.5865 55.9507L28.9395 61.9612C28.591 62.8706 28.3882 63.8591 28.3882 64.8889C28.3882 69.3595 32.0288 73 36.4994 73C40.9701 73 44.6106 69.3595 44.6106 64.8889C44.6106 63.8592 44.4079 62.8706 44.0498 61.9612L53.4093 55.9507C54.889 57.4589 56.939 58.3999 59.2107 58.3999C63.6814 58.3999 67.3219 54.7594 67.3219 50.2887C67.3219 46.3726 64.5305 43.0933 60.833 42.3392V30.6608C64.5305 29.9067 67.3219 26.6305 67.3219 22.7112C67.3219 21.1618 66.8752 19.7171 66.1211 18.4846L72.4801 12.5407C73.1391 11.9323 73.1772 10.9026 72.5625 10.2531H72.5626ZM36.4994 3.24458C39.183 3.24458 41.3661 5.42761 41.3661 8.11126C41.3661 10.7949 39.183 12.9779 36.4994 12.9779C33.8157 12.9779 31.6326 10.7949 31.6326 8.11126C31.6326 5.42761 33.8157 3.24458 36.4994 3.24458ZM8.92125 22.7113C8.92125 20.0277 11.1043 17.8446 13.788 17.8446C16.4717 17.8446 18.6547 20.0277 18.6547 22.7113C18.6547 25.3949 16.4717 27.578 13.788 27.578C11.1043 27.578 8.92125 25.3949 8.92125 22.7113ZM13.788 55.1558C11.1043 55.1558 8.92125 52.9728 8.92125 50.2891C8.92125 47.6055 11.1043 45.4225 13.788 45.4225C16.4717 45.4225 18.6547 47.6055 18.6547 50.2891C18.6547 52.9728 16.4717 55.1558 13.788 55.1558ZM36.4994 69.7559C33.8157 69.7559 31.6326 67.5728 31.6326 64.8892C31.6326 62.2055 33.8157 60.0225 36.4994 60.0225C39.183 60.0225 41.3661 62.2055 41.3661 64.8892C41.3661 67.5728 39.183 69.7559 36.4994 69.7559ZM51.0996 50.2891C51.0996 51.3189 51.3023 52.3074 51.6604 53.2168L42.3008 59.2273C40.8212 57.7191 38.7712 56.7781 36.4995 56.7781C34.2278 56.7781 32.1777 57.7192 30.7012 59.2273L21.3417 53.2168C21.6966 52.3074 21.8994 51.3189 21.8994 50.2891C21.8994 46.373 19.108 43.0937 15.4104 42.3396V30.6612C19.108 29.9071 21.8994 26.6309 21.8994 22.7116C21.8994 21.6819 21.6966 20.6933 21.3385 19.784L30.6981 13.7735C32.1777 15.2817 34.2277 16.2226 36.4995 16.2226C38.7712 16.2226 40.8212 15.2816 42.2977 13.7735L51.6572 19.784C51.3023 20.6933 51.0996 21.6818 51.0996 22.7116C51.0996 26.6278 53.8909 29.9071 57.5885 30.6612V42.3396C53.8909 43.0937 51.0996 46.373 51.0996 50.2891ZM64.0775 50.2891C64.0775 52.9728 61.8944 55.1558 59.2108 55.1558C56.5271 55.1558 54.344 52.9728 54.344 50.2891C54.344 47.6055 56.5271 45.4225 59.2108 45.4225C61.8944 45.4225 64.0775 47.6055 64.0775 50.2891ZM59.2108 27.578C56.5271 27.578 54.344 25.3949 54.344 22.7113C54.344 20.0277 56.5271 17.8446 59.2108 17.8446C61.8944 17.8446 64.0775 20.0277 64.0775 22.7113C64.0775 25.3949 61.8944 27.578 59.2108 27.578Z" fill="#DDD5CD"/>
</svg>
