<svg width="74" height="72" viewBox="0 0 74 72" fill="none" xmlns="http://www.w3.org/2000/svg">
<path d="M50.1089 2.41321C35.7684 -3.17523 18.1847 1.20663 8.30013 12.8252C-1.88541 24.7952 -2.76852 41.3243 6.0491 54.9338C13.1119 65.8296 24.5335 72 36.6945 72C39.7972 71.9972 42.8856 71.6006 45.8854 70.8244C60.808 66.9768 72.3156 53.2239 73.2472 38.1176C74.1791 23.0141 64.4469 7.99553 50.1086 2.41264L50.1089 2.41321ZM71.1766 37.9972C70.2963 52.2511 59.437 65.2305 45.3571 68.8586C30.8735 72.5936 16.1314 66.6986 7.80094 53.843C-0.526602 40.9953 0.293379 25.4058 9.89142 14.1276C19.2195 3.16417 35.8137 -0.9672 49.343 4.30106C62.8753 9.57169 72.0566 23.7411 71.1764 37.995L71.1766 37.9972Z" fill="#DDD5CD"/>
<path d="M47.7346 8.35146C35.929 3.75583 21.4534 7.35865 13.3123 16.9267C4.92458 26.7842 4.19636 40.3916 11.4571 51.5962C17.2696 60.5653 26.6726 65.6449 36.6885 65.6449C39.2436 65.6421 41.787 65.3159 44.2563 64.6746C56.5435 61.5077 66.0155 50.1845 66.7841 37.7479C67.5498 25.3135 59.5407 12.9503 47.7352 8.35168L47.7346 8.35146ZM64.7135 37.6268C63.9995 49.2116 55.1732 59.7611 43.7287 62.7116C31.9605 65.7463 19.9771 60.9566 13.2066 50.5083C6.43916 40.0654 7.10447 27.3948 14.9042 18.2321C22.4859 9.32203 35.9719 5.96394 46.9694 10.2444C57.9661 14.5222 65.4303 26.0419 64.7138 37.6268H64.7135Z" fill="#DDD5CD"/>
<path d="M31.6825 42.7139C31.2123 42.292 30.719 41.887 30.2229 41.482C28.8838 40.388 27.6192 39.353 26.9052 37.9832C26.5668 37.3336 26.3489 36.5967 26.1166 35.8176C25.7295 34.5154 25.3281 33.1682 24.3244 32.0658C22.3774 29.9226 18.6954 29.6864 16.1173 31.5314C14.0096 33.0389 12.7164 35.7474 12.659 38.771C12.5157 46.1849 17.898 52.3387 25.7523 53.7363C26.5151 53.8769 27.2864 53.95 28.0607 53.9556C28.9726 53.9641 29.8816 53.8291 30.7476 53.5506C32.6287 52.9347 34.0596 51.5847 34.5729 49.9394C35.5937 46.6825 32.8925 43.7997 31.6824 42.7142L31.6825 42.7139ZM32.5916 49.3429C32.279 50.347 31.3212 51.2217 30.0911 51.6239C29.0014 51.9811 27.7024 52.0177 26.1224 51.7364C19.2891 50.5186 14.606 45.203 14.7293 38.8102C14.7752 36.4168 15.7502 34.3102 17.3388 33.1739L17.3417 33.1711C18.1245 32.6255 19.0622 32.333 20.0257 32.3358C21.101 32.3358 22.1305 32.7014 22.7814 33.4158C23.4753 34.178 23.7936 35.2496 24.1291 36.3858C24.3757 37.224 24.6338 38.0874 25.061 38.9086C25.9672 40.6468 27.4554 41.8646 28.895 43.043C29.3652 43.4283 29.8326 43.8108 30.28 44.213C30.9997 44.8543 33.2852 47.1324 32.5912 49.343L32.5916 49.3429Z" fill="#DDD5CD"/>
<path d="M22.9375 26.2622C23.0551 26.2678 23.1669 26.2734 23.2816 26.2734C25.3291 26.2734 27.1385 25.2384 28.687 24.2568L28.9078 24.1162C30.2928 23.2359 31.7265 22.3246 33.2292 22.2008V22.2037C33.5847 22.1812 33.9432 22.1755 34.2987 22.1896C35.2192 22.2065 36.2659 22.229 37.2408 21.7227C38.1814 21.2333 38.818 20.3474 39.0359 19.2252C39.2882 17.892 38.9269 16.5196 38.0494 15.4733C36.4952 13.6902 34.0406 13.2993 32.257 13.2852V13.288C28.2941 13.3133 24.4918 14.818 21.6185 17.4926C20.483 18.5473 18.579 20.3136 18.5474 22.1642C18.5072 24.3636 20.8328 26.1411 22.9376 26.2621L22.9375 26.2622ZM23.0465 18.9635C25.547 16.6431 28.8619 15.3185 32.1537 15.3185H32.2425C33.5961 15.3297 35.4284 15.5913 36.475 16.7951C36.9453 17.3688 37.1374 18.1197 36.9998 18.8426C36.931 19.1998 36.7474 19.6751 36.2714 19.9254C35.7725 20.187 35.1044 20.1729 34.3416 20.156C33.9114 20.142 33.4841 20.1476 33.0569 20.1757C31.0382 20.3417 29.309 21.4413 27.7835 22.4089L27.5655 22.5467C26.2063 23.4073 24.6234 24.3214 23.0606 24.2314C21.9795 24.1695 20.6031 23.171 20.6204 22.1979C20.6347 21.2023 22.3208 19.6357 23.0463 18.9635L23.0465 18.9635Z" fill="#DDD5CD"/>
<path d="M53.7315 24.0333C53.462 24.0417 53.1896 24.0502 52.9229 24.0502C52.6504 24.0474 52.378 23.9095 51.9565 23.6817C51.5665 23.4567 51.1478 23.2767 50.7149 23.1473C50.3363 23.0461 50.0582 22.4723 49.9492 21.9492C49.8918 21.6764 49.8603 21.4008 49.823 21.1251C49.7485 20.5345 49.6653 19.8623 49.3872 19.2127H49.3843C48.7362 17.7361 47.2738 16.7602 45.6335 16.7067C44.0105 16.6364 42.462 17.6067 41.7681 19.0383C41.143 20.3236 41.2863 21.7158 41.4096 22.9421L41.4928 23.7437C41.6075 24.7702 41.6476 25.3271 41.2232 25.7743C40.8992 26.1174 40.0734 26.0049 39.4655 25.8024C39.2963 25.7462 39.1271 25.6843 38.9579 25.6224C38.0862 25.3074 37.0968 24.953 36.0072 25.1527C34.2924 25.4705 33.0049 27.2199 33.1339 29.0537C33.24 30.5443 34.1863 31.9787 35.6688 32.8899C35.795 32.9687 35.9269 33.0418 36.0588 33.1149L36.0559 33.1177C36.3312 33.2499 36.5835 33.4243 36.8043 33.6352C37.1456 34.0374 37.0939 34.7574 37.0309 35.5928C36.9506 36.6896 36.8588 37.9356 37.7019 38.9678C39.0783 40.6525 41.1315 42.8519 43.1129 43.7688V43.766C44.022 44.1878 45.017 44.4044 46.0235 44.4044C47.4085 44.4241 48.7591 43.9797 49.8516 43.1444C50.0323 43.001 50.1584 42.8013 50.2101 42.5791C50.3821 41.8479 50.557 41.0913 50.9183 40.5007C51.2366 39.9803 51.7069 39.6372 52.1457 39.6006C52.4324 39.5781 52.7851 39.671 53.1923 39.7835V39.7863C53.6167 39.9157 54.0526 40 54.4942 40.0422C55.7501 40.121 56.9603 39.5697 57.7058 38.5769C58.4514 37.5812 58.6292 36.2847 58.179 35.1344C57.8435 34.2794 57.2241 33.655 56.6792 33.1038C56.4527 32.8731 56.2233 32.6453 56.0197 32.4006C55.6842 31.99 55.5609 31.3291 55.7186 30.9691C56.6333 30.7553 57.4649 30.2856 58.1101 29.6191C58.979 28.6741 59.2686 27.3606 58.8471 26.2722C58.4198 25.1697 57.313 24.3653 55.8849 24.1178H55.882C55.1708 24.0137 54.4511 23.9856 53.7313 24.0334L53.7315 24.0333ZM56.9088 26.9949C57.0521 27.3661 56.9145 27.8836 56.5704 28.2549C56.1202 28.7443 55.4262 28.9636 54.9244 29.0621H54.9273C54.738 29.0986 54.566 29.1858 54.4255 29.3124C53.1924 30.429 53.4189 32.468 54.4054 33.6718C54.6463 33.9699 54.9215 34.2455 55.1939 34.5212C55.6413 34.9712 56.0628 35.3958 56.2435 35.8599C56.4299 36.3662 56.3524 36.9287 56.037 37.3675C55.6986 37.7922 55.1767 38.0312 54.629 38.0116C54.3308 37.9778 54.0354 37.9159 53.7487 37.8259C53.2268 37.6825 52.6333 37.5194 51.9765 37.5756C50.8668 37.6656 49.8087 38.366 49.1434 39.4516C48.6874 40.194 48.458 41.0041 48.2774 41.7522C47.1016 42.5116 45.427 42.5876 43.9961 41.9266C42.7488 41.35 41.0455 39.806 39.3192 37.6938C38.9837 37.2831 39.041 36.5322 39.0984 35.7362C39.1758 34.6816 39.2733 33.3652 38.3958 32.3331C38.003 31.8718 37.5184 31.5962 37.0911 31.3543C36.9821 31.2924 36.8732 31.2305 36.7671 31.1658C35.8609 30.609 35.2616 29.7455 35.2014 28.913C35.144 28.103 35.7004 27.279 36.3914 27.1496C36.9162 27.0512 37.5614 27.2846 38.241 27.5293C38.4274 27.5968 38.6166 27.6643 38.803 27.7262C40.449 28.2718 41.8885 28.0637 42.7459 27.1552C43.8327 26.0049 43.6864 24.6858 43.5574 23.5214L43.4771 22.7396C43.3711 21.6821 43.2678 20.6864 43.6463 19.9102C43.9847 19.2127 44.8192 18.7514 45.5905 18.7374L45.5848 18.7402C46.4049 18.7796 47.1333 19.2661 47.4716 20.0002C47.6379 20.3911 47.6981 20.8692 47.7641 21.3756C47.8042 21.7046 47.8473 22.0337 47.9161 22.3571C48.2143 23.7831 49.0545 24.8125 50.1642 25.1106C50.4424 25.2006 50.7091 25.3187 50.9614 25.4677C51.4689 25.7406 52.1027 26.0781 52.9113 26.0837C53.2095 26.0837 53.5049 26.0753 53.8002 26.0668C54.3737 26.0246 54.9501 26.0443 55.5208 26.1203C56.2032 26.2356 56.7481 26.5787 56.9086 26.9949L56.9088 26.9949Z" fill="#DDD5CD"/>
<path d="M49.9477 47.9565C49.6896 47.8609 49.4057 47.8693 49.1534 47.9818C48.9039 48.0943 48.7089 48.2968 48.6115 48.55C48.0867 49.9224 46.5296 50.6987 45.6492 51.039V51.0418C44.9209 51.309 44.1753 51.5396 43.4183 51.7309C42.601 51.939 41.7924 52.1921 40.998 52.4818C39.5327 53.0472 37.62 54.1412 36.8459 56.1353H36.8487C36.7512 56.3884 36.7598 56.6668 36.8717 56.9143C36.9835 57.159 37.1928 57.3503 37.448 57.4459C37.9843 57.6456 38.5807 57.384 38.7843 56.8581C39.3148 55.4912 40.8748 54.7149 41.758 54.3746C42.4835 54.1075 43.2233 53.8796 43.9746 53.6884C44.8004 53.4775 45.6148 53.2243 46.412 52.9318C47.8802 52.3637 49.7871 51.2668 50.5527 49.2643C50.7534 48.7383 50.481 48.1533 49.9476 47.9565L49.9477 47.9565Z" fill="#DDD5CD"/>
<path d="M55.8731 46.4165C55.6121 45.6318 55.3655 44.8893 55.6236 44.414C55.8932 43.919 55.701 43.3059 55.1963 43.0415C54.6917 42.7772 54.0636 42.9656 53.7941 43.4606C53.1231 44.6981 53.5532 46.0003 53.9002 47.0466C53.9977 47.3391 54.0952 47.6288 54.164 47.9128H54.1669C54.5024 49.3388 54.0694 50.835 53.0198 51.8756C52.6184 52.2722 52.6184 52.9106 53.0198 53.3072C53.4213 53.7038 54.0722 53.7094 54.4794 53.3185C56.0365 51.7744 56.6789 49.5525 56.1828 47.4347C56.0996 47.1 55.9878 46.7597 55.8731 46.4165L55.8731 46.4165Z" fill="#DDD5CD"/>
<path d="M49.874 30.3461L49.7765 29.2014H49.7794C49.7306 28.6417 49.2288 28.2255 48.6611 28.2733C48.0904 28.3183 47.666 28.8105 47.7147 29.3701L47.8122 30.5148H47.8094C47.8553 31.0407 48.3026 31.4457 48.8417 31.4457C48.8703 31.4457 48.899 31.4457 48.9277 31.4429C49.203 31.4204 49.4553 31.2911 49.6331 31.0857C49.8109 30.8804 49.8969 30.6132 49.874 30.3461L49.874 30.3461Z" fill="#DDD5CD"/>
<path d="M20.0304 39.8757C20.4434 39.8757 20.8161 39.6366 20.9825 39.2654C21.1459 38.8941 21.0685 38.461 20.7875 38.1657L19.9875 37.3248C19.5975 36.917 18.9408 36.8945 18.525 37.277C18.1063 37.6595 18.0834 38.3035 18.4734 38.7142L19.2734 39.5523C19.4684 39.7604 19.7437 39.8757 20.0304 39.8757L20.0304 39.8757Z" fill="#DDD5CD"/>
<path d="M24.0826 41.857C23.6897 41.4464 23.0359 41.4267 22.6172 41.8092C22.1986 42.1917 22.1785 42.8358 22.5685 43.2464L23.3685 44.0846C23.7585 44.4952 24.4123 44.5149 24.831 44.1324C25.2496 43.7499 25.2726 43.1058 24.8797 42.698L24.0826 41.857Z" fill="#DDD5CD"/>
<path d="M27.8219 47.1552C27.6355 46.9556 27.3745 46.8374 27.0992 46.829C26.8211 46.8177 26.5544 46.9162 26.3508 47.1018C26.1501 47.2874 26.0325 47.5434 26.0239 47.8134C26.0153 48.0834 26.1186 48.3478 26.3078 48.5446L27.1078 49.3856V49.3828C27.4978 49.7934 28.1545 49.8159 28.5703 49.4306C28.989 49.0481 29.0119 48.404 28.6219 47.9962L27.8219 47.1552Z" fill="#DDD5CD"/>
<path d="M20.3872 42.8269C19.9973 42.4162 19.3406 42.3937 18.9219 42.7791C18.5033 43.1616 18.4832 43.8056 18.8732 44.2134L19.6732 45.0516V45.0544C20.0632 45.4622 20.717 45.4847 21.1356 45.1022C21.5543 44.7197 21.5772 44.0756 21.1873 43.665L20.3872 42.8269Z" fill="#DDD5CD"/>
<path d="M50.3707 32.5586H50.3592C49.7915 32.5586 49.3298 33.0086 49.324 33.5655L49.3126 34.713C49.3068 35.2755 49.7656 35.734 50.3391 35.7396H50.3506H50.3477C50.9183 35.7396 51.38 35.2896 51.3858 34.7327L51.3973 33.5852V33.5824C51.4001 33.0227 50.9413 32.5642 50.3707 32.5586V32.5586Z" fill="#DDD5CD"/>
<path d="M43.3816 30.7492C43.3845 30.1867 42.9257 29.7283 42.3551 29.7227H42.3436C41.7758 29.7227 41.3142 30.1727 41.3084 30.7295L41.2969 31.877C41.2912 32.4395 41.75 32.898 42.3235 32.9036H42.335H42.3321C42.9027 32.9036 43.3644 32.4536 43.3702 31.8968L43.3816 30.7492Z" fill="#DDD5CD"/>
<path d="M45.4189 35.1381C45.178 35.0031 44.897 34.9693 44.6303 35.0396C44.3665 35.11 44.14 35.2843 44.0052 35.5178L43.426 36.5162H43.4231C43.2883 36.7496 43.2539 37.0281 43.3256 37.2896C43.3973 37.5484 43.5722 37.7706 43.8131 37.9028C44.3092 38.1812 44.9429 38.0096 45.2268 37.5231L45.8061 36.5246C46.0899 36.0381 45.915 35.4165 45.4189 35.1381L45.4189 35.1381Z" fill="#DDD5CD"/>
</svg>
