<svg width="83" height="84" viewBox="0 0 83 84" fill="none" xmlns="http://www.w3.org/2000/svg">
<path d="M0 83.6861L5.88412 62.2953C2.26653 56.0128 0.3687 48.8978 0.379768 41.6593C0.336301 18.8406 18.8695 0.307861 41.6487 0.307861C52.7009 0.307861 63.0805 4.59375 70.8977 12.4107C78.715 20.2276 83 30.607 83 41.6593C83 64.4371 64.4691 82.9722 41.6899 82.9722C34.7829 82.981 27.9869 81.2458 21.9396 77.9291L0 83.6861V83.6861ZM22.9074 70.4896L24.1679 71.2468C29.4559 74.3776 35.4958 76.0326 41.651 76.0374C60.5616 76.0374 75.9857 60.6128 75.9857 41.7025C75.9857 32.5396 72.4145 23.8837 65.9424 17.4105C59.4658 10.9419 50.8089 7.32672 41.6464 7.32672C22.6923 7.32672 7.26822 22.7514 7.26822 41.6616C7.26822 48.1348 9.07555 54.4806 12.5232 59.942L13.3216 61.2471L9.8328 73.9388L22.9028 70.4919L22.9074 70.4896Z" fill="url(#paint0_linear_364_45)"/>
<path fill-rule="evenodd" clip-rule="evenodd" d="M31.3511 24.3449C30.5962 22.6215 29.7543 22.5806 29.0405 22.5806C28.4091 22.5374 27.7365 22.5374 27.0227 22.5374C26.3501 22.5374 25.2154 22.7897 24.2499 23.8402C23.2822 24.8906 20.6353 27.3712 20.6353 32.4574C20.6353 37.5414 24.3346 42.4594 24.8379 43.1301C25.3412 43.8031 31.9826 54.5622 42.488 58.723C51.2295 62.1677 52.9956 61.4969 54.8876 61.2855C56.7773 61.0763 60.9799 58.8072 61.863 56.3675C62.7026 53.9733 62.7026 51.8724 62.451 51.4518C62.1993 51.0312 61.4832 50.7788 60.4743 50.2331C59.4243 49.7283 54.382 47.2091 53.4143 46.8703C52.4489 46.5338 51.7763 46.3656 51.1037 47.3751C50.4311 48.4255 48.4567 50.7378 47.8253 51.4086C47.2374 52.0816 46.6082 52.1657 45.5993 51.661C44.5469 51.1585 41.2297 50.0648 37.2764 46.5338C34.2108 43.8031 32.1518 40.3994 31.5204 39.3899C30.9325 38.3395 31.4358 37.7938 31.9826 37.289C32.4447 36.8275 33.0349 36.0703 33.5382 35.4814C34.0415 34.8925 34.2085 34.431 34.5883 33.758C34.9246 33.0872 34.7553 32.4552 34.5037 31.9527C34.252 31.4888 32.2754 26.4049 31.3511 24.3449Z" fill="white"/>
<defs>
<linearGradient id="paint0_linear_364_45" x1="41.4931" y1="83.6952" x2="41.4931" y2="0.319232" gradientUnits="userSpaceOnUse">
<stop stop-color="#F9F9F9"/>
<stop offset="1" stop-color="white"/>
</linearGradient>
</defs>
</svg>
