<svg width="250" height="250" viewBox="0 0 250 250" fill="none" xmlns="http://www.w3.org/2000/svg">
<mask id="mask0_508_10019" style="mask-type:alpha" maskUnits="userSpaceOnUse" x="0" y="0" width="250" height="250">
<circle cx="125" cy="125" r="125" fill="#D9D9D9"/>
</mask>
<g mask="url(#mask0_508_10019)">
<path d="M-9.42188 16.6191H1.18023" stroke="white" stroke-miterlimit="10"/>
<path d="M14.5977 16.6191H25.1997" stroke="white" stroke-miterlimit="10"/>
<path d="M19.8984 11.3184V21.9205" stroke="white" stroke-miterlimit="10"/>
<path d="M38.6133 16.6191H49.2154" stroke="white" stroke-miterlimit="10"/>
<path d="M43.9141 11.3184V21.9205" stroke="white" stroke-miterlimit="10"/>
<path d="M62.6328 16.6191H73.2349" stroke="white" stroke-miterlimit="10"/>
<path d="M67.9336 11.3184V21.9205" stroke="white" stroke-miterlimit="10"/>
<path d="M86.6484 16.6191H97.2505" stroke="white" stroke-miterlimit="10"/>
<path d="M91.9492 11.3184V21.9205" stroke="white" stroke-miterlimit="10"/>
<path d="M110.605 16.6191H121.208" stroke="white" stroke-miterlimit="10"/>
<path d="M115.906 11.3184V21.9205" stroke="white" stroke-miterlimit="10"/>
<path d="M-9.42188 40.9668H1.18023" stroke="white" stroke-miterlimit="10"/>
<path d="M14.5977 40.9668H25.1997" stroke="white" stroke-miterlimit="10"/>
<path d="M19.8984 35.666V46.2681" stroke="white" stroke-miterlimit="10"/>
<path d="M38.6133 40.9668H49.2154" stroke="white" stroke-miterlimit="10"/>
<path d="M43.9141 35.666V46.2681" stroke="white" stroke-miterlimit="10"/>
<path d="M62.6328 40.9668H73.2349" stroke="white" stroke-miterlimit="10"/>
<path d="M67.9336 35.666V46.2681" stroke="white" stroke-miterlimit="10"/>
<path d="M86.6484 40.9668H97.2505" stroke="white" stroke-miterlimit="10"/>
<path d="M91.9492 35.666V46.2681" stroke="white" stroke-miterlimit="10"/>
<path d="M110.605 40.9668H121.208" stroke="white" stroke-miterlimit="10"/>
<path d="M115.906 35.666V46.2681" stroke="white" stroke-miterlimit="10"/>
<path d="M-9.42188 65.2461H1.18023" stroke="white" stroke-miterlimit="10"/>
<path d="M14.5977 65.2461H25.1997" stroke="white" stroke-miterlimit="10"/>
<path d="M19.8984 59.9453V70.5474" stroke="white" stroke-miterlimit="10"/>
<path d="M38.6133 65.2461H49.2154" stroke="white" stroke-miterlimit="10"/>
<path d="M43.9141 59.9453V70.5474" stroke="white" stroke-miterlimit="10"/>
<path d="M62.6328 65.2461H73.2349" stroke="white" stroke-miterlimit="10"/>
<path d="M67.9336 59.9453V70.5474" stroke="white" stroke-miterlimit="10"/>
<path d="M86.6484 65.2461H97.2505" stroke="white" stroke-miterlimit="10"/>
<path d="M91.9492 59.9453V70.5474" stroke="white" stroke-miterlimit="10"/>
<path d="M110.605 65.2461H121.208" stroke="white" stroke-miterlimit="10"/>
<path d="M115.906 59.9453V70.5474" stroke="white" stroke-miterlimit="10"/>
<path d="M-9.42188 89.5918H1.18023" stroke="white" stroke-miterlimit="10"/>
<path d="M14.5977 89.5918H25.1997" stroke="white" stroke-miterlimit="10"/>
<path d="M19.8984 84.293V94.8951" stroke="white" stroke-miterlimit="10"/>
<path d="M38.6133 89.5918H49.2154" stroke="white" stroke-miterlimit="10"/>
<path d="M43.9141 84.293V94.8951" stroke="white" stroke-miterlimit="10"/>
<path d="M62.6328 89.5918H73.2349" stroke="white" stroke-miterlimit="10"/>
<path d="M67.9336 84.293V94.8951" stroke="white" stroke-miterlimit="10"/>
<path d="M86.6484 89.5918H97.2505" stroke="white" stroke-miterlimit="10"/>
<path d="M91.9492 84.293V94.8951" stroke="white" stroke-miterlimit="10"/>
<path d="M110.605 89.5918H121.208" stroke="white" stroke-miterlimit="10"/>
<path d="M115.906 84.293V94.8951" stroke="white" stroke-miterlimit="10"/>
<path d="M-9.42188 113.873H1.18023" stroke="white" stroke-miterlimit="10"/>
<path d="M14.5977 113.873H25.1997" stroke="white" stroke-miterlimit="10"/>
<path d="M19.8984 108.572V119.174" stroke="white" stroke-miterlimit="10"/>
<path d="M38.6133 113.873H49.2154" stroke="white" stroke-miterlimit="10"/>
<path d="M43.9141 108.572V119.174" stroke="white" stroke-miterlimit="10"/>
<path d="M62.6328 113.873H73.2349" stroke="white" stroke-miterlimit="10"/>
<path d="M67.9336 108.572V119.174" stroke="white" stroke-miterlimit="10"/>
<path d="M86.6484 113.873H97.2505" stroke="white" stroke-miterlimit="10"/>
<path d="M91.9492 108.572V119.174" stroke="white" stroke-miterlimit="10"/>
<path d="M110.605 113.873H121.208" stroke="white" stroke-miterlimit="10"/>
<path d="M115.906 108.572V119.174" stroke="white" stroke-miterlimit="10"/>
<path d="M135.668 16.6191H146.27" stroke="white" stroke-miterlimit="10"/>
<path d="M140.969 11.3184V21.9205" stroke="white" stroke-miterlimit="10"/>
<path d="M159.688 16.6191H170.29" stroke="white" stroke-miterlimit="10"/>
<path d="M164.988 11.3184V21.9205" stroke="white" stroke-miterlimit="10"/>
<path d="M183.707 16.6191H194.309" stroke="white" stroke-miterlimit="10"/>
<path d="M189.008 11.3184V21.9205" stroke="white" stroke-miterlimit="10"/>
<path d="M207.723 16.6191H218.325" stroke="white" stroke-miterlimit="10"/>
<path d="M213.023 11.3184V21.9205" stroke="white" stroke-miterlimit="10"/>
<path d="M231.676 16.6191H242.278" stroke="white" stroke-miterlimit="10"/>
<path d="M236.977 11.3184V21.9205" stroke="white" stroke-miterlimit="10"/>
<path d="M135.668 40.9668H146.27" stroke="white" stroke-miterlimit="10"/>
<path d="M140.969 35.666V46.2681" stroke="white" stroke-miterlimit="10"/>
<path d="M159.688 40.9668H170.29" stroke="white" stroke-miterlimit="10"/>
<path d="M164.988 35.666V46.2681" stroke="white" stroke-miterlimit="10"/>
<path d="M183.707 40.9668H194.309" stroke="white" stroke-miterlimit="10"/>
<path d="M189.008 35.666V46.2681" stroke="white" stroke-miterlimit="10"/>
<path d="M207.723 40.9668H218.325" stroke="white" stroke-miterlimit="10"/>
<path d="M213.023 35.666V46.2681" stroke="white" stroke-miterlimit="10"/>
<path d="M231.676 40.9668H242.278" stroke="white" stroke-miterlimit="10"/>
<path d="M236.977 35.666V46.2681" stroke="white" stroke-miterlimit="10"/>
<path d="M135.668 65.2461H146.27" stroke="white" stroke-miterlimit="10"/>
<path d="M140.969 59.9453V70.5474" stroke="white" stroke-miterlimit="10"/>
<path d="M159.688 65.2461H170.29" stroke="white" stroke-miterlimit="10"/>
<path d="M164.988 59.9453V70.5474" stroke="white" stroke-miterlimit="10"/>
<path d="M183.703 65.2461H194.305" stroke="white" stroke-miterlimit="10"/>
<path d="M189.004 59.9453V70.5474" stroke="white" stroke-miterlimit="10"/>
<path d="M207.723 65.2461H218.325" stroke="white" stroke-miterlimit="10"/>
<path d="M213.023 59.9453V70.5474" stroke="white" stroke-miterlimit="10"/>
<path d="M231.676 65.2461H242.278" stroke="white" stroke-miterlimit="10"/>
<path d="M236.977 59.9453V70.5474" stroke="white" stroke-miterlimit="10"/>
<path d="M135.668 89.5918H146.27" stroke="white" stroke-miterlimit="10"/>
<path d="M140.969 84.293V94.8951" stroke="white" stroke-miterlimit="10"/>
<path d="M159.688 89.5918H170.29" stroke="white" stroke-miterlimit="10"/>
<path d="M164.988 84.293V94.8951" stroke="white" stroke-miterlimit="10"/>
<path d="M183.707 89.5918H194.309" stroke="white" stroke-miterlimit="10"/>
<path d="M189.008 84.293V94.8951" stroke="white" stroke-miterlimit="10"/>
<path d="M207.723 89.5918H218.325" stroke="white" stroke-miterlimit="10"/>
<path d="M213.023 84.293V94.8951" stroke="white" stroke-miterlimit="10"/>
<path d="M231.676 89.5918H242.278" stroke="white" stroke-miterlimit="10"/>
<path d="M236.977 84.293V94.8951" stroke="white" stroke-miterlimit="10"/>
<path d="M135.668 113.873H146.27" stroke="white" stroke-miterlimit="10"/>
<path d="M140.969 108.572V119.174" stroke="white" stroke-miterlimit="10"/>
<path d="M159.688 113.873H170.29" stroke="white" stroke-miterlimit="10"/>
<path d="M164.988 108.572V119.174" stroke="white" stroke-miterlimit="10"/>
<path d="M183.703 113.873H194.305" stroke="white" stroke-miterlimit="10"/>
<path d="M189.004 108.572V119.174" stroke="white" stroke-miterlimit="10"/>
<path d="M207.723 113.873H218.325" stroke="white" stroke-miterlimit="10"/>
<path d="M213.023 108.572V119.174" stroke="white" stroke-miterlimit="10"/>
<path d="M231.676 113.873H242.278" stroke="white" stroke-miterlimit="10"/>
<path d="M236.977 108.572V119.174" stroke="white" stroke-miterlimit="10"/>
<path d="M-9.42188 138.805H1.18023" stroke="white" stroke-miterlimit="10"/>
<path d="M14.5977 138.805H25.1997" stroke="white" stroke-miterlimit="10"/>
<path d="M19.8984 133.504V144.106" stroke="white" stroke-miterlimit="10"/>
<path d="M38.6133 138.805H49.2154" stroke="white" stroke-miterlimit="10"/>
<path d="M43.9141 133.504V144.106" stroke="white" stroke-miterlimit="10"/>
<path d="M62.6328 138.805H73.2349" stroke="white" stroke-miterlimit="10"/>
<path d="M67.9336 133.504V144.106" stroke="white" stroke-miterlimit="10"/>
<path d="M86.6484 138.805H97.2505" stroke="white" stroke-miterlimit="10"/>
<path d="M91.9492 133.504V144.106" stroke="white" stroke-miterlimit="10"/>
<path d="M110.605 138.805H121.208" stroke="white" stroke-miterlimit="10"/>
<path d="M115.906 133.504V144.106" stroke="white" stroke-miterlimit="10"/>
<path d="M-9.42188 163.152H1.18023" stroke="white" stroke-miterlimit="10"/>
<path d="M14.5977 163.152H25.1997" stroke="white" stroke-miterlimit="10"/>
<path d="M19.8984 157.852V168.454" stroke="white" stroke-miterlimit="10"/>
<path d="M38.6133 163.152H49.2154" stroke="white" stroke-miterlimit="10"/>
<path d="M43.9141 157.852V168.454" stroke="white" stroke-miterlimit="10"/>
<path d="M62.6328 163.152H73.2349" stroke="white" stroke-miterlimit="10"/>
<path d="M67.9336 157.852V168.454" stroke="white" stroke-miterlimit="10"/>
<path d="M86.6484 163.152H97.2505" stroke="white" stroke-miterlimit="10"/>
<path d="M91.9492 157.852V168.454" stroke="white" stroke-miterlimit="10"/>
<path d="M110.605 163.152H121.208" stroke="white" stroke-miterlimit="10"/>
<path d="M115.906 157.852V168.454" stroke="white" stroke-miterlimit="10"/>
<path d="M-9.42188 187.432H1.18023" stroke="white" stroke-miterlimit="10"/>
<path d="M14.5977 187.432H25.1997" stroke="white" stroke-miterlimit="10"/>
<path d="M19.8984 182.195V192.732" stroke="white" stroke-miterlimit="10"/>
<path d="M38.6133 187.432H49.2154" stroke="white" stroke-miterlimit="10"/>
<path d="M43.9141 182.195V192.732" stroke="white" stroke-miterlimit="10"/>
<path d="M62.6328 187.432H73.2349" stroke="white" stroke-miterlimit="10"/>
<path d="M67.9336 182.195V192.732" stroke="white" stroke-miterlimit="10"/>
<path d="M86.6484 187.432H97.2505" stroke="white" stroke-miterlimit="10"/>
<path d="M91.9492 182.195V192.732" stroke="white" stroke-miterlimit="10"/>
<path d="M110.605 187.432H121.208" stroke="white" stroke-miterlimit="10"/>
<path d="M115.906 182.195V192.732" stroke="white" stroke-miterlimit="10"/>
<path d="M-9.42188 211.781H1.18023" stroke="white" stroke-miterlimit="10"/>
<path d="M14.5977 211.781H25.1997" stroke="white" stroke-miterlimit="10"/>
<path d="M19.8984 206.48V217.083" stroke="white" stroke-miterlimit="10"/>
<path d="M38.6133 211.781H49.2154" stroke="white" stroke-miterlimit="10"/>
<path d="M43.9141 206.48V217.083" stroke="white" stroke-miterlimit="10"/>
<path d="M62.6328 211.781H73.2349" stroke="white" stroke-miterlimit="10"/>
<path d="M67.9336 206.48V217.083" stroke="white" stroke-miterlimit="10"/>
<path d="M86.6484 211.781H97.2505" stroke="white" stroke-miterlimit="10"/>
<path d="M91.9492 206.48V217.083" stroke="white" stroke-miterlimit="10"/>
<path d="M110.605 211.781H121.208" stroke="white" stroke-miterlimit="10"/>
<path d="M115.906 206.48V217.083" stroke="white" stroke-miterlimit="10"/>
<path d="M-9.42188 236.121H1.18023" stroke="white" stroke-miterlimit="10"/>
<path d="M14.5977 236.121H25.1997" stroke="white" stroke-miterlimit="10"/>
<path d="M19.8984 230.822V241.424" stroke="white" stroke-miterlimit="10"/>
<path d="M38.6133 236.121H49.2154" stroke="white" stroke-miterlimit="10"/>
<path d="M43.9141 230.822V241.424" stroke="white" stroke-miterlimit="10"/>
<path d="M62.6328 236.121H73.2349" stroke="white" stroke-miterlimit="10"/>
<path d="M67.9336 230.822V241.424" stroke="white" stroke-miterlimit="10"/>
<path d="M86.6484 236.121H97.2505" stroke="white" stroke-miterlimit="10"/>
<path d="M91.9492 230.822V241.424" stroke="white" stroke-miterlimit="10"/>
<path d="M110.605 236.121H121.208" stroke="white" stroke-miterlimit="10"/>
<path d="M115.906 230.822V241.424" stroke="white" stroke-miterlimit="10"/>
<path d="M135.668 138.805H146.27" stroke="white" stroke-miterlimit="10"/>
<path d="M140.969 133.504V144.106" stroke="white" stroke-miterlimit="10"/>
<path d="M159.688 138.805H170.29" stroke="white" stroke-miterlimit="10"/>
<path d="M164.988 133.504V144.106" stroke="white" stroke-miterlimit="10"/>
<path d="M183.703 138.805H194.305" stroke="white" stroke-miterlimit="10"/>
<path d="M189.004 133.504V144.106" stroke="white" stroke-miterlimit="10"/>
<path d="M207.723 138.805H218.325" stroke="white" stroke-miterlimit="10"/>
<path d="M213.023 133.504V144.106" stroke="white" stroke-miterlimit="10"/>
<path d="M231.676 138.805H242.278" stroke="white" stroke-miterlimit="10"/>
<path d="M236.977 133.504V144.106" stroke="white" stroke-miterlimit="10"/>
<path d="M135.668 163.152H146.27" stroke="white" stroke-miterlimit="10"/>
<path d="M140.969 157.852V168.454" stroke="white" stroke-miterlimit="10"/>
<path d="M159.688 163.152H170.29" stroke="white" stroke-miterlimit="10"/>
<path d="M164.988 157.852V168.454" stroke="white" stroke-miterlimit="10"/>
<path d="M183.707 163.152H194.309" stroke="white" stroke-miterlimit="10"/>
<path d="M189.008 157.852V168.454" stroke="white" stroke-miterlimit="10"/>
<path d="M207.723 163.152H218.325" stroke="white" stroke-miterlimit="10"/>
<path d="M213.023 157.852V168.454" stroke="white" stroke-miterlimit="10"/>
<path d="M231.676 163.152H242.278" stroke="white" stroke-miterlimit="10"/>
<path d="M236.977 157.852V168.454" stroke="white" stroke-miterlimit="10"/>
<path d="M135.668 187.432H146.27" stroke="white" stroke-miterlimit="10"/>
<path d="M140.969 182.195V192.732" stroke="white" stroke-miterlimit="10"/>
<path d="M159.684 187.432H170.286" stroke="white" stroke-miterlimit="10"/>
<path d="M164.984 182.195V192.732" stroke="white" stroke-miterlimit="10"/>
<path d="M183.703 187.432H194.305" stroke="white" stroke-miterlimit="10"/>
<path d="M189.004 182.195V192.732" stroke="white" stroke-miterlimit="10"/>
<path d="M207.723 187.432H218.325" stroke="white" stroke-miterlimit="10"/>
<path d="M213.023 182.195V192.732" stroke="white" stroke-miterlimit="10"/>
<path d="M231.676 187.432H242.278" stroke="white" stroke-miterlimit="10"/>
<path d="M236.977 182.195V192.732" stroke="white" stroke-miterlimit="10"/>
<path d="M135.668 211.781H146.27" stroke="white" stroke-miterlimit="10"/>
<path d="M140.969 206.48V217.083" stroke="white" stroke-miterlimit="10"/>
<path d="M159.688 211.781H170.29" stroke="white" stroke-miterlimit="10"/>
<path d="M164.988 206.48V217.083" stroke="white" stroke-miterlimit="10"/>
<path d="M183.703 211.781H194.305" stroke="white" stroke-miterlimit="10"/>
<path d="M189.004 206.48V217.083" stroke="white" stroke-miterlimit="10"/>
<path d="M207.723 211.781H218.325" stroke="white" stroke-miterlimit="10"/>
<path d="M213.023 206.48V217.083" stroke="white" stroke-miterlimit="10"/>
<path d="M231.676 211.781H242.278" stroke="white" stroke-miterlimit="10"/>
<path d="M236.977 206.48V217.083" stroke="white" stroke-miterlimit="10"/>
<path d="M135.668 236.121H146.27" stroke="white" stroke-miterlimit="10"/>
<path d="M140.969 230.822V241.424" stroke="white" stroke-miterlimit="10"/>
<path d="M159.688 236.121H170.29" stroke="white" stroke-miterlimit="10"/>
<path d="M164.988 230.822V241.424" stroke="white" stroke-miterlimit="10"/>
<path d="M183.703 236.121H194.305" stroke="white" stroke-miterlimit="10"/>
<path d="M189.004 230.822V241.424" stroke="white" stroke-miterlimit="10"/>
<path d="M207.723 236.121H218.325" stroke="white" stroke-miterlimit="10"/>
<path d="M213.023 230.822V241.424" stroke="white" stroke-miterlimit="10"/>
<path d="M231.676 236.121H242.278" stroke="white" stroke-miterlimit="10"/>
<path d="M236.977 230.822V241.424" stroke="white" stroke-miterlimit="10"/>
</g>
</svg>
