<svg width="102" height="18" viewBox="0 0 102 18" fill="none" xmlns="http://www.w3.org/2000/svg">
<path d="M101.733 10.5822C101.411 9.02525 100.414 8.06305 98.9841 7.49805C97.4533 6.89275 95.8317 6.58655 94.2555 6.12655C93.9038 6.02325 93.5592 5.90785 93.2233 5.76615C92.7037 5.54745 92.3749 5.16085 92.3451 4.60275C92.3119 4.02025 92.632 3.59865 93.1253 3.31345C93.8146 2.91285 94.5651 2.94265 95.3033 3.09835C96.3057 3.31175 96.9128 3.99045 97.2189 4.92995C97.3466 5.32355 97.5443 5.39525 97.9187 5.31125C98.8738 5.09785 99.8395 4.93515 100.795 4.72175C101.339 4.59925 101.357 4.56775 101.182 4.06395C100.524 2.16415 99.1205 1.04105 97.2452 0.530249C95.1389 -0.0418506 93.0291 0.0526492 91.0121 0.946549C89.6511 1.55005 88.6294 2.51225 88.2515 4.00795C87.69 6.22625 88.6854 8.27475 90.7514 9.28245C92.0775 9.92795 93.5242 10.1798 94.9185 10.5979C95.4433 10.7553 95.9699 10.9058 96.4684 11.135C97.2364 11.4901 97.5163 11.9799 97.4358 12.7916C97.3711 13.4389 96.932 13.9462 96.1903 14.1019C94.175 14.527 92.4746 13.829 91.85 11.7472C91.7486 11.4114 91.5859 11.3309 91.2727 11.4061C90.2249 11.658 89.1665 11.8646 88.1203 12.1305C87.669 12.2459 87.613 12.3404 87.76 12.8091C88.2218 14.2839 89.1367 15.3965 90.4995 16.1312C91.7346 16.796 93.0589 17.0916 94.4636 17.1231C95.8929 17.1564 97.2854 17.0217 98.5974 16.4286C99.8588 15.8583 100.874 15.017 101.432 13.7084C101.542 13.4478 101.63 13.1835 101.677 12.9036C101.708 12.7164 101.721 12.496 101.993 12.4803V10.9915C101.727 10.9705 101.764 10.7361 101.733 10.5822Z" fill="#363434"/>
<path d="M98.3929 7.14215C97.0791 6.73455 95.7426 6.40045 94.4148 6.04005C93.9337 5.90885 93.4544 5.77235 93.024 5.51525C92.5412 5.22655 92.3557 4.71925 92.5324 4.18745C92.6969 3.68715 93.0695 3.38625 93.5593 3.26375C95.1005 2.87715 96.6505 3.31625 97.1823 5.19335C97.247 5.42255 97.289 5.59215 97.5969 5.52575C98.797 5.26685 99.9966 5.01835 101.203 4.78225C101.483 4.72795 101.497 4.61255 101.428 4.37285C101.098 3.20075 100.442 2.26135 99.495 1.49685C97.0109 -0.507947 92.277 -0.257747 89.9941 1.36565C87.1093 3.41775 87.286 7.42905 90.3439 9.22045C91.2589 9.75575 92.2718 10.006 93.2759 10.2964C94.3571 10.6095 95.4767 10.8089 96.5001 11.3058C97.0704 11.5822 97.4097 12.009 97.3538 12.6825C97.2978 13.3438 96.9164 13.7672 96.3181 13.9421C93.9739 14.6279 92.284 13.3298 91.9446 11.5524C91.8799 11.2095 91.754 11.1623 91.4496 11.234C90.2565 11.5174 89.0599 11.7956 87.8598 12.0475C87.5327 12.1157 87.4662 12.2347 87.5467 12.5461C87.9683 14.1695 88.8815 15.4448 90.3719 16.2111C93.1342 17.6298 95.9962 17.698 98.8232 16.456C100.403 15.7615 101.556 14.5946 101.819 12.77C101.833 12.6685 101.936 12.5811 101.997 12.4866C101.724 12.5023 101.712 12.7228 101.68 12.91C101.633 13.1899 101.547 13.454 101.435 13.7147C100.877 15.0232 99.8624 15.8647 98.6011 16.435C97.289 17.028 95.8983 17.1627 94.4673 17.1295C93.0625 17.098 91.7382 16.8023 90.5031 16.1376C89.1404 15.4028 88.2254 14.2902 87.7636 12.8155C87.6166 12.3484 87.6726 12.2522 88.124 12.1367C89.1684 11.8708 90.2285 11.6644 91.2764 11.4125C91.5895 11.3372 91.754 11.4177 91.8537 11.7536C92.48 13.8354 94.1786 14.5334 96.1939 14.1083C96.9357 13.9526 97.3747 13.4453 97.4395 12.798C97.5199 11.9863 97.2418 11.4964 96.4721 11.1413C95.9752 10.9121 95.4487 10.7617 94.9221 10.6043C93.5261 10.1861 92.0811 9.93415 90.755 9.28865C88.689 8.28275 87.6936 6.23245 88.2552 4.01425C88.633 2.51855 89.6564 1.55465 91.0157 0.952852C93.0328 0.0588523 95.1425 -0.0373477 97.2488 0.536452C99.1241 1.04725 100.528 2.17035 101.185 4.07025C101.36 4.57405 101.343 4.60555 100.799 4.72795C99.8431 4.94145 98.8775 5.10415 97.9223 5.31755C97.5497 5.40155 97.352 5.32975 97.2226 4.93615C96.9164 3.99675 96.3094 3.31795 95.307 3.10455C94.5687 2.94715 93.82 2.91915 93.129 3.31975C92.6374 3.60485 92.3173 4.02645 92.3487 4.60905C92.3802 5.16705 92.7091 5.55375 93.2269 5.77235C93.5628 5.91405 93.9075 6.03125 94.2591 6.13275C95.8335 6.59285 97.4552 6.89895 98.9877 7.50425C100.417 8.06935 101.414 9.02975 101.736 10.5885C101.768 10.7425 101.731 10.9769 101.997 10.9979C101.824 10.7092 101.841 10.3698 101.74 10.0602C101.201 8.42795 99.9271 7.62145 98.3964 7.14565L98.3929 7.14215Z" fill="#363434"/>
<path d="M23.9352 1.9043C22.1385 -0.492405 18.4876 -0.655105 16.488 1.5771C15.916 2.2156 15.5346 2.9661 15.2459 3.7674C15.1952 3.9056 15.134 4.0403 15.057 4.2274C14.2383 1.9935 13.0487 0.265095 10.5016 0.0586951C7.55737 -0.179305 5.97592 1.4757 4.99276 4C4.99276 3.0081 4.98052 2.0145 4.99976 1.0226C5.00501 0.695396 4.94203 0.558996 4.57116 0.564196C3.17689 0.585196 1.78263 0.581696 0.388365 0.564196C0.0769732 0.562496 0 0.655196 0 0.956096C0.00874695 6.1028 0.0104963 11.2478 0 16.3927C0 16.7041 0.0927177 16.7811 0.393613 16.7776C1.77038 16.7636 3.1489 16.7496 4.52567 16.7828C4.99626 16.7933 5.13446 16.6831 5.13446 16.1933C5.13446 13.5132 5.04524 10.8332 5.19569 8.1548C5.24992 7.1787 5.38288 6.2078 5.8867 5.3366C6.36953 4.5021 7.12527 4.1732 8.17665 4.3202C9.1843 4.4601 9.66539 4.894 9.91555 5.8929C10.0293 6.3442 10.066 6.8043 10.066 7.2696C10.0625 10.2803 10.066 13.2928 10.0625 16.3035C10.0625 16.5589 10.024 16.7846 10.4229 16.7793C11.8994 16.7601 13.3776 16.7653 14.8541 16.7776C15.1445 16.7793 15.2232 16.6779 15.218 16.4032C15.204 15.5268 15.2092 14.6503 15.2145 13.7721C15.2232 11.9195 15.2057 10.0652 15.2617 8.2143C15.2932 7.1559 15.4419 6.0958 16.0542 5.1791C16.5877 4.3796 17.368 4.1855 18.2776 4.3202C19.1558 4.4496 19.7384 4.8975 19.9553 5.7792C20.0743 6.2637 20.132 6.7536 20.132 7.2521C20.1355 9.0715 20.1407 10.8926 20.1477 12.712C20.153 13.9033 20.174 15.0947 20.1635 16.2843C20.16 16.6604 20.2702 16.7898 20.6691 16.7811C22.0126 16.7548 23.3579 16.7496 24.7014 16.7828C25.1702 16.7951 25.3242 16.6831 25.3189 16.1985C25.2909 12.6263 25.3329 9.054 25.2175 5.48C25.1737 4.1277 24.7276 2.9644 23.9334 1.9025L23.9352 1.9043Z" fill="#363434"/>
<path d="M75.1314 9.70058C78.401 9.72508 81.6723 9.70588 84.942 9.72338C85.3653 9.72508 85.4703 9.60268 85.458 9.19678C85.43 8.33608 85.3916 7.47888 85.2638 6.62688C84.6621 2.61208 81.8788 0.133184 77.8307 0.0754835C74.9722 0.0351835 72.5405 0.953683 70.9171 3.44658C69.689 5.33418 69.4196 7.45268 69.5683 9.63938C69.6943 11.5112 70.2103 13.2606 71.4891 14.6969C73.1301 16.5425 75.2871 17.139 77.8814 17.1548C78.1683 17.132 78.6669 17.118 79.1585 17.0498C82.0747 16.644 84.1477 15.129 85.2971 12.3964C85.43 12.0798 85.3986 11.9468 85.0382 11.8506C83.9326 11.555 82.8304 11.2418 81.7441 10.8867C81.277 10.7345 81.0758 10.787 80.8974 11.2926C80.3586 12.8163 79.2232 13.5405 77.6522 13.4601C76.1618 13.3831 75.2241 12.5871 74.785 11.0162C74.7185 10.7783 74.6835 10.5316 74.6275 10.2902C74.5278 9.85978 74.638 9.69888 75.1331 9.70238L75.1314 9.70058ZM74.7483 6.26658C75.0229 5.02978 75.4865 3.95388 76.872 3.60928C78.6949 3.15618 80.4163 4.58188 80.3096 6.43628C80.2921 6.73538 80.1119 6.68638 79.9387 6.68818C79.127 6.69168 78.3153 6.68818 77.5035 6.68818C76.7076 6.68818 75.9134 6.67768 75.1174 6.69338C74.7885 6.70038 74.673 6.61468 74.75 6.26658H74.7483Z" fill="#363434"/>
<path d="M64.1764 8.70259C63.9717 8.41569 63.9542 8.22678 64.1694 7.92938C65.8243 5.63238 67.46 3.32149 69.0957 1.01228C69.1832 0.888085 69.3546 0.788285 69.2776 0.571385C67.5702 0.571385 65.8611 0.576685 64.1519 0.566185C63.8948 0.564385 63.7688 0.683385 63.6376 0.870585C62.7314 2.15639 61.8077 3.42989 60.9103 4.72099C60.6899 5.03759 60.5832 5.02708 60.368 4.71398C59.4985 3.44388 58.5993 2.19309 57.7264 0.924785C57.548 0.665885 57.3625 0.557385 57.0389 0.562685C55.6954 0.583685 54.3501 0.571385 53.0065 0.571385C52.6689 0.571385 52.3313 0.571385 51.9219 0.571385C52.0216 0.718385 52.0654 0.786585 52.1126 0.849585C53.9792 3.35989 55.8406 5.87558 57.7194 8.37718C57.9451 8.67808 57.9608 8.87229 57.7351 9.18539C56.1257 11.4124 54.5373 13.6569 52.9453 15.8961C52.7581 16.1585 52.5797 16.4296 52.3645 16.7445C52.5727 16.7568 52.7004 16.769 52.8281 16.7708C54.3711 16.7708 55.9158 16.762 57.4587 16.7795C57.7789 16.783 57.9696 16.6816 58.1498 16.4209C59.0297 15.1578 59.9394 13.9158 60.8158 12.6492C61.0397 12.3256 61.1482 12.3501 61.3581 12.6527C62.2153 13.8913 63.1023 15.1106 63.9577 16.3492C64.1642 16.6483 64.3758 16.79 64.7607 16.783C66.2704 16.7568 67.7819 16.7743 69.2916 16.769C69.4491 16.769 69.617 16.818 69.8007 16.6991C69.6905 16.5329 69.5873 16.3702 69.4753 16.2127C67.7119 13.7076 65.9538 11.2007 64.1799 8.70429L64.1764 8.70259Z" fill="#363434"/>
<path d="M48.1172 0.109305C46.1719 -0.188095 44.4977 0.301705 43.2766 1.94271C42.82 2.55671 42.5174 3.25121 42.1448 3.94221C42.1448 2.98531 42.1308 2.03011 42.1518 1.0732C42.1605 0.705805 42.0888 0.553606 41.6707 0.562406C40.3114 0.590406 38.9486 0.590406 37.5894 0.562406C37.1923 0.553606 37.1363 0.693605 37.1363 1.0435C37.1468 6.1202 37.1485 11.1987 37.1328 16.2754C37.1328 16.7058 37.264 16.7897 37.6646 16.781C38.9906 16.7565 40.3184 16.7722 41.6462 16.7722C42.2707 16.7722 42.2655 16.7722 42.2725 16.125C42.3005 13.4624 42.1903 10.7998 42.3442 8.13901C42.4037 7.09641 42.5401 6.05721 43.1507 5.15981C43.6528 4.42331 44.377 4.1976 45.236 4.3131C46.0739 4.4268 46.4885 4.97081 46.7229 5.72131C46.9486 6.44731 46.9189 7.19261 46.9241 7.93431C46.9241 8.18451 46.9976 8.28771 47.2618 8.28591C48.7557 8.27721 50.248 8.27891 51.7419 8.28591C51.9624 8.28591 52.0813 8.2317 52.0796 7.9833C52.0796 6.4456 52.1268 4.90611 51.6877 3.40511C51.1576 1.59451 50.0363 0.401405 48.1172 0.109305Z" fill="#363434"/>
<path d="M33.8034 10.5926C33.8034 10.213 33.8034 9.83156 33.8034 9.45196C33.8034 7.89846 33.8034 6.34506 33.8034 4.79156C33.8034 4.64636 33.8349 4.47496 33.6669 4.39796C33.4763 4.31046 33.4063 4.49416 33.3153 4.59566C32.8657 5.09596 32.2989 5.43886 31.7251 5.77126C30.0597 6.73516 28.9803 8.11366 28.8036 10.0625C28.6112 12.1705 28.6567 14.2873 28.6724 16.4023C28.6742 16.7259 28.8001 16.7802 29.0835 16.7784C30.5093 16.7679 31.935 16.7574 33.3608 16.7837C33.7614 16.7907 33.8156 16.6402 33.8139 16.2956C33.7999 14.3958 33.8069 12.4942 33.8069 10.5926H33.8034Z" fill="#363434"/>
<path d="M33.3763 0.567399C32.6643 0.595399 31.9488 0.576199 31.2368 0.576199C30.523 0.576199 29.8093 0.590199 29.0955 0.569199C28.7736 0.558699 28.6652 0.653199 28.6722 0.983799C28.6932 1.96 28.6792 2.9361 28.6792 3.9105C28.6792 4.8657 29.1655 5.2762 30.1381 5.1421C32.4264 4.829 33.8329 3.2388 33.8119 1.0188C33.8084 0.684698 33.7349 0.553499 33.3745 0.567399H33.3763Z" fill="#363434"/>
</svg>
