<svg width="102" height="43" viewBox="0 0 102 43" fill="none" xmlns="http://www.w3.org/2000/svg">
<path d="M23.3418 32.9951C23.1068 32.3489 22.9305 31.7614 22.6955 31.1152C22.4606 30.4689 22.2843 29.8815 22.0493 29.2352C22.3431 29.2352 22.578 29.2352 22.813 29.2352C23.048 29.9402 23.283 30.7039 23.518 31.4089C23.518 31.4676 23.5768 31.5264 23.6355 31.5851C23.6942 31.5851 23.8117 31.5264 23.8117 31.5264C23.9292 30.7627 24.3405 30.0577 24.5167 29.2352C24.7517 29.294 24.9279 29.294 25.1042 29.3527C25.3392 29.4115 25.2217 29.7052 25.2804 29.8227C25.5742 30.4689 25.7504 31.1152 25.9854 31.8789C26.1616 31.3501 26.3379 30.8802 26.5141 30.4102C26.5729 30.2339 26.6316 30.0577 26.6904 29.9402C26.8079 29.3527 26.8079 29.3527 27.5128 29.3527C27.4541 30.0577 27.1016 30.6452 26.9254 31.2914C26.7491 31.9376 26.5729 32.5838 26.2204 33.1713C26.0442 33.1713 25.9267 33.1713 25.7504 33.1713C25.4567 32.3489 25.1629 31.4676 24.8105 30.5277C24.5167 31.4676 24.223 32.2901 23.988 33.1713C23.753 32.9951 23.518 32.9951 23.3418 32.9951Z" fill="#363434"/>
<path d="M4.89504 32.9952C4.89504 32.9364 4.8363 32.8777 4.8363 32.8777C4.13133 32.8189 3.77884 32.4077 3.54385 31.7615C3.42635 31.409 3.36761 30.5865 3.54385 30.2928C3.77884 29.8228 4.13133 29.4116 4.60131 29.2941C5.13003 29.1766 5.71751 29.1179 6.24624 29.3528C6.77497 29.5878 7.00996 30.1166 7.1862 30.5865C7.47994 31.3503 7.00996 32.2902 6.24624 32.7602C6.07 32.8777 5.9525 32.9952 5.77626 33.0539C5.54127 32.9952 5.24753 32.9952 4.89504 32.9952ZM6.59872 30.9978C6.53998 30.1166 6.18749 29.7641 5.30628 29.8228C4.66005 29.8228 4.19007 30.2928 4.13133 30.9978C4.07258 31.409 4.48381 32.114 5.01254 32.2315C5.18878 32.2902 5.48252 32.6427 5.65876 32.2315C6.01125 32.349 6.18749 32.0552 6.36373 31.8202C6.48123 31.5265 6.48123 31.2328 6.59872 30.9978Z" fill="#363434"/>
<path d="M19.3471 32.9953C19.2884 32.9365 19.2296 32.8778 19.1121 32.819C18.4071 32.6428 17.9372 32.2315 17.8784 31.4678C17.8784 31.4091 17.8784 30.3516 17.8784 30.3516C18.0547 30.1166 18.2897 29.8229 18.5246 29.5879C18.8184 29.2942 19.1121 29.1179 19.5233 29.1767C19.9346 29.1767 20.3458 29.1767 20.7571 29.4117C21.4033 29.8229 21.932 30.7628 21.697 31.4678C21.5208 31.9378 21.2858 32.5253 20.6396 32.7015C20.5221 32.7603 20.4046 32.8778 20.2283 32.9953C19.9346 32.9953 19.6408 32.9953 19.3471 32.9953ZM19.2296 29.7641C19.1709 29.8229 19.1121 29.8816 19.0534 29.9404C18.4071 30.5279 18.3484 31.1153 18.8184 31.7616C18.7596 31.9965 18.9359 31.9965 19.1121 32.0553C19.3471 32.1728 19.6408 32.349 19.8758 32.2903C20.1108 32.2903 20.3458 32.114 20.5221 31.9965C20.6983 31.8791 20.8745 31.6441 20.8745 31.4678C20.9333 31.1741 20.8745 30.8216 20.8745 30.6454C20.5808 30.3516 20.3458 30.0579 20.1108 29.8229C19.8758 29.7641 19.5821 29.7641 19.2296 29.7641Z" fill="#363434"/>
<path d="M41.3773 32.9953C41.0836 32.7603 40.7311 32.5253 40.4373 32.2903C39.9086 31.8791 39.8499 31.2916 39.9674 30.7041C40.0261 30.4104 40.2023 30.0579 40.3786 29.7642C40.5548 29.4704 40.9073 29.4117 41.201 29.2942C42.2585 28.8242 43.551 29.5292 43.7859 30.7041C43.7859 30.7629 43.7859 31.8203 43.7859 31.8203C43.6097 32.0553 43.4335 32.2903 43.2572 32.4666C43.081 32.7015 42.846 32.819 42.5522 32.819C42.4935 32.819 42.4347 32.9365 42.376 32.9953C42.0235 32.9953 41.7298 32.9953 41.3773 32.9953ZM41.4948 29.7642C41.2598 29.9992 41.0248 30.2341 40.7898 30.4691C40.7898 30.5866 40.7898 30.7629 40.7898 30.9391C40.7898 31.7028 40.9661 31.8791 41.7298 32.2316C41.906 32.2903 42.0823 32.4078 42.1998 32.2903C42.376 32.1141 42.7285 32.1141 42.9047 31.8203C43.3747 31.0566 43.2572 30.5279 42.6697 29.9992C42.611 29.9404 42.5522 29.8229 42.5522 29.8229C42.0823 29.7642 41.7885 29.7642 41.4948 29.7642Z" fill="#363434"/>
<path d="M32.6235 32.9953C32.6235 32.9365 32.6235 32.8778 32.5648 32.8778C31.9186 32.7015 31.9186 32.7015 31.5073 32.2903C31.6248 32.1141 31.8011 31.9966 31.9186 31.8203C32.271 32.1728 32.6235 32.4078 33.0935 32.349C33.3285 32.349 33.6222 32.2316 33.7397 31.8791C33.5047 31.4678 32.976 31.4678 32.5648 31.2916C32.0361 31.0566 32.0361 31.1154 31.6248 30.7041C31.6836 30.4104 31.5661 30.0579 31.8011 29.7054C31.9186 29.5879 31.9773 29.4704 32.1535 29.3529C32.5648 29.1179 33.0348 29.2354 33.446 29.2354C33.7397 29.2354 34.0335 29.4117 34.2685 29.6467C34.2097 29.8229 34.0922 29.9991 33.9747 30.1754C33.916 30.1754 33.7985 30.1166 33.7397 30.1166C33.446 29.8229 33.0348 29.8229 32.6235 29.8817C32.506 29.8817 32.3298 30.0579 32.1535 30.1754C32.4473 30.4691 32.5648 30.7629 32.976 30.7041C33.0348 30.7041 33.1523 30.8216 33.211 30.8216C34.151 31.1154 34.386 31.1741 34.3272 32.4078C34.2097 32.4665 34.0335 32.584 33.8572 32.7603C33.7397 32.9365 33.3872 32.6428 33.3285 32.9953C33.1523 32.9953 32.8585 32.9953 32.6235 32.9953Z" fill="#363434"/>
<path d="M51.6582 32.9952C51.5407 32.8777 51.4232 32.7602 51.247 32.7015C49.9545 31.9378 49.9545 30.8216 50.6007 29.8229C50.8357 29.4116 51.3645 29.2354 51.8344 29.1766C52.0107 29.1766 52.1282 29.1766 52.3044 29.1766C52.9506 29.1766 53.0094 29.2354 53.5381 29.8229C53.2444 30.2341 53.2444 30.2341 52.8919 30.0578C52.3632 29.8229 52.3632 29.8229 51.7169 29.8229C51.482 30.0578 51.3057 30.2928 51.012 30.5866C51.012 30.8216 51.012 31.2328 51.0707 31.5265C51.247 32.114 51.6582 32.349 52.4807 32.1728C52.7157 32.114 53.0094 31.9965 53.3031 31.879C53.3619 31.9378 53.5381 32.0553 53.5381 32.1728C53.5969 32.2903 53.5969 32.4078 53.4206 32.5252C53.1269 32.7015 52.8332 32.7602 52.5982 32.9952C52.3044 32.9952 51.9519 32.9952 51.6582 32.9952Z" fill="#363434"/>
<path d="M21.5794 9.31985C21.5794 9.55484 21.5794 9.84858 21.5794 10.0836C21.5794 15.1359 21.5794 20.1882 21.5794 25.2992C21.5794 25.4754 21.5794 25.6517 21.5794 25.8279C21.5794 26.1217 21.4619 26.2392 21.1682 26.2392C20.4045 26.2392 19.6995 26.2392 18.9358 26.2392C18.7008 26.2392 18.5833 26.1217 18.5245 25.8279C18.5245 25.6517 18.5245 25.4754 18.5245 25.2992C18.5245 22.4206 18.5245 19.5419 18.5245 16.6045C18.5245 16.3696 18.5245 16.1346 18.5245 15.7821C17.4671 17.3683 16.5271 18.837 15.5872 20.3644C14.7647 21.7156 13.8247 23.008 13.061 24.418C12.7673 24.9467 12.356 25.4167 12.0036 25.8867C11.3573 25.8867 10.7699 25.8867 10.1236 25.8867C9.77114 25.8867 9.4774 25.7692 9.24241 25.4167C8.41995 24.1242 7.59748 22.8905 6.77502 21.5981C5.95255 20.2469 5.01259 19.0132 4.30762 17.6033C3.95513 17.0158 3.5439 16.4871 3.07392 15.7821C3.07392 19.3657 3.07392 22.773 3.07392 26.2392C2.1927 26.2392 1.31149 26.2392 0.489024 26.2392C0.195286 26.2392 0.0777906 26.1217 0.019043 25.7692C0.019043 25.6517 0.019043 25.4754 0.019043 25.3579C0.019043 20.0707 0.019043 14.7246 0.019043 9.43734C0.312781 9.1436 0.606519 9.02611 1.0765 9.02611C1.31149 9.02611 1.48773 9.02611 1.72272 9.02611C2.36895 8.96736 2.83893 9.31985 3.07392 9.78983C3.48515 10.5535 3.95513 11.1998 4.36636 11.9635C4.7776 12.6685 5.36507 13.3147 5.71756 14.0197C6.30503 15.0771 6.95126 16.0171 7.59748 17.0745C8.06746 17.8382 8.59619 18.602 9.06617 19.4244C9.5949 20.2469 10.1236 21.0106 10.5936 21.8918C10.6524 22.0093 10.7111 22.0681 10.8873 22.1856C11.2398 21.6568 11.5336 21.1869 11.8861 20.6581C12.356 19.9532 12.826 19.1894 13.296 18.4257C13.766 17.6033 14.3535 16.8395 14.8234 16.0171C15.1759 15.3708 15.6459 14.7834 15.9984 14.1371C16.4684 13.3147 17.0558 12.551 17.5258 11.7285C17.9958 10.9648 18.4658 10.2011 18.9358 9.43734C19.112 9.20235 19.347 9.08486 19.6407 9.02611C20.1695 8.96736 20.6394 9.02611 21.1682 9.02611C21.2269 9.08486 21.4032 9.2611 21.5794 9.31985Z" fill="#363434"/>
<path d="M44.902 17.8969C45.137 18.2493 45.4895 18.4256 45.7245 18.8368C46.0182 19.3655 46.1357 19.953 46.1357 20.4817C46.1945 22.1854 46.1357 23.9479 46.1357 25.6515C46.1357 26.1803 46.077 26.239 45.4895 26.239C44.8433 26.239 44.1383 26.239 43.4921 26.239C43.0221 26.239 42.9634 26.1215 42.9634 25.7103C42.9634 23.8304 42.9634 22.0092 42.9634 20.1293C42.6109 19.6593 42.1997 19.5418 41.6122 19.5418C38.4986 19.5418 35.4437 19.5418 32.2713 19.5418C32.2713 19.718 32.2713 19.953 32.2126 20.1293C32.2126 21.8329 32.2126 23.5366 32.2126 25.2403C32.2126 25.534 32.1538 25.8865 32.0951 26.239C31.0964 26.239 30.1564 26.239 29.2164 26.239C29.0402 25.9453 28.9814 25.6515 28.9814 25.2991C28.9814 20.2468 28.9814 15.1945 28.9814 10.2009C28.9814 10.0834 28.9814 9.90718 28.9814 9.78969C29.0402 9.4372 29.3339 9.08472 29.6864 9.08472C29.8627 9.08472 30.0389 9.08472 30.2739 9.08472C33.6813 9.08472 37.0299 9.08472 40.4372 9.08472C41.3772 9.08472 42.2584 9.20221 43.1396 9.31971C43.7858 9.37845 44.5496 9.5547 45.0195 10.2009C45.0783 10.2597 45.137 10.3772 45.2545 10.4359C45.9007 10.9646 46.077 11.7284 46.1357 12.5508C46.1357 13.4908 46.077 14.4307 46.1357 15.312C46.1357 15.7819 45.9595 16.1932 45.9595 16.6632C45.9595 17.1919 45.4895 17.6031 44.902 17.8969ZM32.3301 11.9633C32.3301 13.6083 32.3301 15.1357 32.3301 16.7807C35.7374 16.6632 39.1448 16.9569 42.3171 16.6044C42.6109 16.3107 42.7871 16.1344 43.0221 15.9582C43.0221 14.9595 43.0221 13.902 43.0221 12.8446C43.0221 12.4921 42.8459 12.2571 42.6109 12.1396C42.3759 12.0221 42.1409 11.9046 41.8472 11.9046C40.261 11.9046 38.6748 11.9046 37.0299 11.9046C35.4437 11.9633 33.9162 11.9633 32.3301 11.9633Z" fill="#363434"/>
<path d="M100.419 9.31971C100.419 10.1422 100.419 11.0234 100.419 11.8459C100.184 12.1396 99.7724 12.0808 99.4199 12.0808C95.9538 12.0808 92.5465 12.0808 89.0804 12.0808C88.4929 12.0808 88.0817 12.3158 87.8467 12.9033C87.7879 13.0208 87.7879 13.197 87.7879 13.3733C87.7879 13.7258 87.8467 14.137 87.7879 14.4895C87.7292 14.9007 87.9054 15.312 88.1404 15.547C88.4341 15.7819 88.7866 15.9582 89.2566 15.9582C92.0765 15.9582 94.8376 15.9582 97.6575 15.9582C97.9512 15.9582 99.0675 16.2519 99.4199 16.3694C100.419 16.8394 101.124 17.7206 101.476 18.6606C101.594 18.9543 101.652 19.3068 101.652 19.6005C101.652 20.5405 101.652 21.4805 101.652 22.4792C101.652 23.4191 101.3 24.2416 100.654 24.9466C100.125 25.534 99.4787 25.9453 98.6562 26.1215C98.48 26.1803 98.245 26.239 98.0687 26.239C94.0152 26.239 90.0203 26.239 85.9667 26.239C85.908 26.239 85.7905 26.239 85.7317 26.239C85.438 26.239 85.3205 26.1215 85.3205 25.8278C85.3205 25.0641 85.3205 24.3591 85.3205 23.5954C85.6143 23.3604 85.9667 23.3604 86.2605 23.3604C90.0791 23.3604 93.8977 23.3604 97.7163 23.3604C97.8925 23.1841 98.01 23.0666 98.1862 22.8904C98.48 22.5967 98.6562 22.3029 98.5975 21.8917C98.5975 21.363 98.5975 20.7755 98.5975 20.2468C98.5975 20.0705 98.6562 19.8355 98.48 19.6593C98.245 19.3655 98.01 19.1893 97.7163 18.9543C97.5988 18.8368 97.3638 18.8956 97.1875 18.8956C94.4851 18.8956 91.724 18.8956 89.0216 18.8956C88.0817 18.8956 86.848 18.4843 86.0842 17.8381C85.3793 17.1919 84.9093 16.3694 84.7918 15.3707C84.733 14.7832 84.5568 14.137 84.6743 13.5495C84.7918 12.7858 84.7918 11.9633 85.2618 11.2584C85.7317 10.4947 86.9654 9.37845 87.7879 9.26096C88.2579 9.20221 88.7279 9.08472 89.2566 9.08472C92.7227 9.08472 96.1888 9.08472 99.6549 9.08472C99.8899 9.08472 100.125 9.20221 100.419 9.31971Z" fill="#363434"/>
<path d="M70.0459 16.0761C73.747 16.0761 77.3894 16.0761 81.0317 16.0761C81.443 16.8398 81.1492 17.721 81.2667 18.4847C81.0317 18.8372 80.738 18.9547 80.3268 18.9547C77.1544 18.9547 74.0408 18.9547 70.8684 18.9547C70.6334 18.9547 70.3397 18.9547 70.0459 18.9547C70.0459 20.0121 70.0459 21.0108 70.0459 22.0096C70.0459 22.832 70.7509 23.4195 71.6321 23.4195C75.5095 23.4195 79.3868 23.4195 83.3229 23.4195C83.6754 24.3595 83.5579 25.2994 83.3816 26.2981C83.0879 26.2981 82.7942 26.2981 82.5592 26.2981C78.6231 26.2981 74.7457 26.2981 70.8097 26.2981C69.576 26.2981 68.5772 25.6519 67.8723 24.7707C67.2848 24.007 67.0498 23.1258 67.0498 22.1858C67.1086 19.1309 67.0498 16.0173 67.0498 12.9624C67.0498 12.0812 67.461 11.3175 67.9898 10.6713C68.2835 10.3188 68.5772 10.025 68.9885 9.84881C69.4585 9.61382 69.9872 9.37883 70.5159 9.32008C72.4546 9.02634 74.3933 9.20258 76.3907 9.20258C78.3293 9.14383 80.268 9.20258 82.2067 9.20258C82.3829 9.20258 82.5004 9.20258 82.6767 9.20258C83.2641 9.26133 83.4404 9.43757 83.4404 10.025C83.4404 10.6125 83.4404 11.2587 83.4404 11.8462C83.3229 11.9637 83.1466 12.14 83.0291 12.2575C79.2106 12.2575 75.3332 12.2575 71.5146 12.2575C70.8684 12.2575 70.3984 12.5512 70.1634 13.1387C70.1047 13.2562 70.0459 13.4324 70.0459 13.5499C70.0459 14.3136 70.0459 15.1948 70.0459 16.0761Z" fill="#363434"/>
<path d="M66.051 25.5928C66.051 25.5928 66.051 25.7103 66.051 25.769C65.9922 26.1215 65.9335 26.239 65.581 26.239C64.6998 26.239 63.8773 26.239 62.9961 26.239C62.8199 26.239 62.6436 26.239 62.4086 26.239C61.8799 25.7103 61.3512 25.2403 60.8812 24.6528C60 23.5954 58.9425 22.7142 58.0613 21.6567C57.5913 21.128 57.1213 20.658 56.5926 20.0705C55.8289 20.9517 54.9477 21.598 54.3015 22.5379C54.1252 22.7729 53.8315 23.0079 53.6552 23.2429C52.7153 24.2416 51.7166 25.2403 50.7766 26.2978C49.7191 26.2978 48.6617 26.2978 47.6042 26.2978C47.3692 26.2978 47.193 26.239 47.0168 26.004C47.1342 25.769 47.3105 25.534 47.4867 25.2991C48.6617 24.0654 49.9541 22.8317 51.0703 21.5392C51.8341 20.658 52.7153 19.8355 53.5377 18.9543C53.8902 18.6018 54.184 18.1318 54.5364 17.7794C53.8315 16.7219 52.774 15.9582 51.9516 14.9595C51.2466 14.137 50.4241 13.432 49.7191 12.6096C49.0142 11.7284 48.1917 11.0234 47.428 10.2009C47.2517 10.0247 47.1343 9.78969 46.958 9.5547C47.193 9.26096 47.4867 9.08472 47.898 9.08472C48.6029 9.08472 49.3667 9.08472 50.0716 9.08472C50.4829 9.08472 50.7766 9.20221 51.0116 9.49595C51.4816 10.0247 52.069 10.4359 52.4215 11.0234C52.6565 11.3759 53.0678 11.6696 53.3615 11.9633C54.419 13.0796 55.4764 14.1958 56.5339 15.312C56.9451 15.1357 57.1801 14.842 57.4151 14.5482C57.8263 13.902 58.4138 13.4908 58.8838 12.9621C59.9412 11.8459 60.9987 10.7296 62.0561 9.67219C62.4086 9.31971 62.8199 9.08472 63.3486 9.14346C63.9361 9.20221 64.5235 9.14346 65.111 9.14346C65.4048 9.14346 65.6985 9.20221 65.9922 9.26096C65.9922 9.49595 65.9922 9.67219 65.9922 9.96593C65.111 10.9059 64.0536 11.8459 63.1723 12.8446C62.4674 13.667 61.5862 14.372 60.8812 15.2532C60.235 16.0169 59.4712 16.7807 58.7663 17.4856C58.5313 17.7206 58.5313 17.8969 58.7663 18.1318C59.8237 19.248 60.9399 20.3643 61.9974 21.4805C63.4073 22.8317 64.6998 24.2416 66.051 25.5928Z" fill="#363434"/>
<path d="M26.8664 13.7259C26.8664 15.8408 26.8664 18.0732 26.8664 20.3056C26.8664 22.0093 26.8664 23.713 26.8664 25.4167C26.8664 25.5342 26.8664 25.7104 26.8664 25.8279C26.8664 26.2392 26.7489 26.3566 26.3377 26.3566C25.574 26.3566 24.8102 26.3566 24.0465 26.3566C23.8115 26.0629 23.8115 25.7104 23.8115 25.4167C23.8115 21.8331 23.8115 18.1907 23.8115 14.6071C23.8115 14.5484 23.8115 14.4896 23.8115 14.4309C23.8115 13.7259 24.0465 13.4909 24.7515 13.4909C25.1627 13.4909 25.574 13.4909 25.9264 13.4909C26.2789 13.3734 26.5727 13.3734 26.8664 13.7259Z" fill="#363434"/>
<path d="M26.8664 9.32009C26.8664 10.0838 26.8664 10.7888 26.8664 11.4938C26.8664 11.905 26.7489 12.0225 26.3377 12.0225C25.6327 12.0225 24.9277 12.0225 24.2228 12.0225C23.929 11.7287 23.8115 11.435 23.8115 11.0825C23.8115 10.73 23.8115 10.3188 23.8115 9.96632C23.8115 9.49634 24.164 9.2026 24.634 9.2026C25.1627 9.2026 25.6914 9.2026 26.2202 9.2026C26.3964 9.0851 26.6314 9.2026 26.8664 9.32009Z" fill="#363434"/>
<path d="M16.2332 31.5266C16.2332 30.7041 16.2332 29.9404 16.2332 29.1766C16.4682 29.1766 16.6444 29.1766 16.8794 29.1766C16.8794 30.3516 16.8794 31.5266 16.8794 32.7602C16.4682 32.9365 16.1744 32.7015 15.9394 32.4078C15.4695 31.7615 14.9407 31.1153 14.3533 30.3516C14.3533 31.2916 14.3533 32.0553 14.3533 32.819C14.1183 32.819 13.942 32.819 13.707 32.819C13.707 31.644 13.707 30.4691 13.707 29.2354C14.0595 29.0592 14.3533 29.1766 14.5882 29.4704C14.8232 29.7641 15.0582 29.9991 15.2345 30.2929C15.587 30.7041 15.8807 31.1153 16.2332 31.5266Z" fill="#363434"/>
<path d="M49.9548 32.76C49.6611 32.76 49.4261 32.76 49.1911 32.76C49.1324 32.525 49.0149 32.29 48.9561 31.9963C48.3686 31.9963 47.8399 31.9963 47.2524 31.9963C47.1349 32.2313 47.0174 32.4663 46.8412 32.76C46.6062 32.76 46.3712 32.76 46.1362 32.76C46.665 31.5263 47.1937 30.3514 47.7812 29.1177C48.0162 29.1177 48.2511 29.1177 48.4274 29.1177C48.8974 30.3514 49.3673 31.5263 49.9548 32.76ZM48.0162 29.9989C47.7812 30.5276 47.6049 30.8801 47.4287 31.3501C47.8399 31.3501 48.1924 31.3501 48.5449 31.3501C48.4274 30.9389 48.2511 30.5276 48.0162 29.9989Z" fill="#363434"/>
<path d="M9.88867 29.1766C10.0649 29.1766 10.2412 29.1766 10.4761 29.1766C10.4761 29.7641 10.4761 30.2928 10.4761 31.0566C11.0636 30.3516 11.5924 29.7641 12.1211 29.2354C12.3561 29.2354 12.6498 29.2354 12.8848 29.2354C12.8848 29.2941 12.9435 29.3529 12.8848 29.3529C12.4736 29.8229 12.0623 30.2928 11.5924 30.8216C11.9448 31.5853 12.5911 32.114 13.061 32.8777C12.7673 32.8777 12.4736 32.8777 12.2386 32.8777C11.8861 32.4078 11.4749 31.9378 11.0636 31.409C10.8286 31.5853 10.6524 31.7028 10.5349 31.879C10.5349 32.2315 10.5349 32.5252 10.5349 32.8777C10.3587 32.8777 10.1237 32.8777 9.94742 32.9365C9.88867 31.5853 9.88867 30.4103 9.88867 29.1766Z" fill="#363434"/>
<path d="M39.6149 29.1764C39.6149 29.3527 39.6149 29.5289 39.6149 29.7639C39.2624 29.7639 38.91 29.7639 38.6162 29.7639C38.5575 29.8226 38.5575 29.8226 38.5575 29.8226V29.8814C38.5575 30.8214 38.5575 31.7613 38.5575 32.76C38.3225 32.76 38.0875 32.76 37.7938 32.76C37.7938 32.7013 37.735 32.6425 37.735 32.5838C37.735 31.6438 37.735 30.7626 37.735 29.7639C37.3825 29.7639 37.03 29.7639 36.6188 29.7639C36.6188 29.5289 36.6188 29.3527 36.5601 29.1177C37.6175 29.1764 38.5575 29.1764 39.6149 29.1764Z" fill="#363434"/>
<path d="M1.2525 29.8229C0.782518 29.8229 0.430032 29.8229 0.0187992 29.8229C-0.0399484 29.2941 0.0187992 29.1766 0.48878 29.1766C1.31125 29.1766 2.13371 29.1766 2.95618 29.1766C2.95618 29.3529 2.95618 29.5291 2.95618 29.7641C2.60369 29.7641 2.25121 29.7641 1.89872 29.7641C1.89872 30.7628 1.89872 31.7615 1.89872 32.7602C1.66373 32.7602 1.48749 32.7602 1.2525 32.819C1.2525 31.8203 1.2525 30.8216 1.2525 29.8229Z" fill="#363434"/>
<path d="M57.0624 29.1766C57.0624 29.4116 57.0624 29.5879 57.0624 29.7641C56.7099 29.7641 56.3574 29.7641 56.0049 29.7641C56.0049 30.7628 56.0049 31.7615 56.0049 32.7602C55.7699 32.7602 55.5937 32.7602 55.4174 32.7602C55.4174 31.7615 55.4174 30.8216 55.4174 29.8228C54.9475 29.8228 54.5362 29.8228 54.125 29.8228C54.125 29.2354 54.1837 29.1766 54.595 29.1766C55.3587 29.1179 56.1812 29.1766 57.0624 29.1766Z" fill="#363434"/>
<path d="M30.0386 29.1766C30.2148 29.1766 30.4498 29.1766 30.6261 29.1766C30.6261 30.3516 30.6261 31.5265 30.6261 32.819C30.4498 32.819 30.2736 32.819 30.0386 32.8777C30.0386 31.5853 30.0386 30.4103 30.0386 29.1766Z" fill="#363434"/>
</svg>
