<svg width="207" height="35" viewBox="0 0 207 35" fill="none" xmlns="http://www.w3.org/2000/svg">
<path d="M205.874 21.371C205.224 18.2273 203.211 16.2845 200.324 15.1437C197.234 13.9216 193.959 13.3033 190.777 12.3746C190.067 12.166 189.371 11.933 188.693 11.6469C187.644 11.2053 186.98 10.4247 186.92 9.29787C186.853 8.12176 187.499 7.27051 188.495 6.69467C189.887 5.88582 191.402 5.94599 192.893 6.26036C194.916 6.69123 196.142 8.06159 196.76 9.95852C197.018 10.7532 197.417 10.898 198.173 10.7284C200.102 10.2975 202.051 9.96902 203.98 9.53814C205.078 9.29081 205.115 9.2272 204.761 8.20999C203.433 4.37413 200.6 2.1065 196.813 1.07515C192.561 -0.0799676 188.301 0.110836 184.228 1.9157C181.48 3.13421 179.417 5.07697 178.654 8.09692C177.521 12.5759 179.53 16.712 183.702 18.7466C186.379 20.0499 189.3 20.5585 192.116 21.4027C193.175 21.7205 194.238 22.0244 195.245 22.4871C196.796 23.2041 197.361 24.1931 197.198 25.832C197.068 27.1389 196.181 28.1632 194.683 28.4776C190.614 29.3359 187.181 27.9266 185.92 23.7232C185.715 23.0452 185.387 22.8827 184.754 23.0345C182.639 23.5431 180.502 23.9601 178.389 24.4969C177.478 24.7299 177.365 24.9207 177.662 25.8673C178.594 28.845 180.442 31.0915 183.193 32.5749C185.687 33.9172 188.361 34.514 191.197 34.5776C194.083 34.6449 196.895 34.3729 199.544 33.1754C202.09 32.0239 204.139 30.325 205.266 27.6829C205.488 27.1567 205.666 26.6232 205.761 26.0581C205.823 25.6801 205.85 25.2351 206.399 25.2032V22.1974C205.862 22.155 205.936 21.6817 205.874 21.371Z" fill="#C2B7AE"/>
<path d="M199.134 14.4202C196.481 13.5973 193.783 12.9227 191.102 12.195C190.13 11.9301 189.163 11.6545 188.294 11.1354C187.319 10.5525 186.944 9.52821 187.301 8.45446C187.633 7.44431 188.386 6.83677 189.374 6.58943C192.486 5.80885 195.616 6.69543 196.69 10.4855C196.82 10.9482 196.905 11.2907 197.527 11.1566C199.95 10.6339 202.372 10.1321 204.807 9.65541C205.372 9.54577 205.401 9.31277 205.261 8.8288C204.595 6.46223 203.27 4.5655 201.359 3.02191C196.344 -1.02595 186.785 -0.520778 182.176 2.757C176.351 6.90037 176.708 14.9995 182.882 18.6165C184.73 19.6973 186.775 20.2025 188.802 20.7888C190.985 21.421 193.246 21.8236 195.312 22.8269C196.464 23.385 197.149 24.2467 197.036 25.6066C196.923 26.9418 196.153 27.7967 194.945 28.1498C190.212 29.5345 186.8 26.9135 186.114 23.3248C185.984 22.6325 185.729 22.5372 185.115 22.6819C182.706 23.2541 180.29 23.8159 177.867 24.3245C177.206 24.4622 177.072 24.7024 177.235 25.3312C178.086 28.609 179.93 31.1839 182.939 32.7311C188.516 35.5956 194.295 35.7333 200.003 33.2256C203.192 31.8233 205.52 29.4673 206.051 25.7832C206.079 25.5783 206.287 25.4018 206.41 25.211C205.859 25.2427 205.835 25.688 205.77 26.0659C205.675 26.6311 205.502 27.1643 205.275 27.6907C204.149 30.3327 202.101 32.0317 199.554 33.1832C196.905 34.3805 194.097 34.6525 191.208 34.5854C188.371 34.5218 185.698 33.9248 183.204 32.5827C180.452 31.0991 178.605 28.8527 177.672 25.8751C177.376 24.932 177.489 24.7378 178.4 24.5046C180.509 23.9677 182.649 23.551 184.765 23.0423C185.397 22.8903 185.729 23.0528 185.931 23.7311C187.195 27.9344 190.625 29.3437 194.694 28.4854C196.192 28.171 197.078 27.1467 197.209 25.8398C197.371 24.2009 196.81 23.2117 195.256 22.4948C194.252 22.032 193.189 21.7283 192.126 21.4105C189.307 20.5661 186.39 20.0575 183.712 18.7542C179.541 16.7232 177.531 12.5835 178.665 8.10475C179.428 5.08481 181.494 3.13861 184.239 1.92352C188.311 0.118462 192.571 -0.0757736 196.824 1.08278C200.61 2.11413 203.444 4.38176 204.771 8.21782C205.124 9.23503 205.09 9.29863 203.991 9.54577C202.062 9.97684 200.112 10.3054 198.184 10.7362C197.431 10.9058 197.032 10.7609 196.771 9.96614C196.153 8.06942 194.927 6.69886 192.903 6.26799C191.413 5.95018 189.901 5.89365 188.506 6.7025C187.513 7.27814 186.867 8.12939 186.93 9.3057C186.994 10.4324 187.658 11.2131 188.703 11.6545C189.382 11.9406 190.078 12.1772 190.787 12.3822C193.966 13.3112 197.241 13.9292 200.335 15.1514C203.22 16.2923 205.233 18.2315 205.883 21.3786C205.948 21.6896 205.873 22.1628 206.41 22.2052C206.061 21.6223 206.095 20.937 205.891 20.3119C204.803 17.0164 202.232 15.388 199.141 14.4273L199.134 14.4202Z" fill="#C2B7AE"/>
<path d="M48.7881 3.84493C45.1604 -0.994207 37.789 -1.32271 33.7516 3.18429C32.5967 4.47347 31.8266 5.9888 31.2437 7.60669C31.1413 7.88573 31.0178 8.1577 30.8623 8.53547C29.2093 4.02504 26.8074 0.535249 21.6646 0.11851C15.7199 -0.362032 12.5268 2.97955 10.5417 8.07633C10.5417 6.0736 10.517 4.06744 10.5559 2.06471C10.5665 1.40406 10.4393 1.12866 9.6905 1.13916C6.87535 1.18156 4.06022 1.17449 1.24508 1.13916C0.616353 1.13573 0.460938 1.3229 0.460938 1.93044C0.478598 12.3221 0.48213 22.7103 0.460938 33.0982C0.460938 33.727 0.648142 33.8825 1.25568 33.8754C4.03548 33.8471 6.81883 33.8189 9.59865 33.8859C10.5488 33.9071 10.8278 33.6846 10.8278 32.6956C10.8278 27.2843 10.6477 21.8731 10.9515 16.4652C11.061 14.4944 11.3294 12.5341 12.3467 10.775C13.3216 9.09011 14.8475 8.42604 16.9703 8.72284C19.0048 9.00531 19.9762 9.88139 20.4813 11.8983C20.7109 12.8095 20.785 13.7384 20.785 14.6779C20.778 20.7568 20.785 26.8393 20.778 32.9181C20.778 33.4338 20.7002 33.8895 21.5057 33.8788C24.4868 33.8401 27.4714 33.8506 30.4526 33.8754C31.039 33.8788 31.1979 33.6741 31.1874 33.1194C31.1591 31.3499 31.1696 29.5802 31.1803 27.807C31.1979 24.0665 31.1625 20.3225 31.2756 16.5854C31.3392 14.4484 31.6394 12.3079 32.8757 10.457C33.9529 8.84277 35.5284 8.45087 37.365 8.72284C39.1381 8.98411 40.3144 9.88846 40.7524 11.6687C40.9926 12.6469 41.1091 13.6361 41.1091 14.6426C41.1162 18.3161 41.1267 21.9931 41.1409 25.6666C41.1516 28.0719 41.194 30.4775 41.1728 32.8794C41.1657 33.6388 41.3882 33.9 42.1936 33.8825C44.9062 33.8293 47.6225 33.8189 50.3352 33.8859C51.2817 33.9107 51.5926 33.6846 51.5819 32.7061C51.5254 25.4936 51.6102 18.2808 51.3772 11.0646C51.2888 8.33417 50.3881 5.98537 48.7845 3.8413L48.7881 3.84493Z" fill="#C2B7AE"/>
<path d="M152.159 19.5868C158.76 19.6363 165.365 19.5975 171.967 19.6329C172.822 19.6363 173.034 19.3892 173.009 18.5696C172.952 16.8318 172.875 15.101 172.617 13.3808C171.402 5.27455 165.782 0.269445 157.609 0.152944C151.837 0.0715751 146.928 1.9261 143.65 6.95948C141.17 10.7707 140.626 15.0481 140.926 19.4633C141.181 23.2426 142.223 26.7748 144.805 29.6748C148.118 33.4012 152.473 34.6056 157.711 34.6375C158.29 34.5915 159.297 34.5632 160.29 34.4255C166.178 33.6062 170.363 30.5472 172.684 25.0299C172.952 24.3906 172.889 24.1221 172.161 23.9279C169.929 23.331 167.704 22.6987 165.51 21.9817C164.567 21.6744 164.161 21.7804 163.801 22.8012C162.713 25.8777 160.42 27.3399 157.248 27.1776C154.239 27.0221 152.346 25.4149 151.459 22.2431C151.325 21.7628 151.254 21.2647 151.141 20.7773C150.94 19.9083 151.163 19.5834 152.162 19.5905L152.159 19.5868ZM151.385 12.6533C151.94 10.1561 152.876 7.98376 155.673 7.28799C159.354 6.37314 162.829 9.25175 162.614 12.9959C162.579 13.5998 162.215 13.5009 161.865 13.5045C160.226 13.5116 158.587 13.5045 156.948 13.5045C155.341 13.5045 153.738 13.4833 152.13 13.515C151.466 13.5292 151.233 13.3561 151.389 12.6533H151.385Z" fill="#C2B7AE"/>
<path d="M130.032 17.5683C129.619 16.9891 129.583 16.6077 130.018 16.0072C133.359 11.3693 136.662 6.70344 139.964 2.04097C140.141 1.7902 140.487 1.58869 140.332 1.15075C136.884 1.15075 133.433 1.16145 129.982 1.14025C129.463 1.13662 129.209 1.37689 128.944 1.75486C127.114 4.351 125.249 6.92231 123.437 9.52915C122.992 10.1684 122.777 10.1472 122.342 9.51501C120.587 6.95057 118.771 4.4251 117.009 1.8643C116.649 1.34156 116.274 1.12248 115.621 1.13319C112.908 1.17559 110.192 1.15075 107.479 1.15075C106.797 1.15075 106.116 1.15075 105.289 1.15075C105.49 1.44756 105.579 1.58526 105.674 1.71246C109.443 6.78097 113.201 11.8604 116.995 16.9113C117.45 17.5189 117.482 17.911 117.026 18.5432C113.777 23.0397 110.57 27.5715 107.355 32.0926C106.977 32.6224 106.617 33.1698 106.183 33.8056C106.603 33.8304 106.861 33.8551 107.119 33.8587C110.234 33.8587 113.353 33.8409 116.468 33.8763C117.115 33.8833 117.5 33.6786 117.864 33.1522C119.64 30.6019 121.477 28.0942 123.247 25.5369C123.699 24.8835 123.918 24.9329 124.342 25.5439C126.072 28.0448 127.863 30.5066 129.59 33.0075C130.007 33.6114 130.435 33.8975 131.212 33.8833C134.26 33.8304 137.312 33.8658 140.36 33.8551C140.678 33.8551 141.017 33.954 141.388 33.7139C141.165 33.3784 140.957 33.0499 140.731 32.7319C137.17 27.6739 133.621 22.6122 130.039 17.5718L130.032 17.5683Z" fill="#C2B7AE"/>
<path d="M97.6159 0.220175C93.6882 -0.380301 90.3079 0.608646 87.8424 3.92196C86.9204 5.16168 86.3095 6.56394 85.5572 7.95913C85.5572 6.02706 85.5289 4.09843 85.5713 2.16637C85.5889 1.42456 85.4441 1.11725 84.5999 1.13502C81.8554 1.19156 79.1038 1.19156 76.3594 1.13502C75.5576 1.11725 75.4446 1.39992 75.4446 2.1064C75.4658 12.3567 75.4692 22.6106 75.4375 32.8609C75.4375 33.7299 75.7024 33.8993 76.5112 33.8818C79.1886 33.8323 81.8695 33.864 84.5504 33.864C85.8114 33.864 85.8009 33.864 85.815 32.5572C85.8715 27.1812 85.649 21.8052 85.9598 16.4328C86.0799 14.3277 86.3553 12.2295 87.5881 10.4176C88.6019 8.93051 90.0642 8.4748 91.7985 8.708C93.4903 8.93757 94.3274 10.036 94.8007 11.5513C95.2564 13.0171 95.1965 14.522 95.207 16.0195C95.207 16.5247 95.3554 16.7331 95.8888 16.7294C98.9051 16.7119 101.918 16.7153 104.935 16.7294C105.38 16.7294 105.62 16.62 105.616 16.1184C105.616 13.0137 105.712 9.90532 104.825 6.87468C103.755 3.21892 101.491 0.80995 97.6159 0.220175Z" fill="#C2B7AE"/>
<path d="M68.705 21.3848C68.705 20.6184 68.705 19.8483 68.705 19.0819C68.705 15.9452 68.705 12.8088 68.705 9.67212C68.705 9.37895 68.7686 9.03288 68.4294 8.87741C68.0445 8.70074 67.9032 9.07164 67.7195 9.27658C66.8117 10.2867 65.6673 10.9791 64.5087 11.6502C61.1461 13.5964 58.9667 16.3797 58.6099 20.3145C58.2215 24.5707 58.3133 28.8447 58.345 33.1151C58.3487 33.7685 58.6029 33.8781 59.1751 33.8745C62.0539 33.8533 64.9325 33.8321 67.8113 33.8852C68.6202 33.8993 68.7296 33.5954 68.7262 32.8997C68.6979 29.0638 68.712 25.2243 68.712 21.3848H68.705Z" fill="#C2B7AE"/>
<path d="M67.8424 1.14458C66.4048 1.20112 64.9601 1.16235 63.5225 1.16235C62.0813 1.16235 60.6403 1.19062 59.1991 1.14822C58.5491 1.12702 58.3303 1.31782 58.3444 1.98533C58.3868 3.95636 58.3585 5.92719 58.3585 7.89458C58.3585 9.82321 59.3404 10.652 61.3042 10.3813C65.9244 9.74911 68.7643 6.53836 68.7219 2.056C68.7148 1.38142 68.5664 1.11652 67.8387 1.14458H67.8424Z" fill="#C2B7AE"/>
</svg>
