<svg width="68" height="69" viewBox="0 0 68 69" fill="none" xmlns="http://www.w3.org/2000/svg">
<g clip-path="url(#clip0_0_3)">
<path fill-rule="evenodd" clip-rule="evenodd" d="M37.5685 27.8607V26.91C38.2933 27.0098 39.0311 26.9489 39.7298 26.7317C40.4285 26.5144 41.0709 26.146 41.6117 25.6527C42.0989 25.1722 42.4344 24.559 42.5766 23.8893C42.804 22.7954 42.9067 21.6791 42.8829 20.562V8.47933C42.9202 7.33132 42.8173 6.18304 42.5766 5.06C42.418 4.36616 42.0553 3.73589 41.5351 3.25067C41.0924 2.86413 40.5692 2.58126 40.0036 2.42267C39.191 2.22596 38.3585 2.12306 37.5225 2.116V1.104H53.4505V2.116C52.7493 2.13554 52.0539 2.24899 51.3829 2.45333C50.8521 2.61889 50.3653 2.90187 49.9586 3.28133C49.4768 3.77585 49.1472 4.39857 49.009 5.07533C48.7908 6.19618 48.6983 7.33793 48.7333 8.47933V16.974C48.6918 18.4724 48.7276 19.972 48.8405 21.4667C48.9055 22.2688 49.113 23.0529 49.4532 23.782C49.9635 24.7959 50.8072 25.6028 51.8423 26.0667C53.5155 26.5951 55.2653 26.8387 57.0189 26.7873C58.5781 26.8331 60.1332 26.6048 61.6135 26.1127C62.809 25.6864 63.8673 24.9447 64.6766 23.966C65.2126 23.2897 65.6508 22.5413 65.9784 21.7427C66.4058 20.6605 66.7339 19.5417 66.9586 18.4H67.9541L67.6631 27.7993L37.5685 27.8607Z" fill="#231F20"/>
<path fill-rule="evenodd" clip-rule="evenodd" d="M23.4631 25.9593C24.757 25.031 25.9527 23.9726 27.0315 22.8007C27.8692 21.8193 28.5652 20.725 29.0991 19.55C30.282 17.1687 30.8905 14.5428 30.8757 11.8833C31.0138 9.11742 30.149 6.39469 28.4405 4.21667C27.6332 3.27244 26.6225 2.52383 25.4845 2.02718C24.3464 1.53052 23.1107 1.29876 21.8703 1.34933C20.8259 1.29928 19.7825 1.46785 18.8068 1.84427C17.8312 2.22068 16.9446 2.79667 16.2038 3.53545C15.463 4.27423 14.8843 5.15956 14.5045 6.13491C14.1247 7.11025 13.9523 8.15417 13.9982 9.2C14.0095 10.6329 14.3008 12.0498 14.8559 13.3707C15.8245 15.3737 16.9674 17.2875 18.2712 19.09C19.864 21.3696 21.5946 23.6593 23.4631 25.9593ZM17.1072 31.3413C14.3148 32.9729 12.0378 35.3589 10.5369 38.226C8.95254 41.2675 8.14737 44.6553 8.19369 48.0853C8.19208 50.5446 8.60634 52.9865 9.41892 55.3073C10.1361 57.4727 11.2588 59.4814 12.727 61.226C14.0001 62.6741 15.5663 63.8344 17.3216 64.63C19.1345 65.4355 21.0969 65.8483 23.0802 65.8413C26.1407 65.8864 29.1261 64.8919 31.5495 63.02C32.4612 62.3217 33.2978 61.5303 34.0459 60.6587C35.054 59.4313 35.9898 58.1463 36.8486 56.81L17.1072 31.3413ZM42.2396 50.6C43.5414 52.21 45.0423 53.958 46.8342 55.844C48.6261 57.73 50.1577 59.202 51.5207 60.444C53.0666 61.8443 54.7555 63.0778 56.5595 64.124C57.858 64.8322 59.308 65.2162 60.7865 65.2433C62.0611 65.2671 63.3068 64.8621 64.3243 64.0933C65.4845 63.0627 66.3734 61.762 66.9126 60.306L67.9387 60.7507C66.2847 66.2502 62.6549 69 57.0495 69C55.0565 68.9793 53.0802 68.6323 51.1991 67.9727C49.2182 67.3278 47.3482 66.3813 45.655 65.1667C42.7588 63.0284 40.1129 60.5697 37.7676 57.8373C36.6272 59.4326 35.4054 60.968 34.1072 62.4373C32.1591 64.5142 29.8019 66.164 27.1847 67.2827C24.5262 68.4165 21.6662 69.0007 18.7766 69C16.0461 68.9762 13.3425 68.4567 10.7973 67.4667C8.46661 66.6381 6.34826 65.3028 4.59459 63.5567C3.08232 62.0288 1.8954 60.2096 1.10566 58.2092C0.315915 56.2088 -0.0602251 54.0688 -1.56946e-06 51.9187C-0.018374 47.3355 1.52694 42.8834 4.38018 39.2993C5.58666 37.7533 6.96929 36.3536 8.5 35.1287C10.6248 33.4605 12.8497 31.9243 15.1622 30.5287L15.9739 30.0073C14.3364 27.8595 12.8424 25.6057 11.5018 23.2607C9.65632 20.15 8.60433 16.6322 8.43874 13.018C8.45711 11.0698 8.94577 9.15493 9.86306 7.43667C10.9813 5.07903 12.8216 3.13995 15.1162 1.90133C17.6599 0.585398 20.4935 -0.0684604 23.3559 -1.09136e-07C27.0801 -0.139688 30.7362 1.02624 33.6937 3.29667C34.9855 4.2738 36.028 5.5431 36.7361 7.00082C37.4441 8.45855 37.7976 10.0633 37.7676 11.684C37.8136 14.0818 37.1006 16.4327 35.7306 18.4C33.8771 20.7428 31.5758 22.6923 28.9613 24.1347C26.7559 25.4993 25.2396 26.45 24.3667 26.9867L41.3667 49.5113C42.0476 48.3249 42.6512 47.0957 43.1739 45.8313C44.0162 44.0143 44.4998 42.0514 44.5982 40.0507C44.5982 36.9124 42.2396 35.0213 37.5225 34.3773V33.4113H57.3865V34.3773C56.0851 34.4482 54.8008 34.7064 53.573 35.144C52.539 35.5274 51.5877 36.1051 50.7703 36.846C49.0396 38.3793 46.8955 41.7067 44.3531 46.7513L42.2396 50.6Z" fill="#231F20"/>
</g>
<defs>
<clipPath id="clip0_0_3">
<rect width="68" height="69" fill="white"/>
</clipPath>
</defs>
</svg>
