<svg width="223" height="37" viewBox="0 0 223 37" fill="none" xmlns="http://www.w3.org/2000/svg">
<path d="M75.7054 30.1931C76.5165 29.8326 77.2376 29.472 78.0487 29.1115C79.4907 31.0943 81.2031 31.7252 83.0958 31.0042C84.7181 30.3733 85.5292 29.2017 85.2588 26.588C85.1687 26.6781 85.0786 26.6781 84.8983 26.7682C82.8254 28.03 80.6624 28.03 78.5895 26.7682C76.4264 25.5065 75.435 23.5237 75.5252 21.0903C75.6153 17.4852 78.4993 14.7814 82.1044 14.9616C84.8082 15.0518 87.1515 17.1247 87.6923 19.9186C87.7824 20.3692 87.7824 20.91 87.7824 21.3606C87.7824 23.4336 87.7824 25.5065 87.7824 27.5794C87.7824 28.1201 87.6923 28.6609 87.6021 29.2017C87.1515 31.545 85.5292 33.0771 83.0958 33.5278C81.2031 33.8883 79.4006 33.6179 77.6882 32.6265C76.7869 31.9956 76.0659 31.1845 75.7054 30.1931ZM85.2588 21.2705C85.2588 19.5581 84.4477 18.1161 83.0057 17.6654C81.5636 17.1247 80.2117 17.3951 79.1302 18.4766C77.9586 19.6482 77.6882 21.0903 78.229 22.6224C78.7697 24.0644 79.9414 24.9657 81.4735 25.0558C83.6366 25.2361 85.2588 23.5237 85.2588 21.2705Z" fill="#FF0024"/>
<path d="M44.0703 24.3336C44.1604 24.2435 44.1604 24.1533 44.2506 24.1533C44.9716 23.6126 45.6926 23.0718 46.3235 22.531C46.684 22.9817 47.0445 23.4323 47.405 23.7928C48.5766 24.8743 50.0187 25.325 51.641 24.9645C52.9027 24.6941 53.804 23.6126 53.8941 22.4409C53.9843 21.6298 53.6237 20.9088 52.9929 20.4581C52.4521 20.0976 51.8212 19.8272 51.1903 19.5569C50.2891 19.1964 49.2977 18.926 48.3063 18.5655C47.8556 18.3852 47.4951 18.205 47.1346 18.0247C44.2506 16.4024 44.3407 12.6171 46.4136 10.7244C47.4951 9.73304 48.847 9.28241 50.2891 9.19228C52.7225 9.10216 54.7954 9.9133 56.4177 11.806C55.6967 12.3467 54.9756 12.8875 54.2546 13.4282C53.5336 12.4368 52.7225 11.806 51.5508 11.6257C50.7397 11.5356 49.9285 11.5356 49.2075 11.806C48.4865 12.0763 47.9458 12.6171 47.7655 13.4282C47.5853 14.3295 47.8556 15.2308 48.7569 15.6814C49.3878 16.0419 50.1088 16.3123 50.8298 16.5827C51.641 16.9432 52.4521 17.2136 53.2632 17.4839C53.4435 17.5741 53.6237 17.6642 53.804 17.7543C55.5164 18.6556 56.6881 19.9174 56.6881 21.9903C56.6881 24.0632 55.7868 25.5954 53.9843 26.6769C52.5422 27.488 51.0101 27.6683 49.4779 27.3979C47.2247 27.2176 45.4222 26.1361 44.0703 24.3336Z" fill="#FF0024"/>
<path d="M117.973 22.0798C114.729 22.0798 111.484 22.0798 108.24 22.0798C108.42 23.5219 109.411 24.6034 110.853 24.9639C112.746 25.4145 114.188 24.7836 115.45 22.9811C116.081 23.3416 116.802 23.7021 117.523 24.1528C116.441 26.7664 112.926 28.1183 109.772 27.1269C106.798 26.1355 105.085 22.9811 105.896 19.7365C106.708 16.5821 109.682 14.5993 112.836 15.05C116.261 15.5907 118.244 18.2044 117.973 22.0798ZM108.33 19.8267C110.673 19.8267 113.016 19.8267 115.36 19.8267C115.089 18.2945 113.918 17.3031 112.295 17.213C110.313 17.1229 108.78 18.1143 108.33 19.8267Z" fill="#FF0024"/>
<path d="M74.1763 27.3085C73.275 27.3085 72.3738 27.3085 71.4725 27.3085C71.4725 27.0381 71.4725 26.8579 71.4725 26.6776C71.4725 24.7849 71.4725 22.8923 71.4725 20.9996C71.4725 20.3687 71.2922 19.7378 71.112 19.1971C70.7515 18.1156 69.8502 17.4847 68.6786 17.4847C67.5069 17.4847 66.5155 17.8452 65.9747 18.9267C65.6142 19.5576 65.434 20.2786 65.434 20.9996C65.434 22.8923 65.434 24.7849 65.434 26.6776C65.434 26.8579 65.434 27.1282 65.434 27.3085C64.5327 27.3085 63.7216 27.3085 62.8203 27.3085C62.8203 27.1282 62.8203 26.948 62.8203 26.8579C62.8203 24.7849 62.8203 22.6219 62.8203 20.549C62.8203 19.2872 63.1808 18.2057 63.8117 17.1242C64.6229 15.9525 65.7945 15.2315 67.2365 15.0513C69.2193 14.7809 71.0219 15.0513 72.554 16.4032C73.5454 17.3044 74.0862 18.4761 74.1763 19.828C74.1763 22.2614 74.1763 24.7849 74.1763 27.3085Z" fill="#FF0026"/>
<path d="M100.221 27.1283C100.221 24.6949 100.221 22.2614 100.221 19.828C100.221 19.107 100.221 18.4761 100.221 17.7551C99.5001 17.7551 98.8692 17.7551 98.2383 17.7551C98.2383 16.944 98.2383 16.2229 98.2383 15.4118C98.8692 15.4118 99.5001 15.4118 100.221 15.4118C100.221 15.0513 100.221 14.871 100.221 14.6007C100.221 14.2401 100.221 13.7895 100.311 13.429C100.491 11.3561 101.393 10.2746 103.556 10.0042C104.097 9.91406 104.727 9.91406 105.358 9.91406C105.358 10.7252 105.358 11.4462 105.358 12.2574C104.998 12.2574 104.637 12.3475 104.277 12.3475C103.376 12.4376 103.015 12.7981 102.925 13.6994C102.925 14.0599 102.925 14.5105 102.925 14.871C102.925 15.0513 102.925 15.1414 102.925 15.4118C103.736 15.4118 104.547 15.4118 105.358 15.4118C105.358 16.2229 105.358 16.944 105.358 17.7551C104.547 17.7551 103.736 17.7551 102.925 17.7551C102.925 20.9997 102.925 24.1541 102.925 27.4888C102.024 27.3987 101.212 27.3987 100.401 27.3085C100.221 27.2184 100.221 27.2184 100.221 27.1283ZM102.654 18.2959C102.564 21.27 102.564 24.2442 102.564 27.1283C102.564 27.1283 102.564 27.1283 102.654 27.1283C102.654 24.1541 102.654 21.1799 102.654 18.2959Z" fill="#FF0026"/>
<path d="M89.4961 9.91406C90.3072 9.91406 91.1184 9.91406 92.0196 9.91406C92.0196 15.7723 92.0196 21.5404 92.0196 27.3085C91.2085 27.3085 90.3974 27.3085 89.4961 27.3085C89.4961 21.5404 89.4961 15.7723 89.4961 9.91406Z" fill="#FF0026"/>
<path d="M94.1836 15.4121C95.0849 15.4121 95.8059 15.4121 96.7071 15.4121C96.7071 19.3777 96.7071 23.3433 96.7071 27.3088C95.896 27.3088 95.0849 27.3088 94.1836 27.3088C94.1836 23.3433 94.1836 19.3777 94.1836 15.4121Z" fill="#FF0024"/>
<path d="M60.9259 15.8625C60.9259 16.6736 60.9259 17.4847 60.9259 18.2058C60.9259 20.9997 60.9259 23.7936 60.9259 26.4974C60.9259 26.7678 60.9259 26.9481 60.9259 27.2184C60.8358 27.3086 60.8358 27.3086 60.7456 27.3987C59.9345 27.3987 59.2135 27.3987 58.4023 27.3987C58.4023 23.4331 58.4023 19.4675 58.4023 15.502C59.2135 15.502 60.0246 15.502 60.8358 15.502L60.9259 15.5921C60.9259 15.6822 60.9259 15.7723 60.9259 15.8625Z" fill="#FF0026"/>
<path d="M15.6836 28.2097C16.1342 27.8492 16.5849 27.4887 17.0355 27.0381C18.4775 28.7505 20.1899 30.0123 22.1727 30.9135C24.1555 31.8148 26.2284 32.0852 28.4816 31.9951C28.4816 32.6259 28.4816 33.1667 28.4816 33.7976C24.3358 34.3384 18.7479 32.3556 15.6836 28.2097Z" fill="#FF0024"/>
<path d="M22.6211 27.7592C22.7112 27.1283 22.8013 26.5875 22.9816 25.9566C25.1446 26.3171 27.3077 26.227 29.3806 25.5961C31.4535 24.9652 33.2561 23.8837 34.8783 22.3516C35.2388 22.8022 35.6895 23.2528 36.05 23.7936C32.2647 27.2184 27.7583 28.5703 22.6211 27.7592Z" fill="#FF0024"/>
<path d="M28.5709 19.2865C28.4808 19.2865 28.4808 19.1963 28.3907 19.1963C28.0302 18.8358 27.5795 18.5654 27.1289 18.1148C28.4808 16.4024 29.4722 14.5097 30.013 12.3467C30.4636 10.1837 30.4636 8.11075 29.9228 5.85758C30.5537 5.76745 31.0945 5.5872 31.6352 5.49707C32.9871 9.55277 32.0859 15.411 28.5709 19.2865Z" fill="#FF0024"/>
<path d="M4.23636 9.01324C4.0561 8.38235 3.87585 7.84159 3.60547 7.30083C8.47231 5.31804 13.0688 5.58842 17.6652 8.11197C17.3047 8.65273 17.0344 9.19349 16.764 9.73425C12.7083 7.48108 8.56244 7.2107 4.23636 9.01324Z" fill="#FF0024"/>
<path d="M8.56407 21.0898C8.74432 21.18 8.92458 21.18 9.10483 21.2701C9.46534 21.3602 9.82584 21.5405 10.1864 21.7207C8.74432 26.1369 9.28508 30.1926 11.8988 34.0681C11.358 34.4286 10.9074 34.699 10.3666 34.9694C7.48255 31.0939 6.85166 25.2357 8.56407 21.0898Z" fill="#FF0024"/>
<path d="M33.5251 10.7246C34.156 10.8147 34.6968 10.9049 35.2375 10.995C34.9672 15.8618 31.7226 20.6386 27.6669 22.8016C27.3965 22.2608 27.1261 21.8102 26.7656 21.2694C30.7312 18.7459 32.8942 15.3211 33.5251 10.7246Z" fill="#FF0024"/>
<path d="M9.19116 13.9697C9.46154 14.5105 9.73192 14.9611 10.0924 15.5019C6.12685 17.9353 3.96381 21.4502 3.33292 26.0467C2.97241 25.9566 2.70203 25.9566 2.43165 25.9566C2.16127 25.9566 1.89089 25.8665 1.62051 25.7763C1.26 22.1713 5.22558 15.8624 9.19116 13.9697Z" fill="#FF0024"/>
<path d="M25.5949 25.6857C25.5048 25.0548 25.4146 24.514 25.2344 23.8831C29.7407 22.9819 32.9853 20.3682 35.1483 16.3125C35.4187 16.4928 35.6891 16.5829 35.9595 16.7631C36.2298 16.9434 36.5002 17.0335 36.7706 17.2138C34.4273 21.8102 30.8222 24.6042 25.5949 25.6857Z" fill="#FF0024"/>
<path d="M14.2414 9.01232C14.1513 9.6432 13.971 10.184 13.8809 10.8149C11.7178 10.4543 9.5548 10.5445 7.48188 11.1754C5.40896 11.7161 3.60643 12.8878 1.98415 14.4199C1.62364 13.9693 1.17301 13.5187 0.8125 12.9779C4.59782 9.46295 9.01404 8.11105 14.2414 9.01232Z" fill="#FF0024"/>
<path d="M13.5195 2.07374C13.6998 1.44285 13.9702 0.902089 14.1504 0.361328C19.1074 1.98361 22.5322 5.13805 24.4249 10.0049C24.1545 10.095 23.8841 10.2753 23.6137 10.3654C23.3433 10.4555 23.073 10.5457 22.7125 10.6358C21.9013 8.56286 20.8198 6.76033 19.1975 5.3183C17.5752 3.78614 15.6826 2.79475 13.5195 2.07374Z" fill="#FF0024"/>
<path d="M14.1502 26.1367C14.9613 28.2096 16.0429 30.0122 17.6651 31.5443C19.2874 32.9864 21.09 34.0679 23.253 34.6988C23.0727 35.3296 22.8024 35.8704 22.6221 36.4112C17.6651 34.7889 14.2403 31.6345 12.3477 26.7676C12.9785 26.5874 13.6094 26.317 14.1502 26.1367Z" fill="#FF0024"/>
<path d="M11.1757 11.085C11.2658 11.7158 11.356 12.2566 11.5362 12.8875C9.37318 13.3381 7.39039 14.1493 5.67799 15.5012C3.96558 16.8531 2.61368 18.5655 1.62228 20.5483C1.08152 20.2779 0.540761 19.9174 0 19.647C2.3433 14.9604 6.03849 12.1665 11.1757 11.085Z" fill="#FF0024"/>
<path d="M28.2097 15.6823C27.6689 15.502 27.1282 15.3217 26.5874 15.0514C27.3084 12.9785 27.5788 10.8154 27.2183 8.65237C26.9479 6.57945 26.1368 4.59666 24.875 2.704C25.4158 2.34349 25.8664 2.07311 26.4072 1.80273C29.111 4.32628 30.1024 11.9871 28.2097 15.6823Z" fill="#FF0024"/>
<path d="M32.5344 27.7591C32.7146 28.39 32.985 28.9307 33.1652 29.4715C28.3885 31.4543 23.7019 31.1839 19.1055 28.6604C19.466 28.1196 19.7364 27.669 20.0067 27.0381C24.1526 29.2913 28.2083 29.5616 32.5344 27.7591Z" fill="#FF0024"/>
<path d="M6.84952 30.8231C6.21863 30.9133 5.67787 31.0034 5.04698 31.1836C3.96546 26.1365 4.86673 21.5401 8.20142 17.4844C8.65205 17.935 9.10268 18.2955 9.64345 18.656C8.29154 20.3684 7.30015 22.2611 6.75939 24.4241C6.30876 26.4971 6.39888 28.6601 6.84952 30.8231Z" fill="#FF0024"/>
<path d="M26.949 12.6177C26.3181 12.6177 25.7773 12.6177 25.1465 12.6177C25.1465 10.3646 24.6958 8.29166 23.7044 6.30887C22.713 4.32608 21.3611 2.79393 19.5586 1.44203C19.829 0.901268 20.2796 0.450634 20.6401 0C24.7859 3.24456 26.8589 7.39039 26.949 12.6177Z" fill="#FF0024"/>
<path d="M9.91406 24.1543C10.5449 24.1543 11.0857 24.1543 11.7166 24.1543C11.7166 26.3173 12.1672 28.3903 13.1586 30.373C14.15 32.3558 15.592 33.888 17.3045 35.33C16.8538 35.7807 16.4933 36.2313 16.1328 36.772C12.0771 33.5275 10.0042 29.3816 9.91406 24.1543Z" fill="#FF0024"/>
<path d="M8.38281 4.68688C8.38281 4.05599 8.38281 3.51523 8.38281 2.88434C13.52 2.70409 17.8461 4.50662 21.2709 8.4722C21.0006 8.65246 20.8203 8.83271 20.5499 9.10309C20.2795 9.28334 20.0993 9.4636 19.8289 9.73398C16.7646 6.12891 12.9793 4.59675 8.38281 4.68688Z" fill="#FF0024"/>
<path d="M96.7981 12.7086C96.7981 13.5198 96.2574 14.1507 95.3561 14.1507C94.545 14.1507 93.9141 13.6099 93.9141 12.7086C93.9141 11.8975 94.4548 11.2666 95.3561 11.2666C96.1672 11.2666 96.7981 11.8975 96.7981 12.7086Z" fill="#FF0024"/>
<path d="M59.6644 14.1494C58.8533 14.1494 58.3125 13.5185 58.3125 12.7074C58.3125 11.8962 58.8533 11.3555 59.7545 11.3555C60.5657 11.3555 61.1966 11.9864 61.1966 12.7975C61.1064 13.6086 60.5657 14.1494 59.6644 14.1494Z" fill="#FF0024"/>
<path d="M60.8359 27.398C60.9261 27.3079 60.9261 27.3079 61.0162 27.2178V27.3079C60.9261 27.398 60.8359 27.398 60.8359 27.398Z" fill="#FF0024"/>
<path d="M60.9258 27.3987V27.3086C60.9258 27.3086 61.0159 27.3086 60.9258 27.3987C61.0159 27.3086 60.9258 27.3086 60.9258 27.3987Z" fill="#FF0026"/>
<path d="M134.648 22.9677C134.336 24.1197 133.352 24.7437 131.84 24.7437C129.968 24.7437 128.72 23.4957 128.504 21.5517H137.432C137.456 21.3117 137.48 20.9517 137.48 20.5437C137.48 17.6637 135.656 14.7117 131.6 14.7117C127.64 14.7117 125.672 17.7117 125.672 20.9037C125.672 24.0717 127.88 27.1917 131.84 27.1917C134.816 27.1917 137.072 25.5357 137.528 22.9677H134.648ZM131.6 16.9197C133.352 16.9197 134.408 18.0717 134.528 19.6077H128.576C128.888 17.7837 129.944 16.9197 131.6 16.9197Z" fill="#363434"/>
<path d="M149.566 26.9997L145.198 20.6877L149.254 14.9037H146.014L143.614 18.3837L141.19 14.9037H137.974L142.006 20.6877L137.638 26.9997H140.782L143.614 22.9677L146.446 26.9997H149.566Z" fill="#363434"/>
<path d="M155.91 27.1917C159.03 27.1917 161.382 25.2957 161.766 22.6557H158.79C158.502 23.8557 157.422 24.6477 156.03 24.6477C153.966 24.6477 152.838 23.0637 152.838 20.9517C152.838 18.8397 153.942 17.2557 155.982 17.2557C157.374 17.2557 158.55 18.1197 158.766 19.3197H161.694C161.43 16.5357 158.958 14.7117 155.91 14.7117C152.142 14.7117 149.766 17.4957 149.766 20.9517C149.766 24.4077 152.142 27.1917 155.91 27.1917Z" fill="#363434"/>
<path d="M163.824 26.9997H166.752V9.71973H163.824V26.9997Z" fill="#363434"/>
<path d="M180.794 14.9037H177.842V21.5037C177.842 23.2797 176.69 24.5757 175.034 24.5757C173.546 24.5757 172.514 23.4237 172.514 21.7677V14.9037H169.586V22.3917C169.586 25.2237 171.362 27.1917 174.074 27.1917C175.802 27.1917 177.17 26.4477 177.842 25.1277V26.9997H180.794V14.9037Z" fill="#363434"/>
<path d="M187.805 27.1917C190.637 27.1917 192.485 25.7037 192.485 23.4237C192.485 17.9517 185.765 20.8317 185.765 18.2157C185.765 17.3997 186.461 16.9197 187.517 16.9197C188.453 16.9197 189.485 17.4957 189.653 18.6237H192.341C192.221 16.2717 190.277 14.7117 187.445 14.7117C184.949 14.7117 183.101 16.1997 183.101 18.3117C183.101 23.4237 189.725 20.8557 189.725 23.5437C189.725 24.2637 188.957 24.8397 187.805 24.8397C186.485 24.8397 185.597 24.1197 185.477 22.9677H182.789C182.933 25.5597 184.877 27.1917 187.805 27.1917Z" fill="#363434"/>
<path d="M194.426 9.71973V13.0077H197.594V9.71973H194.426ZM194.546 26.9997H197.498V14.9037H194.546V26.9997Z" fill="#363434"/>
<path d="M203.436 26.9997H206.196L210.636 14.9037H207.612L204.828 23.2557L202.02 14.9037H199.02L203.436 26.9997Z" fill="#363434"/>
<path d="M219.96 22.9677C219.648 24.1197 218.664 24.7437 217.152 24.7437C215.28 24.7437 214.032 23.4957 213.816 21.5517H222.744C222.768 21.3117 222.792 20.9517 222.792 20.5437C222.792 17.6637 220.968 14.7117 216.912 14.7117C212.952 14.7117 210.984 17.7117 210.984 20.9037C210.984 24.0717 213.192 27.1917 217.152 27.1917C220.128 27.1917 222.384 25.5357 222.84 22.9677H219.96ZM216.912 16.9197C218.664 16.9197 219.72 18.0717 219.84 19.6077H213.888C214.2 17.7837 215.256 16.9197 216.912 16.9197Z" fill="#363434"/>
</svg>
