<svg width="165" height="71" viewBox="0 0 165 71" fill="none" xmlns="http://www.w3.org/2000/svg">
<g clip-path="url(#clip0_364_8)">
<path d="M100.851 22.0096C93.7908 22.0096 91.4908 28.2996 91.4908 36.7396V54.8296H84.0508V15.5596H91.4908V20.5096C91.4908 21.0396 92.2008 21.2096 92.4408 20.7496C94.3008 17.1796 97.1908 15.5596 101.771 15.5596H108.671V21.9996H100.851V22.0096Z" fill="#DDD5CC"/>
<path d="M75.5711 29.8498V54.7698H68.1311V50.3598C68.1311 49.8698 67.5011 49.6798 67.2211 50.0798C64.9511 53.3198 60.5911 55.3798 55.5511 55.3798C47.6511 55.3798 42.4411 50.6298 42.4411 43.7298C42.4411 36.2898 48.3411 31.6898 57.4711 31.6898H65.5211C67.2811 31.6898 68.1311 30.7698 68.1311 29.3898C68.1311 24.7098 64.7611 21.4898 58.7811 21.4898C53.4111 21.4898 49.5011 24.8598 49.2711 28.7698H42.3711C42.9811 21.1798 49.8811 15.5098 59.0111 15.5098C68.9811 15.5098 75.5711 21.2598 75.5711 29.8498V29.8498ZM68.1311 37.8198V36.8998H58.1611C53.1011 36.8998 49.8011 39.5098 49.8011 43.5698C49.8011 47.0998 52.7111 49.4698 57.0111 49.4698C64.0611 49.4698 68.1311 44.9498 68.1311 37.8198Z" fill="#DDD5CC"/>
<path d="M150.581 53.4296L144.761 70.4496H137.631L142.841 55.1996L128.281 15.5596H135.951L146.291 45.1496L156.721 15.5596H164.381L150.581 53.4296Z" fill="#DDD5CC"/>
<path d="M121.67 0H114.23V54.83H121.67V0Z" fill="#DDD5CC"/>
<path d="M36.84 36.8898C36.87 36.3898 36.88 35.8998 36.88 35.3898C36.88 34.1198 36.79 32.8798 36.6 31.6798C35.21 22.4798 28.57 15.5098 18.45 15.5098C7 15.5198 0 24.4198 0 35.3898C0 46.3598 8.25 55.2598 18.43 55.2598C28.61 55.2598 34.3 49.7498 36.14 42.0498H29.13C27.37 47.1798 23.28 48.7098 18.45 48.7098C13.94 48.7098 10.06 46.4198 8.13 42.0498C7.47 40.5698 7.04 38.8498 6.89 36.8898H36.84V36.8898ZM7.07 31.6898C8.02 25.2898 11.79 22.0798 18.43 22.0798C23.96 22.0798 28.61 24.3398 29.77 31.6898H7.07Z" fill="#DDD5CC"/>
</g>
<defs>
<clipPath id="clip0_364_8">
<rect width="164.38" height="70.45" fill="white"/>
</clipPath>
</defs>
</svg>
