<svg width="44" height="43" viewBox="0 0 44 43" fill="none" xmlns="http://www.w3.org/2000/svg">
<path d="M23.5886 0.0587476C24.4698 0.176243 25.4098 0.293738 26.291 0.469981C34.9856 2.05617 42.1528 9.34087 43.5628 17.9768C45.149 27.6701 40.0379 37.0697 31.0495 41.0058C22.1787 44.9419 12.0153 42.827 5.49434 35.6598C2.32197 32.1937 0.500792 28.0813 0.0895588 23.3228C-0.90915 12.5132 6.55179 2.81988 17.1264 0.528728C17.9488 0.352486 18.8301 0.23499 19.6525 0.117495C19.77 0.117495 19.8288 0.0587476 19.9463 0C21.18 0.0587476 22.4136 0.0587476 23.5886 0.0587476ZM42.7991 19.7392C42.7403 16.1556 40.9779 11.5145 37.3355 7.69593C32.0483 2.23241 25.586 0.117495 18.0663 1.40994C7.7855 3.17237 0.030822 12.6307 1.14703 23.499C1.61701 28.0226 3.37942 32.0174 6.55179 35.3073C12.0741 41.0058 18.83 43.0032 26.5847 41.3583C36.1018 39.3609 42.7991 31.0187 42.7991 19.7392Z" fill="#363434"/>
<path d="M15.8343 39.5372C16.4805 39.6547 17.1267 39.8309 17.7729 39.9484C19.3004 40.1834 20.8865 40.4184 22.414 39.9484C23.0602 39.7722 23.7652 39.4197 24.2939 39.0084C24.9989 38.421 24.9989 37.5397 24.5289 36.8935C24.0589 36.2473 23.119 36.1298 22.3552 36.5998C22.2377 36.6585 22.0615 36.776 22.0027 36.8935C20.5928 38.2447 18.8891 38.5385 17.068 38.3035C13.8368 37.951 10.8407 36.8935 8.31455 34.7786C5.37717 32.37 3.73225 29.1976 2.90978 25.4965C2.26356 22.3829 2.38105 19.328 3.20352 16.2731C3.26227 16.1556 3.32101 15.9794 3.43851 15.8619C3.32101 16.2731 3.26226 16.7431 3.14477 17.1543C2.85103 18.7405 2.67478 20.3854 3.08602 21.9716C3.26226 22.7353 3.61475 23.3816 4.26097 23.8516C4.96594 24.3215 5.84716 24.3215 6.37589 23.7928C6.90461 23.2641 6.90462 22.4416 6.43464 21.7954C6.37589 21.6779 6.31715 21.5604 6.19965 21.5016C4.78971 19.9742 4.55471 18.0943 4.84845 16.0969C5.37717 12.807 6.55212 9.86963 8.90203 7.46098C11.1344 5.16982 13.8956 3.70113 17.0092 2.93741C20.5341 2.0562 24.0589 2.11495 27.525 3.1724C27.7013 3.23115 27.8775 3.2899 27.995 3.46614C27.2313 3.2899 26.4676 3.11366 25.7038 2.93741C24.2939 2.70242 22.8252 2.58493 21.474 2.99616C20.8865 3.1724 20.2403 3.46614 19.7703 3.81863C19.0066 4.34735 18.8891 5.34606 19.3591 5.99229C19.8291 6.63851 20.8278 6.81475 21.6503 6.28603C21.709 6.22728 21.7677 6.22728 21.8265 6.16853C23.4714 4.64109 25.4689 4.4061 27.525 4.69984C31.2849 5.28732 34.6335 6.75601 37.1596 9.69338C39.3333 12.102 40.567 14.9807 41.0957 18.153C41.6244 21.1492 41.5069 24.1453 40.6257 27.0239C40.567 27.2002 40.5082 27.3177 40.4495 27.4352C40.4495 27.4352 40.3907 27.4352 40.2733 27.4939C40.3907 26.9652 40.5082 26.4952 40.6257 26.0252C40.9782 24.2628 41.2719 22.5591 40.6845 20.7967C40.5082 20.2092 40.1558 19.6217 39.6858 19.1517C39.0983 18.5055 38.0996 18.5055 37.5121 19.0343C36.9246 19.563 36.8659 20.4442 37.3946 21.2079C37.3946 21.2667 37.4534 21.3254 37.5121 21.3254C39.0395 22.9703 39.3333 24.909 38.922 27.0239C38.3933 30.1375 37.2771 32.9574 35.0447 35.3073C32.6948 37.7747 29.8749 39.2434 26.5851 40.0071C23.2364 40.7709 19.8878 40.7709 16.598 39.8896C16.3042 39.8309 16.0105 39.7134 15.7167 39.5959C15.7755 39.6547 15.8343 39.5959 15.8343 39.5372ZM18.5954 20.033C18.6541 20.8554 18.5954 21.0317 17.8904 21.3842C16.128 22.3241 14.3068 23.2053 12.7206 24.439C11.4282 25.4377 10.4295 26.6714 10.077 28.2576C9.607 30.1963 10.6057 31.9587 12.3681 32.4287C13.3669 32.7224 14.3656 32.6049 15.3643 32.2525C17.3617 31.43 18.4779 29.8438 19.2416 27.9639C19.9466 26.2602 20.0641 24.439 20.1816 22.6179C20.1816 22.2066 20.3578 21.9716 20.7103 21.7366C22.0615 20.9142 23.4127 20.0917 24.7639 19.2692C25.1164 19.0343 25.4101 18.7993 25.7626 18.5643C25.9976 18.7993 26.1151 19.0343 26.3501 19.2692C26.2326 19.328 26.1151 19.3867 25.9976 19.4455C23.7652 20.7379 22.414 22.6179 22.1202 25.2615C21.7677 28.3164 23.5302 32.135 27.6425 32.6049C31.8136 33.0749 34.8097 29.4913 34.1635 26.1427C33.6935 23.5578 31.4611 22.0304 28.9937 22.7353C26.7026 23.3816 25.7626 25.9665 27.1138 27.7289C27.525 28.1989 27.995 28.5514 28.6412 28.4926C28.935 28.4926 29.2875 28.3164 29.4049 28.0814C29.5224 27.8464 29.4049 27.4939 29.2874 27.2002C29.2287 27.0239 28.9937 26.8477 28.8762 26.6714C28.23 25.7315 28.6412 24.6153 29.7574 24.3803C30.8149 24.204 31.6961 24.7915 32.0486 25.9665C32.5773 27.6701 31.8136 29.6088 30.2274 30.4313C28.6412 31.2538 26.7026 30.8425 25.5276 29.3738C24.4114 27.9639 24.1764 26.319 24.4701 24.6153C24.7639 22.8528 25.6451 21.5016 27.2313 20.6204C27.76 20.3267 28.3475 20.2092 28.9937 20.268C29.5812 20.3267 30.2274 20.268 30.8736 20.1505C31.2849 20.0917 31.6374 19.8567 31.6374 19.3867C31.6374 18.9168 31.3436 18.6818 30.9324 18.5643C30.2274 18.2705 29.5224 18.2705 28.8175 18.4468C27.995 18.623 27.6425 18.388 27.3488 17.5068C27.9363 16.9781 28.5825 16.5081 29.1699 15.9794C30.1687 15.0982 31.0499 14.0995 31.4024 12.6895C31.9311 10.7508 30.5211 9.3409 28.5825 9.92837C27.995 10.1046 27.4075 10.4571 26.9375 10.9271C25.4101 12.4545 24.8226 14.3344 25.0576 16.4494C25.1164 16.9193 24.9989 17.1543 24.5876 17.4481C23.2364 18.2705 21.944 19.093 20.6515 19.9155C20.534 19.9742 20.4166 20.033 20.2991 20.0917C20.3578 19.093 20.4753 18.2705 21.1803 17.5068C21.5915 17.0956 21.8852 16.4494 22.1202 15.9206C22.2965 15.5681 22.2965 15.0982 21.944 14.9219C21.6503 14.8044 21.1803 14.8044 20.8865 14.9219C20.5928 15.0394 20.2991 15.3332 20.1228 15.5681C19.8291 16.0381 19.4766 16.5669 19.3591 17.0956C19.0066 18.388 18.0079 18.9168 16.8917 19.2105C16.2455 19.3867 15.8342 19.0343 15.7167 18.388C15.7755 18.3293 15.8343 18.3293 15.893 18.2705C17.7142 17.5068 19.0654 16.0969 20.0053 14.3932C20.5341 13.512 20.8278 12.572 20.769 11.5146C20.7103 10.5746 20.1228 9.92838 19.1241 9.81088C18.0667 9.69339 17.1854 10.0459 16.363 10.7508C15.2468 11.6908 14.5418 12.9245 14.1306 14.2757C13.8956 15.0982 13.7193 15.9794 13.5431 16.8018C12.9556 16.7431 12.6619 16.3906 12.4269 15.8619C12.1331 15.0982 12.3681 14.3344 12.5444 13.6295C12.6031 13.3945 12.5444 12.9832 12.3681 12.9245C12.1332 12.807 11.7807 12.9245 11.5457 12.9832C11.3694 13.042 11.1932 13.277 11.1344 13.3945C10.1357 15.0982 10.6645 17.9768 13.2494 18.4468C13.5431 18.5055 13.7193 18.623 13.8368 18.9168C14.3656 20.268 15.4818 20.9142 16.8917 20.6204C17.4792 20.5617 18.0079 20.268 18.5954 20.033Z" fill="#363434"/>
<path d="M18.2429 23.0291C17.8904 25.379 17.4791 27.6114 16.0104 29.4325C15.3642 30.255 14.483 30.7837 13.3668 30.8425C12.4268 30.8425 11.8394 30.3138 11.8394 29.3738C11.8394 28.4926 12.1918 27.7289 12.7206 27.0826C14.1893 25.2615 16.1279 24.1453 18.2429 23.0291Z" fill="#363434"/>
<path d="M15.3638 16.6256C15.4813 16.1556 15.54 15.6269 15.7163 15.1569C16.1275 14.217 16.5975 13.277 17.1262 12.3958C17.3024 12.102 17.6549 11.8083 17.9487 11.6321C18.1249 11.5146 18.5361 11.5146 18.7124 11.6321C18.8886 11.7496 18.9474 12.102 18.9474 12.337C18.9474 12.572 18.8299 12.807 18.7711 13.042C18.0662 14.5107 17.0675 15.6857 15.775 16.6256C15.7163 16.6844 15.5988 16.7431 15.4813 16.7431C15.4813 16.6844 15.4225 16.6844 15.3638 16.6256Z" fill="#363434"/>
<path d="M26.9956 15.8033C26.9956 14.3346 27.4068 13.0421 28.4055 11.9847C28.523 11.8672 28.5818 11.8084 28.6993 11.6909C28.993 11.5147 29.3455 11.3385 29.5805 11.6322C29.7567 11.8084 29.8155 12.2784 29.698 12.4547C29.4043 13.0421 28.993 13.6884 28.5818 14.2171C28.1118 14.8046 27.5243 15.2746 26.9956 15.8033Z" fill="#363434"/>
</svg>
