<svg width="102" height="43" viewBox="0 0 102 43" fill="none" xmlns="http://www.w3.org/2000/svg">
<path d="M101.736 23.583C101.414 22.026 100.417 21.0638 98.9875 20.4988C97.4567 19.8935 95.8351 19.5873 94.2589 19.1273C93.9072 19.024 93.5626 18.9086 93.2267 18.7669C92.7071 18.5482 92.3783 18.1616 92.3485 17.6035C92.3153 17.021 92.6354 16.5994 93.1287 16.3142C93.818 15.9136 94.5685 15.9434 95.3067 16.0991C96.3091 16.3125 96.9162 16.9912 97.2223 17.9307C97.35 18.3243 97.5477 18.396 97.9221 18.312C98.8772 18.0986 99.8429 17.9359 100.798 17.7225C101.342 17.6 101.36 17.5685 101.185 17.0647C100.527 15.1649 99.1239 14.0418 97.2486 13.531C95.1423 12.9589 93.0325 13.0534 91.0155 13.9473C89.6545 14.5508 88.6328 15.513 88.2549 17.0087C87.6934 19.227 88.6888 21.2755 90.7548 22.2832C92.0809 22.9287 93.5276 23.1806 94.9219 23.5987C95.4467 23.7561 95.9733 23.9066 96.4718 24.1358C97.2398 24.4909 97.5197 24.9807 97.4392 25.7924C97.3745 26.4397 96.9354 26.947 96.1937 27.1027C94.1784 27.5278 92.478 26.8298 91.8534 24.748C91.752 24.4122 91.5893 24.3317 91.2761 24.4069C90.2283 24.6588 89.1699 24.8653 88.1237 25.1312C87.6724 25.2466 87.6164 25.3411 87.7634 25.8099C88.2252 27.2847 89.1401 28.3973 90.5029 29.132C91.738 29.7968 93.0623 30.0924 94.467 30.1239C95.8963 30.1572 97.2888 30.0225 98.6008 29.4294C99.8622 28.8591 100.877 28.0177 101.435 26.7091C101.545 26.4485 101.633 26.1843 101.68 25.9044C101.711 25.7172 101.724 25.4968 101.996 25.481V23.9923C101.73 23.9713 101.767 23.7369 101.736 23.583V23.583Z" fill="#363434"/>
<path d="M98.3963 20.1419C97.0825 19.7343 95.746 19.4002 94.4182 19.0398C93.9371 18.9086 93.4578 18.7721 93.0274 18.515C92.5446 18.2263 92.3591 17.719 92.5358 17.1872C92.7003 16.6869 93.0729 16.386 93.5627 16.2635C95.1039 15.8769 96.6539 16.316 97.1857 18.1931C97.2504 18.4223 97.2924 18.5919 97.6003 18.5255C98.8004 18.2666 100 18.0181 101.206 17.782C101.486 17.7277 101.5 17.6123 101.431 17.3726C101.101 16.2005 100.445 15.2611 99.4984 14.4966C97.0143 12.4918 92.2804 12.742 89.9975 14.3654C87.1127 16.4175 87.2894 20.4288 90.3473 22.2202C91.2623 22.7555 92.2752 23.0057 93.2793 23.2961C94.3605 23.6092 95.4801 23.8086 96.5035 24.3055C97.0738 24.5819 97.4131 25.0087 97.3572 25.6822C97.3012 26.3435 96.9198 26.7669 96.3215 26.9418C93.9773 27.6276 92.2874 26.3295 91.948 24.5521C91.8833 24.2092 91.7574 24.162 91.453 24.2337C90.2599 24.5171 89.0633 24.7953 87.8632 25.0472C87.5361 25.1154 87.4696 25.2344 87.5501 25.5458C87.9717 27.1692 88.8849 28.4445 90.3753 29.2108C93.1376 30.6295 95.9996 30.6977 98.8266 29.4557C100.406 28.7612 101.559 27.5943 101.822 25.7697C101.836 25.6682 101.939 25.5808 102 25.4863C101.727 25.502 101.715 25.7225 101.683 25.9097C101.636 26.1896 101.55 26.4537 101.438 26.7144C100.88 28.0229 99.8658 28.8644 98.6045 29.4347C97.2924 30.0277 95.9017 30.1624 94.4707 30.1292C93.0659 30.0977 91.7416 29.802 90.5065 29.1373C89.1438 28.4025 88.2288 27.2899 87.767 25.8152C87.62 25.3481 87.676 25.2519 88.1274 25.1364C89.1718 24.8705 90.2319 24.6641 91.2798 24.4122C91.5929 24.3369 91.7574 24.4174 91.8571 24.7533C92.4834 26.8351 94.182 27.5331 96.1973 27.108C96.9391 26.9523 97.3781 26.445 97.4429 25.7977C97.5233 24.986 97.2452 24.4961 96.4755 24.141C95.9786 23.9118 95.4521 23.7614 94.9255 23.604C93.5295 23.1858 92.0845 22.9339 90.7584 22.2884C88.6924 21.2825 87.697 19.2322 88.2586 17.014C88.6364 15.5183 89.6598 14.5544 91.0191 13.9526C93.0362 13.0586 95.1459 12.9624 97.2522 13.5362C99.1275 14.047 100.531 15.1701 101.188 17.07C101.363 17.5738 101.346 17.6053 100.802 17.7277C99.8465 17.9412 98.8809 18.1039 97.9257 18.3173C97.5531 18.4013 97.3554 18.3295 97.226 17.9359C96.9198 16.9965 96.3128 16.3177 95.3104 16.1043C94.5721 15.9469 93.8234 15.9189 93.1324 16.3195C92.6408 16.6046 92.3207 17.0262 92.3521 17.6088C92.3836 18.1668 92.7125 18.5535 93.2303 18.7721C93.5662 18.9138 93.9109 19.031 94.2625 19.1325C95.8369 19.5926 97.4586 19.8987 98.9911 20.504C100.42 21.0691 101.417 22.0295 101.739 23.5882C101.771 23.7422 101.734 23.9766 102 23.9976C101.827 23.7089 101.844 23.3695 101.743 23.0599C101.204 21.4277 99.9305 20.6212 98.3998 20.1454L98.3963 20.1419Z" fill="#363434"/>
<path d="M23.9352 14.9043C22.1385 12.5076 18.4876 12.3449 16.488 14.5771C15.916 15.2156 15.5346 15.9661 15.2459 16.7674C15.1952 16.9056 15.134 17.0403 15.057 17.2274C14.2383 14.9935 13.0487 13.2651 10.5016 13.0587C7.55737 12.8207 5.97592 14.4757 4.99276 17C4.99276 16.0081 4.98052 15.0145 4.99976 14.0226C5.00501 13.6954 4.94203 13.559 4.57116 13.5642C3.17689 13.5852 1.78263 13.5817 0.388365 13.5642C0.0769732 13.5625 0 13.6552 0 13.9561C0.00874695 19.1028 0.0104963 24.2478 0 29.3927C0 29.7041 0.0927177 29.7811 0.393613 29.7776C1.77038 29.7636 3.1489 29.7496 4.52567 29.7828C4.99626 29.7933 5.13446 29.6831 5.13446 29.1933C5.13446 26.5132 5.04524 23.8332 5.19569 21.1548C5.24992 20.1787 5.38288 19.2078 5.8867 18.3366C6.36953 17.5021 7.12527 17.1732 8.17665 17.3202C9.1843 17.4601 9.66539 17.894 9.91555 18.8929C10.0293 19.3442 10.066 19.8043 10.066 20.2696C10.0625 23.2803 10.066 26.2928 10.0625 29.3035C10.0625 29.5589 10.024 29.7846 10.4229 29.7793C11.8994 29.7601 13.3776 29.7653 14.8541 29.7776C15.1445 29.7793 15.2232 29.6779 15.218 29.4032C15.204 28.5268 15.2092 27.6503 15.2145 26.7721C15.2232 24.9195 15.2057 23.0652 15.2617 21.2143C15.2932 20.1559 15.4419 19.0958 16.0542 18.1791C16.5877 17.3796 17.368 17.1855 18.2776 17.3202C19.1558 17.4496 19.7384 17.8975 19.9553 18.7792C20.0743 19.2637 20.132 19.7536 20.132 20.2521C20.1355 22.0715 20.1407 23.8926 20.1477 25.712C20.153 26.9033 20.174 28.0947 20.1635 29.2843C20.16 29.6604 20.2702 29.7898 20.6691 29.7811C22.0126 29.7548 23.3579 29.7496 24.7014 29.7828C25.1702 29.7951 25.3242 29.6831 25.3189 29.1985C25.2909 25.6263 25.3329 22.054 25.2175 18.48C25.1737 17.1277 24.7276 15.9644 23.9334 14.9025L23.9352 14.9043Z" fill="#363434"/>
<path d="M75.1309 22.6995C78.4005 22.724 81.6718 22.7048 84.9415 22.7223C85.3648 22.724 85.4698 22.6016 85.4575 22.1957C85.4295 21.335 85.3911 20.4778 85.2633 19.6258C84.6616 15.611 81.8783 13.1321 77.8302 13.0744C74.9717 13.0341 72.54 13.9526 70.9166 16.4455C69.6885 18.3331 69.4191 20.4516 69.5678 22.6383C69.6938 24.5101 70.2098 26.2595 71.4886 27.6958C73.1296 29.5414 75.2866 30.1379 77.8809 30.1537C78.1678 30.1309 78.6664 30.1169 79.158 30.0487C82.0742 29.6429 84.1472 28.1279 85.2966 25.3953C85.4295 25.0787 85.3981 24.9457 85.0377 24.8495C83.9321 24.5539 82.8299 24.2407 81.7436 23.8856C81.2765 23.7334 81.0753 23.7859 80.8969 24.2915C80.3581 25.8152 79.2227 26.5394 77.6517 26.459C76.1613 26.382 75.2236 25.586 74.7845 24.0151C74.718 23.7772 74.683 23.5305 74.627 23.2891C74.5273 22.8587 74.6375 22.6978 75.1326 22.7013L75.1309 22.6995ZM74.7478 19.2655C75.0224 18.0287 75.486 16.9528 76.8715 16.6082C78.6944 16.1551 80.4158 17.5808 80.3091 19.4352C80.2916 19.7343 80.1114 19.6853 79.9382 19.6871C79.1265 19.6906 78.3148 19.6871 77.503 19.6871C76.7071 19.6871 75.9129 19.6766 75.1169 19.6923C74.788 19.6993 74.6725 19.6136 74.7495 19.2655H74.7478Z" fill="#363434"/>
<path d="M64.1744 21.7042C63.9697 21.4173 63.9522 21.2284 64.1674 20.931C65.8223 18.634 67.458 16.3231 69.0937 14.0139C69.1812 13.8897 69.3526 13.7899 69.2756 13.573C67.5682 13.573 65.8591 13.5783 64.1499 13.5678C63.8928 13.566 63.7668 13.685 63.6356 13.8722C62.7294 15.158 61.8057 16.4315 60.9083 17.7226C60.6879 18.0392 60.5812 18.0287 60.366 17.7156C59.4965 16.4455 58.5973 15.1947 57.7244 13.9264C57.546 13.6675 57.3605 13.559 57.0369 13.5643C55.6934 13.5853 54.3481 13.573 53.0045 13.573C52.6669 13.573 52.3293 13.573 51.9199 13.573C52.0196 13.72 52.0634 13.7882 52.1106 13.8512C53.9772 16.3615 55.8386 18.8772 57.7174 21.3788C57.9431 21.6797 57.9588 21.8739 57.7331 22.187C56.1237 24.414 54.5353 26.6585 52.9433 28.8977C52.7561 29.1601 52.5777 29.4312 52.3625 29.7461C52.5707 29.7584 52.6984 29.7706 52.8261 29.7724C54.3691 29.7724 55.9138 29.7636 57.4567 29.7811C57.7769 29.7846 57.9676 29.6832 58.1478 29.4225C59.0277 28.1594 59.9374 26.9174 60.8138 25.6508C61.0377 25.3272 61.1462 25.3517 61.3561 25.6543C62.2133 26.8929 63.1003 28.1122 63.9557 29.3508C64.1622 29.6499 64.3738 29.7916 64.7587 29.7846C66.2684 29.7584 67.7799 29.7759 69.2896 29.7706C69.4471 29.7706 69.615 29.8196 69.7987 29.7007C69.6885 29.5345 69.5853 29.3718 69.4733 29.2143C67.7099 26.7092 65.9518 24.2023 64.1779 21.7059L64.1744 21.7042Z" fill="#363434"/>
<path d="M48.1187 13.1076C46.1734 12.8102 44.4992 13.3 43.2781 14.941C42.8215 15.555 42.5189 16.2495 42.1463 16.9405C42.1463 15.9836 42.1323 15.0284 42.1533 14.0715C42.162 13.7041 42.0903 13.5519 41.6722 13.5607C40.3129 13.5887 38.9501 13.5887 37.5909 13.5607C37.1938 13.5519 37.1378 13.6919 37.1378 14.0418C37.1483 19.1185 37.15 24.197 37.1343 29.2737C37.1343 29.7041 37.2655 29.788 37.6661 29.7793C38.9921 29.7548 40.3199 29.7705 41.6477 29.7705C42.2722 29.7705 42.267 29.7705 42.274 29.1233C42.302 26.4607 42.1918 23.7981 42.3457 21.1373C42.4052 20.0947 42.5416 19.0555 43.1522 18.1581C43.6543 17.4216 44.3785 17.1959 45.2375 17.3114C46.0754 17.4251 46.49 17.9691 46.7244 18.7196C46.9501 19.4456 46.9204 20.1909 46.9256 20.9326C46.9256 21.1828 46.9991 21.286 47.2633 21.2842C48.7572 21.2755 50.2495 21.2772 51.7434 21.2842C51.9639 21.2842 52.0828 21.23 52.0811 20.9816C52.0811 19.4439 52.1283 17.9044 51.6892 16.4034C51.1591 14.5928 50.0378 13.3997 48.1187 13.1076V13.1076Z" fill="#363434"/>
<path d="M33.8019 23.5917C33.8019 23.2121 33.8019 22.8307 33.8019 22.4511C33.8019 20.8976 33.8019 19.3442 33.8019 17.7907C33.8019 17.6455 33.8334 17.4741 33.6654 17.3971C33.4748 17.3096 33.4048 17.4933 33.3138 17.5948C32.8642 18.0951 32.2974 18.438 31.7236 18.7704C30.0582 19.7343 28.9788 21.1128 28.8021 23.0616C28.6097 25.1696 28.6552 27.2864 28.6709 29.4014C28.6727 29.725 28.7986 29.7793 29.082 29.7775C30.5078 29.767 31.9335 29.7565 33.3593 29.7828C33.7599 29.7898 33.8141 29.6393 33.8124 29.2947C33.7984 27.3949 33.8054 25.4933 33.8054 23.5917H33.8019Z" fill="#363434"/>
<path d="M33.3734 13.5659C32.6614 13.5939 31.9459 13.5747 31.2339 13.5747C30.5201 13.5747 29.8064 13.5887 29.0926 13.5677C28.7707 13.5572 28.6623 13.6517 28.6693 13.9823C28.6903 14.9585 28.6763 15.9346 28.6763 16.909C28.6763 17.8642 29.1626 18.2747 30.1352 18.1406C32.4235 17.8275 33.83 16.2373 33.809 14.0173C33.8055 13.6832 33.732 13.552 33.3716 13.5659H33.3734Z" fill="#363434"/>
</svg>
