<svg width="125" height="43" viewBox="0 0 125 43" fill="none" xmlns="http://www.w3.org/2000/svg">
<path d="M23.5886 0.0587476C24.4698 0.176243 25.4098 0.293738 26.291 0.469981C34.9856 2.05617 42.1528 9.34087 43.5628 17.9768C45.149 27.6701 40.0379 37.0697 31.0495 41.0058C22.1787 44.9419 12.0153 42.827 5.49434 35.6598C2.32197 32.1937 0.500792 28.0813 0.0895588 23.3228C-0.90915 12.5132 6.55179 2.81988 17.1264 0.528728C17.9488 0.352486 18.8301 0.23499 19.6525 0.117495C19.77 0.117495 19.8288 0.0587476 19.9463 0C21.18 0.0587476 22.4136 0.0587476 23.5886 0.0587476ZM42.7991 19.7392C42.7403 16.1556 40.9779 11.5145 37.3355 7.69593C32.0483 2.23241 25.586 0.117495 18.0663 1.40994C7.7855 3.17237 0.030822 12.6307 1.14703 23.499C1.61701 28.0226 3.37942 32.0174 6.55179 35.3073C12.0741 41.0058 18.83 43.0032 26.5847 41.3583C36.1018 39.3609 42.7991 31.0187 42.7991 19.7392Z" fill="#363434"/>
<path d="M124.635 22.6766C124.341 22.7941 124.048 22.9704 123.754 22.9704C122.52 23.0291 121.286 22.9704 120.053 22.9704C119.877 24.4978 121.228 25.614 122.755 25.2028C123.049 25.144 123.284 25.0265 123.519 24.909C123.754 24.7915 124.048 24.6153 124.224 24.9678C124.4 25.3203 124.106 25.4378 123.871 25.614C121.756 26.9065 119.23 25.614 119.113 23.1466C119.054 22.5004 119.172 21.7367 119.465 21.0904C119.994 19.6218 121.698 18.9755 123.166 19.563C123.93 19.8568 124.341 20.4442 124.576 21.2079C124.576 21.3254 124.635 21.3842 124.694 21.5017C124.635 21.9129 124.635 22.2654 124.635 22.6766ZM123.813 22.2067C123.813 20.8555 123.108 20.0917 121.933 20.1505C120.817 20.2092 119.994 21.0904 120.053 22.2067C121.286 22.2067 122.579 22.2067 123.813 22.2067Z" fill="#363434"/>
<path d="M55.5475 22.2065C54.96 22.2065 54.3725 22.2065 53.785 22.2065C53.4913 22.2065 53.1976 22.2065 53.1976 21.7952C53.1976 21.4428 53.4913 21.384 53.785 21.384C54.49 21.384 55.195 21.384 55.8999 21.384C56.3112 21.384 56.4874 21.5603 56.4874 21.9715C56.4874 22.8527 56.4874 23.6752 56.4874 24.5564C56.4874 25.0264 56.2524 25.3201 55.8412 25.5551C54.7837 26.0251 53.6675 26.2013 52.5513 25.9663C50.9652 25.6138 49.9077 24.4389 49.6727 22.6765C49.4377 21.0903 49.6727 19.6216 50.8477 18.3879C52.1401 17.0954 54.4313 16.8604 55.9587 17.9179C56.1937 18.0354 56.4287 18.2116 56.2524 18.5054C56.0762 18.8579 55.8412 18.7991 55.5475 18.6229C53.55 17.2717 50.5539 18.2704 50.4364 21.5015C50.4364 21.854 50.4364 22.1477 50.4952 22.5002C50.9652 25.4376 53.6088 25.7313 55.3712 24.9089C55.4887 24.8501 55.665 24.6151 55.665 24.4976C55.5475 23.7339 55.5475 23.0289 55.5475 22.2065Z" fill="#363434"/>
<path d="M72.9367 21.1492C72.9367 20.1505 72.9367 19.2105 72.9367 18.2705C72.9367 18.0943 72.878 17.918 72.9367 17.8005C72.9955 17.6243 73.1717 17.5068 73.2892 17.3306C73.4655 17.5068 73.6417 17.6243 73.7004 17.8005C73.7592 18.0943 73.7004 18.388 73.7004 18.6818C73.7004 20.7967 73.7004 22.9116 73.7004 25.0852C73.7004 25.2027 73.7004 25.3202 73.7004 25.4377C73.7004 25.7315 73.5829 25.9665 73.2305 25.9665C72.9367 25.9665 72.8192 25.7315 72.8192 25.4377C72.8192 24.4978 72.8192 23.4991 72.8192 22.5591C72.8192 22.3829 72.8192 22.2066 72.8192 21.9716C71.2918 21.9716 69.7644 21.9716 68.1782 21.9716C68.1782 22.6178 68.1782 23.3228 68.1782 23.969C68.1782 24.4978 68.1782 25.0265 68.1194 25.5552C68.1194 25.7315 67.8257 25.9077 67.7082 25.9077C67.5907 25.9077 67.4144 25.6727 67.3557 25.4965C67.297 25.4377 67.3557 25.3202 67.3557 25.2027C67.3557 22.7941 67.3557 20.4442 67.3557 18.0355C67.3557 17.9768 67.3557 17.8593 67.3557 17.8005C67.3557 17.5068 67.532 17.2718 67.8257 17.3893C68.0019 17.4481 68.1782 17.6831 68.2369 17.8005C68.2957 18.7405 68.2957 19.6805 68.2369 20.6204C68.2369 21.0317 68.3544 21.1492 68.7657 21.1492C70.1756 21.1492 71.5268 21.1492 72.9367 21.1492Z" fill="#363434"/>
<path d="M59.425 21.0903C60.4825 21.0903 61.4224 21.0903 62.4211 21.0903C62.7149 21.0903 63.0674 21.0903 63.0674 21.5016C63.0674 21.9128 62.7149 21.9128 62.4211 21.9128C61.4224 21.9128 60.4825 21.9128 59.425 21.9128C59.425 22.9115 59.425 23.9102 59.425 24.8502C59.425 24.9677 59.7187 25.1439 59.8362 25.1439C60.835 25.1439 61.8337 25.1439 62.8911 25.1439C63.1849 25.1439 63.4199 25.1439 63.4786 25.4964C63.4786 25.8489 63.1848 25.9076 62.9499 25.9076C61.7749 25.9076 60.6587 25.9076 59.4838 25.9076C58.8375 25.9076 58.6025 25.6139 58.6025 25.0264C58.6025 22.8527 58.6025 20.6203 58.6025 18.4467C58.6025 17.7417 58.8963 17.448 59.66 17.448C60.7762 17.448 61.8337 17.448 62.9499 17.448C63.1848 17.448 63.5373 17.3892 63.5373 17.8005C63.5373 18.2117 63.2436 18.2117 62.9499 18.2117C61.9511 18.2117 61.0112 18.2117 60.0125 18.2117C59.66 18.2117 59.4838 18.3292 59.4838 18.7404C59.425 19.4454 59.425 20.2091 59.425 21.0903Z" fill="#363434"/>
<path d="M86.155 20.2678C86.155 20.0916 86.155 19.9153 86.2138 19.7979C86.3313 19.6804 86.5075 19.5041 86.625 19.5041C86.7425 19.5041 86.9188 19.6804 87.0363 19.7979C87.095 19.8566 87.0363 19.9153 87.0363 19.9741C87.0363 21.7953 87.0363 23.5577 87.0363 25.3789C87.0363 25.6726 86.9775 25.9076 86.625 25.9076C86.2726 25.9076 86.155 25.6726 86.155 25.3201C86.155 25.2614 86.1551 25.2026 86.0963 25.0851C85.5088 25.7314 84.8626 26.0251 84.0401 26.0251C82.8652 25.9663 82.0427 25.3789 81.6315 24.2039C81.3378 23.3815 81.3377 22.559 81.4552 21.6778C81.984 19.1516 84.8626 18.7991 86.155 20.2678ZM86.2138 22.7352C86.2138 22.5002 86.2138 22.2653 86.2138 22.0303C86.155 21.0903 85.6263 20.4441 84.7451 20.2091C83.8639 20.0328 82.9827 20.4441 82.5715 21.2665C82.219 21.9715 82.219 22.7352 82.3365 23.4402C82.4539 24.6739 83.2764 25.3789 84.5101 25.3201C85.5676 25.2614 86.2725 24.4977 86.2725 23.264C86.2138 23.0877 86.2138 22.9115 86.2138 22.7352Z" fill="#363434"/>
<path d="M112.886 25.0852C112.24 25.8489 111.535 26.0839 110.712 26.0252C109.302 25.9077 108.362 25.0265 108.186 23.499C108.127 22.7353 108.127 21.8541 108.421 21.1491C109.067 19.2692 111.241 18.7992 112.71 20.0917C112.768 20.1504 112.768 20.1504 112.886 20.2092C112.886 20.0329 112.886 19.8567 112.945 19.7392C113.003 19.6217 113.18 19.4455 113.297 19.4455C113.473 19.4455 113.591 19.6217 113.708 19.7392C113.708 19.7392 113.708 19.8567 113.708 19.9154C113.708 21.7366 113.708 23.6165 113.708 25.4377C113.708 25.614 113.415 25.7315 113.297 25.9077C113.18 25.7902 113.003 25.614 112.886 25.4965C112.886 25.4377 112.945 25.3202 112.886 25.0852ZM113.003 22.7353C113.003 22.5003 113.003 22.2653 113.003 22.0304C112.945 21.0316 112.298 20.3267 111.417 20.2092C110.418 20.0917 109.596 20.5617 109.243 21.5604C108.95 22.3241 108.95 23.1466 109.185 23.9103C109.478 24.9677 110.242 25.4377 111.358 25.379C112.298 25.3202 112.945 24.5565 113.003 23.5578C113.003 23.2053 113.003 22.9703 113.003 22.7353Z" fill="#363434"/>
<path d="M96.436 20.4443C97.1997 19.5631 98.0222 19.2693 98.9621 19.3868C100.02 19.5043 100.783 20.2093 100.783 21.2668C100.842 22.6767 100.842 24.0866 100.783 25.4966C100.783 25.6728 100.548 25.7903 100.431 25.9666C100.313 25.7903 100.02 25.6728 100.02 25.4966C99.9608 24.6741 100.02 23.8517 100.02 22.9704C100.02 22.618 100.02 22.3242 100.02 21.9717C100.02 20.7968 99.5496 20.2093 98.6684 20.1506C97.6109 20.0331 96.7297 20.6793 96.5535 21.678C96.436 22.2067 96.436 22.7355 96.436 23.2642C96.436 23.9692 96.436 24.7329 96.436 25.4378C96.436 25.7316 96.3185 25.9666 96.0248 25.9078C95.8485 25.8491 95.6135 25.6141 95.6135 25.4378C95.5548 24.9679 95.6135 24.5566 95.6135 24.0866C95.6135 21.7955 95.6135 19.5631 95.6135 17.2719C95.6135 17.1544 95.5548 16.9782 95.6135 16.9194C95.731 16.7432 95.9073 16.6257 96.0835 16.4495C96.201 16.6257 96.436 16.7432 96.436 16.9194C96.4947 17.8594 96.436 18.7994 96.436 19.7393C96.436 19.9743 96.436 20.1506 96.436 20.4443Z" fill="#363434"/>
<path d="M75.9331 22.9702C75.8744 24.6151 77.1668 25.6138 78.6943 25.2026C78.988 25.1439 79.2817 24.9089 79.6342 24.8501C79.8105 24.7914 79.9867 24.9089 80.1629 24.9676C80.1042 25.1439 80.1042 25.3788 79.9867 25.4963C78.4005 26.7888 75.7569 26.0251 75.1694 24.0864C74.8169 22.8527 74.9344 21.6778 75.5806 20.6203C76.2856 19.5628 77.7543 19.0929 78.988 19.6216C79.9867 20.0328 80.6917 21.3253 80.5154 22.5002C80.4567 22.9115 80.1629 23.0289 79.8105 23.0289C78.6943 23.0289 77.578 23.0289 76.4618 23.0289C76.2856 22.9702 76.1094 22.9702 75.9331 22.9702ZM75.9331 22.2065C77.2256 22.2065 78.518 22.2065 79.7517 22.2065C79.6342 20.7965 78.988 20.1503 77.8718 20.1503C76.7556 20.1503 75.9331 21.0315 75.9331 22.2065Z" fill="#363434"/>
<path d="M102.428 22.6765C102.428 20.3854 104.073 18.9754 106.247 19.4454C106.658 19.5041 107.011 19.7391 107.363 19.9741C107.481 20.0916 107.481 20.3854 107.539 20.6204C107.304 20.6204 107.069 20.6791 106.893 20.5616C106.247 20.1504 105.542 19.9741 104.778 20.2091C103.838 20.5029 103.368 21.2078 103.251 22.089C103.133 23.1465 103.192 24.2627 104.191 24.9089C105.013 25.4377 105.894 25.3202 106.717 24.7914C106.776 24.7327 106.834 24.6739 106.952 24.6739C107.128 24.6739 107.363 24.6739 107.539 24.7327C107.481 24.9089 107.539 25.2027 107.422 25.3202C106.599 25.9664 105.659 26.2014 104.661 25.9664C103.251 25.6139 102.428 24.3802 102.428 22.6765Z" fill="#363434"/>
<path d="M91.8537 20.268C91.5599 20.268 91.3249 20.3267 91.09 20.268C90.9137 20.2092 90.855 20.033 90.6787 19.9742C90.7962 19.8567 90.9137 19.6805 91.09 19.6217C91.3249 19.563 91.5599 19.6217 91.8537 19.6217C91.8537 19.1518 91.8537 18.7405 91.8537 18.2706C91.8537 17.9768 91.9712 17.6831 92.2649 17.8006C92.4411 17.8593 92.6174 18.0943 92.6761 18.2706C92.7349 18.6818 92.6761 19.093 92.6761 19.6217C93.0286 19.6217 93.3811 19.563 93.7336 19.6217C93.9098 19.6217 94.0273 19.8567 94.2036 19.9742C94.0861 20.0917 93.9098 20.268 93.7923 20.3267C93.4986 20.3855 93.1461 20.3267 92.7936 20.3267C92.7936 20.4442 92.7349 20.5617 92.7349 20.6792C92.7349 21.9129 92.7349 23.2054 92.7349 24.4391C92.7349 25.2615 93.1461 25.5553 93.9098 25.3203C94.1448 25.2615 94.4386 25.144 94.4973 25.4965C94.4973 25.6728 94.2623 25.9665 94.0861 26.0252C92.9111 26.4952 91.9124 25.849 91.9124 24.5565C91.9124 23.3228 91.9124 22.0891 91.9124 20.9142C91.8537 20.6205 91.8537 20.503 91.8537 20.268Z" fill="#363434"/>
<path d="M116.528 19.9743C116.88 19.5631 117.468 19.3868 118.114 19.4456C118.231 19.4456 118.408 19.4456 118.466 19.5043C118.584 19.6218 118.701 19.7981 118.819 19.9743C118.643 20.0331 118.466 20.2093 118.29 20.2093C117.057 20.0331 116.352 20.6205 116.293 21.8542C116.293 23.0292 116.293 24.1454 116.293 25.3203C116.293 25.6141 116.293 25.9666 115.882 25.9666C115.412 25.9666 115.412 25.6141 115.412 25.3203C115.412 23.6167 115.412 21.913 115.412 20.2093C115.412 19.9156 115.353 19.5043 115.764 19.5631C115.999 19.5043 116.234 19.7393 116.528 19.9743Z" fill="#363434"/>
<path d="M89.5041 21.2079C89.5041 22.559 89.5041 23.9102 89.5041 25.2614C89.5041 25.5552 89.5041 25.9077 89.0929 25.9077C88.6816 25.9077 88.6816 25.6139 88.6816 25.2614C88.6816 22.5003 88.6816 19.7979 88.6816 17.0368C88.6816 16.6843 88.7404 16.3905 89.1516 16.4493C89.5041 16.4493 89.5041 16.743 89.5041 17.0368C89.5041 18.4467 89.5041 19.8567 89.5041 21.2079Z" fill="#363434"/>
<path d="M15.8343 39.5372C16.4805 39.6547 17.1267 39.8309 17.7729 39.9484C19.3004 40.1834 20.8865 40.4184 22.414 39.9484C23.0602 39.7722 23.7652 39.4197 24.2939 39.0084C24.9989 38.421 24.9989 37.5397 24.5289 36.8935C24.0589 36.2473 23.119 36.1298 22.3552 36.5998C22.2377 36.6585 22.0615 36.776 22.0027 36.8935C20.5928 38.2447 18.8891 38.5385 17.068 38.3035C13.8368 37.951 10.8407 36.8935 8.31455 34.7786C5.37717 32.37 3.73225 29.1976 2.90978 25.4965C2.26356 22.3829 2.38105 19.328 3.20352 16.2731C3.26227 16.1556 3.32101 15.9794 3.43851 15.8619C3.32101 16.2731 3.26226 16.7431 3.14477 17.1543C2.85103 18.7405 2.67478 20.3854 3.08602 21.9716C3.26226 22.7353 3.61475 23.3816 4.26097 23.8516C4.96594 24.3215 5.84716 24.3215 6.37589 23.7928C6.90461 23.2641 6.90462 22.4416 6.43464 21.7954C6.37589 21.6779 6.31715 21.5604 6.19965 21.5017C4.78971 19.9742 4.55471 18.0943 4.84845 16.0969C5.37717 12.807 6.55212 9.86963 8.90203 7.46098C11.1344 5.16982 13.8956 3.70113 17.0092 2.93741C20.5341 2.0562 24.0589 2.11495 27.525 3.1724C27.7013 3.23115 27.8775 3.2899 27.995 3.46614C27.2313 3.2899 26.4676 3.11366 25.7038 2.93741C24.2939 2.70242 22.8252 2.58493 21.474 2.99616C20.8865 3.1724 20.2403 3.46614 19.7703 3.81863C19.0066 4.34735 18.8891 5.34606 19.3591 5.99229C19.8291 6.63851 20.8278 6.81475 21.6503 6.28603C21.709 6.22728 21.7677 6.22728 21.8265 6.16853C23.4714 4.64109 25.4689 4.4061 27.525 4.69984C31.2849 5.28732 34.6335 6.75601 37.1596 9.69338C39.3333 12.102 40.567 14.9807 41.0957 18.153C41.6244 21.1492 41.5069 24.1453 40.6257 27.0239C40.567 27.2002 40.5082 27.3177 40.4495 27.4352C40.4495 27.4352 40.3907 27.4352 40.2733 27.4939C40.3907 26.9652 40.5082 26.4952 40.6257 26.0252C40.9782 24.2628 41.272 22.5591 40.6845 20.7967C40.5082 20.2092 40.1558 19.6217 39.6858 19.1517C39.0983 18.5055 38.0996 18.5055 37.5121 19.0343C36.9246 19.563 36.8659 20.4442 37.3946 21.2079C37.3946 21.2667 37.4534 21.3254 37.5121 21.3254C39.0395 22.9703 39.3333 24.909 38.922 27.0239C38.3933 30.1375 37.2771 32.9574 35.0447 35.3073C32.6948 37.7747 29.8749 39.2434 26.5851 40.0071C23.2364 40.7709 19.8878 40.7709 16.598 39.8896C16.3042 39.8309 16.0105 39.7134 15.7167 39.5959C15.7755 39.6547 15.8343 39.5959 15.8343 39.5372ZM18.5954 20.033C18.6541 20.8554 18.5954 21.0317 17.8904 21.3842C16.128 22.3241 14.3068 23.2053 12.7206 24.439C11.4282 25.4377 10.4295 26.6714 10.077 28.2576C9.607 30.1963 10.6057 31.9587 12.3681 32.4287C13.3669 32.7224 14.3656 32.6049 15.3643 32.2525C17.3617 31.43 18.4779 29.8438 19.2416 27.9639C19.9466 26.2602 20.0641 24.439 20.1816 22.6179C20.1816 22.2066 20.3578 21.9716 20.7103 21.7366C22.0615 20.9142 23.4127 20.0917 24.7639 19.2692C25.1164 19.0343 25.4101 18.7993 25.7626 18.5643C25.9976 18.7993 26.1151 19.0343 26.3501 19.2692C26.2326 19.328 26.1151 19.3867 25.9976 19.4455C23.7652 20.7379 22.414 22.6179 22.1202 25.2615C21.7677 28.3164 23.5302 32.135 27.6425 32.6049C31.8136 33.0749 34.8097 29.4913 34.1635 26.1427C33.6935 23.5578 31.4611 22.0304 28.9937 22.7353C26.7026 23.3816 25.7626 25.9665 27.1138 27.7289C27.525 28.1989 27.995 28.5514 28.6412 28.4926C28.935 28.4926 29.2875 28.3164 29.4049 28.0814C29.5224 27.8464 29.4049 27.4939 29.2874 27.2002C29.2287 27.0239 28.9937 26.8477 28.8762 26.6714C28.23 25.7315 28.6412 24.6153 29.7574 24.3803C30.8149 24.204 31.6961 24.7915 32.0486 25.9665C32.5773 27.6701 31.8136 29.6088 30.2274 30.4313C28.6412 31.2538 26.7026 30.8425 25.5276 29.3738C24.4114 27.9639 24.1764 26.319 24.4701 24.6153C24.7639 22.8528 25.6451 21.5017 27.2313 20.6204C27.76 20.3267 28.3475 20.2092 28.9937 20.268C29.5812 20.3267 30.2274 20.268 30.8736 20.1505C31.2849 20.0917 31.6373 19.8567 31.6373 19.3867C31.6373 18.9168 31.3436 18.6818 30.9324 18.5643C30.2274 18.2705 29.5224 18.2705 28.8175 18.4468C27.995 18.623 27.6425 18.388 27.3488 17.5068C27.9363 16.9781 28.5825 16.5081 29.1699 15.9794C30.1687 15.0982 31.0499 14.0995 31.4024 12.6895C31.9311 10.7508 30.5211 9.3409 28.5825 9.92837C27.995 10.1046 27.4075 10.4571 26.9375 10.9271C25.4101 12.4545 24.8226 14.3344 25.0576 16.4494C25.1164 16.9193 24.9989 17.1543 24.5876 17.4481C23.2364 18.2705 21.944 19.093 20.6515 19.9155C20.534 19.9742 20.4166 20.033 20.2991 20.0917C20.3578 19.093 20.4753 18.2705 21.1803 17.5068C21.5915 17.0956 21.8852 16.4494 22.1202 15.9206C22.2965 15.5681 22.2965 15.0982 21.944 14.9219C21.6503 14.8044 21.1803 14.8044 20.8865 14.9219C20.5928 15.0394 20.2991 15.3332 20.1228 15.5681C19.8291 16.0381 19.4766 16.5669 19.3591 17.0956C19.0066 18.388 18.0079 18.9168 16.8917 19.2105C16.2455 19.3867 15.8342 19.0343 15.7167 18.388C15.7755 18.3293 15.8343 18.3293 15.893 18.2705C17.7142 17.5068 19.0654 16.0969 20.0053 14.3932C20.5341 13.512 20.8278 12.572 20.769 11.5146C20.7103 10.5746 20.1228 9.92838 19.1241 9.81088C18.0667 9.69339 17.1854 10.0459 16.363 10.7508C15.2468 11.6908 14.5418 12.9245 14.1306 14.2757C13.8956 15.0982 13.7193 15.9794 13.5431 16.8018C12.9556 16.7431 12.6619 16.3906 12.4269 15.8619C12.1331 15.0982 12.3681 14.3344 12.5444 13.6295C12.6031 13.3945 12.5444 12.9832 12.3681 12.9245C12.1332 12.807 11.7807 12.9245 11.5457 12.9833C11.3694 13.042 11.1932 13.277 11.1344 13.3945C10.1357 15.0982 10.6645 17.9768 13.2494 18.4468C13.5431 18.5055 13.7193 18.623 13.8368 18.9168C14.3656 20.268 15.4818 20.9142 16.8917 20.6204C17.4792 20.5617 18.0079 20.268 18.5954 20.033Z" fill="#363434"/>
<path d="M18.2429 23.0291C17.8904 25.379 17.4791 27.6114 16.0104 29.4325C15.3642 30.255 14.483 30.7837 13.3668 30.8425C12.4268 30.8425 11.8394 30.3138 11.8394 29.3738C11.8394 28.4926 12.1918 27.7289 12.7206 27.0826C14.1893 25.2615 16.1279 24.1453 18.2429 23.0291Z" fill="#363434"/>
<path d="M15.3638 16.6256C15.4813 16.1556 15.54 15.6269 15.7163 15.1569C16.1275 14.217 16.5975 13.277 17.1262 12.3958C17.3024 12.102 17.6549 11.8083 17.9487 11.6321C18.1249 11.5146 18.5361 11.5146 18.7124 11.6321C18.8886 11.7496 18.9474 12.102 18.9474 12.337C18.9474 12.572 18.8299 12.807 18.7711 13.042C18.0662 14.5107 17.0675 15.6857 15.775 16.6256C15.7163 16.6844 15.5988 16.7431 15.4813 16.7431C15.4813 16.6844 15.4225 16.6844 15.3638 16.6256Z" fill="#363434"/>
<path d="M26.9956 15.8033C26.9956 14.3346 27.4068 13.0421 28.4055 11.9847C28.523 11.8672 28.5818 11.8084 28.6993 11.6909C28.993 11.5147 29.3455 11.3385 29.5805 11.6322C29.7567 11.8084 29.8155 12.2784 29.698 12.4547C29.4043 13.0421 28.993 13.6884 28.5818 14.2171C28.1118 14.8046 27.5243 15.2746 26.9956 15.8033Z" fill="#363434"/>
</svg>
