<svg width="195" height="68" viewBox="0 0 195 68" fill="none" xmlns="http://www.w3.org/2000/svg">
<path d="M36.857 0.0917926C38.2339 0.275378 39.7026 0.458963 41.0795 0.734341C54.6648 3.21274 65.8635 14.595 68.0665 28.0885C70.5449 43.2343 62.5589 57.9211 48.5147 64.0713C34.654 70.2214 18.7739 66.9168 8.58487 55.7181C3.62807 50.3024 0.782483 43.8769 0.139935 36.4417C-1.42054 19.5518 10.2371 4.40605 26.7598 0.826134C28.0449 0.550756 29.4218 0.367171 30.7069 0.183585C30.8905 0.183585 30.9823 0.0917926 31.1659 0C33.0935 0.0917926 35.0211 0.0917926 36.857 0.0917926ZM66.8732 30.8423C66.7814 25.243 64.0276 17.9914 58.3365 12.0248C50.0751 3.48812 39.9779 0.183585 28.2285 2.20302C12.1648 4.9568 0.0481592 19.7354 1.79222 36.7171C2.52656 43.7851 5.28032 50.027 10.2371 55.1674C18.8656 64.0713 29.4218 67.1922 41.5384 64.622C56.4088 61.5011 66.8732 48.4665 66.8732 30.8423Z" fill="#363434"/>
<path d="M194.741 35.4321C194.282 35.6156 193.823 35.891 193.364 35.891C191.437 35.9828 189.509 35.891 187.581 35.891C187.306 38.2776 189.417 40.0217 191.804 39.3791C192.263 39.2873 192.63 39.1038 192.997 38.9202C193.364 38.7366 193.823 38.4612 194.099 39.012C194.374 39.5627 193.915 39.7463 193.548 40.0217C190.243 42.0411 186.296 40.0217 186.113 36.1664C186.021 35.1567 186.205 33.9634 186.664 32.9537C187.49 30.6588 190.152 29.6491 192.446 30.567C193.64 31.026 194.282 31.9439 194.65 33.1372C194.65 33.3208 194.741 33.4126 194.833 33.5962C194.741 34.2388 194.741 34.7895 194.741 35.4321ZM193.456 34.6977C193.456 32.5865 192.355 31.3932 190.519 31.485C188.775 31.5768 187.49 32.9537 187.581 34.6977C189.509 34.6977 191.529 34.6977 193.456 34.6977Z" fill="#363434"/>
<path d="M86.7916 34.6975C85.8737 34.6975 84.9557 34.6975 84.0378 34.6975C83.5788 34.6975 83.1199 34.6975 83.1199 34.0549C83.1199 33.5042 83.5788 33.4124 84.0378 33.4124C85.1393 33.4124 86.2408 33.4124 87.3423 33.4124C87.9849 33.4124 88.2602 33.6877 88.2602 34.3303C88.2602 35.7072 88.2602 36.9923 88.2602 38.3692C88.2602 39.1035 87.8931 39.5625 87.2505 39.9296C85.5983 40.664 83.8542 40.9394 82.1102 40.5722C79.6318 40.0214 77.9795 38.1856 77.6123 35.4318C77.2452 32.9534 77.6123 30.6586 79.4482 28.7309C81.4676 26.7115 85.0475 26.3443 87.4341 27.9966C87.8013 28.1802 88.1685 28.4556 87.8931 28.9145C87.6177 29.4653 87.2505 29.3735 86.7916 29.0981C83.6706 26.9869 78.9892 28.5474 78.8056 33.596C78.8056 34.1467 78.8056 34.6057 78.8974 35.1564C79.6318 39.7461 83.7624 40.205 86.5162 38.9199C86.6998 38.8281 86.9752 38.461 86.9752 38.2774C86.7916 37.0841 86.7916 35.9826 86.7916 34.6975Z" fill="#363434"/>
<path d="M113.96 33.0454C113.96 31.4849 113.96 30.0162 113.96 28.5475C113.96 28.2722 113.869 27.9968 113.96 27.8132C114.052 27.5378 114.327 27.3542 114.511 27.0789C114.786 27.3542 115.062 27.5378 115.154 27.8132C115.245 28.2722 115.154 28.7311 115.154 29.1901C115.154 32.4946 115.154 35.7992 115.154 39.1955C115.154 39.3791 115.154 39.5627 115.154 39.7462C115.154 40.2052 114.97 40.5724 114.419 40.5724C113.96 40.5724 113.777 40.2052 113.777 39.7462C113.777 38.2776 113.777 36.7171 113.777 35.2484C113.777 34.973 113.777 34.6976 113.777 34.3305C111.39 34.3305 109.004 34.3305 106.525 34.3305C106.525 35.3402 106.525 36.4417 106.525 37.4514C106.525 38.2776 106.525 39.1037 106.433 39.9298C106.433 40.2052 105.974 40.4806 105.791 40.4806C105.607 40.4806 105.332 40.1134 105.24 39.838C105.148 39.7462 105.24 39.5627 105.24 39.3791C105.24 35.6156 105.24 31.9439 105.24 28.1804C105.24 28.0886 105.24 27.905 105.24 27.8132C105.24 27.3542 105.515 26.9871 105.974 27.1707C106.25 27.2624 106.525 27.6296 106.617 27.8132C106.709 29.2819 106.709 30.7506 106.617 32.2192C106.617 32.8618 106.801 33.0454 107.443 33.0454C109.646 33.0454 111.757 33.0454 113.96 33.0454Z" fill="#363434"/>
<path d="M92.8515 32.9535C94.5038 32.9535 95.9725 32.9535 97.5329 32.9535C97.9919 32.9535 98.5427 32.9535 98.5427 33.596C98.5427 34.2386 97.9919 34.2386 97.5329 34.2386C95.9725 34.2386 94.5038 34.2386 92.8515 34.2386C92.8515 35.7991 92.8515 37.3595 92.8515 38.8282C92.8515 39.0118 93.3105 39.2872 93.4941 39.2872C95.0545 39.2872 96.615 39.2872 98.2673 39.2872C98.7262 39.2872 99.0934 39.2872 99.1852 39.8379C99.1852 40.3887 98.7262 40.4805 98.3591 40.4805C96.5232 40.4805 94.7791 40.4805 92.9433 40.4805C91.9336 40.4805 91.5664 40.0215 91.5664 39.1036C91.5664 35.7073 91.5664 32.2191 91.5664 28.8228C91.5664 27.7213 92.0254 27.2623 93.2187 27.2623C94.9628 27.2623 96.615 27.2623 98.3591 27.2623C98.7262 27.2623 99.277 27.1706 99.277 27.8131C99.277 28.4556 98.818 28.4556 98.3591 28.4556C96.7986 28.4556 95.3299 28.4556 93.7694 28.4556C93.2187 28.4556 92.9433 28.6392 92.9433 29.2818C92.8515 30.3833 92.8515 31.5766 92.8515 32.9535Z" fill="#363434"/>
<path d="M134.614 31.6683C134.614 31.3929 134.614 31.1175 134.706 30.934C134.89 30.7504 135.165 30.475 135.349 30.475C135.532 30.475 135.808 30.7504 135.991 30.934C136.083 31.0258 135.991 31.1175 135.991 31.2093C135.991 34.0549 135.991 36.8087 135.991 39.6543C135.991 40.1132 135.899 40.4804 135.349 40.4804C134.798 40.4804 134.614 40.1132 134.614 39.5625C134.614 39.4707 134.614 39.3789 134.523 39.1953C133.605 40.205 132.595 40.664 131.31 40.664C129.474 40.5722 128.189 39.6543 127.546 37.8184C127.087 36.5333 127.087 35.2482 127.271 33.8713C128.097 29.9242 132.595 29.3735 134.614 31.6683ZM134.706 35.5236C134.706 35.1564 134.706 34.7893 134.706 34.4221C134.614 32.9534 133.788 31.9437 132.411 31.5765C131.034 31.3011 129.658 31.9437 129.015 33.2288C128.464 34.3303 128.464 35.5236 128.648 36.6251C128.831 38.5527 130.117 39.6543 132.044 39.5625C133.696 39.4707 134.798 38.2774 134.798 36.3497C134.706 36.0743 134.706 35.799 134.706 35.5236Z" fill="#363434"/>
<path d="M176.38 39.1955C175.37 40.3888 174.268 40.756 172.983 40.6642C170.78 40.4806 169.312 39.1037 169.036 36.7171C168.944 35.5238 168.944 34.1469 169.403 33.0454C170.413 30.108 173.809 29.3737 176.104 31.3931C176.196 31.4849 176.196 31.4849 176.38 31.5767C176.38 31.3013 176.38 31.0259 176.471 30.8424C176.563 30.6588 176.839 30.3834 177.022 30.3834C177.298 30.3834 177.481 30.6588 177.665 30.8424C177.665 30.8424 177.665 31.0259 177.665 31.1177C177.665 33.9633 177.665 36.9007 177.665 39.7462C177.665 40.0216 177.206 40.2052 177.022 40.4806C176.839 40.297 176.563 40.0216 176.38 39.838C176.38 39.7462 176.471 39.5627 176.38 39.1955ZM176.563 35.5238C176.563 35.1566 176.563 34.7894 176.563 34.4223C176.471 32.8618 175.462 31.7603 174.085 31.5767C172.524 31.3931 171.239 32.1275 170.689 33.6879C170.23 34.8812 170.23 36.1663 170.597 37.3596C171.056 39.0119 172.249 39.7462 173.993 39.6545C175.462 39.5627 176.471 38.3694 176.563 36.8089C176.563 36.2581 176.563 35.891 176.563 35.5238Z" fill="#363434"/>
<path d="M150.677 31.9438C151.871 30.5669 153.156 30.108 154.625 30.2915C156.277 30.4751 157.47 31.5766 157.47 33.2289C157.562 35.4319 157.562 37.6349 157.47 39.838C157.47 40.1133 157.103 40.2969 156.919 40.5723C156.736 40.2969 156.277 40.1133 156.277 39.838C156.185 38.5529 156.277 37.2678 156.277 35.8909C156.277 35.3401 156.277 34.8812 156.277 34.3304C156.277 32.4946 155.542 31.5766 154.166 31.4848C152.513 31.3013 151.136 32.311 150.861 33.8714C150.677 34.6976 150.677 35.5237 150.677 36.3498C150.677 37.4514 150.677 38.6447 150.677 39.7462C150.677 40.2051 150.494 40.5723 150.035 40.4805C149.76 40.3887 149.392 40.0216 149.392 39.7462C149.301 39.0118 149.392 38.3693 149.392 37.6349C149.392 34.055 149.392 30.5669 149.392 26.987C149.392 26.8034 149.301 26.528 149.392 26.4362C149.576 26.1609 149.851 25.9773 150.127 25.7019C150.31 25.9773 150.677 26.1609 150.677 26.4362C150.769 27.9049 150.677 29.3736 150.677 30.8423C150.677 31.2095 150.677 31.4848 150.677 31.9438Z" fill="#363434"/>
<path d="M118.643 35.8908C118.551 38.461 120.571 40.0215 122.957 39.379C123.416 39.2872 123.875 38.92 124.426 38.8282C124.701 38.7364 124.977 38.92 125.252 39.0118C125.16 39.2872 125.16 39.6543 124.977 39.8379C122.498 41.8574 118.368 40.6641 117.45 37.6349C116.899 35.7073 117.082 33.8714 118.092 32.2191C119.194 30.5669 121.489 29.8325 123.416 30.6587C124.977 31.3012 126.078 33.3207 125.803 35.1565C125.711 35.7991 125.252 35.9826 124.701 35.9826C122.957 35.9826 121.213 35.9826 119.469 35.9826C119.194 35.8908 118.918 35.8908 118.643 35.8908ZM118.643 34.6975C120.662 34.6975 122.682 34.6975 124.609 34.6975C124.426 32.4945 123.416 31.4848 121.672 31.4848C119.928 31.4848 118.643 32.8617 118.643 34.6975Z" fill="#363434"/>
<path d="M160.043 35.4319C160.043 31.852 162.613 29.649 166.009 30.3833C166.652 30.4751 167.203 30.8423 167.754 31.2095C167.937 31.3931 167.937 31.852 168.029 32.2192C167.662 32.2192 167.295 32.311 167.019 32.1274C166.009 31.4848 164.908 31.2095 163.715 31.5766C162.246 32.0356 161.512 33.1371 161.328 34.514C161.144 36.1663 161.236 37.9103 162.797 38.92C164.082 39.7462 165.459 39.5626 166.744 38.7365C166.836 38.6447 166.927 38.5529 167.111 38.5529C167.386 38.5529 167.754 38.5529 168.029 38.6447C167.937 38.92 168.029 39.379 167.845 39.5626C166.56 40.5723 165.092 40.9395 163.531 40.5723C161.328 40.0216 160.043 38.0939 160.043 35.4319Z" fill="#363434"/>
<path d="M143.519 31.6685C143.06 31.6685 142.693 31.7603 142.326 31.6685C142.051 31.5767 141.959 31.3013 141.684 31.2095C141.867 31.0259 142.051 30.7505 142.326 30.6587C142.693 30.567 143.06 30.6587 143.519 30.6587C143.519 29.9244 143.519 29.2819 143.519 28.5475C143.519 28.0886 143.703 27.6296 144.162 27.8132C144.437 27.905 144.713 28.2721 144.805 28.5475C144.896 29.1901 144.805 29.8326 144.805 30.6587C145.355 30.6587 145.906 30.567 146.457 30.6587C146.732 30.6587 146.916 31.0259 147.191 31.2095C147.008 31.3931 146.732 31.6685 146.549 31.7603C146.09 31.8521 145.539 31.7603 144.988 31.7603C144.988 31.9438 144.896 32.1274 144.896 32.311C144.896 34.2387 144.896 36.2581 144.896 38.1857C144.896 39.4708 145.539 39.9298 146.732 39.5626C147.099 39.4708 147.558 39.2873 147.65 39.838C147.65 40.1134 147.283 40.5724 147.008 40.6641C145.172 41.3985 143.611 40.3888 143.611 38.3693C143.611 36.4417 143.611 34.514 143.611 32.6782C143.519 32.2192 143.519 32.0356 143.519 31.6685Z" fill="#363434"/>
<path d="M182.073 31.2096C182.624 30.567 183.541 30.2916 184.551 30.3834C184.735 30.3834 185.01 30.3834 185.102 30.4752C185.286 30.6588 185.469 30.9342 185.653 31.2096C185.377 31.3013 185.102 31.5767 184.827 31.5767C182.899 31.3013 181.797 32.2193 181.706 34.1469C181.706 35.9828 181.706 37.7268 181.706 39.5627C181.706 40.0216 181.706 40.5724 181.063 40.5724C180.329 40.5724 180.329 40.0216 180.329 39.5627C180.329 36.9007 180.329 34.2387 180.329 31.5767C180.329 31.1178 180.237 30.4752 180.88 30.567C181.247 30.4752 181.614 30.8424 182.073 31.2096Z" fill="#363434"/>
<path d="M139.848 33.1371C139.848 35.2484 139.848 37.3596 139.848 39.4708C139.848 39.9298 139.848 40.4806 139.205 40.4806C138.562 40.4806 138.563 40.0216 138.563 39.4708C138.563 35.1566 138.563 30.9341 138.563 26.6199C138.563 26.0691 138.654 25.6101 139.297 25.7019C139.848 25.7019 139.848 26.1609 139.848 26.6199C139.848 28.8229 139.848 31.0259 139.848 33.1371Z" fill="#363434"/>
<path d="M24.7407 61.7765C25.7504 61.9601 26.7602 62.2355 27.7699 62.4191C30.1565 62.7863 32.6349 63.1534 35.0215 62.4191C36.0312 62.1437 37.1327 61.593 37.9589 60.9504C39.0604 60.0325 39.0604 58.6556 38.326 57.6459C37.5917 56.6362 36.123 56.4526 34.9297 57.1869C34.7461 57.2787 34.4707 57.4623 34.379 57.6459C32.1759 59.7571 29.5139 60.2161 26.6684 59.8489C21.6198 59.2981 16.9383 57.6459 12.9913 54.3413C8.40162 50.5778 5.83144 45.621 4.54635 39.8381C3.53663 34.9731 3.72021 30.1999 5.00531 25.4267C5.0971 25.2431 5.18889 24.9677 5.37248 24.7841C5.18889 25.4267 5.0971 26.161 4.91351 26.8035C4.45455 29.282 4.17917 31.8521 4.82171 34.3305C5.09709 35.5238 5.64785 36.5336 6.65757 37.2679C7.75908 38.0022 9.13597 38.0023 9.96211 37.1761C10.7882 36.35 10.7882 35.0649 10.0539 34.0552C9.96211 33.8716 9.87033 33.688 9.68674 33.5962C7.48372 31.2096 7.11653 28.2722 7.57549 25.1513C8.40163 20.0109 10.2375 15.4213 13.9092 11.6578C17.3973 8.07785 21.7116 5.78304 26.5766 4.58973C32.0841 3.21284 37.5917 3.30464 43.0075 4.9569C43.2828 5.0487 43.5582 5.14049 43.7418 5.41587C42.5485 5.14049 41.3552 4.86511 40.1619 4.58973C37.9589 4.22256 35.6641 4.03898 33.5528 4.68152C32.6349 4.9569 31.6252 5.41587 30.8908 5.96662C29.6975 6.79276 29.5139 8.35323 30.2483 9.36295C30.9826 10.3727 32.5431 10.648 33.8282 9.82191C33.92 9.73012 34.0118 9.73012 34.1036 9.63833C36.6738 7.25172 39.7947 6.88455 43.0075 7.34351C48.8822 8.26144 54.1144 10.5563 58.0614 15.1459C61.4578 18.9094 63.3854 23.4072 64.2116 28.364C65.0377 33.0454 64.8541 37.7269 63.4772 42.2247C63.3854 42.5001 63.2936 42.6837 63.2018 42.8673C63.2018 42.8673 63.1101 42.8673 62.9265 42.9591C63.1101 42.1329 63.2936 41.3986 63.4772 40.6642C64.028 37.9105 64.4869 35.2485 63.569 32.4947C63.2936 31.5768 62.7429 30.6588 62.0085 29.9245C61.0906 28.9148 59.5301 28.9148 58.6122 29.7409C57.6943 30.567 57.6025 31.9439 58.4286 33.1372C58.4286 33.229 58.5204 33.3208 58.6122 33.3208C60.9988 35.891 61.4578 38.9202 60.8152 42.2247C59.9891 47.0897 58.245 51.4958 54.7569 55.1675C51.0852 59.0228 46.6792 61.3176 41.5388 62.5109C36.3066 63.7042 31.0744 63.7042 25.934 62.3273C25.4751 62.2355 25.0161 62.0519 24.5571 61.8683C24.6489 61.9601 24.7407 61.8683 24.7407 61.7765ZM29.055 31.3014C29.1468 32.5865 29.055 32.8619 27.9535 33.4126C25.1997 34.8813 22.3541 36.2582 19.8757 38.1858C17.8563 39.7463 16.2958 41.674 15.745 44.1524C15.0107 47.1815 16.5712 49.9353 19.325 50.6696C20.8854 51.1286 22.4459 50.945 24.0064 50.3943C27.1273 49.1092 28.8714 46.6308 30.0647 43.6934C31.1662 41.0314 31.3498 38.1858 31.5334 35.3403C31.5334 34.6977 31.8087 34.3305 32.3595 33.9634C34.4707 32.6783 36.582 31.3932 38.6932 30.1081C39.2439 29.7409 39.7029 29.3737 40.2537 29.0066C40.6208 29.3737 40.8044 29.7409 41.1716 30.1081C40.988 30.1999 40.8044 30.2917 40.6208 30.3835C37.1327 32.4029 35.0215 35.3403 34.5625 39.4709C34.0118 44.2442 36.7656 50.2107 43.1911 50.945C49.7083 51.6794 54.3897 46.08 53.38 40.8478C52.6457 36.8089 49.1576 34.4223 45.3023 35.5238C41.7224 36.5336 40.2537 40.5724 42.3649 43.3262C43.0074 44.0606 43.7418 44.6113 44.7515 44.5195C45.2105 44.5195 45.7612 44.2441 45.9448 43.877C46.1284 43.5098 45.9448 42.9591 45.7612 42.5001C45.6694 42.2247 45.3023 41.9493 45.1187 41.674C44.109 40.2053 44.7515 38.4612 46.4956 38.094C48.1478 37.8187 49.5247 38.7366 50.0755 40.5724C50.9016 43.2344 49.7083 46.2636 47.2299 47.5487C44.7515 48.8338 41.7224 48.1912 39.8865 45.8964C38.1425 43.6934 37.7753 41.1232 38.2342 38.4612C38.6932 35.7074 40.0701 33.5962 42.5485 32.2193C43.3746 31.7604 44.2926 31.5768 45.3023 31.6686C46.2202 31.7604 47.2299 31.6686 48.2396 31.485C48.8822 31.3932 49.4329 31.026 49.4329 30.2917C49.4329 29.5573 48.974 29.1902 48.3314 29.0066C47.2299 28.5476 46.1284 28.5476 45.0269 28.823C43.7418 29.0984 43.1911 28.7312 42.7321 27.3543C43.65 26.5282 44.6597 25.7938 45.5776 24.9677C47.1381 23.5908 48.515 22.0303 49.0658 19.8273C49.8919 16.7982 47.6889 14.5951 44.6597 15.5131C43.7418 15.7884 42.8239 16.3392 42.0895 17.0735C39.7029 19.4601 38.785 22.3975 39.1522 25.702C39.2439 26.4364 39.0604 26.8035 38.4178 27.2625C36.3066 28.5476 34.2871 29.8327 32.2677 31.1178C32.0841 31.2096 31.9006 31.3014 31.717 31.3932C31.8088 29.8327 31.9923 28.5476 33.0939 27.3543C33.7364 26.7118 34.1954 25.702 34.5625 24.8759C34.8379 24.3251 34.8379 23.5908 34.2872 23.3154C33.8282 23.1318 33.0939 23.1318 32.6349 23.3154C32.1759 23.499 31.717 23.958 31.4416 24.3251C30.9826 25.0595 30.4319 25.8856 30.2483 26.7118C29.6975 28.7312 28.137 29.5573 26.393 30.0163C25.3833 30.2917 24.7407 29.7409 24.5571 28.7312C24.6489 28.6394 24.7407 28.6394 24.8325 28.5476C27.6781 27.3543 29.7893 25.1513 31.258 22.4893C32.0841 21.1124 32.5431 19.6437 32.4513 17.9915C32.3595 16.5228 31.4416 15.5131 29.8811 15.3295C28.2289 15.1459 26.852 15.6966 25.5669 16.7982C23.8228 18.2668 22.7213 20.1945 22.0787 22.3057C21.7116 23.5908 21.4362 24.9677 21.1608 26.2528C20.2429 26.161 19.7839 25.6102 19.4167 24.7841C18.9578 23.5908 19.325 22.3975 19.6003 21.296C19.6921 20.9288 19.6003 20.2863 19.325 20.1945C18.9578 20.0109 18.407 20.1945 18.0398 20.2863C17.7645 20.3781 17.4891 20.7452 17.3973 20.9288C15.8368 23.5908 16.663 28.0886 20.7019 28.823C21.1608 28.9148 21.4362 29.0984 21.6198 29.5573C22.4459 31.6686 24.19 32.6783 26.393 32.2193C27.3109 32.1275 28.137 31.6686 29.055 31.3014Z" fill="#363434"/>
<path d="M28.5054 35.9829C27.9547 39.6546 27.3121 43.1427 25.0173 45.9883C24.0076 47.2734 22.6307 48.0995 20.8866 48.1913C19.4179 48.1913 18.5 47.3652 18.5 45.8965C18.5 44.5196 19.0508 43.3263 19.8769 42.3166C22.1717 39.471 25.2009 37.727 28.5054 35.9829Z" fill="#363434"/>
<path d="M24.0078 25.9777C24.1914 25.2433 24.2832 24.4172 24.5586 23.6828C25.2011 22.2142 25.9355 20.7455 26.7616 19.3686C27.037 18.9096 27.5877 18.4507 28.0467 18.1753C28.3221 17.9917 28.9646 17.9917 29.24 18.1753C29.5154 18.3589 29.6072 18.9096 29.6072 19.2768C29.6072 19.644 29.4236 20.0111 29.3318 20.3783C28.2303 22.6731 26.6698 24.509 24.6504 25.9777C24.5586 26.0695 24.375 26.1612 24.1914 26.1612C24.1914 26.0695 24.0996 26.0695 24.0078 25.9777Z" fill="#363434"/>
<path d="M42.1836 24.6924C42.1836 22.3976 42.8261 20.3782 44.3866 18.7259C44.5702 18.5423 44.662 18.4505 44.8456 18.267C45.3045 17.9916 45.8553 17.7162 46.2225 18.1752C46.4978 18.4505 46.5896 19.1849 46.4061 19.4603C45.9471 20.3782 45.3045 21.3879 44.662 22.214C43.9276 23.132 43.0097 23.8663 42.1836 24.6924Z" fill="#363434"/>
</svg>
