<svg width="312" height="51" viewBox="0 0 312 51" fill="none" xmlns="http://www.w3.org/2000/svg">
<path d="M72.716 15.8708C67.5941 15.8708 65.9349 20.4155 65.9349 26.4752V39.5323H60.5967V11.2539H65.9349V14.8608C65.9349 15.2215 66.4399 15.3658 66.6563 15.0051C68.027 12.4081 70.119 11.2539 73.3652 11.2539H78.3428V15.8708H72.716Z" fill="#DDD5CC"/>
<path d="M54.5368 21.5691V39.5316H49.1986V36.3575C49.1986 35.9969 48.7657 35.8526 48.5493 36.1411C46.8901 38.4496 43.7882 39.9645 40.1091 39.9645C34.4101 39.9645 30.6589 36.5018 30.6589 31.5243C30.6589 26.186 34.9151 22.8676 41.4797 22.8676H47.2508C48.5493 22.8676 49.1264 22.2184 49.1264 21.2084C49.1264 17.8179 46.6737 15.5095 42.3454 15.5095C38.4499 15.5095 35.6365 17.9622 35.4922 20.7756H30.5146C31.0196 15.2931 35.9972 11.1812 42.5618 11.1812C49.7757 11.1812 54.5368 15.3652 54.5368 21.5691ZM49.1264 27.2681V26.6188H41.9126C38.2335 26.6188 35.8529 28.4944 35.8529 31.4521C35.8529 33.977 37.9449 35.7083 41.0469 35.7083C46.2409 35.7083 49.1264 32.4621 49.1264 27.2681Z" fill="#DDD5CC"/>
<path d="M108.641 38.5223L104.457 50.858H99.2626L103.014 39.8208L92.5537 11.2539H98.0362L105.539 32.607L113.041 11.2539H118.596L108.641 38.5223Z" fill="#DDD5CC"/>
<path d="M87.7206 0H82.3823V39.532H87.7206V0Z" fill="#DDD5CC"/>
<path d="M26.547 26.6188C26.547 26.2581 26.547 25.8974 26.547 25.5367C26.547 24.5989 26.4749 23.7333 26.3306 22.8676C25.3207 16.2309 20.5595 11.1812 13.2014 11.1812C5.04971 11.1812 0 17.6015 0 25.5367C0 33.472 5.98751 39.8923 13.2735 39.8923C20.7759 39.8923 24.7436 35.9247 26.0421 30.37H20.9924C19.6939 34.0491 16.7362 35.2033 13.2735 35.2033C10.0273 35.2033 7.21387 33.5441 5.84323 30.37C5.33826 29.288 5.04971 28.0616 4.97757 26.6188H21.6416H26.547ZM5.12184 22.8676C5.84323 18.2507 8.51236 15.9423 13.3457 15.9423C17.3133 15.9423 20.7038 17.6015 21.4973 22.8676H5.12184Z" fill="#DDD5CC"/>
<path d="M128.696 39.0998V32.3909C128.696 32.1745 128.768 31.9581 128.912 31.886C129.056 31.7417 129.201 31.7417 129.417 31.7417C129.706 31.7417 129.922 31.8138 129.994 31.886C130.139 31.9581 130.283 32.1745 130.499 32.4631L131.798 34.8437L133.096 32.4631C133.241 32.1745 133.457 31.9581 133.601 31.886C133.746 31.8138 133.962 31.7417 134.25 31.7417C134.467 31.7417 134.611 31.8138 134.755 31.886C134.9 32.0303 134.972 32.1745 134.972 32.3909V39.0998C134.972 39.2441 134.9 39.3163 134.755 39.3884C134.611 39.4605 134.467 39.5327 134.25 39.5327C134.034 39.5327 133.89 39.4605 133.746 39.3884C133.601 39.3163 133.529 39.172 133.529 39.0998V34.483L132.303 36.7193C132.231 36.9357 132.014 37.0078 131.798 37.0078C131.581 37.0078 131.437 36.9357 131.365 36.7193L130.139 34.4108V39.0998C130.139 39.2441 130.066 39.3163 129.922 39.3884C129.778 39.4605 129.634 39.5327 129.417 39.5327C129.201 39.5327 129.056 39.4605 128.912 39.3884C128.768 39.3163 128.696 39.2441 128.696 39.0998Z" fill="#DDD5CC"/>
<path d="M134.178 39.6041C133.962 39.6041 133.818 39.5319 133.673 39.4598C133.529 39.3877 133.457 39.2434 133.457 39.0991V34.6265L132.303 36.7185C132.231 36.9349 132.014 37.0071 131.798 37.0071C131.581 37.0071 131.437 36.9349 131.293 36.7185L130.139 34.5544V39.0991C130.139 39.2434 130.066 39.3877 129.922 39.4598C129.778 39.5319 129.634 39.6041 129.417 39.6041C129.201 39.6041 129.056 39.5319 128.912 39.4598C128.768 39.3877 128.696 39.2434 128.696 39.0991V32.3902C128.696 32.1738 128.768 31.9574 128.912 31.8131C129.056 31.6688 129.201 31.5967 129.417 31.5967C129.706 31.5967 129.922 31.6688 130.066 31.741C130.211 31.8131 130.355 32.0295 130.571 32.3902L131.87 34.7708L133.168 32.3902C133.313 32.1017 133.529 31.8852 133.673 31.741C133.818 31.6688 134.034 31.5967 134.323 31.5967C134.539 31.5967 134.683 31.6688 134.828 31.8131C134.972 31.9574 135.044 32.1017 135.044 32.3902V39.0991C135.044 39.2434 134.972 39.3877 134.828 39.4598C134.539 39.5319 134.395 39.6041 134.178 39.6041ZM133.529 34.3379V39.0991C133.529 39.2434 133.601 39.3155 133.746 39.3877C133.89 39.4598 134.034 39.5319 134.25 39.5319C134.395 39.5319 134.611 39.4598 134.755 39.3877C134.9 39.3155 134.972 39.2434 134.972 39.0991V32.3902C134.972 32.1738 134.9 32.0295 134.755 31.8852C134.611 31.741 134.467 31.741 134.25 31.741C133.962 31.741 133.818 31.8131 133.673 31.8852C133.529 31.9574 133.385 32.1738 133.241 32.4623L131.87 34.9151L130.499 32.4623C130.355 32.1738 130.211 31.9574 130.066 31.8852C129.922 31.8131 129.706 31.741 129.489 31.741C129.273 31.741 129.129 31.8131 128.984 31.8852C128.84 31.9574 128.768 32.1738 128.768 32.3902V39.0991C128.768 39.2434 128.84 39.3155 128.984 39.3877C129.129 39.4598 129.273 39.5319 129.489 39.5319C129.634 39.5319 129.85 39.4598 129.994 39.3877C130.139 39.3155 130.211 39.2434 130.211 39.0991V34.2658L131.509 36.7185C131.581 36.8628 131.726 37.0071 131.942 37.0071C132.158 37.0071 132.303 36.9349 132.375 36.7185L133.529 34.3379Z" fill="#DDD5CC"/>
<path d="M144.278 39.0995V32.102C144.278 31.9577 144.35 31.8856 144.494 31.8135C144.639 31.7413 144.783 31.6692 144.927 31.6692H148.75C148.895 31.6692 149.039 31.7413 149.111 31.8856C149.183 32.0299 149.255 32.1742 149.255 32.3184C149.255 32.4627 149.183 32.607 149.111 32.7513C149.039 32.8955 148.895 32.9677 148.823 32.9677H145.721V35.1318H147.38C147.524 35.1318 147.596 35.204 147.668 35.2761C147.74 35.4204 147.813 35.4925 147.813 35.6368C147.813 35.7811 147.74 35.9254 147.668 35.9975C147.596 36.0696 147.452 36.1418 147.308 36.1418H145.721V38.3059H148.75C148.895 38.3059 148.967 38.3781 149.039 38.5224C149.111 38.6666 149.183 38.8109 149.183 38.9552C149.183 39.0995 149.111 39.2437 149.039 39.388C148.967 39.5323 148.823 39.6044 148.678 39.6044H144.855C144.711 39.6044 144.566 39.5323 144.422 39.4602C144.35 39.3159 144.278 39.2437 144.278 39.0995Z" fill="#DDD5CC"/>
<path d="M148.75 39.6041H144.927C144.783 39.6041 144.639 39.5319 144.494 39.4598C144.35 39.3877 144.278 39.2434 144.278 39.0991V32.1017C144.278 31.9574 144.35 31.8131 144.494 31.741C144.639 31.6688 144.783 31.5967 144.927 31.5967H148.75C148.895 31.5967 149.039 31.6688 149.111 31.8131C149.183 31.9574 149.255 32.1017 149.255 32.2459C149.255 32.3902 149.183 32.6066 149.111 32.6788C149.039 32.823 148.895 32.8952 148.75 32.8952H145.721V34.9872H147.308C147.452 34.9872 147.596 35.0593 147.668 35.2036C147.74 35.3479 147.813 35.4922 147.813 35.6364C147.813 35.7807 147.74 35.925 147.668 35.9971C147.596 36.1414 147.452 36.2136 147.308 36.2136H145.721V38.3056H148.75C148.895 38.3056 149.039 38.3777 149.111 38.522C149.183 38.6663 149.255 38.8105 149.255 38.9548C149.255 39.0991 149.183 39.2434 149.111 39.3877C149.039 39.5319 148.895 39.6041 148.75 39.6041ZM144.927 31.741C144.783 31.741 144.639 31.8131 144.494 31.8852C144.35 31.9574 144.35 32.0295 144.35 32.1738V39.1712C144.35 39.3155 144.422 39.3877 144.494 39.4598C144.639 39.5319 144.783 39.6041 144.927 39.6041H148.75C148.895 39.6041 148.967 39.5319 149.039 39.4598C149.111 39.3155 149.111 39.2434 149.111 39.027C149.111 38.8827 149.039 38.7384 148.967 38.5941C148.895 38.4499 148.823 38.4499 148.678 38.4499H145.576V36.2136H147.236C147.38 36.2136 147.452 36.1414 147.524 36.0693C147.596 35.9971 147.596 35.8529 147.596 35.7086C147.596 35.5643 147.524 35.42 147.452 35.3479C147.38 35.2758 147.308 35.2036 147.163 35.2036H145.504V32.9673H148.606C148.75 32.9673 148.823 32.8952 148.895 32.823C148.967 32.6788 149.039 32.5345 149.039 32.3902C149.039 32.2459 148.967 32.1017 148.967 31.9574C148.895 31.8131 148.823 31.8131 148.678 31.8131H144.927V31.741Z" fill="#DDD5CC"/>
<path d="M158.272 39.0995V32.102C158.272 31.9577 158.345 31.8856 158.417 31.8135C158.561 31.7413 158.705 31.6692 158.85 31.6692H160.725C161.519 31.6692 162.096 31.8856 162.529 32.2463C162.961 32.607 163.25 33.2562 163.25 34.1219V37.0796C163.25 37.9453 163.034 38.5224 162.529 38.9552C162.096 39.3159 161.447 39.5323 160.725 39.5323H158.85C158.705 39.5323 158.489 39.4602 158.417 39.388C158.345 39.3159 158.272 39.2437 158.272 39.0995ZM159.643 38.3059H160.725C161.447 38.3059 161.879 37.8731 161.879 37.0796V34.1219C161.879 33.3284 161.519 32.8955 160.725 32.8955H159.643V38.3059Z" fill="#DDD5CC"/>
<path d="M160.797 39.6041H158.922C158.705 39.6041 158.561 39.5319 158.489 39.4598C158.345 39.3877 158.272 39.2434 158.272 39.0991V32.1017C158.272 31.9574 158.345 31.8852 158.489 31.741C158.633 31.6688 158.777 31.5967 158.922 31.5967H160.797C161.591 31.5967 162.168 31.8131 162.673 32.1738C163.106 32.6066 163.394 33.1837 163.394 34.0494V37.0071C163.394 37.8727 163.178 38.522 162.673 38.8827C162.168 39.3877 161.519 39.6041 160.797 39.6041ZM158.85 31.741C158.705 31.741 158.561 31.8131 158.417 31.8852C158.345 31.9574 158.272 32.0295 158.272 32.1738V39.1712C158.272 39.2434 158.345 39.3877 158.417 39.4598C158.489 39.5319 158.633 39.6041 158.85 39.6041H160.725C161.447 39.6041 162.096 39.3877 162.529 39.027C162.961 38.6663 163.178 38.017 163.178 37.1514V34.1937C163.178 33.328 162.961 32.7509 162.529 32.3181C162.096 31.9574 161.447 31.741 160.725 31.741H158.85ZM160.797 38.3777H159.643V32.8952H160.797C161.591 32.8952 161.952 33.328 161.952 34.1937V37.1514C161.952 37.9449 161.591 38.3777 160.797 38.3777ZM159.715 38.3056H160.797C161.519 38.3056 161.879 37.9449 161.879 37.0792V34.1215C161.879 33.328 161.519 32.8952 160.797 32.8952H159.715V38.3056Z" fill="#DDD5CC"/>
<path d="M172.628 39.0998V32.1024C172.628 31.9581 172.7 31.886 172.844 31.8138C172.989 31.7417 173.133 31.7417 173.349 31.7417C173.566 31.7417 173.71 31.7417 173.854 31.8138C173.999 31.886 174.071 31.9581 174.071 32.1024V39.0998C174.071 39.2441 173.999 39.3163 173.854 39.3884C173.71 39.4605 173.566 39.5327 173.349 39.5327C173.133 39.5327 172.989 39.4605 172.844 39.3884C172.7 39.3163 172.628 39.2441 172.628 39.0998Z" fill="#DDD5CC"/>
<path d="M173.349 39.6041C173.133 39.6041 172.989 39.5319 172.844 39.4598C172.7 39.3877 172.628 39.2434 172.628 39.0991V32.1017C172.628 31.9574 172.7 31.8131 172.844 31.741C172.989 31.6688 173.133 31.5967 173.349 31.5967C173.566 31.5967 173.71 31.6688 173.854 31.741C173.999 31.8131 174.071 31.9574 174.071 32.1017V39.0991C174.071 39.2434 173.999 39.3877 173.854 39.4598C173.71 39.5319 173.494 39.6041 173.349 39.6041ZM173.349 31.741C173.133 31.741 172.989 31.741 172.844 31.8131C172.7 31.8852 172.628 31.9574 172.628 32.1017V39.0991C172.628 39.2434 172.7 39.3155 172.844 39.3877C172.989 39.4598 173.133 39.5319 173.349 39.5319C173.494 39.5319 173.71 39.4598 173.854 39.3877C173.999 39.3155 174.071 39.2434 174.071 39.0991V32.1017C174.071 31.9574 173.999 31.8852 173.854 31.8131C173.638 31.741 173.494 31.741 173.349 31.741Z" fill="#DDD5CC"/>
<path d="M183.305 37.1512V34.1214C183.305 33.2558 183.521 32.6786 184.026 32.2458C184.459 31.813 185.108 31.6687 185.83 31.6687C186.551 31.6687 187.2 31.8851 187.705 32.2458C188.21 32.6065 188.427 33.1115 188.427 33.7607C188.427 34.0493 188.354 34.1936 188.282 34.3378C188.21 34.41 187.994 34.4821 187.777 34.4821C187.344 34.4821 187.056 34.3378 187.056 34.0493C187.056 33.9771 187.056 33.905 187.056 33.8329C187.056 33.7607 186.984 33.6886 186.984 33.5443C186.912 33.4 186.912 33.3279 186.839 33.2557C186.767 33.1836 186.695 33.1115 186.551 33.0393C186.407 32.9672 186.262 32.9672 186.046 32.9672C185.325 32.9672 184.892 33.4 184.892 34.1936V37.2234C184.892 38.0169 185.252 38.4497 186.046 38.4497C186.262 38.4497 186.479 38.4497 186.623 38.3776C186.767 38.3055 186.912 38.2333 186.984 38.089C187.056 37.9448 187.128 37.8726 187.128 37.7283C187.128 37.6562 187.2 37.5119 187.2 37.3677C187.2 37.0791 187.417 36.9348 187.922 36.9348C188.138 36.9348 188.354 37.007 188.499 37.0791C188.643 37.1512 188.643 37.3677 188.643 37.6562C188.643 38.3055 188.427 38.8104 187.922 39.1711C187.417 39.5318 186.839 39.7482 186.046 39.7482C185.325 39.7482 184.675 39.5318 184.242 39.1711C183.593 38.594 183.305 38.0169 183.305 37.1512Z" fill="#DDD5CC"/>
<path d="M185.83 39.6762C185.108 39.6762 184.459 39.4598 184.026 39.0991C183.593 38.6663 183.305 38.0892 183.305 37.2235V34.1937C183.305 33.328 183.521 32.6788 184.026 32.3181C184.459 31.8852 185.108 31.741 185.83 31.741C186.551 31.741 187.2 31.9574 187.705 32.3181C188.21 32.6788 188.427 33.1837 188.427 33.833C188.427 34.1215 188.354 34.2658 188.282 34.4101C188.138 34.4822 187.994 34.5544 187.705 34.5544C187.2 34.5544 186.984 34.4101 186.984 34.0494C186.984 33.9773 186.984 33.9051 186.984 33.833C186.984 33.7609 186.912 33.6887 186.912 33.5444C186.839 33.4723 186.839 33.328 186.767 33.2559C186.695 33.1837 186.623 33.1116 186.479 33.0395C186.335 32.9673 186.19 32.9673 185.974 32.9673C185.252 32.9673 184.892 33.328 184.892 34.1937V37.2235C184.892 38.017 185.252 38.4499 185.974 38.4499C186.19 38.4499 186.407 38.4499 186.551 38.3777C186.695 38.3056 186.767 38.2334 186.839 38.0892C186.912 37.9449 186.984 37.8728 186.984 37.7285C186.984 37.6563 187.056 37.5121 187.056 37.3678C187.056 37.0792 187.344 36.8628 187.777 36.8628C188.066 36.8628 188.21 36.9349 188.354 37.0071C188.499 37.0792 188.499 37.2956 188.499 37.5842C188.499 38.2334 188.282 38.7384 187.777 39.1712C187.2 39.4598 186.551 39.6762 185.83 39.6762ZM185.83 31.741C185.108 31.741 184.531 31.9574 184.026 32.3181C183.593 32.6788 183.377 33.328 183.377 34.1215V37.1514C183.377 38.017 183.593 38.5941 184.026 38.9548C184.459 39.3155 185.036 39.5319 185.757 39.5319C186.479 39.5319 187.128 39.3155 187.561 38.9548C187.994 38.5941 188.282 38.0892 188.282 37.4399C188.282 37.1514 188.21 37.0071 188.138 36.935C188.066 36.8628 187.849 36.7907 187.633 36.7907C187.2 36.7907 186.984 36.9349 186.984 37.2235C186.984 37.3678 186.984 37.5121 186.912 37.5842C186.912 37.6563 186.839 37.8006 186.767 37.9449C186.695 38.0892 186.551 38.1613 186.407 38.2334C186.262 38.3056 186.046 38.3777 185.83 38.3777C185.036 38.3777 184.675 37.9449 184.675 37.0792V34.0494C184.675 33.1837 185.036 32.7509 185.83 32.7509C186.046 32.7509 186.19 32.7509 186.334 32.823C186.479 32.8952 186.623 32.9673 186.695 33.0395C186.767 33.1116 186.839 33.1837 186.912 33.328C186.984 33.4723 186.984 33.5444 186.984 33.6166C186.984 33.6887 186.984 33.7609 186.984 33.833C186.984 34.1215 187.2 34.2658 187.633 34.2658C187.849 34.2658 188.066 34.1937 188.138 34.1215C188.21 34.0494 188.282 33.833 188.282 33.6166C188.282 33.0395 188.066 32.5345 187.561 32.1738C187.2 31.8852 186.551 31.741 185.83 31.741Z" fill="#DDD5CC"/>
<path d="M197.083 38.9546C197.083 38.9546 197.083 38.8824 197.083 38.8103L199.175 32.0293C199.247 31.885 199.319 31.8129 199.464 31.7407C199.608 31.6686 199.824 31.5964 200.041 31.5964C200.257 31.5964 200.474 31.6686 200.618 31.7407C200.762 31.8129 200.906 31.9571 200.906 32.1014L202.998 38.8824C202.998 38.9546 202.998 38.9546 202.998 38.9546C202.998 39.0989 202.926 39.2431 202.71 39.3874C202.493 39.5317 202.349 39.5317 202.133 39.5317C201.844 39.5317 201.7 39.4596 201.628 39.2431L201.195 37.8004H198.886L198.454 39.2431C198.381 39.4596 198.237 39.5317 197.949 39.5317C197.732 39.5317 197.516 39.4595 197.299 39.3874C197.155 39.2431 197.083 39.0989 197.083 38.9546ZM199.247 36.7183H201.123L200.185 33.3999L199.247 36.7183Z" fill="#DDD5CC"/>
<path d="M202.133 39.6041C201.844 39.6041 201.7 39.5319 201.628 39.3155L201.195 37.9449H198.959L198.598 39.3155C198.526 39.5319 198.382 39.6041 198.021 39.6041C197.805 39.6041 197.516 39.5319 197.3 39.3876C197.083 39.2434 196.939 39.0991 196.939 38.8827C196.939 38.8827 196.939 38.8105 196.939 38.7384L199.031 31.9574C199.103 31.8131 199.175 31.6688 199.392 31.5967C199.536 31.5245 199.752 31.4524 199.969 31.4524C200.185 31.4524 200.402 31.5245 200.546 31.5967C200.762 31.6688 200.834 31.8131 200.907 31.9574L202.999 38.7384C202.999 38.8105 202.999 38.8105 202.999 38.8827C202.999 39.027 202.926 39.1712 202.71 39.3155C202.566 39.5319 202.349 39.6041 202.133 39.6041ZM198.959 37.8006H201.339L201.772 39.2434C201.844 39.3876 201.989 39.5319 202.205 39.5319C202.421 39.5319 202.566 39.4598 202.782 39.3876C202.999 39.3155 203.071 39.1712 203.071 39.027C203.071 39.027 203.071 39.027 203.071 38.9548L200.979 32.1738C200.907 32.0295 200.834 31.9574 200.69 31.8131C200.546 31.7409 200.329 31.6688 200.113 31.6688C199.897 31.6688 199.68 31.7409 199.536 31.8131C199.392 31.8852 199.247 31.9574 199.247 32.1016L197.155 38.8827C197.155 38.9548 197.155 38.9548 197.155 38.9548C197.155 39.0991 197.228 39.2434 197.444 39.3876C197.66 39.5319 197.877 39.5319 198.093 39.5319C198.382 39.5319 198.526 39.4598 198.598 39.2434L198.959 37.8006ZM201.195 36.7907H199.247L200.185 33.328L201.195 36.7907ZM199.32 36.7185H201.051L200.185 33.6166L199.32 36.7185Z" fill="#DDD5CC"/>
<path d="M212.16 39.0998V32.1024C212.16 31.9581 212.232 31.886 212.377 31.8138C212.521 31.7417 212.665 31.7417 212.882 31.7417C213.098 31.7417 213.242 31.7417 213.387 31.8138C213.531 31.886 213.603 31.9581 213.603 32.1024V38.3063H216.2C216.344 38.3063 216.416 38.3785 216.488 38.5227C216.561 38.667 216.633 38.8113 216.633 38.9556C216.633 39.0998 216.561 39.2441 216.488 39.3884C216.416 39.5327 216.344 39.6048 216.2 39.6048H212.809C212.665 39.6048 212.521 39.5327 212.377 39.4605C212.232 39.3163 212.16 39.2441 212.16 39.0998Z" fill="#DDD5CC"/>
<path d="M216.2 39.6041H212.809C212.665 39.6041 212.521 39.5319 212.377 39.4598C212.232 39.3877 212.16 39.2434 212.16 39.0991V32.1017C212.16 31.9574 212.232 31.8131 212.377 31.741C212.521 31.6688 212.665 31.5967 212.882 31.5967C213.098 31.5967 213.242 31.6688 213.387 31.741C213.531 31.8131 213.603 31.9574 213.603 32.1017V38.2334H216.2C216.344 38.2334 216.488 38.3056 216.561 38.4499C216.633 38.5941 216.705 38.7384 216.705 38.8827C216.705 39.027 216.633 39.1712 216.561 39.3155C216.416 39.5319 216.344 39.6041 216.2 39.6041ZM212.882 31.741C212.665 31.741 212.521 31.741 212.377 31.8131C212.232 31.8852 212.16 31.9574 212.16 32.1017V39.0991C212.16 39.2434 212.232 39.3155 212.304 39.3877C212.449 39.4598 212.593 39.5319 212.737 39.5319H216.128C216.272 39.5319 216.344 39.4598 216.416 39.3877C216.488 39.2434 216.488 39.0991 216.488 38.9548C216.488 38.8105 216.416 38.6663 216.416 38.522C216.344 38.3777 216.272 38.3777 216.128 38.3777H213.531V32.1738C213.531 32.0295 213.459 31.9574 213.314 31.8852C213.242 31.741 213.026 31.741 212.882 31.741Z" fill="#DDD5CC"/>
<path d="M235.75 37.1512V34.1214C235.75 33.2558 235.966 32.6786 236.471 32.2458C236.904 31.813 237.553 31.6687 238.275 31.6687C238.996 31.6687 239.645 31.8851 240.15 32.2458C240.655 32.6065 240.872 33.1115 240.872 33.7607C240.872 34.0493 240.8 34.1936 240.728 34.3378C240.655 34.41 240.439 34.4821 240.223 34.4821C239.79 34.4821 239.501 34.3378 239.501 34.0493C239.501 33.9771 239.501 33.905 239.501 33.8329C239.501 33.7607 239.429 33.6886 239.429 33.5443C239.357 33.4 239.357 33.3279 239.285 33.2557C239.213 33.1836 239.141 33.1115 238.996 33.0393C238.852 32.9672 238.708 32.9672 238.491 32.9672C237.77 32.9672 237.337 33.4 237.337 34.1936V37.2234C237.337 38.0169 237.698 38.4497 238.491 38.4497C238.708 38.4497 238.924 38.4497 239.068 38.3776C239.213 38.3055 239.357 38.2333 239.429 38.089C239.501 37.9448 239.573 37.8726 239.573 37.7283C239.573 37.6562 239.646 37.5119 239.646 37.3677C239.646 37.0791 239.862 36.9348 240.367 36.9348C240.583 36.9348 240.8 37.007 240.944 37.0791C241.088 37.1512 241.088 37.3677 241.088 37.6562C241.088 38.3055 240.872 38.8104 240.367 39.1711C239.862 39.5318 239.285 39.7482 238.491 39.7482C237.77 39.7482 237.121 39.5318 236.688 39.1711C235.966 38.594 235.75 38.0169 235.75 37.1512Z" fill="#DDD5CC"/>
<path d="M238.203 39.676C237.481 39.676 236.832 39.4596 236.399 39.0989C235.966 38.666 235.678 38.0889 235.678 37.2233V34.1934C235.678 33.3278 235.894 32.6785 236.399 32.3178C236.832 31.885 237.481 31.7407 238.203 31.7407C238.924 31.7407 239.573 31.9571 240.078 32.3178C240.583 32.6785 240.8 33.1835 240.8 33.8327C240.8 34.1213 240.727 34.2656 240.655 34.4099C240.511 34.482 240.367 34.5541 240.078 34.5541C239.573 34.5541 239.357 34.4099 239.357 34.0492C239.357 33.977 239.357 33.9049 239.357 33.8327C239.357 33.7606 239.285 33.6885 239.285 33.5442C239.213 33.4721 239.213 33.3278 239.14 33.2556C239.068 33.1835 238.996 33.1114 238.852 33.0392C238.708 32.9671 238.563 32.9671 238.347 32.9671C237.625 32.9671 237.265 33.3278 237.265 34.1934V37.2233C237.265 38.0168 237.625 38.4496 238.347 38.4496C238.563 38.4496 238.78 38.4496 238.924 38.3775C239.068 38.3053 239.14 38.2332 239.213 38.0889C239.285 37.9446 239.357 37.8725 239.357 37.7282C239.357 37.6561 239.429 37.5118 239.429 37.3675C239.429 37.079 239.717 36.8626 240.15 36.8626C240.439 36.8626 240.583 36.9347 240.727 37.0068C240.872 37.079 240.872 37.2954 240.872 37.584C240.872 38.2332 240.655 38.7382 240.15 39.171C239.573 39.4596 238.996 39.676 238.203 39.676ZM238.203 31.7407C237.481 31.7407 236.904 31.9571 236.399 32.3178C235.966 32.6785 235.75 33.3278 235.75 34.1213V37.1511C235.75 38.0168 235.966 38.5939 236.399 38.9546C236.832 39.3153 237.409 39.5317 238.13 39.5317C238.852 39.5317 239.501 39.3153 239.934 38.9546C240.367 38.5939 240.655 38.0889 240.655 37.4397C240.655 37.1511 240.583 37.0068 240.511 36.9347C240.439 36.8626 240.222 36.7904 240.006 36.7904C239.573 36.7904 239.357 36.9347 239.357 37.2233C239.357 37.3675 239.357 37.5118 239.285 37.584C239.285 37.6561 239.213 37.8004 239.14 37.9446C239.068 38.0889 238.924 38.1611 238.78 38.2332C238.635 38.3053 238.419 38.3775 238.203 38.3775C237.409 38.3775 237.048 37.9446 237.048 37.079V34.0492C237.048 33.1835 237.409 32.7507 238.203 32.7507C238.419 32.7507 238.563 32.7507 238.708 32.8228C238.852 32.8949 238.996 32.9671 239.068 33.0392C239.14 33.1114 239.213 33.1835 239.285 33.3278C239.357 33.4721 239.357 33.5442 239.357 33.6163C239.357 33.6885 239.357 33.7606 239.357 33.8327C239.357 34.1213 239.573 34.2656 240.006 34.2656C240.222 34.2656 240.439 34.1934 240.511 34.1213C240.583 34.0492 240.655 33.8327 240.655 33.6163C240.655 33.0392 240.439 32.5342 239.934 32.1736C239.573 31.885 238.924 31.7407 238.203 31.7407Z" fill="#DDD5CC"/>
<path d="M249.889 39.0997V32.1023C249.889 31.958 249.961 31.8858 250.105 31.8137C250.249 31.7416 250.394 31.6694 250.538 31.6694H254.361C254.506 31.6694 254.65 31.7416 254.722 31.8858C254.794 32.0301 254.866 32.1744 254.866 32.3187C254.866 32.463 254.794 32.6072 254.722 32.7515C254.65 32.8958 254.506 32.9679 254.433 32.9679H251.404V35.1321H253.063C253.207 35.1321 253.279 35.2042 253.351 35.2764C253.423 35.4206 253.496 35.4928 253.496 35.6371C253.496 35.7813 253.423 35.9256 253.351 35.9978C253.279 36.0699 253.135 36.142 252.991 36.142H251.331V38.3062H254.361C254.506 38.3062 254.578 38.3783 254.65 38.5226C254.722 38.6669 254.794 38.8112 254.794 38.9554C254.794 39.0997 254.722 39.244 254.65 39.3883C254.578 39.5325 254.433 39.6047 254.289 39.6047H250.466C250.322 39.6047 250.177 39.5325 250.033 39.4604C249.961 39.3161 249.889 39.244 249.889 39.0997Z" fill="#DDD5CC"/>
<path d="M254.361 39.6041H250.538C250.394 39.6041 250.249 39.5319 250.105 39.4598C249.961 39.3877 249.889 39.2434 249.889 39.0991V32.1017C249.889 31.9574 249.961 31.8131 250.105 31.741C250.249 31.6688 250.394 31.5967 250.538 31.5967H254.361C254.506 31.5967 254.65 31.6688 254.722 31.8131C254.794 31.9574 254.866 32.1017 254.866 32.2459C254.866 32.3902 254.794 32.6066 254.722 32.6788C254.65 32.823 254.506 32.8952 254.361 32.8952H251.331V34.9872H252.919C253.063 34.9872 253.207 35.0593 253.279 35.2036C253.351 35.3479 253.423 35.4922 253.423 35.6364C253.423 35.7807 253.351 35.925 253.279 35.9971C253.207 36.1414 253.063 36.2136 252.919 36.2136H251.331V38.3056H254.361C254.506 38.3056 254.65 38.3777 254.722 38.522C254.794 38.6663 254.866 38.8105 254.866 38.9548C254.866 39.0991 254.794 39.2434 254.722 39.3877C254.65 39.5319 254.506 39.6041 254.361 39.6041ZM250.538 31.741C250.394 31.741 250.249 31.8131 250.105 31.8852C249.961 31.9574 249.961 32.0295 249.961 32.1738V39.1712C249.961 39.3155 250.033 39.3877 250.105 39.4598C250.249 39.5319 250.394 39.6041 250.538 39.6041H254.361C254.506 39.6041 254.578 39.5319 254.65 39.4598C254.722 39.3155 254.722 39.2434 254.722 39.027C254.722 38.8827 254.65 38.7384 254.578 38.5941C254.506 38.4499 254.433 38.4499 254.289 38.4499H251.187V36.2136H252.846C252.991 36.2136 253.063 36.1414 253.135 36.0693C253.207 35.9971 253.207 35.8529 253.207 35.7086C253.207 35.5643 253.135 35.42 253.063 35.3479C252.991 35.2758 252.918 35.2036 252.774 35.2036H251.115V32.9673H254.217C254.361 32.9673 254.433 32.8952 254.506 32.823C254.578 32.6788 254.65 32.5345 254.65 32.3902C254.65 32.2459 254.578 32.1017 254.578 31.9574C254.506 31.8131 254.433 31.8131 254.289 31.8131H250.538V31.741Z" fill="#DDD5CC"/>
<path d="M263.883 39.0991V32.1017C263.883 31.9574 263.955 31.8131 264.1 31.741C264.244 31.6688 264.388 31.5967 264.605 31.5967C264.893 31.5967 265.038 31.6688 265.182 31.741C265.326 31.8131 265.47 32.0295 265.615 32.3181L267.707 36.3578V32.0295C267.707 31.8852 267.779 31.8131 267.923 31.741C268.067 31.6688 268.212 31.6688 268.428 31.6688C268.644 31.6688 268.789 31.6688 268.933 31.741C269.077 31.8131 269.149 31.8852 269.149 32.0295V39.027C269.149 39.1712 269.077 39.2434 268.933 39.3155C268.789 39.3877 268.644 39.4598 268.428 39.4598C268.067 39.4598 267.779 39.3155 267.635 39.027L265.326 34.6986V39.027C265.326 39.1712 265.254 39.2434 265.11 39.3155C264.965 39.3877 264.821 39.4598 264.605 39.4598C264.388 39.4598 264.244 39.3877 264.1 39.3155C263.955 39.3155 263.883 39.2434 263.883 39.0991Z" fill="#DDD5CC"/>
<path d="M268.428 39.6047C268.067 39.6047 267.779 39.4604 267.562 39.1719L265.326 34.9878V39.1719C265.326 39.3161 265.254 39.4604 265.11 39.5325C264.965 39.6047 264.821 39.6768 264.605 39.6768C264.388 39.6768 264.244 39.6047 264.1 39.5325C263.955 39.4604 263.883 39.3161 263.883 39.1719V32.1744C263.883 32.0301 263.955 31.8858 264.1 31.8137C264.244 31.7416 264.388 31.6694 264.605 31.6694C264.893 31.6694 265.11 31.7416 265.182 31.8137C265.326 31.8858 265.47 32.1023 265.615 32.463L267.634 36.3584V32.1744C267.634 32.0301 267.707 31.8858 267.851 31.8137C267.995 31.7416 268.139 31.6694 268.356 31.6694C268.572 31.6694 268.716 31.7416 268.861 31.8137C269.005 31.8858 269.077 32.0301 269.077 32.1744V39.1719C269.077 39.3161 269.005 39.4604 268.861 39.5325C268.789 39.5325 268.572 39.6047 268.428 39.6047ZM265.254 34.6271L267.634 39.0997C267.779 39.3883 268.067 39.5325 268.428 39.5325C268.572 39.5325 268.789 39.4604 268.933 39.3883C269.077 39.3161 269.149 39.244 269.149 39.0997V32.1023C269.149 31.958 269.077 31.8858 268.933 31.8137C268.789 31.7416 268.644 31.7416 268.428 31.7416C268.211 31.7416 268.067 31.7416 267.923 31.8137C267.779 31.8858 267.707 31.958 267.707 32.1023V36.5749L265.542 32.463C265.398 32.1744 265.254 31.958 265.11 31.8858C264.965 31.8137 264.821 31.7416 264.532 31.7416C264.316 31.7416 264.172 31.8137 264.027 31.8858C263.883 31.958 263.811 32.0301 263.811 32.1744V39.1719C263.811 39.3161 263.883 39.3883 264.027 39.4604C264.172 39.5325 264.316 39.6047 264.532 39.6047C264.677 39.6047 264.893 39.5325 265.037 39.4604C265.182 39.3883 265.254 39.3161 265.254 39.1719V34.6271Z" fill="#DDD5CC"/>
<path d="M278.167 32.3179C278.167 32.1737 278.239 32.0294 278.311 31.8851C278.383 31.7408 278.528 31.6687 278.672 31.6687H283.217C283.361 31.6687 283.505 31.7408 283.577 31.8851C283.65 32.0294 283.722 32.1737 283.722 32.3179C283.722 32.4622 283.65 32.6065 283.577 32.7508C283.505 32.8951 283.361 32.9672 283.289 32.9672H281.702V39.1711C281.702 39.3154 281.63 39.3875 281.485 39.4597C281.341 39.5318 281.197 39.604 280.98 39.604C280.764 39.604 280.62 39.5318 280.475 39.4597C280.331 39.3875 280.259 39.2433 280.259 39.1711V32.9672H278.672C278.528 32.9672 278.456 32.8951 278.383 32.8229C278.239 32.6065 278.167 32.4622 278.167 32.3179Z" fill="#DDD5CC"/>
<path d="M280.908 39.604C280.692 39.604 280.548 39.5318 280.403 39.4597C280.259 39.3875 280.187 39.2433 280.187 39.099V32.9672H278.672C278.528 32.9672 278.383 32.8951 278.311 32.7508C278.239 32.6065 278.167 32.4622 278.167 32.3179C278.167 32.1737 278.239 32.0294 278.311 31.8851C278.383 31.7408 278.528 31.6687 278.672 31.6687H283.217C283.361 31.6687 283.505 31.7408 283.577 31.8851C283.65 32.0294 283.722 32.1737 283.722 32.3179C283.722 32.4622 283.65 32.6786 283.577 32.7508C283.505 32.8951 283.361 32.9672 283.217 32.9672H281.702V39.099C281.702 39.2433 281.63 39.3875 281.485 39.4597C281.269 39.5318 281.053 39.604 280.908 39.604ZM278.6 31.7408C278.456 31.7408 278.383 31.813 278.311 31.8851C278.239 32.0294 278.239 32.1015 278.239 32.3179C278.239 32.4622 278.311 32.6065 278.383 32.7508C278.456 32.8951 278.528 32.8951 278.672 32.8951H280.259V39.099C280.259 39.2433 280.331 39.3154 280.475 39.3875C280.62 39.4597 280.764 39.5318 280.98 39.5318C281.125 39.5318 281.341 39.4597 281.485 39.3875C281.63 39.3154 281.702 39.2433 281.702 39.099V32.8951H283.289C283.433 32.8951 283.505 32.8229 283.577 32.7508C283.65 32.6065 283.722 32.4622 283.722 32.3179C283.722 32.1737 283.65 32.0294 283.65 31.8851C283.577 31.7408 283.505 31.7408 283.361 31.7408H278.6Z" fill="#DDD5CC"/>
<path d="M292.667 39.0997V32.1023C292.667 31.958 292.74 31.8858 292.812 31.8137C292.884 31.7416 293.028 31.6694 293.1 31.6694H295.264C296.996 31.6694 297.789 32.3908 297.789 33.9057C297.789 34.4828 297.645 34.9878 297.429 35.3485C297.14 35.7092 296.852 35.9256 296.419 36.0699L297.861 38.6669C297.861 38.739 297.934 38.739 297.934 38.8112C297.934 38.9554 297.861 39.1719 297.645 39.3161C297.429 39.4604 297.284 39.5325 297.068 39.5325C296.852 39.5325 296.707 39.3883 296.563 39.1719L295.048 36.2142H294.11V39.0276C294.11 39.1719 294.038 39.244 293.894 39.3161C293.75 39.3883 293.605 39.4604 293.389 39.4604C293.172 39.4604 293.028 39.3883 292.884 39.3161C292.74 39.3161 292.667 39.244 292.667 39.0997ZM294.038 35.2042H295.192C295.986 35.2042 296.347 34.8435 296.347 34.05C296.347 33.2565 295.986 32.8958 295.192 32.8958H294.038V35.2042Z" fill="#DDD5CC"/>
<path d="M296.995 39.6039C296.779 39.6039 296.634 39.4597 296.49 39.2433L294.975 36.2856H294.11V39.0268C294.11 39.1711 294.037 39.3154 293.893 39.3875C293.749 39.4597 293.605 39.5318 293.388 39.5318C293.172 39.5318 293.028 39.4597 292.883 39.3875C292.739 39.3154 292.667 39.1711 292.667 39.0268V32.0294C292.667 31.8851 292.739 31.813 292.811 31.6687C292.883 31.5966 293.028 31.5244 293.172 31.5244H295.336C297.067 31.5244 297.933 32.3179 297.933 33.8329C297.933 34.41 297.789 34.9149 297.572 35.2756C297.356 35.6363 296.995 35.8527 296.562 35.997L297.933 38.594C298.005 38.6661 298.005 38.7383 298.005 38.8104C298.005 39.0268 297.933 39.1711 297.717 39.3154C297.356 39.5318 297.212 39.6039 296.995 39.6039ZM294.037 36.2856H294.975L296.49 39.2433C296.634 39.4597 296.779 39.5318 296.923 39.5318C297.139 39.5318 297.284 39.4597 297.5 39.3154C297.644 39.1711 297.789 39.0268 297.789 38.8104C297.789 38.7383 297.789 38.6661 297.717 38.6661L296.274 35.997H296.346C296.779 35.8527 297.139 35.6363 297.356 35.2756C297.572 34.9149 297.717 34.4821 297.717 33.905C297.717 32.3901 296.923 31.6687 295.192 31.6687H293.028C292.883 31.6687 292.811 31.7408 292.739 31.813C292.667 31.8851 292.595 31.9572 292.595 32.1015V39.099C292.595 39.2433 292.667 39.3154 292.811 39.3875C292.955 39.4597 293.1 39.5318 293.316 39.5318C293.533 39.5318 293.677 39.4597 293.821 39.3875C293.965 39.3154 294.037 39.2433 294.037 39.099V36.2856ZM295.264 35.2756H294.037V32.895H295.264C296.057 32.895 296.418 33.3279 296.418 34.0493C296.418 34.8428 296.057 35.2756 295.264 35.2756ZM294.11 35.2035H295.264C295.985 35.2035 296.346 34.8428 296.346 34.1214C296.346 33.4 295.985 33.0393 295.264 33.0393H294.11V35.2035Z" fill="#DDD5CC"/>
<path d="M307.023 39.0995V32.102C307.023 31.9577 307.095 31.8856 307.239 31.8135C307.384 31.7413 307.528 31.6692 307.672 31.6692H311.496C311.64 31.6692 311.784 31.7413 311.856 31.8856C311.928 32.0299 312.001 32.1742 312.001 32.3184C312.001 32.4627 311.928 32.607 311.856 32.7513C311.784 32.8955 311.64 32.9677 311.568 32.9677H308.538V35.1318H310.197C310.341 35.1318 310.413 35.204 310.486 35.2761C310.558 35.4204 310.63 35.4925 310.63 35.6368C310.63 35.7811 310.558 35.9254 310.486 35.9975C310.413 36.0696 310.269 36.1418 310.125 36.1418H308.466V38.3059H311.496C311.64 38.3059 311.712 38.3781 311.784 38.5224C311.856 38.6666 311.928 38.8109 311.928 38.9552C311.928 39.0995 311.856 39.2437 311.784 39.388C311.712 39.5323 311.568 39.6044 311.423 39.6044H307.6C307.456 39.6044 307.311 39.5323 307.167 39.4602C307.023 39.3159 307.023 39.2437 307.023 39.0995Z" fill="#DDD5CC"/>
<path d="M311.423 39.6041H307.599C307.455 39.6041 307.311 39.5319 307.167 39.4598C307.022 39.3877 306.95 39.2434 306.95 39.0991V32.1017C306.95 31.9574 307.022 31.8131 307.167 31.741C307.311 31.6688 307.455 31.5967 307.599 31.5967H311.423C311.567 31.5967 311.711 31.6688 311.783 31.8131C311.856 31.9574 311.928 32.1017 311.928 32.2459C311.928 32.3902 311.856 32.6066 311.783 32.6788C311.711 32.823 311.567 32.8952 311.423 32.8952H308.393V34.9872H309.98C310.124 34.9872 310.269 35.0593 310.341 35.2036C310.413 35.3479 310.485 35.4922 310.485 35.6364C310.485 35.7807 310.413 35.925 310.341 35.9971C310.269 36.1414 310.124 36.2136 309.98 36.2136H308.393V38.3056H311.423C311.567 38.3056 311.711 38.3777 311.783 38.522C311.856 38.6663 311.928 38.8105 311.928 38.9548C311.928 39.0991 311.856 39.2434 311.783 39.3877C311.711 39.5319 311.567 39.6041 311.423 39.6041ZM307.599 31.741C307.455 31.741 307.311 31.8131 307.167 31.8852C307.022 31.9574 307.022 32.0295 307.022 32.1738V39.1712C307.022 39.3155 307.094 39.3877 307.167 39.4598C307.311 39.5319 307.455 39.6041 307.599 39.6041H311.423C311.567 39.6041 311.639 39.5319 311.711 39.4598C311.783 39.3155 311.783 39.2434 311.783 39.027C311.783 38.8827 311.711 38.7384 311.639 38.5941C311.567 38.4499 311.495 38.4499 311.351 38.4499H308.249V36.2136H309.908C310.052 36.2136 310.124 36.1414 310.196 36.0693C310.269 35.9971 310.269 35.8529 310.269 35.7086C310.269 35.5643 310.196 35.42 310.124 35.3479C310.052 35.2758 309.98 35.2036 309.836 35.2036H308.177V32.9673H311.279C311.423 32.9673 311.495 32.8952 311.567 32.823C311.639 32.6788 311.711 32.5345 311.711 32.3902C311.711 32.2459 311.639 32.1017 311.639 31.9574C311.567 31.8131 311.495 31.8131 311.351 31.8131H307.599V31.741Z" fill="#DDD5CC"/>
</svg>
