<svg width="743" height="279" viewBox="0 0 743 279" fill="none" xmlns="http://www.w3.org/2000/svg">
<path fill-rule="evenodd" clip-rule="evenodd" d="M371.75 1C371.75 0.585786 371.414 0.25 371 0.25C370.586 0.25 370.25 0.585786 370.25 1V70.9013C370.25 106.473 342.746 135.246 308.888 135.246H91.1122C56.3601 135.246 28.2499 164.757 28.2499 201.09V275.191L1.53989 247.48C1.25243 247.181 0.777641 247.173 0.479409 247.46C0.181177 247.747 0.172442 248.222 0.459897 248.52L28.9511 278.08L29.3578 277.659C29.4924 277.586 29.602 277.473 29.6708 277.336L57.539 248.521C57.827 248.224 57.819 247.749 57.5213 247.461C57.2236 247.173 56.7488 247.181 56.4608 247.479L29.7499 275.096V201.09C29.7499 165.519 57.2541 136.746 91.1122 136.746H308.888C340.473 136.746 366.572 112.367 371.066 80.6455C375.659 112.218 401.776 136.449 433.363 136.449H651.67C685.614 136.449 713.184 165.183 713.184 200.699V275.537L686.407 247.679C686.12 247.381 685.645 247.371 685.347 247.658C685.048 247.946 685.039 248.42 685.326 248.719L713.933 278.482L742.54 248.719C742.828 248.42 742.818 247.946 742.519 247.658C742.221 247.371 741.746 247.381 741.459 247.679L714.684 275.536V200.699C714.684 164.416 686.503 134.949 651.67 134.949H433.363C399.419 134.949 371.849 106.216 371.849 70.6992C371.849 70.5631 371.813 70.4355 371.75 70.3255V1Z" fill="#EE907B"/>
</svg>
