<svg width="179" height="45" viewBox="0 0 179 45" fill="none" xmlns="http://www.w3.org/2000/svg">
<path d="M18.4069 44.1814C18.0445 43.7465 17.5371 44.0364 17.1748 43.8915C15.7252 43.3841 14.2756 42.9493 12.8986 42.3694C11.8839 42.0071 11.3766 40.9924 10.8692 40.1226C10.5068 39.5428 10.2894 38.8905 10.072 38.2382C9.78209 37.296 9.49219 36.2814 9.49219 35.2667C9.56466 34.4694 9.49219 33.5997 9.49219 32.8024C9.49219 30.7006 10.217 28.8887 11.3041 27.1492C12.6087 25.1199 14.4206 23.5254 16.2326 22.0033C16.8849 21.4235 17.6096 20.8437 18.2619 20.1914C20.0738 22.0033 21.7408 23.6703 23.5527 25.4822C22.683 28.0189 23.0454 30.3382 24.8573 32.3676C26.6693 34.3245 29.061 34.5419 31.5977 34.3245C32.9023 36.4263 33.772 38.6006 34.0619 41.1373C32.8298 41.7896 31.7427 42.5869 30.3656 43.0217C29.7133 43.2392 29.061 43.3841 28.4812 43.6015C27.7564 43.8915 27.0317 44.1089 26.2344 44.1089C26.0895 44.1089 25.9445 44.2538 25.7996 44.3263C23.3353 44.1814 20.8711 44.1814 18.4069 44.1814Z" fill="#363434"/>
<path d="M0.0725038 18.8904C0.144981 18.7454 0.289927 18.528 0.289927 18.383C0.362404 17.8032 0.434855 17.2234 0.579809 16.716C1.44954 13.5995 2.8266 10.7729 4.92844 8.2362C6.23303 6.6417 7.68259 5.19216 9.42204 4.03252C9.63947 3.88757 9.92938 3.74261 10.1468 3.59766C10.2193 3.59766 10.2918 3.59766 10.4367 3.67013C10.1468 6.20684 10.7991 8.59859 11.7413 10.8454C12.4661 12.5848 13.4808 14.1793 14.6404 15.7014C15.1478 16.3536 15.6551 16.9335 16.2349 17.6582C16.0175 17.8757 15.8001 18.1656 15.5101 18.3105C14.1331 19.3252 12.6835 20.2674 11.3065 21.2821C8.62482 23.239 6.59543 25.7757 5.43579 28.9647C4.7835 30.7041 4.42112 32.4436 4.4936 34.2555C4.4936 34.5454 4.42114 34.8353 4.42114 35.2702C4.13123 34.9803 3.98624 34.8353 3.84128 34.6904C2.10183 32.2986 1.08718 29.617 0.289927 26.7904C0.144972 26.283 0.434863 25.7032 0 25.2683C0.0724772 23.1665 0.0725038 21.0647 0.0725038 18.8904Z" fill="#363434"/>
<path d="M25.5859 0.117188C25.6584 0.189665 25.8034 0.334619 25.8759 0.334619C27.1804 0.262142 28.2676 0.84196 29.4997 1.20435C29.4997 1.49425 29.5722 1.78416 29.5722 2.0016C29.1373 5.11812 28.2676 8.08968 26.2382 10.6264C25.3685 11.7135 24.2089 12.6557 23.1217 13.598C21.4548 14.975 19.5703 15.9897 17.6859 17.0044C16.0914 15.6998 14.8593 14.1778 13.9896 12.2934C13.4822 11.0612 12.9024 9.82914 12.9749 8.37959C13.1199 5.84289 13.9171 3.59609 15.4391 1.56673C16.0189 0.769483 16.9612 0.479574 17.9034 0.407097C18.2657 0.33462 18.5557 0.262142 18.9181 0.189665C21.0924 0.117188 23.3391 0.117188 25.5859 0.117188Z" fill="#363434"/>
<path d="M178.293 37.4427C177.714 38.3124 176.989 38.8922 175.974 39.1097C174.525 39.472 172.785 38.5298 172.133 37.0803C172.35 36.9353 172.64 36.7179 172.858 36.5005C174.09 37.95 175.394 38.5298 176.989 37.1528C176.989 36.7179 176.989 36.283 176.989 35.8482C176.626 35.2684 176.047 34.906 175.394 34.6886C174.959 34.5436 174.525 34.3262 174.09 34.0363C172.205 33.0216 172.06 30.9922 173.727 29.7601C173.8 29.6876 173.945 29.6151 174.09 29.5427C175.467 29.4702 176.916 29.2528 177.786 30.9197C177.569 31.1372 177.279 31.3546 176.989 31.572C176.481 30.9922 176.119 30.4849 175.322 30.4849C174.814 30.4849 174.38 30.7023 173.945 31.0647C173.945 31.4271 173.945 31.8619 173.945 32.3693C174.235 32.5867 174.597 32.8766 174.959 33.0941C175.467 33.384 176.047 33.6739 176.626 33.8913C177.496 34.2537 178.003 34.8335 178.366 35.6308C178.293 36.283 178.293 36.8629 178.293 37.4427Z" fill="#363434"/>
<path d="M39.4261 36.2848C38.3389 34.5453 37.3242 32.9508 36.2371 31.2114C36.382 30.9215 36.527 30.6316 36.672 30.2692C38.1215 27.2976 36.4545 23.6737 33.9178 22.2967C32.2508 21.427 30.5838 21.2095 28.7719 21.3545C28.1921 21.427 27.6123 21.6444 27.0324 21.9343C26.3802 22.2242 25.8728 22.6591 25.2205 23.0215C23.3361 21.7893 21.6691 20.4123 19.9297 18.8903C20.5095 18.3104 21.0893 17.8756 21.5967 17.3682C22.4664 16.571 23.3361 15.7737 24.2059 14.9765C26.8875 12.5123 28.9894 9.68565 30.5114 6.42417C31.0912 5.11958 31.671 3.74251 32.3233 2.29297C33.1206 2.43792 33.7728 3.01774 34.4251 3.52508C36.8894 5.26454 39.0637 7.36637 40.7307 9.97555C41.5279 11.2077 42.1802 12.5123 42.76 13.8893C43.7747 16.0636 43.9921 18.3829 44.427 20.6297C44.5719 21.4994 44.427 22.4416 44.3545 23.3114C44.282 24.6884 44.1371 25.993 43.7747 27.2976C43.6298 27.8774 43.4848 28.4572 43.2674 29.0371C42.5426 31.7912 41.238 34.1105 39.4261 36.2848Z" fill="#363434"/>
<path d="M160.83 14.9036C160.83 18.0926 160.033 20.0494 158.511 21.7889C156.699 23.8183 154.38 24.7605 151.771 24.7605C149.451 24.7605 147.277 24.0357 145.538 22.3687C143.653 20.5568 142.711 18.31 142.711 15.6283C142.711 10.5549 146.697 6.78611 151.771 6.78611C156.844 6.71364 160.975 10.7724 160.83 14.9036ZM158.511 15.7733C158.511 15.7008 158.511 15.6283 158.511 15.5559C158.728 12.8742 156.409 9.39529 153.293 8.96043C152.205 8.81548 151.191 8.81548 150.104 8.96043C148.002 9.32282 146.552 10.4825 145.61 12.3669C144.885 13.8889 144.595 15.5559 144.885 17.1504C145.32 19.3972 146.625 21.0641 148.727 22.0788C150.973 23.166 153.075 22.9485 155.177 21.7164C157.496 20.4118 158.511 18.3825 158.511 15.7733Z" fill="#363434"/>
<path d="M76.8282 19.2526C78.0603 20.992 79.2199 22.7315 80.5245 24.5434C79.5823 24.5434 78.8575 24.5434 78.0603 24.5434C76.9731 23.0214 75.8135 21.4269 74.7263 19.9773C73.4218 19.9773 72.3346 19.9773 71.1025 19.9773C71.03 21.4994 71.03 22.9489 70.9575 24.5434C70.2327 24.5434 69.5804 24.5434 69.0006 24.5434C68.7832 23.6012 68.7107 9.17822 68.9282 7.14886C69.1456 7.07638 69.4355 7.00391 69.7254 7.00391C71.1025 7.00391 72.552 7.00391 73.9291 7.00391C75.4511 7.00391 76.8282 7.6562 78.0603 8.45345C78.6401 8.88831 79.1475 9.46813 79.4374 10.1204C80.742 12.7296 80.5245 15.7012 78.5676 17.948C78.1328 18.4553 77.4805 18.7452 76.8282 19.2526ZM71.1025 9.03327C71.1025 12.1498 71.1025 15.1214 71.1025 18.1654C71.6823 18.1654 72.1896 18.1654 72.6969 18.1654C73.9291 18.1654 75.0162 17.948 76.1034 17.2957C76.9731 16.7883 77.6254 16.136 77.8429 15.0489C78.0603 14.0342 78.0603 13.1645 77.8429 12.1498C77.6979 11.2801 77.408 10.5553 76.6832 10.1204C75.9584 9.68556 75.3062 9.03327 74.364 9.03327C73.2768 9.03327 72.1896 9.03327 71.1025 9.03327Z" fill="#363434"/>
<path d="M175.978 19.9778C175.761 16.1365 175.906 12.2952 175.833 8.45387C175.833 8.01901 175.833 7.65662 175.833 7.22176C176.486 6.85938 177.065 7.00433 177.573 7.07681C177.645 7.14928 177.718 7.22176 177.718 7.22176C177.718 7.22176 177.79 7.29424 177.79 7.36672C177.79 12.875 177.79 18.3833 177.863 23.964C177.863 24.109 177.863 24.3264 177.79 24.4713L177.718 24.5438C177.718 24.5438 177.645 24.6163 177.573 24.6888C177.065 24.3989 176.703 23.8915 176.268 23.4567C175.326 22.442 174.456 21.3548 173.586 20.2677C172.064 18.4557 170.615 16.6438 169.093 14.9043C168.223 13.8172 167.281 12.8025 166.266 11.6429C166.266 15.9915 166.266 20.1952 166.266 24.4713C165.614 24.7612 164.962 24.6888 164.382 24.6163C164.164 23.6016 164.164 8.09149 164.382 6.85938C165.179 7.14928 165.614 7.87406 166.194 8.45387C166.919 9.25112 167.643 10.1209 168.296 10.9906C169.31 12.2227 170.325 13.4548 171.412 14.6869C172.064 15.4842 172.789 16.3539 173.441 17.1511C174.239 18.0209 175.108 19.0355 175.978 19.9778Z" fill="#363434"/>
<path d="M95.0941 22.5858C95.0941 23.3105 95.0941 23.8179 95.0941 24.3252C94.2969 24.6151 86.0345 24.6876 84.1501 24.4702C83.9326 23.528 83.8601 10.0472 84.0051 7.2206C84.8023 6.93069 92.6299 6.85821 94.8042 7.07564C94.8042 7.65546 94.8042 8.23528 94.8042 8.96005C91.9776 8.96005 89.151 8.96005 86.3244 8.96005C86.1069 10.2646 86.2519 11.4968 86.2519 12.7289C86.2519 13.961 86.2519 15.1931 86.2519 16.5702C88.7886 16.7151 91.2528 16.5702 93.862 16.7151C93.862 17.3674 93.862 17.9472 93.862 18.672C91.3253 18.672 88.8611 18.672 86.3968 18.672C86.1794 19.9766 86.3244 21.2087 86.2519 22.5133C87.2666 22.8032 88.2813 22.6582 89.2235 22.6582C90.1657 22.6582 91.1078 22.6582 92.0501 22.6582C93.0647 22.5858 94.0069 22.5858 95.0941 22.5858Z" fill="#363434"/>
<path d="M56.3149 20.1215C56.3149 21.6435 56.3149 23.0206 56.3149 24.4701C55.5177 24.4701 54.8654 24.4701 54.1406 24.4701C54.1406 18.672 54.1406 12.9463 54.1406 7.0756C54.4305 7.00313 54.7204 6.93065 54.9379 6.93065C56.3874 6.93065 57.8369 6.85817 59.2865 6.93065C61.3883 7.0756 63.3452 7.80038 64.4324 9.75726C65.8819 12.294 65.8819 15.4105 64.07 17.7298C62.9829 19.1793 61.3883 19.8316 59.5764 20.049C58.5617 20.194 57.4746 20.1215 56.3149 20.1215ZM56.3874 9.03249C56.17 10.8444 56.2425 17.5123 56.5324 18.4545C57.692 18.3821 58.9241 18.3096 60.1562 18.0921C61.2434 17.8747 62.1856 17.2224 62.6205 16.2077C63.4177 14.5408 63.4902 12.7288 62.6205 10.9894C62.0407 9.75726 60.881 9.17744 59.6489 9.03249C58.6342 8.88753 57.547 9.03249 56.3874 9.03249Z" fill="#363434"/>
<path d="M113.351 10.1901C112.843 10.625 112.336 11.0598 111.829 11.4947C110.307 9.39286 108.277 8.52314 105.813 8.74057C104.074 8.88552 102.551 9.46534 101.319 10.7699C98.8551 13.4516 98.9276 17.9452 101.102 20.4094C103.494 23.1635 108.06 24.1782 111.974 19.9745C112.408 20.2644 112.843 20.4819 113.278 20.7718C113.351 21.2791 113.133 21.714 112.771 22.0039C111.249 23.4534 109.582 24.4681 107.407 24.6131C106.103 24.6856 104.871 24.6856 103.711 24.3232C101.827 23.8158 100.232 22.8011 99.0726 21.2066C98.0579 19.7571 97.2607 18.1626 97.2607 16.3507C97.1882 14.5387 97.4781 12.7993 98.3478 11.2773C99.0726 9.97268 100.087 8.958 101.392 8.08827C102.914 7.07359 104.653 6.7112 106.393 6.7112C108.929 6.63873 111.176 7.50845 112.843 9.46534C112.988 9.68277 113.133 9.9002 113.351 10.1901Z" fill="#363434"/>
<path d="M126.111 9.10278C125.821 9.46516 125.604 9.82755 125.386 10.1899C125.386 10.8422 125.386 11.422 125.386 12.0019C126.039 12.9441 126.908 13.4514 127.923 13.9588C129.518 14.756 131.257 15.2633 132.489 16.7129C134.229 18.8147 134.156 21.0615 132.634 23.0184C131.909 23.8881 130.75 24.4679 129.518 24.6129C128.213 24.7579 126.909 24.7579 125.676 24.323C124.082 23.7432 122.85 22.7285 122.125 21.2065C122.632 20.6267 122.632 20.6267 123.72 20.1193C124.589 21.4964 125.821 22.5835 127.561 22.801C128.793 22.9459 129.808 22.5111 130.967 21.7863C131.112 21.3514 131.402 20.7716 131.547 20.1918C131.837 18.6698 130.895 17.7276 129.663 17.0753C128.793 16.5679 127.851 16.278 126.981 15.8432C125.749 15.1909 124.589 14.5386 123.792 13.3065C122.27 11.0597 123.575 7.87066 126.039 7.07341C127.343 6.63855 128.72 6.71103 130.025 7.14589C131.257 7.58075 132.054 8.52296 132.924 9.61012C132.272 9.9725 131.692 10.2624 131.112 10.5523C129.808 8.66791 128.141 8.378 126.111 9.10278Z" fill="#363434"/>
<path d="M28.6975 30.2683C29.3498 31.0656 29.7846 31.6454 30.3645 32.2977C28.9874 32.805 27.9727 32.2252 27.0305 31.5729C25.5085 30.4133 24.7837 28.8913 25.2186 26.8619C26.958 26.8619 28.625 26.8619 30.5094 26.8619C30.147 25.9922 29.2773 25.9197 28.77 25.4848C28.2626 25.05 27.6828 24.6876 27.103 24.2527C28.4801 23.0206 30.7268 22.7307 32.3938 23.5279C34.2782 24.3977 35.2929 25.8472 35.4379 28.1665C35.2929 28.6738 35.003 29.4711 34.7131 30.2683C32.6837 30.2683 30.7993 30.2683 28.6975 30.2683Z" fill="#363434"/>
<path d="M137.342 7.07422C138.067 7.07422 138.719 7.07422 139.372 7.07422C139.372 12.8724 139.372 18.6706 139.372 24.3963C138.574 24.6862 138.574 24.6862 137.415 24.5412C137.197 23.6715 137.125 8.81367 137.342 7.07422Z" fill="#363434"/>
<path d="M53.8516 38.9655C53.8516 35.704 53.8516 32.7324 53.8516 29.5434C55.2286 29.5434 56.6057 29.3985 57.9103 29.6159C58.9975 29.7609 59.6498 30.6306 59.9397 31.8627C59.7222 32.37 59.4323 33.0223 59.0699 33.8196C59.6497 34.2544 60.3745 34.7618 60.447 35.704C60.5195 36.6462 60.3021 37.5159 59.7222 38.2407C58.9975 38.8205 58.1277 39.0379 57.1855 38.9655C56.1709 38.893 55.0837 38.9655 53.8516 38.9655ZM58.4901 34.6168C57.258 34.6168 56.3158 34.6168 55.2286 34.6168C55.2286 35.1966 55.2286 35.7765 55.2286 36.2838C55.3011 36.8636 55.0837 37.4434 55.4461 38.0233C55.9534 38.0233 56.5332 38.0233 57.0406 38.0233C58.78 37.9508 59.2149 37.4434 59.2149 35.6315C59.2149 35.559 59.1424 35.4866 59.1424 35.3416C58.925 35.0517 58.7076 34.7618 58.4901 34.6168ZM57.8378 33.2398C58.7075 32.8049 58.5626 32.0801 58.4177 31.4278C57.6204 30.3407 56.4608 30.6306 55.3736 30.6306C55.3736 31.5728 55.3736 32.37 55.3736 33.2398C56.2433 33.2398 56.9681 33.2398 57.8378 33.2398Z" fill="#363434"/>
<path d="M119.009 24.5406C118.43 24.5406 117.85 24.5406 117.27 24.5406C117.197 24.3231 117.125 24.1057 117.125 23.8883C117.125 18.4525 117.125 13.0167 117.125 7.5809C117.125 7.43595 117.125 7.36347 117.197 7.14604C117.777 6.85613 118.357 7.00108 118.937 7.00108C119.227 7.94329 119.299 22.9461 119.009 24.5406Z" fill="#363434"/>
<path d="M77.9874 29.5428C81.0315 29.1804 83.0608 32.152 82.9883 34.3263C82.9159 37.0805 80.7416 39.2548 77.9874 39.1823C75.3058 39.1098 73.2764 37.3704 73.1314 34.1814C72.9865 32.0795 75.3058 29.108 77.9874 29.5428ZM81.5388 34.3988C81.5388 34.2538 81.5388 34.0364 81.5388 33.8915C81.3938 31.7896 79.5819 30.2676 77.625 30.5575C76.0305 30.7749 75.0159 31.7171 74.581 33.3116C74.2186 34.6887 74.7984 36.6456 75.958 37.3704C77.1901 38.1676 78.5673 38.1676 79.7994 37.5153C81.0315 36.9355 81.5388 35.7759 81.5388 34.3988Z" fill="#363434"/>
<path d="M139.735 29.543C140.17 29.543 140.46 29.543 140.75 29.543C141.04 29.9054 141.112 38.0228 140.75 39.2549C138.648 36.9356 136.764 34.5439 134.589 32.1522C134.589 34.6164 134.589 36.7182 134.589 38.8925C134.155 38.8925 133.937 38.8925 133.72 38.8925C133.43 38.6026 133.43 31.065 133.647 29.543C134.517 29.6879 134.589 30.5577 135.169 31.065C135.749 31.5723 136.184 32.2246 136.691 32.8044C137.199 33.3843 137.633 33.9641 138.141 34.4714C138.648 35.0512 139.083 35.5586 139.735 36.2834C139.735 33.9641 139.735 31.7898 139.735 29.543Z" fill="#363434"/>
<path d="M166.628 29.6901C166.628 29.9801 166.628 30.1975 166.628 30.5599C165.178 30.5599 163.801 30.5599 162.424 30.5599C162.134 31.5021 162.134 33.3865 162.351 34.6911C163.656 34.9085 165.106 34.5461 166.628 34.981C166.265 35.4883 166.048 35.7058 165.83 35.9957C164.671 35.9957 163.511 35.9957 162.424 35.9957C162.134 36.648 162.279 37.2278 162.351 37.9526C163.873 37.9526 165.323 37.9526 166.845 37.9526C166.918 38.3149 166.918 38.5324 166.918 38.8223C165.903 39.0397 162.279 39.0397 161.047 38.8223C161.047 35.7782 161.047 32.8067 161.047 29.7626C161.917 29.4727 164.961 29.4727 166.628 29.6901Z" fill="#363434"/>
<path d="M107.989 31.4268C107.699 31.6443 107.41 31.7892 107.12 32.0067C105.09 30.2672 103.133 30.1223 101.611 31.6443C100.234 32.9489 100.162 35.4131 101.466 36.7902C102.988 38.4571 104.945 38.3847 107.265 36.5003C107.482 36.7177 107.772 36.9351 107.989 37.1525C106.685 38.9645 104.728 39.6168 102.843 38.9645C100.452 38.1672 99.2196 36.6452 99.2921 34.2535C99.3646 31.6443 100.597 30.4122 102.699 29.6149C104.728 28.8901 106.902 29.6874 107.989 31.4268Z" fill="#363434"/>
<path d="M155.101 31.1351C154.883 31.425 154.738 31.6424 154.593 31.8599C154.448 31.8599 154.376 31.8599 154.304 31.7874C154.014 31.57 153.724 31.425 153.506 31.2076C152.274 29.903 149.52 30.4103 148.505 32.0048C147.346 33.7443 147.636 36.0636 149.375 37.2957C150.607 38.1654 152.274 38.3103 153.796 37.0058C154.014 36.8608 154.231 36.6434 154.449 36.4259C154.593 36.4984 154.738 36.5709 154.883 36.7158C155.028 36.8608 155.101 37.0058 155.246 37.1507C153.651 39.3975 150.462 39.7599 148.433 38.1654C145.969 36.2085 146.041 33.092 147.636 30.9901C149.158 29.1782 153.361 28.7434 155.101 31.1351Z" fill="#363434"/>
<path d="M126.837 34.7636C126.837 35.1984 126.837 35.4883 126.837 35.8507C125.533 36.1406 124.156 35.8507 122.779 36.0681C122.779 36.648 122.779 37.2278 122.779 37.9525C124.373 37.9525 125.968 38.025 127.562 38.025C127.562 38.3149 127.562 38.6048 127.562 38.8223C126.693 39.0397 123.286 39.1122 121.837 38.8948C121.619 37.9525 121.547 31.8645 121.764 29.7626C122.561 29.4727 125.605 29.4727 127.345 29.6901C127.345 29.9076 127.345 30.1975 127.417 30.5599C125.895 30.5599 124.373 30.5599 122.779 30.5599C122.706 31.9369 122.779 33.2415 122.706 34.6911C124.011 34.836 125.388 34.6911 126.837 34.7636Z" fill="#363434"/>
<path d="M93.4913 31.0654C93.1289 31.2829 92.9115 31.4278 92.6216 31.5728C92.2592 31.2829 91.8968 30.9205 91.5344 30.6306C91.172 30.6306 90.7372 30.6306 90.2298 30.6306C90.0124 30.993 89.7225 31.3553 89.4326 31.6453C89.5775 32.515 90.1573 32.9498 90.8096 33.2398C91.172 33.3847 91.4619 33.6021 91.8243 33.7471C92.984 34.2544 93.9262 34.9792 94.0711 36.7187C93.9986 37.0811 93.7812 37.6609 93.6363 38.1682C91.6069 39.9801 89.0702 39.4003 87.7656 37.2985C87.8381 36.7911 88.2729 36.7187 88.6353 36.5737C89.795 38.0233 90.5198 38.2407 92.4766 37.5159C92.6216 37.226 92.7665 36.9361 92.9115 36.6462C92.7665 35.8489 92.3317 35.3416 91.6794 34.9792C91.0996 34.6168 90.4473 34.3269 89.795 34.037C89.1427 33.6746 88.7078 33.2398 88.4179 32.515C87.7656 31.1379 89.1427 29.3985 90.4472 29.4709C91.5344 29.5434 92.5491 29.4709 93.2014 30.4856C93.3464 30.6306 93.3463 30.7755 93.4913 31.0654Z" fill="#363434"/>
<path d="M66.2436 29.6133C66.606 29.6133 66.9684 29.6133 67.3308 29.6133C67.3308 32.7298 67.3308 35.7014 67.3308 38.8904C67.0409 38.8904 66.6785 38.9628 66.3886 38.9628C66.0987 38.6005 66.0262 31.4977 66.2436 29.6133Z" fill="#363434"/>
<path d="M115.095 38.8925C114.733 38.8925 114.37 38.8925 114.008 38.8925C114.008 35.776 114.008 32.8044 114.008 29.6154C114.298 29.6154 114.66 29.543 114.95 29.543C115.24 29.9054 115.312 37.0806 115.095 38.8925Z" fill="#363434"/>
</svg>
