<svg width="117" height="61" viewBox="0 0 117 61" fill="none" xmlns="http://www.w3.org/2000/svg">
<path d="M78.5622 23.1192C77.8374 22.6119 76.6778 22.2495 75.5906 22.2495C74.3585 22.2495 73.1989 22.6844 72.4016 23.2642V15.7266H68.6328V40.5138H72.4016V27.5404C72.4016 26.6706 73.1264 25.6559 74.5759 25.5835C75.2282 25.5835 76.098 25.8009 76.5328 26.4532C76.9677 27.178 76.9677 28.0477 76.9677 29.0624V40.4413H80.7365V28.9899C80.664 25.5835 80.2292 24.3514 78.5622 23.1192Z" fill="#363434"/>
<path d="M47.9074 31.5996C47.9074 34.0638 47.8349 34.7161 47.8349 34.9335C47.6899 36.3106 47.1101 37.6876 45.5881 37.6876C43.9936 37.6876 43.4138 36.1656 43.3413 34.861C43.3413 34.861 43.2688 34.0638 43.2688 31.5996C43.2688 29.1353 43.3413 28.1207 43.3413 28.1207C43.3413 26.7436 44.0661 25.3665 45.5881 25.3665C47.1101 25.3665 47.8349 26.7436 47.8349 28.1207C47.8349 28.1931 47.9074 29.2078 47.9074 31.5996ZM51.6037 28.7005C51.0964 23.4096 48.0523 22.25 45.5881 22.25C42.1092 22.25 39.9349 24.4968 39.5725 28.7005C39.5725 29.0629 39.5 29.6427 39.5 31.5996C39.5 33.0491 39.5725 34.2087 39.5725 34.4986C39.7899 38.4124 42.0367 40.8766 45.5881 40.8766C49.1395 40.8766 51.3863 38.4124 51.6037 34.4986C51.6037 34.2087 51.6762 33.0491 51.6762 31.5996C51.6762 31.0197 51.6037 29.2078 51.6037 28.7005Z" fill="#363434"/>
<path d="M86.9754 29.4252C86.9754 28.628 86.9754 28.4106 87.0479 28.1931C87.1204 26.6711 87.8451 25.5115 89.3672 25.439C91.1791 25.439 91.614 27.1785 91.6864 28.1931C91.6864 28.7005 91.7589 29.0629 91.7589 29.4252H86.9754ZM91.614 34.3537C91.614 34.3537 91.614 34.6436 91.614 34.9335C91.5415 35.8032 91.1791 37.6876 89.2947 37.6876C87.7002 37.6876 87.1204 36.2381 87.0479 34.861C87.0479 34.4262 86.9754 33.9913 86.9754 32.4693H95.3828C95.3828 32.4693 95.3828 31.2372 95.3828 30.4399C95.3828 30.15 95.3828 29.6427 95.3103 28.628C95.1654 27.0335 94.5855 25.294 93.7158 24.2069C92.6286 22.9023 91.1791 22.25 89.3672 22.25C85.9607 22.25 83.8589 24.4243 83.424 28.7005C83.424 29.0629 83.3516 29.5702 83.3516 31.5996C83.3516 33.0491 83.424 34.2812 83.424 34.4986C83.6415 38.3399 85.9607 40.8766 89.3672 40.8766C92.7736 40.8766 95.0929 38.4849 95.3103 34.3537H91.614V34.3537Z" fill="#363434"/>
<path d="M27.5413 3.04404H88.7121L112.122 30.4404L88.7121 57.402H27.5413L4.05873 30.2955L27.5413 3.04404ZM90.1617 0H26.0193L0 30.223L26.0193 60.2286H90.1617L116.109 30.2955L90.1617 0Z" fill="#363434"/>
<path d="M28.2667 19.0618H30.0786C32.0355 19.0618 33.0502 20.0765 33.1226 21.8884C33.1226 22.0334 33.1226 22.1784 33.1226 22.4683C33.1226 22.8306 33.1226 22.9031 33.1226 23.0481C33.0502 24.1352 32.5428 26.0196 30.296 26.0196H28.3391V19.0618M37.1813 38.9931L36.819 32.905C36.674 30.1509 35.9492 28.5563 34.4997 27.7591C35.5144 27.1793 36.819 25.6573 36.819 22.4683C36.819 17.6848 33.7749 15.9453 30.296 15.9453H24.5703V40.5876H28.2667V29.3536H30.3685C31.5281 29.3536 32.9052 30.3683 33.1226 33.3398L33.485 39.138C33.485 39.9353 33.7024 40.66 33.7024 40.66H37.3988C37.3988 40.5151 37.2538 39.8628 37.1813 38.9931Z" fill="#363434"/>
<path d="M62.5501 34.2105C62.5501 34.5004 62.5502 34.7178 62.4777 34.9353C62.4052 36.3123 61.8979 37.7619 60.2309 37.7619C58.6364 37.7619 58.0566 36.1674 57.9116 35.0077C57.8391 34.283 57.8391 33.7756 57.8391 31.6738C57.8391 29.2096 57.9116 28.6297 57.9116 28.1949C58.0566 26.6729 58.6364 25.4407 60.1584 25.4407C61.7529 25.4407 62.4052 26.8178 62.4052 28.1949C62.4052 28.1949 62.4052 28.5573 62.4777 29.282H66.174C66.174 29.0646 66.174 28.8472 66.174 28.7022C65.7391 23.5563 62.6226 22.3242 60.1584 22.3242C56.6795 22.3242 54.5052 24.571 54.1428 28.7747C54.1428 29.1371 54.0703 29.7169 54.0703 31.6738C54.0703 33.1233 54.1428 34.283 54.1428 34.5729C54.3602 38.4866 56.607 40.8784 60.1584 40.9509C63.7823 40.9509 65.8116 38.7041 66.174 34.5729C66.174 34.4279 66.174 34.3554 66.174 34.2105H62.5501" fill="#363434"/>
</svg>
