<svg width="172" height="26" viewBox="0 0 172 26" fill="none" xmlns="http://www.w3.org/2000/svg">
<path fill-rule="evenodd" clip-rule="evenodd" d="M94.0781 11.6001C94.0781 11.6001 92.4111 10.5854 91.3964 10.1506C91.3964 10.1506 88.2074 8.70101 87.5551 7.97624C87.5551 7.97624 86.323 6.8166 87.0478 5.43954C87.0478 5.43954 87.3377 4.56981 88.6423 4.56981C88.6423 4.56981 90.3817 4.64229 90.3817 6.09183V8.04872H96.5423V5.14963C96.5423 5.14963 97.0496 0.36613 89.2946 0.148698C89.2946 0.148698 83.2065 -0.213688 81.467 3.04779C81.467 3.04779 80.8147 3.77256 80.8147 6.30926V8.12119C80.8147 8.12119 80.7422 10.223 81.8294 11.6001C81.8294 11.6001 82.4092 12.4698 83.9312 13.4845C83.9312 13.4845 86.9753 15.1515 88.7872 16.0937C88.7872 16.0937 90.6716 17.1808 90.3817 18.8478C90.3817 18.8478 90.2368 20.5873 88.4248 20.5148C88.4248 20.5148 86.7579 20.4423 86.7579 18.7753V16.8185H80.2349V19.7176C80.2349 19.7176 80.0175 25.2258 88.4248 25.2258C88.4248 25.2258 96.4698 25.3708 96.8322 19.5726V17.2533C96.9771 17.0359 97.1946 13.4845 94.0781 11.6001Z" fill="#363434"/>
<path fill-rule="evenodd" clip-rule="evenodd" d="M62.6911 0.796875L60.5893 13.6978H60.1544L58.1251 0.94183H47.9058L47.3984 24.2795H53.4865L53.559 6.66753H53.9939L57.2553 24.2795H63.6333L66.8223 6.66753H67.2572L67.4022 24.2795H73.4902L72.8379 0.796875H62.6911Z" fill="#363434"/>
<path fill-rule="evenodd" clip-rule="evenodd" d="M26.5275 0.941406L22.4688 24.2066H28.9917L31.3834 6.15977H31.9633L34.355 24.2066H40.878L36.8192 0.941406H26.5275Z" fill="#363434"/>
<path fill-rule="evenodd" clip-rule="evenodd" d="M163.73 11.3073V14.7138H165.397V18.4101C165.397 20.222 163.875 20.222 163.875 20.222C161.991 20.222 162.063 18.4826 162.063 18.4826V5.79907C162.063 4.49448 163.73 4.422 163.73 4.422C165.325 4.422 165.325 6.0165 165.325 6.0165V7.97339H171.485C171.703 4.20457 170.906 3.26237 170.906 3.26237C169.384 -0.144063 163.585 0.000891682 163.585 0.000891682C154.743 0.000891682 155.685 6.81375 155.685 6.81375V19.1349C155.903 25.5129 164.6 24.8606 164.745 24.8606C168.659 24.4257 169.818 23.1936 169.818 23.1936C170.906 22.3964 171.195 21.3092 171.195 21.3092C171.485 20.6569 171.558 18.6275 171.558 18.6275V11.3798H163.73V11.3073Z" fill="#363434"/>
<path fill-rule="evenodd" clip-rule="evenodd" d="M143.285 15.0749H142.995L136.762 0.796875H129.297V24.2795H135.385L135.023 10.0015H135.312L141.763 24.2795H149.011V0.796875H142.85L143.285 15.0749Z" fill="#363434"/>
<path fill-rule="evenodd" clip-rule="evenodd" d="M114.44 18.4088C114.44 18.4088 114.512 20.3657 112.773 20.3657C112.773 20.3657 110.889 20.4382 110.889 18.4813V0.869353H104.221V18.3364C104.221 18.3364 103.568 24.9318 112.918 24.9318C112.918 24.9318 121.035 25.0043 121.035 18.6263V0.796875H114.512V18.4088H114.44Z" fill="#363434"/>
<path fill-rule="evenodd" clip-rule="evenodd" d="M13.7712 11.5969C13.7712 11.5969 12.1042 10.5822 11.0895 10.1473C11.0895 10.1473 7.90054 8.69781 7.24825 7.97303C7.24825 7.97303 6.01614 6.8134 6.74091 5.43633C6.74091 5.43633 7.03082 4.5666 8.33541 4.5666C8.33541 4.5666 10.0749 4.63908 10.0749 6.08863V8.04551H16.2354V5.14642C16.2354 5.14642 16.6703 0.362925 8.9877 0.145493C8.9877 0.145493 8.40788 0.0730161 7.53816 0.145493C7.53816 0.145493 2.89962 0.362925 1.23264 2.97211C1.23264 2.97211 1.23264 2.97211 1.23264 3.04458C1.23264 3.04458 0.580344 3.76935 0.580344 6.30606V8.11799C0.580344 8.11799 0.507866 10.2198 1.59502 11.5969C1.59502 11.5969 2.17484 12.4666 3.69686 13.4813C3.69686 13.4813 6.74091 15.1483 8.55284 16.0905C8.55284 16.0905 10.4372 17.1776 10.1473 18.8446C10.1473 18.8446 10.0024 20.5841 8.19045 20.5116C8.19045 20.5116 6.52348 20.4391 6.52348 18.7721V16.8153H0.000525904V19.7143C0.000525904 19.7143 -0.216906 25.2226 8.19045 25.2226C8.19045 25.2226 16.2354 25.3676 16.5978 19.5694V17.2501C16.6703 17.0327 16.8877 13.4813 13.7712 11.5969Z" fill="#363434"/>
</svg>
