<svg width="184" height="184" viewBox="0 0 184 184" fill="none" xmlns="http://www.w3.org/2000/svg">
<mask id="mask0_184_160" style="mask-type:alpha" maskUnits="userSpaceOnUse" x="0" y="0" width="184" height="184">
<rect width="184" height="184" fill="black"/>
</mask>
<g mask="url(#mask0_184_160)">
<path d="M-33.2349 5.49121H336.692" stroke="white" stroke-miterlimit="10"/>
<path d="M-33.2349 13.8237H336.692" stroke="white" stroke-miterlimit="10"/>
<path d="M-33.2349 22.1089H336.692" stroke="white" stroke-miterlimit="10"/>
<path d="M-33.2349 30.3936H336.692" stroke="white" stroke-miterlimit="10"/>
<path d="M-33.2349 38.6785H336.692" stroke="white" stroke-miterlimit="10"/>
<path d="M-33.2349 46.9634H336.692" stroke="white" stroke-miterlimit="10"/>
<path d="M-33.2349 55.2964H336.692" stroke="white" stroke-miterlimit="10"/>
<path d="M-33.2349 63.5813H336.692" stroke="white" stroke-miterlimit="10"/>
<path d="M-33.2349 71.8657H336.692" stroke="white" stroke-miterlimit="10"/>
<path d="M-33.2349 80.1506H336.692" stroke="white" stroke-miterlimit="10"/>
<path d="M-33.2349 88.4355H336.692" stroke="white" stroke-miterlimit="10"/>
<path d="M-33.2349 96.7686H336.692" stroke="white" stroke-miterlimit="10"/>
<path d="M-33.2349 105.053H336.692" stroke="white" stroke-miterlimit="10"/>
<path d="M-33.2349 113.338H336.692" stroke="white" stroke-miterlimit="10"/>
<path d="M-33.2349 121.623H336.692" stroke="white" stroke-miterlimit="10"/>
<path d="M-33.2349 129.908H336.692" stroke="white" stroke-miterlimit="10"/>
<path d="M-33.2349 138.241H336.692" stroke="white" stroke-miterlimit="10"/>
<path d="M-33.2349 146.526H336.692" stroke="white" stroke-miterlimit="10"/>
<path d="M-33.2349 154.811H336.692" stroke="white" stroke-miterlimit="10"/>
<path d="M-33.2349 163.095H336.692" stroke="white" stroke-miterlimit="10"/>
<path d="M-33.2349 171.38H336.692" stroke="white" stroke-miterlimit="10"/>
<path d="M-33.2349 179.713H336.692" stroke="white" stroke-miterlimit="10"/>
</g>
</svg>
