<svg width="184" height="184" viewBox="0 0 184 184" fill="none" xmlns="http://www.w3.org/2000/svg">
<mask id="mask0_184_198" style="mask-type:alpha" maskUnits="userSpaceOnUse" x="0" y="0" width="184" height="184">
<rect width="184" height="184" fill="black"/>
</mask>
<g mask="url(#mask0_184_198)">
<path d="M-7.33252 12.084H0.374844" stroke="white" stroke-miterlimit="10"/>
<path d="M10.1289 12.084H17.8362" stroke="white" stroke-miterlimit="10"/>
<path d="M13.9829 8.23047V15.9378" stroke="white" stroke-miterlimit="10"/>
<path d="M27.5884 12.084H35.2957" stroke="white" stroke-miterlimit="10"/>
<path d="M31.4419 8.23047V15.9378" stroke="white" stroke-miterlimit="10"/>
<path d="M45.0488 12.084H52.7562" stroke="white" stroke-miterlimit="10"/>
<path d="M48.9023 8.23047V15.9378" stroke="white" stroke-miterlimit="10"/>
<path d="M62.5098 12.084H70.2171" stroke="white" stroke-miterlimit="10"/>
<path d="M66.3638 8.23047V15.9378" stroke="white" stroke-miterlimit="10"/>
<path d="M79.9219 12.084H87.6292" stroke="white" stroke-miterlimit="10"/>
<path d="M83.7754 8.23047V15.9378" stroke="white" stroke-miterlimit="10"/>
<path d="M-7.33252 29.7825H0.374844" stroke="white" stroke-miterlimit="10"/>
<path d="M10.1289 29.7825H17.8362" stroke="white" stroke-miterlimit="10"/>
<path d="M13.9829 25.929V33.6363" stroke="white" stroke-miterlimit="10"/>
<path d="M27.5889 29.7825H35.2962" stroke="white" stroke-miterlimit="10"/>
<path d="M31.4424 25.929V33.6363" stroke="white" stroke-miterlimit="10"/>
<path d="M45.0488 29.7825H52.7562" stroke="white" stroke-miterlimit="10"/>
<path d="M48.9023 25.929V33.6363" stroke="white" stroke-miterlimit="10"/>
<path d="M62.5098 29.7825H70.2171" stroke="white" stroke-miterlimit="10"/>
<path d="M66.3638 25.929V33.6363" stroke="white" stroke-miterlimit="10"/>
<path d="M79.9224 29.7825H87.6297" stroke="white" stroke-miterlimit="10"/>
<path d="M83.7759 25.929V33.6363" stroke="white" stroke-miterlimit="10"/>
<path d="M-7.33252 47.4329H0.374844" stroke="white" stroke-miterlimit="10"/>
<path d="M10.1289 47.4329H17.8362" stroke="white" stroke-miterlimit="10"/>
<path d="M13.9829 43.5793V51.2867" stroke="white" stroke-miterlimit="10"/>
<path d="M27.5889 47.4329H35.2962" stroke="white" stroke-miterlimit="10"/>
<path d="M31.4424 43.5793V51.2867" stroke="white" stroke-miterlimit="10"/>
<path d="M45.0488 47.4329H52.7562" stroke="white" stroke-miterlimit="10"/>
<path d="M48.9023 43.5793V51.2867" stroke="white" stroke-miterlimit="10"/>
<path d="M62.5098 47.4329H70.2171" stroke="white" stroke-miterlimit="10"/>
<path d="M66.3638 43.5793V51.2867" stroke="white" stroke-miterlimit="10"/>
<path d="M79.9224 47.4329H87.6297" stroke="white" stroke-miterlimit="10"/>
<path d="M83.7759 43.5793V51.2867" stroke="white" stroke-miterlimit="10"/>
<path d="M-7.33252 65.1309H0.374844" stroke="white" stroke-miterlimit="10"/>
<path d="M10.1289 65.1309H17.8362" stroke="white" stroke-miterlimit="10"/>
<path d="M13.9829 61.2773V68.9847" stroke="white" stroke-miterlimit="10"/>
<path d="M27.5889 65.1309H35.2962" stroke="white" stroke-miterlimit="10"/>
<path d="M31.4424 61.2773V68.9847" stroke="white" stroke-miterlimit="10"/>
<path d="M45.0488 65.1309H52.7562" stroke="white" stroke-miterlimit="10"/>
<path d="M48.9023 61.2773V68.9847" stroke="white" stroke-miterlimit="10"/>
<path d="M62.5098 65.1309H70.2171" stroke="white" stroke-miterlimit="10"/>
<path d="M66.3638 61.2773V68.9847" stroke="white" stroke-miterlimit="10"/>
<path d="M79.9224 65.1309H87.6297" stroke="white" stroke-miterlimit="10"/>
<path d="M83.7759 61.2773V68.9847" stroke="white" stroke-miterlimit="10"/>
<path d="M-7.33252 82.7822H0.374844" stroke="white" stroke-miterlimit="10"/>
<path d="M10.1289 82.7822H17.8362" stroke="white" stroke-miterlimit="10"/>
<path d="M13.9829 78.9282V86.6356" stroke="white" stroke-miterlimit="10"/>
<path d="M27.5884 82.7822H35.2957" stroke="white" stroke-miterlimit="10"/>
<path d="M31.4419 78.9282V86.6356" stroke="white" stroke-miterlimit="10"/>
<path d="M45.0488 82.7822H52.7562" stroke="white" stroke-miterlimit="10"/>
<path d="M48.9023 78.9282V86.6356" stroke="white" stroke-miterlimit="10"/>
<path d="M62.5098 82.7822H70.2171" stroke="white" stroke-miterlimit="10"/>
<path d="M66.3638 78.9282V86.6356" stroke="white" stroke-miterlimit="10"/>
<path d="M79.9219 82.7822H87.6292" stroke="white" stroke-miterlimit="10"/>
<path d="M83.7754 78.9282V86.6356" stroke="white" stroke-miterlimit="10"/>
<path d="M98.1455 12.084H105.853" stroke="white" stroke-miterlimit="10"/>
<path d="M102 8.23047V15.9378" stroke="white" stroke-miterlimit="10"/>
<path d="M115.605 12.084H123.312" stroke="white" stroke-miterlimit="10"/>
<path d="M119.459 8.23047V15.9378" stroke="white" stroke-miterlimit="10"/>
<path d="M133.065 12.084H140.773" stroke="white" stroke-miterlimit="10"/>
<path d="M136.919 8.23047V15.9378" stroke="white" stroke-miterlimit="10"/>
<path d="M150.526 12.084H158.234" stroke="white" stroke-miterlimit="10"/>
<path d="M154.38 8.23047V15.9378" stroke="white" stroke-miterlimit="10"/>
<path d="M167.939 12.084H175.646" stroke="white" stroke-miterlimit="10"/>
<path d="M171.792 8.23047V15.9378" stroke="white" stroke-miterlimit="10"/>
<path d="M98.1455 29.7822H105.853" stroke="white" stroke-miterlimit="10"/>
<path d="M102 25.9287V33.6361" stroke="white" stroke-miterlimit="10"/>
<path d="M115.605 29.7825H123.312" stroke="white" stroke-miterlimit="10"/>
<path d="M119.459 25.929V33.6363" stroke="white" stroke-miterlimit="10"/>
<path d="M133.065 29.7825H140.773" stroke="white" stroke-miterlimit="10"/>
<path d="M136.919 25.929V33.6363" stroke="white" stroke-miterlimit="10"/>
<path d="M150.526 29.7825H158.234" stroke="white" stroke-miterlimit="10"/>
<path d="M154.38 25.929V33.6363" stroke="white" stroke-miterlimit="10"/>
<path d="M167.939 29.7825H175.646" stroke="white" stroke-miterlimit="10"/>
<path d="M171.792 25.929V33.6363" stroke="white" stroke-miterlimit="10"/>
<path d="M98.1455 47.4331H105.853" stroke="white" stroke-miterlimit="10"/>
<path d="M102 43.5796V51.2869" stroke="white" stroke-miterlimit="10"/>
<path d="M115.605 47.4331H123.312" stroke="white" stroke-miterlimit="10"/>
<path d="M119.459 43.5796V51.2869" stroke="white" stroke-miterlimit="10"/>
<path d="M133.065 47.4331H140.773" stroke="white" stroke-miterlimit="10"/>
<path d="M136.919 43.5796V51.2869" stroke="white" stroke-miterlimit="10"/>
<path d="M150.526 47.4331H158.234" stroke="white" stroke-miterlimit="10"/>
<path d="M154.38 43.5796V51.2869" stroke="white" stroke-miterlimit="10"/>
<path d="M167.939 47.4331H175.646" stroke="white" stroke-miterlimit="10"/>
<path d="M171.792 43.5796V51.2869" stroke="white" stroke-miterlimit="10"/>
<path d="M98.1455 65.1309H105.853" stroke="white" stroke-miterlimit="10"/>
<path d="M102 61.2773V68.9847" stroke="white" stroke-miterlimit="10"/>
<path d="M115.605 65.1309H123.312" stroke="white" stroke-miterlimit="10"/>
<path d="M119.459 61.2773V68.9847" stroke="white" stroke-miterlimit="10"/>
<path d="M133.065 65.1309H140.773" stroke="white" stroke-miterlimit="10"/>
<path d="M136.919 61.2773V68.9847" stroke="white" stroke-miterlimit="10"/>
<path d="M150.526 65.1309H158.234" stroke="white" stroke-miterlimit="10"/>
<path d="M154.38 61.2773V68.9847" stroke="white" stroke-miterlimit="10"/>
<path d="M167.939 65.1309H175.646" stroke="white" stroke-miterlimit="10"/>
<path d="M171.792 61.2773V68.9847" stroke="white" stroke-miterlimit="10"/>
<path d="M98.1455 82.7825H105.853" stroke="white" stroke-miterlimit="10"/>
<path d="M102 78.9285V86.6358" stroke="white" stroke-miterlimit="10"/>
<path d="M115.605 82.7822H123.313" stroke="white" stroke-miterlimit="10"/>
<path d="M119.459 78.9282V86.6356" stroke="white" stroke-miterlimit="10"/>
<path d="M133.065 82.7822H140.773" stroke="white" stroke-miterlimit="10"/>
<path d="M136.919 78.9282V86.6356" stroke="white" stroke-miterlimit="10"/>
<path d="M150.526 82.7822H158.234" stroke="white" stroke-miterlimit="10"/>
<path d="M154.38 78.9282V86.6356" stroke="white" stroke-miterlimit="10"/>
<path d="M167.939 82.7822H175.646" stroke="white" stroke-miterlimit="10"/>
<path d="M171.792 78.9282V86.6356" stroke="white" stroke-miterlimit="10"/>
<path d="M-7.33252 100.908H0.374844" stroke="white" stroke-miterlimit="10"/>
<path d="M10.1289 100.908H17.8362" stroke="white" stroke-miterlimit="10"/>
<path d="M13.9829 97.0547V104.762" stroke="white" stroke-miterlimit="10"/>
<path d="M27.5889 100.908H35.2962" stroke="white" stroke-miterlimit="10"/>
<path d="M31.4424 97.0547V104.762" stroke="white" stroke-miterlimit="10"/>
<path d="M45.0488 100.908H52.7562" stroke="white" stroke-miterlimit="10"/>
<path d="M48.9023 97.0547V104.762" stroke="white" stroke-miterlimit="10"/>
<path d="M62.5098 100.908H70.2171" stroke="white" stroke-miterlimit="10"/>
<path d="M66.3638 97.0547V104.762" stroke="white" stroke-miterlimit="10"/>
<path d="M79.9224 100.908H87.6297" stroke="white" stroke-miterlimit="10"/>
<path d="M83.7759 97.0547V104.762" stroke="white" stroke-miterlimit="10"/>
<path d="M-7.33252 118.607H0.374844" stroke="white" stroke-miterlimit="10"/>
<path d="M10.1289 118.607H17.8362" stroke="white" stroke-miterlimit="10"/>
<path d="M13.9829 114.753V122.46" stroke="white" stroke-miterlimit="10"/>
<path d="M27.5889 118.607H35.2962" stroke="white" stroke-miterlimit="10"/>
<path d="M31.4424 114.753V122.46" stroke="white" stroke-miterlimit="10"/>
<path d="M45.0488 118.607H52.7562" stroke="white" stroke-miterlimit="10"/>
<path d="M48.9023 114.753V122.46" stroke="white" stroke-miterlimit="10"/>
<path d="M62.5098 118.607H70.2171" stroke="white" stroke-miterlimit="10"/>
<path d="M66.3638 114.753V122.46" stroke="white" stroke-miterlimit="10"/>
<path d="M79.9224 118.607H87.6297" stroke="white" stroke-miterlimit="10"/>
<path d="M83.7759 114.753V122.46" stroke="white" stroke-miterlimit="10"/>
<path d="M-7.33252 136.257H0.374844" stroke="white" stroke-miterlimit="10"/>
<path d="M10.1289 136.257H17.8362" stroke="white" stroke-miterlimit="10"/>
<path d="M13.9829 132.451V140.111" stroke="white" stroke-miterlimit="10"/>
<path d="M27.5889 136.257H35.2962" stroke="white" stroke-miterlimit="10"/>
<path d="M31.4424 132.451V140.111" stroke="white" stroke-miterlimit="10"/>
<path d="M45.0488 136.258H52.7562" stroke="white" stroke-miterlimit="10"/>
<path d="M48.9023 132.451V140.111" stroke="white" stroke-miterlimit="10"/>
<path d="M62.5098 136.258H70.2171" stroke="white" stroke-miterlimit="10"/>
<path d="M66.3638 132.451V140.111" stroke="white" stroke-miterlimit="10"/>
<path d="M79.9224 136.258H87.6297" stroke="white" stroke-miterlimit="10"/>
<path d="M83.7759 132.451V140.111" stroke="white" stroke-miterlimit="10"/>
<path d="M-7.33252 153.956H0.374844" stroke="white" stroke-miterlimit="10"/>
<path d="M10.1289 153.956H17.8362" stroke="white" stroke-miterlimit="10"/>
<path d="M13.9829 150.102V157.81" stroke="white" stroke-miterlimit="10"/>
<path d="M27.5884 153.956H35.2957" stroke="white" stroke-miterlimit="10"/>
<path d="M31.4419 150.102V157.81" stroke="white" stroke-miterlimit="10"/>
<path d="M45.0488 153.956H52.7562" stroke="white" stroke-miterlimit="10"/>
<path d="M48.9023 150.102V157.81" stroke="white" stroke-miterlimit="10"/>
<path d="M62.5093 153.956H70.2166" stroke="white" stroke-miterlimit="10"/>
<path d="M66.3633 150.102V157.81" stroke="white" stroke-miterlimit="10"/>
<path d="M79.9219 153.956H87.6292" stroke="white" stroke-miterlimit="10"/>
<path d="M83.7754 150.102V157.81" stroke="white" stroke-miterlimit="10"/>
<path d="M-7.33252 171.654H0.374844" stroke="white" stroke-miterlimit="10"/>
<path d="M10.1289 171.654H17.8362" stroke="white" stroke-miterlimit="10"/>
<path d="M13.9829 167.801V175.508" stroke="white" stroke-miterlimit="10"/>
<path d="M27.5889 171.654H35.2962" stroke="white" stroke-miterlimit="10"/>
<path d="M31.4424 167.801V175.508" stroke="white" stroke-miterlimit="10"/>
<path d="M45.0488 171.654H52.7562" stroke="white" stroke-miterlimit="10"/>
<path d="M48.9023 167.801V175.508" stroke="white" stroke-miterlimit="10"/>
<path d="M62.5098 171.654H70.2171" stroke="white" stroke-miterlimit="10"/>
<path d="M66.3638 167.801V175.508" stroke="white" stroke-miterlimit="10"/>
<path d="M79.9224 171.654H87.6297" stroke="white" stroke-miterlimit="10"/>
<path d="M83.7759 167.801V175.508" stroke="white" stroke-miterlimit="10"/>
<path d="M98.1455 100.908H105.853" stroke="white" stroke-miterlimit="10"/>
<path d="M102 97.0549V104.762" stroke="white" stroke-miterlimit="10"/>
<path d="M115.605 100.908H123.312" stroke="white" stroke-miterlimit="10"/>
<path d="M119.459 97.0547V104.762" stroke="white" stroke-miterlimit="10"/>
<path d="M133.065 100.908H140.773" stroke="white" stroke-miterlimit="10"/>
<path d="M136.919 97.0547V104.762" stroke="white" stroke-miterlimit="10"/>
<path d="M150.526 100.908H158.234" stroke="white" stroke-miterlimit="10"/>
<path d="M154.38 97.0547V104.762" stroke="white" stroke-miterlimit="10"/>
<path d="M167.939 100.908H175.646" stroke="white" stroke-miterlimit="10"/>
<path d="M171.792 97.0547V104.762" stroke="white" stroke-miterlimit="10"/>
<path d="M98.1455 118.607H105.853" stroke="white" stroke-miterlimit="10"/>
<path d="M102 114.753V122.461" stroke="white" stroke-miterlimit="10"/>
<path d="M115.605 118.607H123.312" stroke="white" stroke-miterlimit="10"/>
<path d="M119.459 114.753V122.46" stroke="white" stroke-miterlimit="10"/>
<path d="M133.065 118.607H140.773" stroke="white" stroke-miterlimit="10"/>
<path d="M136.919 114.753V122.46" stroke="white" stroke-miterlimit="10"/>
<path d="M150.526 118.607H158.234" stroke="white" stroke-miterlimit="10"/>
<path d="M154.38 114.753V122.46" stroke="white" stroke-miterlimit="10"/>
<path d="M167.939 118.607H175.646" stroke="white" stroke-miterlimit="10"/>
<path d="M171.792 114.753V122.46" stroke="white" stroke-miterlimit="10"/>
<path d="M98.1455 136.257H105.853" stroke="white" stroke-miterlimit="10"/>
<path d="M102 132.451V140.111" stroke="white" stroke-miterlimit="10"/>
<path d="M115.605 136.258H123.313" stroke="white" stroke-miterlimit="10"/>
<path d="M119.459 132.451V140.111" stroke="white" stroke-miterlimit="10"/>
<path d="M133.065 136.258H140.773" stroke="white" stroke-miterlimit="10"/>
<path d="M136.919 132.451V140.111" stroke="white" stroke-miterlimit="10"/>
<path d="M150.526 136.257H158.234" stroke="white" stroke-miterlimit="10"/>
<path d="M154.38 132.451V140.111" stroke="white" stroke-miterlimit="10"/>
<path d="M167.939 136.258H175.646" stroke="white" stroke-miterlimit="10"/>
<path d="M171.792 132.451V140.111" stroke="white" stroke-miterlimit="10"/>
<path d="M98.1455 153.956H105.853" stroke="white" stroke-miterlimit="10"/>
<path d="M102 150.102V157.81" stroke="white" stroke-miterlimit="10"/>
<path d="M115.605 153.956H123.313" stroke="white" stroke-miterlimit="10"/>
<path d="M119.459 150.102V157.81" stroke="white" stroke-miterlimit="10"/>
<path d="M133.065 153.956H140.773" stroke="white" stroke-miterlimit="10"/>
<path d="M136.919 150.102V157.81" stroke="white" stroke-miterlimit="10"/>
<path d="M150.526 153.956H158.234" stroke="white" stroke-miterlimit="10"/>
<path d="M154.38 150.102V157.81" stroke="white" stroke-miterlimit="10"/>
<path d="M167.939 153.956H175.646" stroke="white" stroke-miterlimit="10"/>
<path d="M171.792 150.102V157.81" stroke="white" stroke-miterlimit="10"/>
<path d="M98.1455 171.654H105.853" stroke="white" stroke-miterlimit="10"/>
<path d="M102 167.801V175.508" stroke="white" stroke-miterlimit="10"/>
<path d="M115.605 171.654H123.312" stroke="white" stroke-miterlimit="10"/>
<path d="M119.459 167.801V175.508" stroke="white" stroke-miterlimit="10"/>
<path d="M133.065 171.654H140.773" stroke="white" stroke-miterlimit="10"/>
<path d="M136.919 167.801V175.508" stroke="white" stroke-miterlimit="10"/>
<path d="M150.526 171.654H158.234" stroke="white" stroke-miterlimit="10"/>
<path d="M154.38 167.801V175.508" stroke="white" stroke-miterlimit="10"/>
<path d="M167.939 171.654H175.646" stroke="white" stroke-miterlimit="10"/>
<path d="M171.792 167.801V175.508" stroke="white" stroke-miterlimit="10"/>
</g>
</svg>
