<svg width="184" height="184" viewBox="0 0 184 184" fill="none" xmlns="http://www.w3.org/2000/svg">
<mask id="mask0_184_822" style="mask-type:alpha" maskUnits="userSpaceOnUse" x="0" y="0" width="184" height="184">
<rect width="184" height="184" fill="black"/>
</mask>
<g mask="url(#mask0_184_822)">
<path d="M315.856 191.589C290.879 191.589 290.879 182.074 265.901 182.074C240.924 182.074 240.924 191.589 215.994 191.589C191.016 191.589 191.016 182.074 166.039 182.074C141.061 182.074 141.061 191.589 116.084 191.589C91.1061 191.589 91.1061 182.074 66.1285 182.074C41.151 182.074 41.151 191.589 16.1734 191.589C-8.80413 191.589 -8.80413 182.074 -33.7817 182.074C-58.7592 182.074 -58.7592 191.589 -83.7368 191.589C-108.714 191.589 -108.714 182.074 -133.692 182.074" stroke="white" stroke-miterlimit="10"/>
<path d="M315.856 181.503C290.879 181.503 290.879 171.988 265.901 171.988C240.924 171.988 240.924 181.503 215.994 181.503C191.016 181.503 191.016 171.988 166.039 171.988C141.061 171.988 141.061 181.503 116.084 181.503C91.1061 181.503 91.1061 171.988 66.1285 171.988C41.151 171.988 41.151 181.503 16.1734 181.503C-8.80413 181.503 -8.80413 171.988 -33.7817 171.988C-58.7592 171.988 -58.7592 181.503 -83.7368 181.503C-108.714 181.503 -108.714 171.988 -133.692 171.988" stroke="white" stroke-miterlimit="10"/>
<path d="M315.856 171.417C290.879 171.417 290.879 161.901 265.901 161.901C240.924 161.901 240.924 171.417 215.994 171.417C191.016 171.417 191.016 161.901 166.039 161.901C141.061 161.901 141.061 171.417 116.084 171.417C91.1061 171.417 91.1061 161.901 66.1285 161.901C41.151 161.901 41.151 171.417 16.1734 171.417C-8.80413 171.417 -8.80413 161.901 -33.7817 161.901C-58.7592 161.901 -58.7592 171.417 -83.7368 171.417C-108.714 171.417 -108.714 161.901 -133.692 161.901" stroke="white" stroke-miterlimit="10"/>
<path d="M315.856 161.378C290.879 161.378 290.879 151.863 265.901 151.863C240.924 151.863 240.924 161.378 215.994 161.378C191.016 161.378 191.016 151.863 166.039 151.863C141.061 151.863 141.061 161.378 116.084 161.378C91.1061 161.378 91.1061 151.863 66.1285 151.863C41.151 151.863 41.151 161.378 16.1734 161.378C-8.80413 161.378 -8.80413 151.863 -33.7817 151.863C-58.7592 151.863 -58.7592 161.378 -83.7368 161.378C-108.714 161.378 -108.714 151.863 -133.692 151.863" stroke="white" stroke-miterlimit="10"/>
<path d="M315.856 151.292C290.879 151.292 290.879 141.777 265.901 141.777C240.924 141.777 240.924 151.292 215.994 151.292C191.016 151.292 191.016 141.777 166.039 141.777C141.061 141.777 141.061 151.292 116.084 151.292C91.1061 151.292 91.1061 141.777 66.1285 141.777C41.151 141.777 41.151 151.292 16.1734 151.292C-8.80413 151.292 -8.80413 141.777 -33.7817 141.777C-58.7592 141.777 -58.7592 151.292 -83.7368 151.292C-108.714 151.292 -108.714 141.777 -133.692 141.777" stroke="white" stroke-miterlimit="10"/>
<path d="M315.858 141.206C290.88 141.206 290.88 131.691 265.903 131.691C240.925 131.691 240.925 141.206 215.995 141.206C191.018 141.206 191.018 131.691 166.04 131.691C141.062 131.691 141.062 141.206 116.085 141.206C91.1074 141.206 91.1074 131.691 66.1298 131.691C41.1523 131.691 41.1523 141.206 16.1747 141.206C-8.80282 141.206 -8.80283 131.691 -33.7804 131.691C-58.7579 131.691 -58.7579 141.206 -83.7355 141.206C-108.713 141.206 -108.57 131.691 -133.548 131.691" stroke="white" stroke-miterlimit="10"/>
<path d="M315.856 131.12C290.879 131.12 290.879 121.604 265.901 121.604C240.924 121.604 240.924 131.12 215.994 131.12C191.016 131.12 191.016 121.604 166.039 121.604C141.061 121.604 141.061 131.12 116.084 131.12C91.1061 131.12 91.1061 121.604 66.1285 121.604C41.151 121.604 41.151 131.12 16.1734 131.12C-8.80413 131.12 -8.80413 121.604 -33.7817 121.604C-58.7592 121.604 -58.7592 131.12 -83.7368 131.12C-108.714 131.12 -108.714 121.604 -133.692 121.604" stroke="white" stroke-miterlimit="10"/>
<path d="M315.856 121.034C290.879 121.034 290.879 111.518 265.901 111.518C240.924 111.518 240.924 121.034 215.994 121.034C191.016 121.034 191.016 111.518 166.039 111.518C141.061 111.518 141.061 121.034 116.084 121.034C91.1061 121.034 91.1061 111.518 66.1285 111.518C41.151 111.518 41.151 121.034 16.1734 121.034C-8.80413 121.034 -8.80413 111.518 -33.7817 111.518C-58.7592 111.518 -58.7592 121.034 -83.7368 121.034C-108.714 121.034 -108.714 111.518 -133.692 111.518" stroke="white" stroke-miterlimit="10"/>
<path d="M315.856 110.995C290.879 110.995 290.879 101.48 265.901 101.48C240.924 101.48 240.924 110.995 215.994 110.995C191.016 110.995 191.016 101.48 166.039 101.48C141.061 101.48 141.061 110.995 116.084 110.995C91.1061 110.995 91.1061 101.48 66.1285 101.48C41.151 101.48 41.151 110.995 16.1734 110.995C-8.80413 110.995 -8.80413 101.48 -33.7817 101.48C-58.7592 101.48 -58.7592 110.995 -83.7368 110.995C-108.714 110.995 -108.714 101.48 -133.692 101.48" stroke="white" stroke-miterlimit="10"/>
<path d="M315.856 100.909C290.879 100.909 290.879 91.3938 265.901 91.3938C240.924 91.3938 240.924 100.909 215.994 100.909C191.016 100.909 191.016 91.3938 166.039 91.3938C141.061 91.3938 141.061 100.909 116.084 100.909C91.1061 100.909 91.1061 91.3938 66.1285 91.3938C41.151 91.3938 41.151 100.909 16.1734 100.909C-8.80413 100.909 -8.80413 91.3938 -33.7817 91.3938C-58.7592 91.3938 -58.7592 100.909 -83.7368 100.909C-108.714 100.909 -108.714 91.3938 -133.692 91.3938" stroke="white" stroke-miterlimit="10"/>
<path d="M315.856 90.8224C290.879 90.8224 290.879 81.3071 265.901 81.3071C240.924 81.3071 240.924 90.8224 215.994 90.8224C191.016 90.8224 191.016 81.3071 166.039 81.3071C141.061 81.3071 141.061 90.8224 116.084 90.8224C91.1061 90.8224 91.1061 81.3071 66.1285 81.3071C41.151 81.3071 41.151 90.8224 16.1734 90.8224C-8.80413 90.8224 -8.80413 81.3071 -33.7817 81.3071C-58.7592 81.3071 -58.7592 90.8224 -83.7368 90.8224C-108.714 90.8224 -108.714 81.3071 -133.692 81.3071" stroke="white" stroke-miterlimit="10"/>
<path d="M315.856 80.7364C290.879 80.7364 290.879 71.2212 265.901 71.2212C240.924 71.2212 240.924 80.7364 215.994 80.7364C191.016 80.7364 191.016 71.2212 166.039 71.2212C141.061 71.2212 141.061 80.7364 116.084 80.7364C91.1061 80.7364 91.1061 71.2212 66.1285 71.2212C41.151 71.2212 41.151 80.7364 16.1734 80.7364C-8.80413 80.7364 -8.80413 71.2212 -33.7817 71.2212C-58.7592 71.2212 -58.7592 80.7364 -83.7368 80.7364C-108.714 80.7364 -108.714 71.2212 -133.692 71.2212" stroke="white" stroke-miterlimit="10"/>
<path d="M315.856 70.6503C290.879 70.6503 290.879 61.135 265.901 61.135C240.924 61.135 240.924 70.6503 215.994 70.6503C191.016 70.6503 191.016 61.135 166.039 61.135C141.061 61.135 141.061 70.6503 116.084 70.6503C91.1061 70.6503 91.1061 61.135 66.1285 61.135C41.151 61.135 41.151 70.6503 16.1734 70.6503C-8.80413 70.6503 -8.80413 61.135 -33.7817 61.135C-58.7592 61.135 -58.7592 70.6503 -83.7368 70.6503C-108.714 70.6503 -108.714 61.135 -133.692 61.135" stroke="white" stroke-miterlimit="10"/>
<path d="M315.856 60.6117C290.879 60.6117 290.879 51.0964 265.901 51.0964C240.924 51.0964 240.924 60.6117 215.994 60.6117C191.016 60.6117 191.016 51.0964 166.039 51.0964C141.061 51.0964 141.061 60.6117 116.084 60.6117C91.1061 60.6117 91.1061 51.0964 66.1285 51.0964C41.151 51.0964 41.151 60.6117 16.1734 60.6117C-8.80413 60.6117 -8.80413 51.0964 -33.7817 51.0964C-58.7592 51.0964 -58.7592 60.6117 -83.7368 60.6117C-108.714 60.6117 -108.714 51.0964 -133.692 51.0964" stroke="white" stroke-miterlimit="10"/>
<path d="M315.856 50.5255C290.879 50.5255 290.879 41.0103 265.901 41.0103C240.924 41.0103 240.924 50.5255 215.994 50.5255C191.016 50.5255 191.016 41.0103 166.039 41.0103C141.061 41.0103 141.061 50.5255 116.084 50.5255C91.1061 50.5255 91.1061 41.0103 66.1285 41.0103C41.151 41.0103 41.151 50.5255 16.1734 50.5255C-8.80413 50.5255 -8.80413 41.0103 -33.7817 41.0103C-58.7592 41.0103 -58.7592 50.5255 -83.7368 50.5255C-108.714 50.5255 -108.714 41.0103 -133.692 41.0103" stroke="white" stroke-miterlimit="10"/>
<path d="M315.856 40.4396C290.879 40.4396 290.879 30.9243 265.901 30.9243C240.924 30.9243 240.924 40.4396 215.994 40.4396C191.016 40.4396 191.016 30.9243 166.039 30.9243C141.061 30.9243 141.061 40.4396 116.084 40.4396C91.1061 40.4396 91.1061 30.9243 66.1285 30.9243C41.151 30.9243 41.151 40.4396 16.1734 40.4396C-8.80413 40.4396 -8.80413 30.9243 -33.7817 30.9243C-58.7592 30.9243 -58.7592 40.4396 -83.7368 40.4396C-108.714 40.4396 -108.714 30.9243 -133.692 30.9243" stroke="white" stroke-miterlimit="10"/>
<path d="M315.858 30.3529C290.88 30.3529 290.88 20.8376 265.903 20.8376C240.925 20.8376 240.925 30.3529 215.995 30.3529C191.018 30.3529 191.018 20.8376 166.04 20.8376C141.062 20.8376 141.062 30.3529 116.085 30.3529C91.1074 30.3529 91.1074 20.8376 66.1298 20.8376C41.1523 20.8376 41.1523 30.3529 16.1747 30.3529C-8.80282 30.3529 -8.80283 20.8376 -33.7804 20.8376C-58.7579 20.8376 -58.7579 30.3529 -83.7355 30.3529C-108.713 30.3529 -108.57 20.8376 -133.548 20.8376" stroke="white" stroke-miterlimit="10"/>
<path d="M315.856 20.2667C290.879 20.2667 290.879 10.7515 265.901 10.7515C240.924 10.7515 240.924 20.2667 215.994 20.2667C191.016 20.2667 191.016 10.7515 166.039 10.7515C141.061 10.7515 141.061 20.2667 116.084 20.2667C91.1061 20.2667 91.1061 10.7515 66.1285 10.7515C41.151 10.7515 41.151 20.2667 16.1734 20.2667C-8.80413 20.2667 -8.80413 10.7515 -33.7817 10.7515C-58.7592 10.7515 -58.7592 20.2667 -83.7368 20.2667C-108.714 20.2667 -108.714 10.7515 -133.692 10.7515" stroke="white" stroke-miterlimit="10"/>
<path d="M315.856 10.2284C290.879 10.2284 290.879 0.713135 265.901 0.713135C240.924 0.713135 240.924 10.2284 215.994 10.2284C191.016 10.2284 191.016 0.713135 166.039 0.713135C141.061 0.713135 141.061 10.2284 116.084 10.2284C91.1061 10.2284 91.1061 0.713135 66.1285 0.713135C41.151 0.713135 41.151 10.2284 16.1734 10.2284C-8.80413 10.2284 -8.80413 0.713135 -33.7817 0.713135C-58.7592 0.713135 -58.7592 10.2284 -83.7368 10.2284C-108.714 10.2284 -108.714 0.713135 -133.692 0.713135" stroke="white" stroke-miterlimit="10"/>
<path d="M315.856 0.142211C290.879 0.142211 290.879 -9.37305 265.901 -9.37305C240.924 -9.37305 240.924 0.142211 215.994 0.142211C191.016 0.142211 191.016 -9.37305 166.039 -9.37305C141.061 -9.37305 141.061 0.142211 116.084 0.142211C91.1061 0.142211 91.1061 -9.37305 66.1285 -9.37305C41.151 -9.37305 41.151 0.142211 16.1734 0.142211C-8.80413 0.142211 -8.80413 -9.37305 -33.7817 -9.37305C-58.7592 -9.37305 -58.7592 0.142211 -83.7368 0.142211C-108.714 0.142211 -108.714 -9.37305 -133.692 -9.37305" stroke="white" stroke-miterlimit="10"/>
</g>
</svg>
