<svg width="672" height="202" viewBox="0 0 672 202" fill="none" xmlns="http://www.w3.org/2000/svg">
<path d="M2 2C169.021 2 169.021 200.033 335.959 200.033C502.897 200.033 502.979 2 670 2" stroke="#EE907B" stroke-width="2.1969" stroke-miterlimit="10" stroke-linecap="round"/>
<path d="M212.735 149.226V103.862" stroke="#EE907B" stroke-width="2.1969" stroke-miterlimit="10" stroke-linecap="round"/>
<path d="M247.954 175.372V103.862" stroke="#EE907B" stroke-width="2.1969" stroke-miterlimit="10" stroke-linecap="round"/>
<path d="M283.172 191.125V103.862" stroke="#EE907B" stroke-width="2.1969" stroke-miterlimit="10" stroke-linecap="round"/>
<path d="M318.391 198.466V103.862" stroke="#EE907B" stroke-width="2.1969" stroke-miterlimit="10" stroke-linecap="round"/>
<path d="M353.609 198.466V103.862" stroke="#EE907B" stroke-width="2.1969" stroke-miterlimit="10" stroke-linecap="round"/>
<path d="M388.746 192.032V103.862" stroke="#EE907B" stroke-width="2.1969" stroke-miterlimit="10" stroke-linecap="round"/>
<path d="M423.964 176.444V103.862" stroke="#EE907B" stroke-width="2.1969" stroke-miterlimit="10" stroke-linecap="round"/>
<path d="M459.183 148.566V103.862" stroke="#EE907B" stroke-width="2.1969" stroke-miterlimit="10" stroke-linecap="round"/>
<path d="M123.41 51.7351V97.3462" stroke="#EE907B" stroke-width="2.1969" stroke-miterlimit="10" stroke-linecap="round"/>
<path d="M88.1904 25.8365V97.3461" stroke="#EE907B" stroke-width="2.1969" stroke-miterlimit="10" stroke-linecap="round"/>
<path d="M52.9722 10.083V97.3461" stroke="#EE907B" stroke-width="2.1969" stroke-miterlimit="10" stroke-linecap="round"/>
<path d="M17.7534 2.74231V97.3461" stroke="#EE907B" stroke-width="2.1969" stroke-miterlimit="10" stroke-linecap="round"/>
<path d="M655.649 2.74231V97.3461" stroke="#EE907B" stroke-width="2.1969" stroke-miterlimit="10" stroke-linecap="round"/>
<path d="M620.43 8.68091V97.3462" stroke="#EE907B" stroke-width="2.1969" stroke-miterlimit="10" stroke-linecap="round"/>
<path d="M585.211 24.8468V97.3461" stroke="#EE907B" stroke-width="2.1969" stroke-miterlimit="10" stroke-linecap="round"/>
<path d="M549.993 49.838V97.3461" stroke="#EE907B" stroke-width="2.1969" stroke-miterlimit="10" stroke-linecap="round"/>
</svg>
